<?xml version="1.0" encoding="utf-8"?>
<!-- Generator: Adobe Illustrator 16.0.0, SVG Export Plug-In . SVG Version: 6.00 Build 0)  -->
<!DOCTYPE svg PUBLIC "-//W3C//DTD SVG 1.1//EN" "http://www.w3.org/Graphics/SVG/1.1/DTD/svg11.dtd">
<svg version="1.1" id="Layer_1" xmlns="http://www.w3.org/2000/svg" xmlns:xlink="http://www.w3.org/1999/xlink" x="0px" y="0px"
	 width="194.865px" height="64.9px" viewBox="0 0 194.865 64.9" enable-background="new 0 0 194.865 64.9" xml:space="preserve">
<g>
	<path fill="#652D90" d="M50.75,30.788c-1.047-1.349-2.013-2.752-2.912-4.2c-0.853-1.37-1.533-2.785-1.581-4.466
		c-0.026-0.92-0.26-1.842-0.588-2.725c-0.605-1.632-1.405-3.17-2.261-4.677c-1.363-2.405-3.175-4.43-5.367-6.109
		c-1.491-1.143-3.111-2.06-4.859-2.758c-1.717-0.685-3.498-1.124-5.325-1.328c-1.696-0.19-3.396-0.153-5.098,0.111
		C21.257,4.869,19.8,5.22,18.38,5.75c-2.68,1-5.04,2.52-7.072,4.514c-2.353,2.308-4.076,5.027-5.108,8.18
		c-0.59,1.801-0.98,3.632-1.019,5.525c-0.029,1.436-0.04,2.87,0.236,4.299c0.194,1.006,0.4,2.009,0.713,2.979
		c0.839,2.599,2.195,4.918,3.935,7.016c0.108,0.13,0.201,0.299,0.422,0.326c0.061-0.15-0.006-0.237-0.053-0.327
		c-0.706-1.363-1.182-2.809-1.549-4.294c-0.428-1.732-0.676-3.49-0.716-5.271c-0.022-1.021-0.005-2.04,0.113-3.065
		c0.137-1.194,0.298-2.376,0.57-3.545c0.475-2.034,1.205-3.964,2.243-5.781c1.548-2.708,3.694-4.803,6.425-6.299
		c1.429-0.784,2.917-1.324,4.455-1.658c0.781-0.15,6.622-1.113,12.842,2.276c0.761,0.49,1.482,1.045,2.163,1.662
		c3.372,3.052,5.188,6.906,5.603,11.412c0.149,1.628-0.031,3.251-0.384,4.857c-0.517,2.353-1.481,4.495-2.905,6.431
		c-1.361,1.851-3.037,3.356-5.01,4.534c-0.882,0.526-1.848,0.878-2.753,1.351c-2.093,1.091-3.867,2.583-5.308,4.456
		c-1.962,2.551-3,5.441-3.006,8.658c-0.003,1.514,0.292,3.004,0.805,4.44c0.35,0.979,0.829,1.898,1.325,2.81
		c0.055,0.102,0.113,0.243,0.244,0.224c0.147-0.021,0.117-0.187,0.141-0.296c0.1-0.447,0.13-0.905,0.215-1.357
		c0.284-1.51,0.729-2.958,1.4-4.342c1.452-2.991,3.774-5.006,6.854-6.193c1.433-0.553,2.921-0.869,4.438-1.056
		c1.147-0.142,2.302-0.178,3.457-0.226c1.33-0.054,2.637,0.307,3.985,0.06c2.033-0.373,2.574-1.609,2-3.385
		c-0.158-0.49-0.35-0.966-0.48-1.47c-0.202-0.772-0.031-1.387,0.54-1.927c0.417-0.395,0.504-0.91,0.266-1.428
		c-0.124-0.269-0.276-0.52-0.494-0.733c-0.387-0.377-0.365-0.475,0.067-0.772c0.231-0.16,0.485-0.313,0.66-0.524
		c0.672-0.813,0.763-1.131,0.149-1.851c-0.398-0.468-0.355-0.841,0.062-1.3c0.481-0.529,1.07-0.937,1.606-1.402
		C51.397,32.442,51.5,31.756,50.75,30.788"/>
	<path fill="#231F20" d="M16.907,43.047c0.016-0.027,0.032-0.054,0.048-0.081c-0.011-0.022-0.022-0.045-0.033-0.066
		C16.921,42.949,16.916,42.998,16.907,43.047"/>
	<path fill="#652D90" d="M21.258,53.218c-0.575,0.187-0.856-0.062-0.942-0.61c-0.771-4.972-0.563-9.781,2.289-14.172
		c1.266-1.949,3.025-3.329,4.998-4.481c0.346-0.201,0.613-0.084,0.85,0.171c0.325,0.35,0.646,0.703,0.958,1.066
		c1.116,1.306,1.077,1.251-0.326,2.188c-3.405,2.272-6.058,5.154-7.111,9.243c-0.466,1.811-0.556,3.646-0.201,5.49
		C21.872,52.626,21.923,53.087,21.258,53.218"/>
	<path fill="#26A9E0" d="M38.37,34.296c-0.616-0.063-1.408-0.122-2.192-0.232c-0.633-0.089-1.106,0.095-1.508,0.597
		c-0.456,0.571-0.957,1.108-1.452,1.648c-0.413,0.45-0.851,0.489-0.856-0.223c-0.02-2.413-1.207-3.781-3.529-4.299
		c-0.598-0.133-0.596-0.524-0.058-0.837c0.659-0.384,1.304-0.807,1.997-1.116c0.55-0.245,0.764-0.587,0.782-1.167
		c0.021-0.697,0.127-1.391,0.184-2.087c0.026-0.323,0.028-0.705,0.323-0.854c0.3-0.153,0.497,0.21,0.702,0.379
		c0.516,0.423,1.04,0.847,1.479,1.344c0.476,0.536,0.992,0.607,1.629,0.417c0.672-0.2,1.352-0.374,2.032-0.54
		c0.237-0.058,0.518-0.162,0.704,0.1c0.156,0.218,0.031,0.438-0.095,0.619c-1.346,1.923-1.196,3.753,0.32,5.51
		C39.191,33.966,39.139,34.236,38.37,34.296"/>
	<path fill="#652D90" d="M17.351,44.742c-0.139,0.173-0.212,0.302-0.32,0.389c-0.129,0.104-0.295,0.149-0.455,0.05
		c-0.159-0.099-0.098-0.238-0.063-0.38c0.302-1.203,0.553-2.413,0.539-3.665c-0.028-2.488-0.799-4.702-2.448-6.581
		c-0.78-0.89-0.796-0.877,0.334-1.159c0.257-0.064,0.515-0.123,0.771-0.187c0.398-0.1,0.685,0.043,0.973,0.336
		c2.406,2.441,2.464,5.316,1.643,8.397C18.064,42.931,17.561,43.818,17.351,44.742"/>
	<path fill="#652D90" d="M27.961,15.787c0.764,0.538,1.376,0.18,1.975-0.434c0.359-0.369,0.41-0.328,0.494,0.17
		c0.025,0.151,0.063,0.313,0.035,0.459c-0.117,0.626,0.192,0.979,0.723,1.221c0.248,0.114,0.61,0.238,0.609,0.5
		c0,0.28-0.403,0.326-0.632,0.354c-0.943,0.114-0.903,0.944-1.144,1.542c-0.15,0.373-0.228,0.435-0.476,0.105
		c-0.13-0.173-0.31-0.314-0.414-0.499c-0.26-0.464-0.646-0.49-1.11-0.414c-0.291,0.047-0.685,0.219-0.864-0.057
		c-0.148-0.229,0.158-0.527,0.33-0.708c0.55-0.579,0.317-1.13,0.034-1.702c-0.082-0.165-0.216-0.361-0.107-0.519
		C27.524,15.648,27.728,15.82,27.961,15.787"/>
	<path fill="#26A9E0" d="M12.554,44.4c0.764,0.538,1.376,0.18,1.975-0.434c0.36-0.368,0.41-0.327,0.494,0.171
		c0.025,0.151,0.063,0.313,0.036,0.459c-0.117,0.626,0.192,0.979,0.722,1.221c0.249,0.113,0.611,0.238,0.61,0.5
		c-0.001,0.28-0.404,0.326-0.632,0.354c-0.944,0.114-0.904,0.944-1.144,1.542c-0.15,0.373-0.227,0.435-0.475,0.105
		c-0.13-0.173-0.31-0.313-0.414-0.499c-0.26-0.465-0.647-0.49-1.11-0.414c-0.291,0.048-0.686,0.219-0.865-0.057
		c-0.148-0.229,0.159-0.527,0.33-0.708c0.55-0.579,0.317-1.13,0.034-1.701c-0.082-0.165-0.217-0.361-0.107-0.519
		C12.118,44.261,12.322,44.433,12.554,44.4"/>
	<path fill="#26A9E0" d="M12.297,32.543c-0.081-0.082-0.098-0.095-0.108-0.112c-0.532-0.859-1.279-1.085-2.234-0.809
		c-0.31,0.09-0.415-0.084-0.261-0.378c0.019-0.036,0.034-0.076,0.06-0.106c0.589-0.697,0.615-1.411,0.083-2.156
		c-0.086-0.121-0.22-0.284-0.088-0.443c0.119-0.144,0.305-0.113,0.457-0.05c0.764,0.318,1.364,0.203,1.935-0.472
		c0.447-0.528,0.679-0.44,0.686,0.224c0.009,0.846,0.416,1.305,1.133,1.607c0.16,0.067,0.371,0.146,0.367,0.365
		c-0.003,0.202-0.208,0.238-0.354,0.279c-0.861,0.243-1.267,0.802-1.267,1.696C12.703,32.45,12.609,32.745,12.297,32.543"/>
	<path fill="#652D90" d="M20.102,29.057c0.118,0.009,0.142,0.115,0.177,0.193c0.165,0.379,0.442,0.579,0.86,0.596
		c0.131,0.006,0.303,0.009,0.341,0.183c0.031,0.138-0.079,0.231-0.178,0.305c-0.339,0.251-0.353,0.59-0.281,0.961
		c0.022,0.113,0.127,0.241,0.004,0.347c-0.121,0.103-0.255,0.014-0.34-0.055c-0.378-0.307-0.718-0.229-1.081,0.035
		c-0.241,0.175-0.412,0.072-0.343-0.218c0.11-0.463,0.004-0.809-0.385-1.092c-0.174-0.127-0.183-0.326,0.081-0.353
		c0.506-0.05,0.838-0.276,0.969-0.779C19.945,29.106,20.01,29.052,20.102,29.057"/>
	<path fill="#26A9E0" d="M23.693,24.562c0.138,0.031,0.19,0.135,0.221,0.234c0.12,0.377,0.372,0.538,0.763,0.531
		c0.146-0.002,0.339,0,0.401,0.172c0.065,0.181-0.102,0.276-0.22,0.368c-0.294,0.231-0.307,0.52-0.246,0.863
		c0.083,0.462-0.001,0.53-0.407,0.323c-0.333-0.171-0.621-0.22-0.924,0.042c-0.089,0.077-0.218,0.152-0.339,0.066
		c-0.104-0.074-0.065-0.206-0.037-0.302c0.118-0.393,0.01-0.69-0.333-0.917c-0.111-0.073-0.255-0.179-0.227-0.324
		c0.031-0.16,0.211-0.165,0.346-0.175c0.385-0.031,0.601-0.255,0.755-0.588C23.497,24.747,23.525,24.573,23.693,24.562"/>
	<path fill="#652D90" d="M24.028,19.918c0.138,0.031,0.19,0.135,0.222,0.234c0.12,0.377,0.371,0.538,0.763,0.531
		c0.146-0.002,0.339,0,0.401,0.172c0.065,0.181-0.102,0.276-0.219,0.368c-0.294,0.231-0.308,0.52-0.246,0.863
		c0.083,0.462-0.002,0.529-0.407,0.322c-0.333-0.17-0.622-0.22-0.924,0.042c-0.089,0.077-0.218,0.152-0.339,0.065
		c-0.104-0.074-0.065-0.205-0.036-0.301c0.117-0.394,0.01-0.69-0.334-0.917c-0.111-0.074-0.255-0.179-0.227-0.324
		c0.031-0.16,0.211-0.165,0.346-0.175c0.386-0.032,0.601-0.255,0.755-0.589C23.832,20.102,23.86,19.929,24.028,19.918"/>
	<path fill="#26A9E0" d="M16.197,21.221c-0.112-0.045-0.165-0.052-0.196-0.082c-0.349-0.322-0.699-0.224-1.049-0.006
		c-0.09,0.057-0.181,0.152-0.291,0.073c-0.104-0.076-0.068-0.207-0.037-0.3c0.152-0.445-0.061-0.735-0.381-1
		c-0.242-0.2-0.306-0.388,0.11-0.417c0.433-0.03,0.692-0.274,0.858-0.649c0.127-0.29,0.268-0.344,0.413-0.014
		c0.166,0.376,0.447,0.544,0.859,0.588c0.392,0.042,0.442,0.196,0.146,0.457c-0.301,0.266-0.423,0.53-0.282,0.925
		C16.402,20.949,16.451,21.201,16.197,21.221"/>
	<path fill="#652D90" d="M19.12,27.335c-0.712-0.504-1.501-0.526-2.333,0.108c-0.381,0.29-0.794,0.142-0.647-0.43
		c0.266-1.037-0.058-1.768-0.91-2.38c-0.423-0.304-0.595-0.841,0.176-0.871c1.09-0.042,1.659-0.623,2.051-1.528
		c0.232-0.538,0.534-0.802,0.836-0.063c0.418,1.021,1.078,1.596,2.248,1.552c0.517-0.019,0.585,0.352,0.204,0.653
		c-0.808,0.639-1.09,1.383-0.793,2.402C20.098,27.281,19.803,27.559,19.12,27.335"/>
	<path fill="#652D90" d="M18.798,54.469c-0.096,0.201-0.126,0.27-0.161,0.337c-0.14,0.273-0.336,0.495-0.665,0.355
		c-0.349-0.148-0.281-0.449-0.16-0.723c0.191-0.431,0.351-0.86,0.407-1.34c0.143-1.21-0.002-2.354-0.594-3.436
		c-0.26-0.476-0.601-0.857-1.054-1.147c-0.281-0.18-0.59-0.411-0.352-0.759c0.252-0.368,0.607-0.174,0.891,0.035
		c1.266,0.937,1.804,2.26,2.004,3.769C19.254,52.612,19.055,53.613,18.798,54.469"/>
	<path fill="#652D90" d="M10.53,23.773c0.37-0.762,1.242-1.066,1.98-0.691c0.711,0.361,0.987,1.224,0.63,1.968
		c-0.366,0.762-1.219,1.045-1.988,0.66C10.392,25.329,10.146,24.564,10.53,23.773 M12.063,23.857
		c-0.351-0.178-0.607,0.003-0.799,0.256c-0.167,0.221,0.035,0.808,0.295,0.897c0.36,0.123,0.663-0.014,0.813-0.347
		C12.525,24.325,12.435,24.022,12.063,23.857"/>
	<path fill="#652D90" d="M25.271,29.452c0.37-0.761,1.243-1.066,1.98-0.691c0.711,0.361,0.987,1.224,0.63,1.968
		c-0.366,0.762-1.219,1.045-1.988,0.66C25.133,31.009,24.887,30.244,25.271,29.452 M26.804,29.537
		c-0.351-0.178-0.607,0.003-0.799,0.256c-0.167,0.22,0.035,0.808,0.296,0.897c0.359,0.123,0.663-0.015,0.813-0.347
		C27.266,30.006,27.177,29.702,26.804,29.537"/>
	<path fill="#26A9E0" d="M21.049,14.48c0.37-0.762,1.242-1.066,1.98-0.691c0.711,0.361,0.987,1.224,0.63,1.968
		c-0.366,0.762-1.219,1.045-1.988,0.66C20.91,16.036,20.664,15.271,21.049,14.48 M22.581,14.565
		c-0.35-0.178-0.607,0.003-0.798,0.256c-0.167,0.221,0.035,0.808,0.295,0.897c0.36,0.123,0.663-0.014,0.813-0.347
		C23.043,15.033,22.953,14.73,22.581,14.565"/>
	<path fill="#26A9E0" d="M22.962,34.859c-0.327,0-0.592-0.266-0.592-0.592s0.265-0.592,0.592-0.592c0.326,0,0.592,0.266,0.592,0.592
		S23.288,34.859,22.962,34.859z M22.962,33.769c-0.275,0-0.499,0.224-0.499,0.498c0,0.275,0.224,0.499,0.499,0.499
		c0.275,0,0.499-0.224,0.499-0.499C23.46,33.992,23.237,33.769,22.962,33.769z"/>
	<path fill="#26A9E0" d="M29.458,24.378c-0.326,0-0.592-0.265-0.592-0.592c0-0.326,0.266-0.592,0.592-0.592s0.592,0.266,0.592,0.592
		C30.05,24.113,29.784,24.378,29.458,24.378z M29.458,23.287c-0.275,0-0.499,0.224-0.499,0.499c0,0.275,0.224,0.499,0.499,0.499
		c0.274,0,0.499-0.224,0.499-0.499C29.957,23.511,29.732,23.287,29.458,23.287z"/>
	<path fill="#652D90" d="M16.494,30.673c-0.326,0-0.592-0.266-0.592-0.592c0-0.327,0.266-0.592,0.592-0.592
		c0.327,0,0.592,0.266,0.592,0.592C17.086,30.407,16.821,30.673,16.494,30.673z M16.494,29.582c-0.275,0-0.499,0.224-0.499,0.499
		c0,0.275,0.224,0.499,0.499,0.499s0.499-0.224,0.499-0.499C16.993,29.806,16.769,29.582,16.494,29.582z"/>
	<path fill="#652D90" d="M10.351,27.153c-0.326,0-0.592-0.266-0.592-0.592c0-0.326,0.266-0.592,0.592-0.592
		c0.327,0,0.592,0.266,0.592,0.592C10.943,26.887,10.677,27.153,10.351,27.153z M10.351,26.062c-0.275,0-0.499,0.224-0.499,0.499
		s0.224,0.499,0.499,0.499c0.275,0,0.499-0.224,0.499-0.499S10.626,26.062,10.351,26.062z"/>
	<path fill="#652D90" d="M20.118,19.738c-0.326,0-0.592-0.265-0.592-0.592c0-0.326,0.266-0.592,0.592-0.592
		c0.327,0,0.592,0.266,0.592,0.592C20.711,19.472,20.445,19.738,20.118,19.738z M20.118,18.647c-0.275,0-0.499,0.224-0.499,0.499
		s0.224,0.499,0.499,0.499c0.275,0,0.499-0.224,0.499-0.499S20.394,18.647,20.118,18.647z"/>
	<path fill="#652D90" d="M20.752,56.791c-0.091-0.011-0.153-0.063-0.182-0.142c-0.136-0.374-0.39-0.617-0.757-0.777
		c-0.243-0.105-0.229-0.247,0-0.395c0.013-0.009,0.026-0.02,0.042-0.024c0.341-0.11,0.569-0.336,0.69-0.674
		c0.036-0.1,0.085-0.2,0.214-0.191c0.118,0.009,0.188,0.101,0.22,0.199c0.114,0.345,0.354,0.541,0.683,0.68
		c0.279,0.118,0.284,0.315,0.006,0.433c-0.355,0.15-0.599,0.375-0.721,0.739C20.92,56.722,20.851,56.786,20.752,56.791
		 M21.225,55.715c-0.051-0.06-0.063-0.086-0.082-0.094c-0.164-0.069-0.266-0.191-0.337-0.351c-0.024-0.055-0.084-0.052-0.108,0.008
		c-0.07,0.171-0.284,0.248-0.334,0.379c-0.064,0.167,0.267,0.175,0.301,0.362c0.004,0.022,0.021,0.043,0.037,0.062
		c0.049,0.06,0.109,0.053,0.129-0.013c0.05-0.159,0.166-0.248,0.303-0.319C21.162,55.734,21.196,55.726,21.225,55.715"/>
</g>
<g>
	<polygon fill="#404041" points="68.238,30.236 62.48,16.842 61.998,15.561 62.087,20.153 62.087,31.389 60.031,31.389 
		60.031,12.631 62.873,12.631 69.405,27.573 75.874,12.631 78.638,12.631 78.638,31.389 76.507,31.389 76.507,20.101 76.596,15.612 
		76.127,16.892 70.381,30.236 	"/>
	<path fill="#404041" d="M91.297,31.39c-0.128-0.541-0.25-1.125-0.369-1.75c-0.769,0.769-1.492,1.302-2.168,1.597
		c-0.677,0.296-1.471,0.444-2.384,0.444c-1.302,0-2.349-0.34-3.139-1.021c-0.791-0.681-1.186-1.659-1.186-2.936
		c0-1.42,0.54-2.474,1.617-3.158c1.079-0.685,2.632-1.111,4.662-1.281c0.279-0.026,0.7-0.062,1.262-0.108
		c0.562-0.046,0.982-0.083,1.262-0.107v-1.23c0-0.981-0.228-1.709-0.685-2.182c-0.457-0.473-1.176-0.709-2.156-0.709
		c-1.37,0-2.752,0.338-4.148,1.014c-0.042-0.102-0.152-0.395-0.33-0.882c-0.177-0.485-0.271-0.737-0.279-0.754
		c0.617-0.346,1.351-0.624,2.201-0.831c0.849-0.207,1.714-0.311,2.594-0.311c1.733,0,2.982,0.378,3.748,1.135
		c0.765,0.757,1.148,2.044,1.148,3.863v9.208H91.297z M86.692,29.969c1.007,0,1.892-0.277,2.657-0.832
		c0.765-0.553,1.258-1.299,1.478-2.238v-2.347c-0.042,0-0.298,0.021-0.767,0.064c-0.469,0.042-0.776,0.068-0.92,0.075
		c-1.834,0.162-3.113,0.462-3.837,0.901c-0.722,0.44-1.084,1.146-1.084,2.119c0,0.744,0.22,1.306,0.66,1.687
		C85.318,29.779,85.923,29.969,86.692,29.969"/>
	<path fill="#404041" d="M98.741,37.756l-0.19-1.916h2.587c0.719,0,1.345-0.049,1.877-0.15c0.533-0.102,0.977-0.27,1.332-0.501
		c0.355-0.232,0.643-0.492,0.863-0.773c0.219-0.285,0.386-0.652,0.5-1.104c0.115-0.452,0.19-0.901,0.229-1.344
		c0.038-0.444,0.057-0.987,0.057-1.629v-1.23c-0.507,0.726-1.095,1.287-1.764,1.679c-0.667,0.395-1.518,0.591-2.548,0.591
		c-0.796,0-1.528-0.137-2.2-0.412c-0.673-0.275-1.24-0.642-1.7-1.098c-0.461-0.456-0.854-0.985-1.18-1.585
		c-0.325-0.6-0.563-1.221-0.71-1.864c-0.147-0.643-0.222-1.29-0.222-1.941c0-1.015,0.125-1.953,0.375-2.815
		c0.249-0.862,0.619-1.632,1.11-2.309c0.49-0.677,1.135-1.207,1.933-1.592c0.8-0.385,1.715-0.577,2.746-0.577
		c0.914,0,1.711,0.175,2.391,0.527c0.681,0.35,1.292,0.889,1.833,1.616v-1.852h2.068v12.912c0,0.591-0.015,1.11-0.045,1.552
		c-0.029,0.446-0.102,0.938-0.216,1.478c-0.113,0.541-0.268,1.007-0.463,1.395c-0.194,0.39-0.468,0.782-0.817,1.175
		c-0.352,0.393-0.771,0.71-1.257,0.95c-0.486,0.241-1.088,0.438-1.807,0.591c-0.719,0.152-1.531,0.228-2.435,0.228H98.741z
		 M102.001,29.576c0.719,0,1.35-0.126,1.891-0.381c0.541-0.253,0.964-0.604,1.269-1.052c0.304-0.449,0.531-0.948,0.678-1.497
		c0.148-0.55,0.222-1.15,0.222-1.802v-1.026c0-0.677-0.075-1.301-0.228-1.872c-0.152-0.57-0.387-1.082-0.705-1.535
		c-0.316-0.451-0.738-0.806-1.268-1.059c-0.528-0.253-1.145-0.381-1.846-0.381c-0.583,0-1.114,0.111-1.592,0.331
		c-0.478,0.22-0.871,0.509-1.179,0.868c-0.31,0.36-0.571,0.779-0.787,1.256c-0.216,0.478-0.371,0.962-0.463,1.452
		c-0.093,0.491-0.139,0.986-0.139,1.484c0,0.491,0.051,0.977,0.152,1.458c0.102,0.482,0.262,0.951,0.482,1.409
		c0.22,0.456,0.487,0.855,0.799,1.197c0.313,0.343,0.704,0.62,1.173,0.832C100.929,29.47,101.443,29.576,102.001,29.576"/>
	<rect x="112.021" y="17.476" fill="#404041" width="2.131" height="13.914"/>
	<path fill="#404041" d="M124.019,31.681c-2.046,0-3.646-0.663-4.801-1.991c-1.153-1.328-1.73-3.065-1.73-5.213
		c0.008-2.166,0.598-3.922,1.769-5.27c1.172-1.349,2.775-2.023,4.813-2.023c0.719,0,1.414,0.089,2.087,0.267
		c0.673,0.177,1.202,0.41,1.591,0.697l-0.583,1.649c-0.989-0.533-2.033-0.799-3.132-0.799c-1.346,0-2.408,0.49-3.19,1.471
		c-0.782,0.981-1.173,2.322-1.173,4.021c0,1.658,0.387,2.97,1.16,3.938c0.773,0.968,1.846,1.452,3.216,1.452
		c1.09,0,2.206-0.295,3.348-0.887l0.267,1.687C126.738,31.348,125.523,31.681,124.019,31.681"/>
	<path fill="#404041" d="M148.08,31.39v-7.243c0-0.676-0.015-1.243-0.044-1.699c-0.03-0.456-0.098-0.921-0.203-1.396
		c-0.105-0.473-0.254-0.847-0.444-1.123c-0.19-0.274-0.454-0.498-0.793-0.672c-0.338-0.174-0.744-0.26-1.217-0.26
		c-0.931,0-1.723,0.25-2.379,0.748c-0.654,0.499-1.122,1.201-1.401,2.105c-0.076,0.609-0.113,1.261-0.113,1.954v7.585h-2.119v-7.47
		c0-0.627-0.021-1.17-0.063-1.63c-0.042-0.461-0.122-0.909-0.24-1.344c-0.118-0.437-0.277-0.789-0.476-1.06
		c-0.199-0.271-0.463-0.486-0.794-0.647c-0.328-0.16-0.722-0.24-1.179-0.24c-1.015,0-1.866,0.257-2.556,0.773
		s-1.152,1.2-1.389,2.055c-0.075,0.651-0.114,1.357-0.114,2.118v7.446h-2.118c-0.017-8.701-0.026-13.339-0.026-13.914h1.776
		l0.266,1.992c0.425-0.644,1.023-1.184,1.802-1.624c0.778-0.439,1.662-0.659,2.651-0.659c0.516,0,0.992,0.053,1.427,0.158
		c0.435,0.106,0.799,0.239,1.09,0.399c0.293,0.161,0.554,0.353,0.78,0.577c0.229,0.224,0.406,0.444,0.533,0.659
		c0.127,0.216,0.232,0.442,0.318,0.679c1.014-1.649,2.565-2.473,4.654-2.473c1.547,0,2.682,0.442,3.405,1.325
		c0.723,0.884,1.085,2.193,1.085,3.926v8.955H148.08z"/>
	<path fill="#404041" d="M155.398,14.927h-2.131v-2.512h2.131V14.927z M155.398,31.39h-2.131V17.476h2.131V31.39z M114.152,14.927
		h-2.131v-2.512h2.131V14.927z"/>
	<path fill="#404041" d="M159.381,31.39V17.476h1.776l0.267,1.992c0.549-0.685,1.236-1.237,2.06-1.655
		c0.825-0.419,1.715-0.628,2.671-0.628c1.606,0,2.795,0.451,3.564,1.351c0.769,0.9,1.154,2.286,1.154,4.154v8.701h-2.119
		c0-5.581-0.004-8.57-0.013-8.967c-0.033-1.184-0.272-2.05-0.717-2.601c-0.443-0.549-1.186-0.824-2.225-0.824
		c-1.091,0-2,0.262-2.729,0.786c-0.727,0.525-1.2,1.206-1.42,2.042c-0.085,0.566-0.127,1.218-0.127,1.953v7.611H159.381z"/>
	<path fill="#404041" d="M184,29.373c-0.457,0.701-1.065,1.259-1.827,1.674c-0.761,0.414-1.61,0.621-2.549,0.621
		c-1.835,0-3.272-0.653-4.313-1.959c-1.04-1.307-1.56-3.084-1.56-5.333c0-2.147,0.528-3.883,1.585-5.207
		c1.057-1.323,2.474-1.985,4.249-1.985c0.921,0,1.789,0.201,2.605,0.602c0.817,0.402,1.429,0.94,1.833,1.617l-0.038-1.205v-6.126
		l2.094-0.127V31.39h-1.802L184,29.373z M179.827,29.855c1.395,0,2.433-0.448,3.113-1.345c0.681-0.896,1.021-2.178,1.021-3.843
		c0-1.877-0.328-3.292-0.984-4.243c-0.654-0.951-1.714-1.426-3.177-1.426c-0.65,0-1.226,0.139-1.724,0.418
		c-0.5,0.279-0.901,0.668-1.206,1.167c-0.305,0.498-0.534,1.071-0.691,1.718c-0.156,0.647-0.233,1.355-0.233,2.124
		c0,1.083,0.133,2.021,0.399,2.816c0.266,0.794,0.695,1.429,1.287,1.903C178.224,29.618,178.956,29.855,179.827,29.855"/>
	<g>
		<path fill="#652F8E" stroke="#652F8E" stroke-width="0.5382" stroke-miterlimit="10" d="M63.466,41.287h-3.285v-0.621h7.271v0.621
			h-3.285v8.453h-0.701V41.287z"/>
		<path fill="#652F8E" stroke="#652F8E" stroke-width="0.5382" stroke-miterlimit="10" d="M68.298,46.535
			c0-1.923,1.455-3.313,3.26-3.313c1.804,0,3.414,1.104,3.168,3.61h-5.778c0.129,1.505,1.286,2.376,2.61,2.376
			c0.843,0,1.83-0.34,2.311-0.975l0.454,0.365c-0.622,0.817-1.739,1.232-2.765,1.232C69.752,49.831,68.298,48.572,68.298,46.535z
			 M74.154,46.274c-0.014-1.584-1.052-2.467-2.597-2.467c-1.325,0-2.467,0.896-2.61,2.467H74.154z"/>
		<path fill="#652F8E" stroke="#652F8E" stroke-width="0.5382" stroke-miterlimit="10" d="M81.635,48.845
			c-0.648,0.649-1.493,0.961-2.337,0.961c-1.804,0-3.298-1.246-3.298-3.271c0-2.028,1.441-3.272,3.298-3.272
			c0.844,0,1.689,0.322,2.337,0.961l-0.416,0.4c-0.519-0.517-1.233-0.766-1.921-0.766c-1.454,0-2.675,0.949-2.675,2.677
			c0,1.726,1.221,2.673,2.675,2.673c0.688,0,1.39-0.271,1.909-0.792L81.635,48.845z"/>
		<path fill="#652F8E" stroke="#652F8E" stroke-width="0.5382" stroke-miterlimit="10" d="M83.546,40.651v3.87
			c0.52-0.92,1.416-1.271,2.312-1.284c1.792,0,2.687,1.154,2.687,2.831v3.675h-0.624v-3.675c0-1.325-0.623-2.222-2.064-2.222
			c-1.351,0-2.286,1.038-2.286,2.378v3.517h-0.636v-9.09H83.546z"/>
		<path fill="#652F8E" stroke="#652F8E" stroke-width="0.5382" stroke-miterlimit="10" d="M90.833,43.325v1.144
			c0.493-0.884,1.389-1.247,2.285-1.26c1.715,0,2.895,1.052,2.895,2.831v3.7h-0.635v-3.687c0-1.455-0.896-2.233-2.286-2.222
			c-1.325,0.014-2.247,1.013-2.247,2.337v3.571H90.21v-6.415H90.833L90.833,43.325z"/>
		<path fill="#652F8E" stroke="#652F8E" stroke-width="0.5382" stroke-miterlimit="10" d="M97.378,46.547
			c0-2.04,1.456-3.338,3.259-3.338c1.805,0,3.26,1.298,3.26,3.338c0,2.038-1.455,3.284-3.26,3.284
			C98.833,49.831,97.378,48.585,97.378,46.547z M103.273,46.547c0-1.663-1.182-2.74-2.635-2.74c-1.454,0-2.636,1.077-2.636,2.74
			c0,1.662,1.182,2.661,2.636,2.661C102.092,49.208,103.273,48.208,103.273,46.547z"/>
		<path fill="#652F8E" stroke="#652F8E" stroke-width="0.5382" stroke-miterlimit="10" d="M106.003,40.651v9.09h-0.635v-9.09
			H106.003z"/>
		<path fill="#652F8E" stroke="#652F8E" stroke-width="0.5382" stroke-miterlimit="10" d="M107.484,46.547
			c0-2.04,1.455-3.338,3.258-3.338c1.804,0,3.26,1.298,3.26,3.338c0,2.038-1.456,3.284-3.26,3.284
			C108.939,49.831,107.484,48.585,107.484,46.547z M113.378,46.547c0-1.663-1.181-2.74-2.636-2.74c-1.453,0-2.635,1.077-2.635,2.74
			c0,1.662,1.182,2.661,2.635,2.661C112.197,49.208,113.378,48.208,113.378,46.547z"/>
		<path fill="#652F8E" stroke="#652F8E" stroke-width="0.5382" stroke-miterlimit="10" d="M120.627,43.067l0.415,0.363l-0.623,0.728
			c0.454,0.493,0.792,1.144,0.792,2.181c0,1.117-0.662,2.247-1.726,2.727c1.129,0.403,1.751,1.195,1.751,2.298
			c0,1.728-1.35,2.559-3.051,2.559s-3.037-0.936-3.037-2.559h0.636c0,1.313,1.116,1.938,2.401,1.938
			c1.286,0,2.428-0.574,2.428-1.938c0-1.376-1.233-1.921-2.428-1.921c-1.856,0-3.013-1.39-3.013-3.104
			c0-1.998,1.351-3.129,3.013-3.129c0.649,0,1.324,0.234,1.817,0.584L120.627,43.067z M115.809,46.338
			c0,1.325,0.908,2.469,2.376,2.469c1.324,0,2.402-1.144,2.402-2.469c0-1.623-1.078-2.492-2.402-2.492
			C116.874,43.846,115.809,44.665,115.809,46.338z"/>
		<path fill="#652F8E" stroke="#652F8E" stroke-width="0.5382" stroke-miterlimit="10" d="M123.369,41.237
			c0,0.674-1.025,0.674-1.025,0C122.343,40.561,123.369,40.561,123.369,41.237z M122.524,43.302v6.438h0.637v-6.438H122.524z"/>
		<path fill="#652F8E" stroke="#652F8E" stroke-width="0.5382" stroke-miterlimit="10" d="M124.615,46.535
			c0-1.923,1.455-3.313,3.26-3.313c1.804,0,3.414,1.104,3.167,3.61h-5.776c0.129,1.505,1.284,2.376,2.609,2.376
			c0.845,0,1.831-0.34,2.311-0.975l0.456,0.365c-0.626,0.817-1.74,1.232-2.767,1.232C126.07,49.831,124.615,48.572,124.615,46.535z
			 M130.471,46.274c-0.014-1.584-1.052-2.467-2.597-2.467c-1.325,0-2.468,0.896-2.61,2.467H130.471z"/>
		<path fill="#652F8E" stroke="#652F8E" stroke-width="0.5382" stroke-miterlimit="10" d="M137.095,44.496
			c-0.65-0.573-1.286-0.676-2-0.676c-1-0.014-1.96,0.362-1.934,1.182c0.024,0.856,1.141,1.025,1.945,1.167
			c1.145,0.195,2.716,0.392,2.648,1.883c-0.039,1.416-1.504,1.791-2.635,1.791s-2.246-0.427-2.805-1.283l0.468-0.417
			c0.531,0.767,1.493,1.093,2.35,1.093c0.778,0,1.96-0.21,1.999-1.223c0.025-0.92-1.038-1.104-2.09-1.271
			c-1.246-0.206-2.479-0.44-2.492-1.726c-0.016-1.26,1.244-1.805,2.544-1.794c0.936,0,1.754,0.263,2.389,0.858L137.095,44.496z"/>
		<path fill="#652F8E" stroke="#652F8E" stroke-width="0.5382" stroke-miterlimit="10" d="M143.565,40.651v8.428h5.115v0.662h-5.817
			v-9.09H143.565z"/>
		<path fill="#652F8E" stroke="#652F8E" stroke-width="0.5382" stroke-miterlimit="10" d="M150.734,41.237
			c0,0.674-1.024,0.674-1.024,0C149.709,40.561,150.734,40.561,150.734,41.237z M149.891,43.302v6.438h0.634v-6.438H149.891z"/>
		<path fill="#652F8E" stroke="#652F8E" stroke-width="0.5382" stroke-miterlimit="10" d="M161.849,49.74v-3.842
			c0-1.233-0.83-2.104-2.052-2.104c-1.22,0-2.064,0.908-2.064,2.143v3.803h-0.636v-3.803c0-1.234-0.844-2.131-2.064-2.131
			s-2.052,0.896-2.052,2.131v3.803h-0.636v-6.415h0.597l0.015,1.065c0.44-0.844,1.259-1.193,2.089-1.193c0.973,0,2,0.44,2.377,1.583
			c0.39-1.052,1.389-1.583,2.375-1.583c1.571,0,2.689,1.104,2.689,2.701v3.842H161.849L161.849,49.74z"/>
		<path fill="#652F8E" stroke="#652F8E" stroke-width="0.5382" stroke-miterlimit="10" d="M165.125,41.237
			c0,0.674-1.025,0.674-1.025,0C164.098,40.561,165.125,40.561,165.125,41.237z M164.281,43.302v6.438h0.636v-6.438H164.281z"/>
		<path fill="#652F8E" stroke="#652F8E" stroke-width="0.5382" stroke-miterlimit="10" d="M168.203,41.392v1.934h2.182v0.533h-2.182
			v3.909c0,0.87,0.183,1.478,1.183,1.478c0.311,0,0.662-0.103,0.986-0.258l0.221,0.52c-0.403,0.192-0.806,0.322-1.207,0.322
			c-1.363,0-1.805-0.804-1.805-2.063v-3.907h-1.364v-0.533h1.364v-1.871L168.203,41.392z"/>
		<path fill="#652F8E" stroke="#652F8E" stroke-width="0.5382" stroke-miterlimit="10" d="M171.49,46.535
			c0-1.923,1.454-3.313,3.258-3.313c1.805,0,3.416,1.104,3.17,3.61h-5.778c0.13,1.505,1.286,2.376,2.608,2.376
			c0.846,0,1.832-0.34,2.312-0.975l0.455,0.365c-0.622,0.817-1.74,1.232-2.767,1.232C172.944,49.831,171.49,48.572,171.49,46.535z
			 M177.345,46.274c-0.013-1.584-1.051-2.467-2.598-2.467c-1.324,0-2.466,0.896-2.608,2.467H177.345z"/>
		<path fill="#652F8E" stroke="#652F8E" stroke-width="0.5382" stroke-miterlimit="10" d="M185.722,40.651v9.09H185.1v-1.413
			c-0.533,0.973-1.586,1.518-2.675,1.518c-1.793,0-3.208-1.182-3.208-3.31c0-2.117,1.429-3.313,3.221-3.313
			c1.104,0,2.143,0.468,2.662,1.507v-4.078H185.722z M179.842,46.535c0,1.774,1.182,2.687,2.621,2.687
			c1.505,0,2.621-1.104,2.621-2.702c0-1.597-1.141-2.688-2.621-2.688C181.023,43.832,179.842,44.729,179.842,46.535z"/>
	</g>
</g>
</svg>
