<svg xmlns="http://www.w3.org/2000/svg" width="57.029" height="54.181" viewBox="0 0 57.029 54.181">
  <g id="Group_2803" data-name="Group 2803" transform="translate(-1104.375 -409.942)">
    <path id="Subtraction_14" data-name="Subtraction 14" d="M1423.537,6939.074a12.5,12.5,0,0,1-8.5-3.322,12.536,12.536,0,0,0,0-18.43,12.537,12.537,0,1,1,8.5,21.752Z" transform="translate(-283.646 -6503.058)" stroke="#fff" stroke-miterlimit="10" stroke-width="2"/>
    <g id="Group_2802" data-name="Group 2802">
      <path id="Path_114" data-name="Path 114" d="M166.375,278.162V268.121A11.43,11.43,0,0,1,177.8,256.689h18.172A11.43,11.43,0,0,1,207.4,268.121v10.042" transform="translate(953 184.96)" stroke="#fff" stroke-linecap="square" stroke-miterlimit="10" stroke-width="2"/>
      <g id="Group_1902" data-name="Group 1902" transform="translate(1105.375 410.942)">
        <circle id="Ellipse_33" data-name="Ellipse 33" cx="12.537" cy="12.537" r="12.537" transform="translate(7.977)" stroke="#fff" stroke-miterlimit="10" stroke-width="2"/>
        <path id="Path_114-2" data-name="Path 114" d="M166.375,278.162V268.121A11.43,11.43,0,0,1,177.8,256.689h18.172A11.43,11.43,0,0,1,207.4,268.121v10.042" transform="translate(-166.375 -225.981)" stroke="#fff" stroke-linecap="square" stroke-miterlimit="10" stroke-width="2"/>
      </g>
    </g>
  </g>
</svg>
