<svg xmlns="http://www.w3.org/2000/svg" width="47.266" height="61.333" viewBox="0 0 47.266 61.333">
  <g id="Group_9" data-name="Group 9" transform="translate(-188.059 -241.017)">
    <g id="Group_7" data-name="Group 7" transform="translate(189.059 247.441)">
      <rect id="Rectangle_2" data-name="Rectangle 2" width="38.329" height="48.815" rx="1.323" transform="translate(0 5.094)" fill="none" stroke="#fff" stroke-miterlimit="10" stroke-width="2"/>
      <path id="Path_115" data-name="Path 115" d="M209.076,250.364H204.7c.009-.09.015-.184.015-.277a2.646,2.646,0,1,0-5.292,0c0,.093.006.187.015.277h-4.377a2.935,2.935,0,0,0-2.935,2.935v1.725a2.935,2.935,0,0,0,2.935,2.935h14.019a2.934,2.934,0,0,0,2.932-2.935V253.3A2.934,2.934,0,0,0,209.076,250.364Z" transform="translate(-182.901 -252.865)" fill="none" stroke="#fff" stroke-miterlimit="10" stroke-width="2"/>
    </g>
    <g id="Group_8" data-name="Group 8" transform="translate(208.223 262.33)">
      <path id="Path_116" data-name="Path 116" d="M216.885,259.166a8.6,8.6,0,0,0-16.815,0l-4.645,1.475c0,10.521,9.344,20.7,13.052,20.7,3.134,0,13.049-10.656,13.049-20.7Z" transform="translate(-195.425 -252.387)" stroke="#fff" stroke-miterlimit="10" stroke-width="2"/>
      <path id="Path_117" data-name="Path 117" d="M198.657,259.545l2.387,2.85,5.631-6.617" transform="translate(-188.928 -245.571)" fill="none" stroke="#fff" stroke-linecap="round" stroke-miterlimit="10" stroke-width="2"/>
    </g>
  </g>
</svg>
