<svg xmlns="http://www.w3.org/2000/svg" xmlns:xlink="http://www.w3.org/1999/xlink" width="92.966" height="15.965" viewBox="0 0 92.966 15.965"><defs><style>.a{fill:none;}.b{clip-path:url(#a);}.c{fill:#ffd64e;}</style><clipPath id="a"><rect class="a" width="92.966" height="15.965"/></clipPath></defs><g class="b"><g transform="translate(-747.999 -4202)"><path class="c" d="M17.9,8a1.108,1.108,0,0,0-.883-.752l-4.167-.624L10.978,2.64a1.1,1.1,0,0,0-1.992,0L7.138,6.608l-4.195.639A1.109,1.109,0,0,0,2.06,8a1.143,1.143,0,0,0,.265,1.167L5.359,12.27l-.717,4.377A1.131,1.131,0,0,0,5.1,17.763a1.077,1.077,0,0,0,1.152.065l3.7-2.066,3.752,2.066a1.079,1.079,0,0,0,1.152-.065,1.13,1.13,0,0,0,.462-1.117L14.6,12.264l3.035-3.1A1.143,1.143,0,0,0,17.9,8Z" transform="translate(746 4200)"/></g><g transform="translate(-728.999 -4202)"><path class="c" d="M17.9,8a1.108,1.108,0,0,0-.883-.752l-4.167-.624L10.978,2.64a1.1,1.1,0,0,0-1.992,0L7.138,6.608l-4.195.639A1.109,1.109,0,0,0,2.06,8a1.143,1.143,0,0,0,.265,1.167L5.359,12.27l-.717,4.377A1.131,1.131,0,0,0,5.1,17.763a1.077,1.077,0,0,0,1.152.065l3.7-2.066,3.752,2.066a1.079,1.079,0,0,0,1.152-.065,1.13,1.13,0,0,0,.462-1.117L14.6,12.264l3.035-3.1A1.143,1.143,0,0,0,17.9,8Z" transform="translate(746 4200)"/></g><g transform="translate(-709.999 -4202)"><path class="c" d="M17.9,8a1.108,1.108,0,0,0-.883-.752l-4.167-.624L10.978,2.64a1.1,1.1,0,0,0-1.992,0L7.138,6.608l-4.195.639A1.109,1.109,0,0,0,2.06,8a1.143,1.143,0,0,0,.265,1.167L5.359,12.27l-.717,4.377A1.131,1.131,0,0,0,5.1,17.763a1.077,1.077,0,0,0,1.152.065l3.7-2.066,3.752,2.066a1.079,1.079,0,0,0,1.152-.065,1.13,1.13,0,0,0,.462-1.117L14.6,12.264l3.035-3.1A1.143,1.143,0,0,0,17.9,8Z" transform="translate(746 4200)"/></g><g transform="translate(-690.999 -4202)"><path class="c" d="M17.9,8a1.108,1.108,0,0,0-.883-.752l-4.167-.624L10.978,2.64a1.1,1.1,0,0,0-1.992,0L7.138,6.608l-4.195.639A1.109,1.109,0,0,0,2.06,8a1.143,1.143,0,0,0,.265,1.167L5.359,12.27l-.717,4.377A1.131,1.131,0,0,0,5.1,17.763a1.077,1.077,0,0,0,1.152.065l3.7-2.066,3.752,2.066a1.079,1.079,0,0,0,1.152-.065,1.13,1.13,0,0,0,.462-1.117L14.6,12.264l3.035-3.1A1.143,1.143,0,0,0,17.9,8Z" transform="translate(746 4200)"/></g><g transform="translate(-671.999 -4202)"><path class="c" d="M17.9,8a1.108,1.108,0,0,0-.883-.752l-4.167-.624L10.978,2.64a1.1,1.1,0,0,0-1.992,0L7.138,6.608l-4.195.639A1.109,1.109,0,0,0,2.06,8a1.143,1.143,0,0,0,.265,1.167L5.359,12.27l-.717,4.377A1.131,1.131,0,0,0,5.1,17.763a1.077,1.077,0,0,0,1.152.065l3.7-2.066,3.752,2.066a1.079,1.079,0,0,0,1.152-.065,1.13,1.13,0,0,0,.462-1.117L14.6,12.264l3.035-3.1A1.143,1.143,0,0,0,17.9,8Z" transform="translate(746 4200)"/></g></g></svg>