<svg xmlns="http://www.w3.org/2000/svg" xmlns:xlink="http://www.w3.org/1999/xlink" width="120.196" height="120.195" viewBox="0 0 120.196 120.195"><defs><style>.a{fill:none;}.b{opacity:0.45;}.c{clip-path:url(#a);}.d{fill:#fff;}</style><clipPath id="a"><path class="a" d="M78.422,372.995a60.1,60.1,0,1,1,0-84.989A60.1,60.1,0,0,1,78.422,372.995Z"/></clipPath></defs><g class="b" transform="translate(24.171 -270.403)"><g class="c"><rect class="d" width="399.919" height="1.292" transform="translate(-198.466 462.533) rotate(-45)"/><path class="d" d="M-188.414,472.583l-.914-.912L93.457,188.886l.914.912Z"/><rect class="d" width="399.918" height="1.292" transform="translate(-180.191 480.808) rotate(-45)"/><rect class="d" width="399.918" height="1.293" transform="translate(-171.047 489.95) rotate(-45.003)"/><rect class="d" width="399.918" height="1.293" transform="translate(-161.91 499.089) rotate(-45.003)"/><rect class="d" width="399.918" height="1.291" transform="matrix(0.706, -0.708, 0.708, 0.706, -152.624, 508.375)"/><rect class="d" width="399.917" height="1.292" transform="translate(-143.642 517.355) rotate(-45)"/><rect class="d" width="399.919" height="1.296" transform="translate(-134.508 526.491) rotate(-45)"/><rect class="d" width="399.917" height="1.291" transform="matrix(0.706, -0.708, 0.708, 0.706, -125.222, 535.777)"/><rect class="d" width="399.917" height="1.291" transform="matrix(0.706, -0.709, 0.709, 0.706, -115.921, 545.078)"/><path class="d" d="M-106.182,554.817l-.912-.916L175.691,271.119l.912.914Z"/><rect class="d" width="399.917" height="1.291" transform="matrix(0.708, -0.706, 0.706, 0.708, -98.111, 562.886)"/></g></g></svg>