<svg xmlns="http://www.w3.org/2000/svg" width="208.019" height="20.523" viewBox="0 0 208.019 20.523"><defs><style>.a{opacity:0.1;}.b{fill:#fff;}</style></defs><g class="a" transform="translate(-25.89 -101.836)"><path class="b" d="M78.487,112.359l-10.4-8-10.4,8-10.4-8-10.4,8L25.89,103.89l1.22-1.585,9.789,7.531,10.4-8,10.4,8,10.4-8,10.4,8,10.4-8,10.4,8,10.4-8,10.406,8,9.8-7.532,1.219,1.586-11.016,8.468-10.406-8-10.4,8-10.4-8Z"/><path class="b" d="M78.487,122.359l-10.4-8-10.4,8-10.4-8-10.4,8L25.89,113.89l1.22-1.585,9.789,7.531,10.4-8,10.4,8,10.4-8,10.4,8,10.4-8,10.4,8,10.4-8,10.406,8,9.8-7.532,1.219,1.586-11.016,8.468-10.406-8-10.4,8-10.4-8Z"/><g transform="translate(102.8)"><path class="b" d="M78.487,112.359l-10.4-8-10.4,8-10.4-8-10.4,8L25.89,103.89l1.22-1.585,9.789,7.531,10.4-8,10.4,8,10.4-8,10.4,8,10.4-8,10.4,8,10.4-8,10.406,8,9.8-7.532,1.219,1.586-11.016,8.468-10.406-8-10.4,8-10.4-8Z"/></g><g transform="translate(102.8)"><path class="b" d="M78.487,122.359l-10.4-8-10.4,8-10.4-8-10.4,8L25.89,113.89l1.22-1.585,9.789,7.531,10.4-8,10.4,8,10.4-8,10.4,8,10.4-8,10.4,8,10.4-8,10.406,8,9.8-7.532,1.219,1.586-11.016,8.468-10.406-8-10.4,8-10.4-8Z"/></g></g></svg>