<svg xmlns="http://www.w3.org/2000/svg" width="945.523" height="945.265" viewBox="0 0 945.523 945.265"><defs><style>.a{opacity:0.12;}.b,.d,.f{fill:none;stroke:#fff;stroke-width:2px;}.c,.e,.f{mix-blend-mode:overlay;isolation:isolate;}.d,.e,.f{opacity:0.25;}</style></defs><g transform="translate(-286.806 228.399)"><g class="a"><path class="b" d="M576.961,244.5A182.531,182.531,0,1,1,785.469,425.24c-50.7,7.6-103.474-7.8-142.785-40.442-5.111-4.244-12.5,3.059-7.343,7.342a195.537,195.537,0,0,0,151.476,43.313c45.653-6.134,88.172-29.877,118.35-64.493,30.768-35.294,47.415-81.183,47.236-127.924-.178-46.758-18.14-92.113-49.03-127.038-30.688-34.692-73.62-56.68-119.352-62.825-46.688-6.273-95.041,5.742-133.8,32.336-52.1,35.749-83.408,95.941-83.648,158.993-.025,6.7,10.358,6.693,10.384,0Z"/></g><g class="c"><path class="d" d="M967.762,155.512a228.4,228.4,0,0,1,3.571,168.59c-20.22,54.126-61.384,98.783-113.266,124A226.467,226.467,0,0,1,541.2,183.636C556.6,128.236,593.037,80.663,641.916,50.6,696.086,17.278,763.8,9.192,824.542,27.34c7.9,2.359,12.777-9.569,4.81-11.949A242.573,242.573,0,0,0,635.41,39.6C586.288,68.793,549.3,116.563,531.688,170.743c-17.956,55.241-14.647,115.709,8.281,168.97,22.935,53.279,65.485,96.311,117.72,121.155,51.891,24.677,111.582,28.9,166.763,13.679C880.79,459.01,930.135,421.79,961.44,372.6c42.08-66.131,48.551-150.051,18.172-222.13-3.226-7.657-15.076-2.606-11.85,5.047Z"/></g><g class="e"><path class="b" d="M476.115,365.307a310.755,310.755,0,0,1-4.858-229.383C498.768,62.279,554.775,1.52,625.365-32.789c71.337-34.669,154.52-40.038,229.86-15.545a308.1,308.1,0,0,1,201.264,375.376c-20.945,75.376-70.524,140.1-137.029,181.01-73.7,45.335-165.84,56.338-248.481,31.645-10.742-3.209-17.384,13.02-6.544,16.258,88.995,26.589,184.093,14.484,263.876-32.937C995.147,483.3,1045.47,418.3,1069.436,344.583c24.431-75.161,19.928-157.433-11.267-229.9C1026.963,42.192,969.07-16.358,898-50.159c-70.6-33.576-151.818-39.32-226.9-18.612C594.449-47.631,527.311,3.009,484.716,69.945c-57.254,89.977-66.058,204.158-24.725,302.229,4.391,10.418,20.513,3.546,16.124-6.867Z"/></g><path class="f" d="M1205.734,397.356a476.913,476.913,0,0,0,25.408-167.541,462.26,462.26,0,0,0-35.725-165.438,479.579,479.579,0,0,0-91.5-142.32c-46.086-49.676-104.565-89.52-169.112-115.225a485.276,485.276,0,0,0-126.323-31.476A460.58,460.58,0,0,0,637.821-211.2,473,473,0,0,0,483.2-137.835c-61.333,44.263-111.749,104.049-145.8,172.9a478.426,478.426,0,0,0-49.5,220.662,18.3,18.3,0,0,0,11.673,17.207h0a20.914,20.914,0,0,0,19.44-2.11,18.565,18.565,0,0,0,7.891-15.967A436.564,436.564,0,0,1,439.786-47.066a426.269,426.269,0,0,1,130.96-97.67,433.619,433.619,0,0,1,465.882,56.769A429.214,429.214,0,0,1,1139.782,38a431.076,431.076,0,0,1,49.589,155.081c13.24,110.564-17.8,224.8-85.171,313.418A429.484,429.484,0,0,1,983.335,614.747a439.647,439.647,0,0,1-152.073,56.776c-76.885,13.394-157.019,4.747-231.743-25.008a434.476,434.476,0,0,1-108.947-62.841,20.787,20.787,0,0,0-5.2-3.028c-10.536-4.2-20.9,1.638-25.306,9.257-4.639,8.024-2.85,17,4.558,22.856a477.793,477.793,0,0,0,119.721,69.259,480.7,480.7,0,0,0,253.049,27.836c55-8.722,108.053-27.735,157.693-56.513A476.674,476.674,0,0,0,1123.063,545.31,465.514,465.514,0,0,0,1205.734,397.356Z"/></g></svg>