<svg xmlns="http://www.w3.org/2000/svg" width="1026.379" height="543.104" viewBox="0 0 1026.379 543.104"><defs><style>.a{fill:#5870e8;}.a,.c,.d{opacity:0.6;}.b{fill:#cde1f3;}.c{fill:#7b9654;}.d{fill:#fab141;}.e{fill:#bfc3ef;}.f{fill:#cbf1db;}.g{fill:#f3d8de;}</style></defs><g transform="translate(-201 -2355.999)"><path class="a" d="M12840.252,351.252H12759v-.167c0-.056,0-.111,0-.167a81.469,81.469,0,0,1,1.645-16.308,80.538,80.538,0,0,1,12.174-28.934,81.159,81.159,0,0,1,35.6-29.317,80.354,80.354,0,0,1,15.188-4.714,81.536,81.536,0,0,1,16.308-1.644h.333v81.251Z" transform="translate(-11776.127 2123.273)"/><circle class="b" cx="121.5" cy="121.5" r="121.5" transform="translate(201 2556)"/><path class="c" d="M12881,392h-122v-.25c0-.083,0-.167,0-.25a122.343,122.343,0,0,1,2.469-24.487,120.893,120.893,0,0,1,18.28-43.446,121.868,121.868,0,0,1,53.457-44.021,120.693,120.693,0,0,1,22.8-7.078A122.443,122.443,0,0,1,12880.5,270h.5V392Z" transform="translate(1479.003 -10314.5) rotate(90)"/><path class="d" d="M12881,392h-122v-.25c0-.083,0-.167,0-.25a122.343,122.343,0,0,1,2.469-24.487,120.893,120.893,0,0,1,18.28-43.446,121.868,121.868,0,0,1,53.457-44.021,120.693,120.693,0,0,1,22.8-7.078A122.443,122.443,0,0,1,12880.5,270h.5V392Z" transform="translate(835.376 15447.502) rotate(-90)"/><circle class="e" cx="121.5" cy="121.5" r="121.5" transform="translate(966 2611)"/><path class="e" d="M12873.5,527a122.394,122.394,0,0,1-24.486-2.469,120.842,120.842,0,0,1-43.444-18.283,121.861,121.861,0,0,1-44.02-53.457,120.846,120.846,0,0,1-7.079-22.807,122.666,122.666,0,0,1,0-48.972,120.827,120.827,0,0,1,18.281-43.445,121.853,121.853,0,0,1,53.456-44.021,120.871,120.871,0,0,1,22.806-7.08A122.4,122.4,0,0,1,12873.5,284h.5V527h-.5Z" transform="translate(-12508 2089.001)"/><path class="f" d="M12837,348h-78v-.16c0-.053,0-.107,0-.16a78.233,78.233,0,0,1,1.578-15.656,77.309,77.309,0,0,1,11.688-27.777,77.927,77.927,0,0,1,34.177-28.145,77.167,77.167,0,0,1,14.58-4.526,78.283,78.283,0,0,1,15.656-1.578h.318v78Z" transform="translate(13764.879 3169.104) rotate(180)"/><path class="g" d="M12837,348h-78v-.16c0-.053,0-.107,0-.16a78.233,78.233,0,0,1,1.578-15.656,77.309,77.309,0,0,1,11.688-27.777,77.927,77.927,0,0,1,34.177-28.145,77.167,77.167,0,0,1,14.58-4.526,78.283,78.283,0,0,1,15.656-1.578h.318v78Z" transform="translate(714.502 -10403.004) rotate(90)"/></g></svg>