<svg xmlns="http://www.w3.org/2000/svg" width="195.226" height="226.536" viewBox="0 0 195.226 226.536"><defs><style>.a{fill:#ffdc67;}.b{fill:#fff;font-size:60px;font-family:Poppins-ExtraLight, Poppins;font-weight:200;}.c{fill:#482080;}.d{fill:#009cdc;}</style></defs><g transform="translate(-520.774 -2169)"><circle class="a" cx="50.5" cy="50.5" r="50.5" transform="translate(551 2169)"/><text class="b" transform="translate(576 2243)"><tspan x="0" y="0">01</tspan></text><g transform="translate(-10 112.5)"><path class="c" d="M201.779,384.583c-3.813,1.243-5.684-.409-6.249-4.051-5.115-32.987-3.736-64.9,15.188-94.031,8.4-12.93,20.071-22.085,33.159-29.73,2.293-1.338,4.064-.557,5.638,1.131,2.162,2.318,4.294,4.669,6.356,7.077,7.41,8.661,7.15,8.3-2.165,14.521-22.589,15.078-40.19,34.2-47.177,61.325a82.222,82.222,0,0,0-1.333,36.43c.656,3.406.991,6.46-3.417,7.328" transform="translate(406.192 1898.043)"/><path class="d" d="M315.317,259.04c-4.09-.421-9.343-.812-14.549-1.544a9.95,9.95,0,0,0-10,3.961c-3.03,3.791-6.35,7.354-9.636,10.935-2.741,2.987-5.645,3.243-5.684-1.475-.132-16.011-8.012-25.088-23.419-28.526-3.963-.885-3.952-3.478-.383-5.555,4.379-2.545,8.65-5.355,13.254-7.4,3.646-1.623,5.068-3.9,5.187-7.746.141-4.625.846-9.23,1.223-13.852.175-2.143.186-4.673,2.139-5.668,1.991-1.015,3.3,1.393,4.665,2.514a84.347,84.347,0,0,1,9.816,8.915c3.152,3.56,6.58,4.028,10.806,2.769,4.455-1.328,8.965-2.484,13.481-3.585,1.579-.385,3.436-1.073,4.677.66,1.033,1.446.208,2.912-.629,4.107-8.93,12.761-7.938,24.9,2.126,36.553,2.374,2.747,2.032,4.535-3.073,4.941" transform="translate(406.192 1898.043)"/><path class="c" d="M175.856,328.348a17.521,17.521,0,0,1-2.121,2.577,2.518,2.518,0,0,1-3.018.335c-1.054-.655-.649-1.584-.414-2.52,2.005-7.986,3.67-16.013,3.578-24.318-.184-16.515-5.3-31.2-16.242-43.67-5.178-5.9-5.283-5.814,2.219-7.692,1.7-.426,3.416-.813,5.12-1.237,2.642-.657,4.54.289,6.452,2.229,15.964,16.2,16.351,35.276,10.9,55.719-1.749,6.56-5.086,12.442-6.476,18.577" transform="translate(406.192 1898.043)"/><path class="d" d="M142.32,247.408a9.231,9.231,0,0,1-.721-.744c-3.526-5.7-8.488-7.206-14.821-5.37-2.053.594-2.754-.559-1.732-2.508a3.832,3.832,0,0,1,.4-.708c3.909-4.626,4.079-9.358.552-14.3-.57-.8-1.457-1.882-.583-2.939.79-.955,2.023-.752,3.029-.333,5.07,2.112,9.053,1.344,12.837-3.132,2.963-3.505,4.506-2.924,4.55,1.484.057,5.614,2.758,8.658,7.516,10.662,1.058.445,2.457.969,2.436,2.424-.02,1.338-1.379,1.578-2.355,1.853-5.713,1.608-8.4,5.323-8.406,11.255,0,1.74-.624,3.7-2.7,2.359" transform="translate(406.192 1898.043)"/><path class="c" d="M228.407,226.9a9.632,9.632,0,0,1,13.138-4.586,9.737,9.737,0,0,1,4.179,13.06,9.494,9.494,0,0,1-13.191,4.379c-5.044-2.526-6.674-7.6-4.126-12.853m10.172.562c-2.325-1.179-4.03.02-5.3,1.7-1.105,1.462.233,5.36,1.961,5.951a4.067,4.067,0,0,0,5.392-2.3,3.678,3.678,0,0,0-2.053-5.351" transform="translate(338.93 1905.002)"/><path class="d" d="M213.081,262.771a3.927,3.927,0,1,1,3.927-3.926A3.93,3.93,0,0,1,213.081,262.771Zm0-7.235a3.309,3.309,0,1,0,3.309,3.309A3.312,3.312,0,0,0,213.081,255.536Z" transform="translate(390.013 1887.05)"/></g><path class="c" d="M220.155,163.639a2,2,0,0,1,1.469,1.551c.8,2.5,2.464,3.57,5.062,3.526.968-.016,2.251,0,2.66,1.142.429,1.2-.679,1.832-1.457,2.444-1.954,1.534-2.039,3.446-1.63,5.723.55,3.07-.011,3.515-2.7,2.141-2.211-1.13-4.122-1.459-6.132.279a1.792,1.792,0,0,1-2.252.437c-.686-.492-.43-1.361-.24-2a4.912,4.912,0,0,0-2.214-6.087c-.738-.489-1.7-1.185-1.507-2.152.207-1.06,1.4-1.092,2.294-1.164,2.557-.208,3.983-1.692,5.012-3.9.332-.712.52-1.86,1.633-1.935" transform="translate(323.684 2016.09)"/><path class="c" d="M187.593,212.852c-4.728-3.346-9.965-3.492-15.484.713-2.528,1.927-5.273.946-4.3-2.854,1.767-6.877-.384-11.728-6.037-15.79-2.809-2.017-3.952-5.582,1.164-5.776,7.234-.275,11.01-4.133,13.61-10.14,1.543-3.566,3.545-5.319,5.55-.418,2.773,6.779,7.155,10.589,14.912,10.3,3.431-.13,3.882,2.334,1.356,4.33-5.359,4.239-7.232,9.179-5.261,15.934.976,3.345-.979,5.188-5.513,3.7" transform="translate(468.615 1993.43)"/><path class="c" d="M228.407,226.9a9.632,9.632,0,0,1,13.138-4.586,9.737,9.737,0,0,1,4.179,13.06,9.494,9.494,0,0,1-13.191,4.379c-5.044-2.526-6.674-7.6-4.126-12.853m10.172.562c-2.325-1.179-4.03.02-5.3,1.7-1.105,1.462.233,5.36,1.961,5.951a4.067,4.067,0,0,0,5.392-2.3,3.678,3.678,0,0,0-2.053-5.351" transform="translate(382.984 2033.283)"/></g></svg>