<svg xmlns="http://www.w3.org/2000/svg" width="380.065" height="276" viewBox="0 0 380.065 276"><defs><style>.a{opacity:0.11;}.b,.c{fill-rule:evenodd;}.c{fill:#fff;}</style></defs><g class="a" transform="translate(-257.427 -893.28)"><path class="b" d="M795.094,1159.193c1.977,1.133,1.339,2.889,1.019,4.518a28.409,28.409,0,0,1-.963,3.015L773.7,1170.52a9.927,9.927,0,0,1-.388-2.387,10.929,10.929,0,0,1,.837-2.421,9.122,9.122,0,0,1-.318-1.924,10.061,10.061,0,0,1,.445-2.113l-.862-.175c-.328,1.49-.66,2.978-.984,4.469-.451,2.082-1.977,2.677-3.911,1.693a28.379,28.379,0,0,0-3.631-1.291l-.278.807c.744.243,1.49.48,2.231.732.672.229,1.333.491,2.008.71.64.208,1.3.349,1.935.576s1.222.521,1.831.785q-.084.372-.17.743L760.1,1172.9l-.763-3.2-.342.02v3.527c-4.307.607-8.587,1.157-12.849,1.832-1.948.308-3.844.938-5.786,1.291-7.591,1.379-15.181,2.77-22.8,3.964-.858.134-2.1-.773-2.833-1.522-2.137-2.186-4.753-3.307-7.818-4.284L706.3,1173l13.918-5.613c1.042-2.541,2.29-4.607,2.692-6.826a27.883,27.883,0,0,0-.027-7.256c-.208-2.414-.734-4.8-1.18-7.571,1.606-.138,3.275-.745,4.5-.25,1.1.446,1.7,2.1,2.54,3.243.063-.447.154-1.09.34-2.4,1.378,2.649,3.81,3.742,4.338,6.495,1.458,7.608,6.2,11.516,14.009,11.533,2.885.007,5.771-.473,8.657-.712a12.973,12.973,0,0,1,2.118-.038c1.2.1,2.781,1.31,3-1.17.016-.182.522-.35.821-.472,6.157-2.529,9.974-6.773,10.112-13.736,0-.162.164-.321.254-.487,1.517,1,1.729,2,.741,3.776-.9,1.624-1,3.15.482,5.191.252-.954.361-1.392.484-1.827.257-.908.541-1.809.777-2.723a4.15,4.15,0,0,0,.33-1.846c-.492-1.877.993-2.641,1.847-3.98-.509-.6-.927-1.215-1.947-.042a4.171,4.171,0,0,1-2.6.954c-.218.022-.673-1.224-.831-1.928-1.163-5.176-4.42-8.3-9.407-9.795q-6.627-1.987-13.238-4.026c-2-.616-3.6-1.569-3.667-4.037-.017-.623-.619-1.23-.958-1.855,1.458-2.611,4.7-3.75,7-2.267a3.146,3.146,0,0,1,1.39,2.243c-.033.791-.949,1.544-1.422,2.231,1.885.624,5.236.587,8.924-.07,3.921-.7,7.854-1.389,11.811-1.8,1.389-.145,2.865.543,4.456.884-1.1-1.52-6.31-2.606-8.9-1.937-.132-.4-.282-.808-.4-1.224a12.1,12.1,0,0,0-11.04-9.282,43.184,43.184,0,0,0-6.907-.019c-1.742.114-2.833-.21-2.891-2.2a3.677,3.677,0,0,0-.772-1.922c.687,2.431-.683,3.348-2.523,4.158h1.856c.022.135.044.269.066.4-1.2.374-2.414.728-3.609,1.126-3.644,1.211-6.91,3-9.154,6.249a10.707,10.707,0,0,0-1.973,7.419c.052.487-.382,1.012-.518,1.539a1.282,1.282,0,0,0,.036.92,58.29,58.29,0,0,0,5.047,6.872,11.249,11.249,0,0,0,4.571,2.371c3.8,1.278,7.7,2.279,11.505,3.542a22.815,22.815,0,0,1,4.86,2.292,10.931,10.931,0,0,1,2.12,2.435l-.374.315-1.034-1.173c-.116.174-.3.323-.282.445.094.692,0,1.6.4,2.025,1.335,1.423.542,2.386-.65,2.976-3.451,1.709-7.256,1.988-8.509-2.97-.286-1.135-.579-2.269-.879-3.445-3.915.669-7.68,1.288-11.435,1.966-1.792.323-2.613-.558-3.2-2.112-.7-1.842-1.6-3.607-2.423-5.44-.446,1.019-.6,2.2-1.217,2.556-.68.388-1.8.035-2.723-.044-.722-.062-1.439-.185-2.154-.306-.645-.109-1.283-.252-2.1-.415l-4.082-22.936c-1.666.293-3.193.6-4.732.823-2.687.384-5.414.564-8.057,1.139-1.075.234-1.974,1.275-3.055,2.018,2.883,1.935,2.132,5.118,2.667,7.766,1.488,7.365,2.674,14.793,3.915,22.206a24.4,24.4,0,0,1,.289,4.539c-.055,2.483-1.265,3.66-3.936,4.078-2.966.464-4.527-.12-5.2-2.6-1.051-3.87-1.816-7.824-2.564-11.768-1.194-6.3-2.24-12.627-3.426-18.928-.325-1.725-.538-3.164,2.1-3.053-2.408-1.525-4.763-2.043-6.928-1.175l-2.747-2.11.071.07a2.159,2.159,0,0,0-.4-2.935,12.041,12.041,0,0,1-1.371-2.691l-3.339-.726v-1.8c4.9-.884,9.751-1.77,14.6-2.63q14.4-2.552,28.8-5.085a3.736,3.736,0,0,1,4.078,2.708c.265,1.1.828,2.127,1.167,3.215a9.33,9.33,0,0,0,.8,2.371c.1-.678.473-1.464.254-2.016-.9-2.277-1.979-4.483-3.048-6.839,7.375-1.055,14.817-2.7,22.422-3.887.173.879.328,1.668.553,2.812.284-.491.449-.642.433-.77-.227-1.795.593-2.441,2.35-2.724,7.027-1.134,14.027-2.432,21.039-3.661a1.985,1.985,0,0,1,.523-.005c.153,2.4.3,4.711.448,7.025l.88-.015v-7.019c4.358-.86,8.4-1.709,12.464-2.45,8.482-1.546,16.966-3.091,25.476-4.473,1-.163,2.166.7,3.255,1.086q0,.255-.009.509l-.731-2.091,10.369-1.82,1.926,2.958.552-.112-.538-3.189,15.6-2.765c.673,3.686,1.35,7.292,1.987,10.906,1.8,10.191,3.572,20.387,5.384,30.576.468,2.632.253,2.908-2.316,3.45a10.488,10.488,0,0,0-2.819,1.323c-1.334.751-2.342.647-3.085-.828a9.563,9.563,0,0,0-1.506-2.313,2.247,2.247,0,0,0-1.865-.411c1.36,2.338,2.264,4.919,5.319,5.464.65.116,1.179.912,1.763,1.394q.944,2.665,1.89,5.331c1.071-1.526,0-3.757-1.934-5.3a2.517,2.517,0,0,1,1.557-3.2c1.112-.561,2.214-1.143,3.522-1.82.967,5.448,1.91,10.742,2.844,16.037.412,2.334.824,4.668,1.2,7.008a5.873,5.873,0,0,1-.072,1.287,6.84,6.84,0,0,0-.972-.672c-.687-.322-1.4-.58-2.416-.989l.694,2.208c-3.591.641-7.145,1.282-10.7,1.91q-10.8,1.9-21.609,3.794c-.453.079-.911.139-1.369.177-1.282.106-2.567.194-4.1.308a11.423,11.423,0,0,0-2.537-1.321,23.157,23.157,0,0,0-4.516-.639c-.4-.026-.832.5-1.094,1.184l7.079.807q-.008.321-.016.643l-18.314,3.211c.35-2.241.572-4.165.979-6.048.19-.877,2.521-.838,3.3.036a13.755,13.755,0,0,1,1,1.514c.509-1.274.953-2.274,1.29-3.309.081-.247-.194-.61-.3-.92-.261.107-.522.211-.781.321a6.707,6.707,0,0,1-1.62.664c-1.672.209-3.358.3-5.038.443-.147-.5-.295-1.005-.366-1.247-2.588,1.132-5.081-.5-7.487.5Zm19.451-45.208c-.526.341-1.414.6-1.514,1.038-.391,1.715-1.551,1.545-2.981,1.283.228.766.4,1.361.661,2.221,1.849-1.5,3.619-2.889,5.044.069-.434-1.635-.833-3.131-1.231-4.629l3.4-4.63-.714-.458A9.727,9.727,0,0,0,814.546,1113.985Zm-41.823-4.544c-1.638,4.138.349,7.433.561,11.1l11.852-1.975,6.62,37.479c.577,0,.84.029,1.1,0,4.059-.53,8.133-.983,12.162-1.688a1.764,1.764,0,0,0,1.549-2.174c-1.277-6.646-2.4-13.322-3.569-19.987-.707-4.021-1.353-8.054-2.126-12.062-.825-4.276-.871-4.241,3.49-4.978,2.7-.457,5.385-1,8.154-1.527-.568-3.165-1.088-6.064-1.621-9.037-.394.035-.644.039-.887.081q-17.321,3.045-34.645,6.073C774.4,1110.9,773.072,1111.725,772.723,1109.441Zm-48.674,24.937-.372.185c.391,1.32.73,2.66,1.213,3.946.11.294.718.4,1.1.594.114-.453.465-1.039.3-1.336C725.628,1136.588,724.808,1135.5,724.049,1134.378Zm108.01-17.286.305-.431-3.726-3.608c-.238.574-.537,1.007-.445,1.12a30.2,30.2,0,0,0,2.606,2.886C831.026,1117.274,831.629,1117.092,832.059,1117.092Zm-11.546-13.05c2.071-.531,2.2-1.943,2.19-3.791A3.62,3.62,0,0,0,820.512,1104.042Zm15.448,37.683,4.025-2.933C837.338,1138.077,836.918,1140.337,835.961,1141.725Zm12.979-20.718c-2.5-2.2-3.367,1.774-5.677.749l.229.809Zm-39.516,4.378c3.061.717,3.065.715,3.3-1.7Zm-42.353-22.417c.5,2.627-2.028,2.668-3.622,3.962C767.074,1106.7,767.322,1106.414,767.07,1102.968Zm69.095,20.562c-.68,1.445.084,2.816,2.395,3.538Zm-11.455-23.744.889-3.074C823.191,1097.216,823.027,1097.83,824.71,1099.785Zm-16.5,27.385q.034-.45.069-.9h-3.894c-.013.2-.026.391-.039.587Z" transform="translate(-255.283 -116.873)"/><path class="b" d="M473.654,1168.506l1.626,2.278-9.914,1.839c1.066,6.1,2.282,12.024,3.094,18,.76,5.6,2.394,11.059,2.636,16.646.394.422.971.776,1.154,1.275,2.119,5.783,6.263,8.767,12.366,9.194a6.682,6.682,0,0,1,1.9.852,16.333,16.333,0,0,1,2.581-.865c1.44-.263,2.867-.3,3.855,1.2a2.814,2.814,0,0,0,1.478.955c3.106.943,4.726,3.787,7.795,5.67-3.765.661-6.975,1.256-10.2,1.754-.433.067-.961-.325-1.414-.565-1.457-.77-2.88-1.608-4.36-2.328-.357-.173-.887.007-1.336.025.232.393.376,1.01.71,1.14,1.4.543,2.856.941,4.292,1.392l.081.652-6.533,1.252c.192-1.191.334-2.07.476-2.949l-.507-.125a4.224,4.224,0,0,0-.576,1.1c-.321,1.716-1.525,2.355-3.055,2.624q-15.1,2.651-30.194,5.3c-9.328,1.643-18.653,3.3-28.037,4.965-1.658-1.861-3.325-3.629-2.25-6.555.355-.967-.122-2.218-.114-3.339a1.953,1.953,0,0,1,2.438-2.086c2.195.357,4.412.569,6.613.888,1.632.237,3.245.631,4.882.787a3.31,3.31,0,0,0,2.076-.769c-1.924-1.146-4.26.634-6.17-1.333,1.855-.345,3.494-.726,5.155-.914a1.9,1.9,0,0,1,1.551.683c1.245,2.216,2.352,4.509,3.506,6.776l.807-.3c-.653-1.826-1.278-3.662-1.971-5.473a15.034,15.034,0,0,1-1.008-2.011c-.629-3.033-1.537-6.086-1.561-9.137-.016-1.889-.81-3.4-1.068-5.108-.215-1.434-.461-2.862-.731-4.518,2.508-.752,5.1-1.42,7.63-.469a5.025,5.025,0,0,1,2.541,2.771,54.1,54.1,0,0,1,1.469,6.526c.415,1.86.9,3.705,1.311,5.566a8.963,8.963,0,0,1,.014,1.644c1.936,1.148,4.144.218,6.144-.312a10.659,10.659,0,0,1,8.759,1.236c.113.07.341-.046.913-.143l-3.137-2.092,5.477-1.118c-4.61-3.516-4.539-8.845-5.84-13.577.351-.209.909-.444.885-.544a2.413,2.413,0,0,0-.585-1.081,13.059,13.059,0,0,1-1.768-1.658,10.281,10.281,0,0,0-6.885-4.576c.529-.5.921-.9,1.342-1.269q6.357-5.552,3.546-13.586c-1.6-4.555-5.666-7.346-11.03-7.52a42.607,42.607,0,0,0-7.417-.048c-3.85.559-7.62,1.646-11.446,2.4-3.764.745-7.555,1.358-11.673,2.089,2.638,15.011,5.254,29.9,7.96,45.3l-5.38-.572c1.88.636,2.135,1.8,1.566,3.494a27.877,27.877,0,0,0-1.273,5.025,7.459,7.459,0,0,0,.706,2.645c2.394-.815,1.427,1.505,2.423,2.538l-15.62,2.676-1.671-4.135c-.4,1.26-1.079,2.343-.979,3.348.161,1.616-.9,1.5-1.755,1.617-3.656.513-7.343.828-10.978,1.451-3.055.523-6.034,1.486-9.085,2.042-2.873.523-5.826.619-8.691,1.174-3.446.666-6.838,1.618-10.2,2.434l.637-2.86c-.518.124-.718.13-.731.181-.7,2.905-3.054,3.073-5.42,3.439-4.093.633-8.156,1.453-12.236,2.176-.566.1-1.152.1-1.807.151a21.888,21.888,0,0,1-.576-3.218,2.7,2.7,0,0,1,.742-1.551c.953-1.154,2.052-2.191,2.955-3.381.3-.4.178-1.112.319-2.239l-1.7,2.811-.67-1.865c-.134,1.649.323,3.422-2.024,4.2q-5.594-31.675-11.224-63.557c6.011-1.044,11.825-2.238,17.7-2.985,2.459-.313,4.754-1.169,7.2-1.454,2.616-.3,5.2-.857,7.8-1.311,2.663-.466,5.324-.943,7.986-1.414,7-1.239,14-2.518,21.016-3.667a6.179,6.179,0,0,1,2.923.6c1.54.578,3,1.356,4.532,1.97a7.676,7.676,0,0,0,1.737.279l.2-.552-4.327-2.716c.033-.155.064-.31.1-.465l11.667-2.116-.785,3.078.344.23c.554-.786,1.066-1.606,1.675-2.347.444-.538.989-1.354,1.533-1.392,3.659-.252,7.12-1.653,10.909-1.857.047,1.031.09,1.973.128,2.8l1.9.644c-.062-1.254-.12-2.4-.192-3.843,2.046-.179,4.456-.31,6.839-.638.926-.127,1.76-.874,2.689-1.041q16.283-2.944,32.585-5.781c2.205-.386,2.829.3,2.718,2.84-.107.071-.211.192-.323.2-.542.044-1.088.047-1.626.114a2.85,2.85,0,0,0,.008.683,8.313,8.313,0,0,0,1.806.073c1.08-.128,2.148-.352,2.654-.439l3.077,4.144S473.654,1168.506,473.654,1168.506Zm-91.408,52.508,2-.735c.889,4.907,1.752,9.667,2.628,14.5l14.862-2.63c-1.629-9.361-3.234-18.578-4.851-27.862l2.707-.168-1.819-2.964-1.319,1.575c-.3-2.52-.584-4.654-.8-6.793a4.034,4.034,0,0,1,.19-1.532,1.409,1.409,0,0,1,.871-.035,5.364,5.364,0,0,1,.383,1.834c-.028.837-.317,1.666-.359,2.5-.017.324.334.667.517,1l.519-.109v-5.583l9.71-1.829-.457-3.386,1.975-.215-1.291-1.49.792-2.727-2.21.314c-.124-.386-.3-.937-.493-1.532a10.089,10.089,0,0,0-1.06.07c-7.067,1.264-14.13,2.559-21.205,3.781a19.485,19.485,0,0,1-3.269.026c-4.664,1.453-9.295,3.443-14.3.211q-.035.325-.071.65l2.927,1.626-2.041.546c.517,3,1.017,5.895,1.559,9.039l11.817-2c.367,1.987.735,3.785,1,5.6a2.3,2.3,0,0,1-.421,1.221c-.646,1.2-1.331,2.38-2.206,3.931l3.331-1.219c.557,3.2,1.063,6.105,1.569,9.012l-.67-.2c-.54,1.054-1.446,2.076-1.543,3.169-.192,2.177-.025,4.372-1.976,6.065l.823.346,2.183-4.017Zm-.2,10.293c-1.354-2.535-4.807.363-5.581-2.969l2.182-1.59-.338-.406c-2.477.829-2.477.829-2.362,2.816l-3.18,5.607.827.532a10.583,10.583,0,0,0,1.678-2.571c.49-1.649,1.421-1.7,2.849-1.463A24.473,24.473,0,0,0,382.048,1231.307Zm47.372-59.263,5.8,4.048.375-.552-2.732-3.038,4.533-1.681c-.042-.114-.084-.229-.125-.343Zm-17.178,51.327c.042-.176.083-.351.125-.527l-7.881-3.228-2.155,1.232Zm-60.319-37.953a6.781,6.781,0,0,1-2.028-.03c-1.79-.686-3.533-1.5-5.294-2.259l-.278.533c1.705,2.75,6.67,1.04,7.6,5.13Zm113.735-19.791-.742-.306a5.854,5.854,0,0,0-.771,1.692c-.154,1.48-.9,1.853-2.271,1.66a15.75,15.75,0,0,0-2.773.169c1.843,1.756,3.692,1.7,4.756.82C464.875,1168.821,465.091,1167.01,465.659,1165.627Zm-94.9,46.849c1.1,1.042,1.665.948,2.886-.164a31.4,31.4,0,0,1,2.609-1.849,3.661,3.661,0,0,0,.88-.922c.063-.1-.217-.6-.332-.6a2.47,2.47,0,0,0-1.235.271C373.982,1210.241,372.433,1211.332,370.762,1212.476Zm83.183-43.259a13.765,13.765,0,0,0,1.974.361c.891.006,1.784-.089,2.675-.142-.868-.336-1.74-.665-2.6-1.011-.6-.243-1.2-.511-1.962-.839-1.442,2.328-1.427,2.456,1.013,4.485Zm13.131,22.243-4.111-2.161-.548.464c2.646,1.031,2.986,2.88,1.636,5.528Zm-3.314,19.6,4.777,3.817C468.039,1212.539,465.3,1210.522,463.762,1211.061Zm-92.412,25.574c-2.046.056-3.881,2.83-3.431,4.991Zm43.122-62.77c.744.822,1.317,1.492,1.932,2.12.54.553,1.128,1.058,1.7,1.585l.493-.681C416.6,1176.731,417.688,1172.7,414.471,1173.865Zm-70.14,48.916-.114.333a36.491,36.491,0,0,0,3.3,1.594c.241.092.732-.469,1.107-.729a7.361,7.361,0,0,0-1.287-.742,13.008,13.008,0,0,0-2.009-.447A6.088,6.088,0,0,0,344.331,1222.781Zm73.557-6.822-.723.16q.631,3.467,1.262,6.935l.435-.078Q418.374,1219.468,417.888,1215.959Zm-51.566,11.724q-.1.483-.2.968l4.818.853.106-.562Zm81.091-58.519-.144-.607-5.23.879.133.651Zm33.851,52.976c-.317,1.244.41,1.9,1.537,2.179.279.069.67-.319,1.009-.5-.2-.264-.344-.621-.607-.774C482.6,1222.7,481.945,1222.452,481.264,1222.141Z" transform="translate(-43.338 -161.433)"/><path class="b" d="M605.427,930.394l-1.884-.345-.438.417c.706,1.012,1.368,2.06,2.133,3.026.647.818,1.65,1.427,2.088,2.327a23.328,23.328,0,0,0,13.519,12.095l2.362.863-3.346,3.383.983,1.035a17.563,17.563,0,0,0-2.022.947c-.766.478-1.457,1.079-2.166,1.615-3.341-3.723-6.727-7.407-10-11.19-1.166-1.347.272-2.225.968-3.166.339-.459.745-.87,1.121-1.3l-.7-.6-2.984,3.345a8.322,8.322,0,0,1-.812-.639,126.54,126.54,0,0,0-18.894-14.987,9.784,9.784,0,0,1-1.531-1.626,5,5,0,0,1-1.705-.4A122.682,122.682,0,0,0,552.1,912.112a34.964,34.964,0,0,1-3.48-1.023,16.915,16.915,0,0,1-2.361-1.373,6.652,6.652,0,0,1-2.324.33,121.071,121.071,0,0,0-23.773-2.627c-3.513-.027-7.028,0-10.675,0l-.479-2.145,1.754-.288q.018-.26.038-.52l-2.944-.319.7,3.593A126.822,126.822,0,0,0,459.578,922.1v-3.524c-.615.667-1.288,1.075-1.254,1.41.347,3.411-2.466,4.021-4.571,5.414l-1.967-2.49-.343.181,1.233,2.99a125.078,125.078,0,0,0-38.922,38.645,11.579,11.579,0,0,0-.817-3.044,8.016,8.016,0,0,0-2.339-2.344c-.93-.6-1.764-.952-.7-2.339l-2.242.669,4.134,3.659-1.006.6,1.545,3.194,1.283-.393c-.321.656-.481,1.073-.712,1.445a126.921,126.921,0,0,0-10.651,21.575c-.22.574-.852.992-1.38,1.579a8.231,8.231,0,0,1-.036,2.409c-.968,3.558-2.073,7.08-3.273,11.109l-4.264-.439c.124,1.021.962,1.728,2.353,1.812,1.354.082,1.672.78,1.369,1.992-.256,1.022-.4,2.075-.689,3.085-.1.35-.5.611-.866,1.026.6,1.044,1.145,2.245-.652,2.706a6.187,6.187,0,0,1,.617,1.952c0,.28-.8.7-1.294.8-2.2.448-4.407.821-6.619,1.176a7.768,7.768,0,0,1-1.567-.1,19.97,19.97,0,0,0,3.12-2.309c1.284-1.432,2.187,1.315,3.325.148-1.782-1.924-2.552-1.874-6.805.447-6.142-8.033-5.854-16.448,1.379-22.43,1.117-.924,2.3-1.768,3.5-2.583,5.689-3.863,9.681-8.917,11.06-15.76l3.69,1.93.37-.687a13.907,13.907,0,0,1-2.031-1.188c-.653-.537-1.6-1.2-1.665-1.887-.373-3.931-.484-7.887-.756-11.829-.6-8.681,4.616-13.878,12.06-15.683,1.436-.349,2.852-1.077,4.03.553.176.244.715.227,1.447.431l-1.22-1.851c1.189-.4,2.358-.747,3.492-1.182,8.461-3.256,13.04-9.718,15.07-18.285.847-3.575,2.143-6.936,4.812-9.6,3.285-3.28,7.349-4.227,11.8-3.807,2.36.222,4.7.665,7.049,1a22.907,22.907,0,0,0,15.566-3.246,1.612,1.612,0,0,1,.374-.182l4.2,3.867.687-.563-3.006-4.266c2.489-2.959,4.909-5.9,7.408-8.777,1.2-1.377,2.312-3.4,4.72-.958l.056-.674-1.673-1.273c3.567-2.689,7.472-3.678,11.665-2.332a29.518,29.518,0,0,1,7.274,3.468c9.166,6.109,18.4,6.548,27.9.892a19.624,19.624,0,0,1,4.553-2.354c2.715-.748,5.4-2.145,8.521-1.211-.112.643-.218,1.253-.325,1.862.185.052.4.139.413.112,1.375-2.348,3.117-1.482,4.511-.253a35.718,35.718,0,0,1,6.18,6.3,29.8,29.8,0,0,0,13,11.178,27.532,27.532,0,0,0,5.275,1.114c-.57,1.376-1.4,2.838.924,3.158.16-.136.326-.206.344-.3.477-2.682.464-2.5,3.591-2.323,1.507.082,3.049-.942,4.6-1.02a50.743,50.743,0,0,1,7.67.235,4.819,4.819,0,0,1,3.862,2.4c.311.532,1.3.639,1.947,1.009a4.347,4.347,0,0,1,1.17.937C603.765,922.292,604.711,926.168,605.427,930.394Zm-3.682-6.319c-2.081,1.477.131,2.734.2,4.049.023.434,1.579.787,2.434,1.177l.275-.382ZM391.8,1003.6l.305-.805c-1.658-.774-3.3-1.581-4.994-2.277-.192-.079-.641.471-1.385,1.054ZM594.178,916.18l-.411.031-.256,5.843.41.19,1.542-1.784C594.989,918.883,594.584,917.531,594.178,916.18ZM586.256,926.3c2.892,1,3.63.613,3.964-1.672ZM448.775,912.216l-.517.482,3.848,4.12.5-.486Z" transform="translate(-74.697 0)"/><path class="b" d="M832.5,1342.135c-.937,1.216.032,1.415.889,1.639.815.213,1.641.384,2.443.569.088-.9.088-.9,3.449-.035-2.5,2.917-5.742,4.186-9.2,5.1a72.5,72.5,0,0,0-7.8,2.158c-8.045,3.135-12.435,9.4-14.43,17.554-.969,3.961-2.32,7.713-5.433,10.56-3.44,3.146-7.613,3.7-12.028,3.341-.3-.024-.787-.219-.83-.413a43.55,43.55,0,0,1-1.014-5.8c-.019-.24,1.581-.61,2.695-1.017a5,5,0,0,0-1.744-.449c-.465.051-1.2.54-1.254.915a27.618,27.618,0,0,0-.208,4.232,11.826,11.826,0,0,0,.4,2.079c-2.174-.247-4.053-.531-5.944-.663-8.959-.624-15.82,3.148-21.187,10.113a46.154,46.154,0,0,1-4.593,5.228c-4.342,4.149-10.135,4.916-15.969,2.036a53.664,53.664,0,0,1-9.4-5.436c-2.41-1.882-4.158-4.612-6.593-7.422,2.073-.1,3.48-.177,4.888-.233a134.155,134.155,0,0,0,28.248-4.255,8.181,8.181,0,0,1,2.162-.026,9.228,9.228,0,0,1,1.6-1.1c7.354-3.062,14.808-5.9,22.053-9.2,4-1.82,7.652-4.393,11.616-6.718l.6,1.652.634-.064c-.1-.756-.19-1.513-.3-2.4,1.439-1.079,3.037-2.243,4.6-3.459,1.256-.98,2.378-.381,3.461.258a26.148,26.148,0,0,1,2.212,1.619l.419-.474-3.7-3.191a18.125,18.125,0,0,0,1.552-1.384c1.185-1.31,2.307-1.57,3.585-.088.25.289.884.247,1.341.357a6.165,6.165,0,0,0-.549-1.428,8.732,8.732,0,0,0-1.238-1.213c2.545-3.32,5.378-5.5,6.137-5.234a11.786,11.786,0,0,1,1.347-2.382,123.844,123.844,0,0,0,19.282-26.947c1.422-2.679,2.647-5.462,4.02-8.168.367-.723,1.077-1.284,1.382-2.022.3-.721.184-1.6.419-2.362,1.738-5.594,3.669-11.135,5.232-16.777,1-3.6,1.435-7.361,2.216-11.03a9.805,9.805,0,0,1,1.308-2.281c.612,1.139.9,1.672,1.434,2.664.273-1.048.425-1.632.614-2.36l3.406-.579c2.667-.452,2.667-.451,3.872,2.091-1.925,1.987-3.64-1.046-5.679-.193l1.05,1.4-.818,1.713c1.794-.1,3.422-.195,5.051-.274,1.707-.083,2.584.82,3.162,2.378a14.276,14.276,0,0,1-5.533,17.538c-4.721,3.246-9.315,6.711-11.833,12.179a25.8,25.8,0,0,0-1.814,14.722c.569,4.069.839,8.085-.793,12-.649,1.559-1.336,2.512-3.36,1.689-1.159-.472-2.65-.088-3.984-.184A6.394,6.394,0,0,1,832.5,1342.135Zm-4.43-5.092c.109,1.043.19,1.825.223,2.137l4.422-.389C831.56,1336.959,829.82,1337.265,828.071,1337.043Z" transform="translate(-281.943 -231.726)"/><path class="b" d="M1111.993,1133.486c1.412,1.171,2.769,2.418,4.256,3.485a2.035,2.035,0,0,1,.945,2.646q-3.006,9.293-5.872,18.631c-1.119,3.644-2.174,7.308-3.125,11a2.863,2.863,0,0,0,.635,2.044q9.544,12.779,19.166,25.5a4.716,4.716,0,0,1,.751,1.453c-1.392-1.729-2.7-2.022-3.876.01l1.678,1.845c.991-1.1,3.345-.757,4.471,1.035-3.6.655-7.134,1.313-10.673,1.938-7.921,1.4-15.839,2.818-23.773,4.141a37.8,37.8,0,0,1-4.949.208c-.123,0-.325-.107-.362-.061-1.717,2.121-3.924.829-5.956.992-1.531.122-2.963,1.189-4.5,1.612-1.573.432-3.221.591-5.344.958l11.932-14.408,3.137.328c.027-.1.053-.194.079-.291l-2.761-.521c1.933-2.345,3.635-4.415,5.342-6.482a21.786,21.786,0,0,0,2.357-2.907,5.1,5.1,0,0,0,.805-3c-1.262-7.743-2.665-15.464-4.038-23.189q-1.867-10.515-3.764-21.025c-.219-1.209-.075-1.92,1.421-2.162,7.354-1.192,14.688-2.5,22.029-3.773Zm-17.5,14.995c.731.206.875.3.973.263a1.76,1.76,0,0,0,.686-.359,19.864,19.864,0,0,1,8.611-5.747c.5-.153.827-.9,1.233-1.378-.985.115-1.7.93-2.294.845-2.107-.3-3.29,1.1-4.619,2.187C1097.56,1145.536,1096.166,1146.941,1094.494,1148.481Zm28.742,50.8q-.067-.322-.133-.644l-5.351-.489,1.969,2.587Zm-25.867.27c.213-1.754.392-3.225.571-4.7l-.567-.1-2.126,2.569Zm9.75-.943c2.311,1.711,4.734.652,7.129,0Zm4.079-9.406-.143.664,3.978.708C1113.711,1188.615,1113.194,1188.489,1111.2,1189.2Z" transform="translate(-493.529 -144.919)"/><path class="b" d="M260.417,1290.978l3.217-.64.189-.762c-2.921.622-5.538.661-6.4-2.945l23.711-4.188.448,1.113c.385-.2.772-.39,1.154-.592a6.069,6.069,0,0,1,1.8-.918,32.108,32.108,0,0,1,3.82-.042l2.252,12.763-2.623.513c-.025.181-.051.363-.075.543l3.034.713c.813,4.6,1.661,9.386,2.5,14.17.96,5.456,1.931,10.91,2.857,16.372a3.751,3.751,0,0,0,2,2.891c3.054,1.768,5.929,3.848,8.983,5.615,4.626,2.676,9.357,5.173,14.008,7.81.5.282,1.164,1.16,1.038,1.467a2.863,2.863,0,0,1-1.574,1.661,122.148,122.148,0,0,1-13.243,2.263c-1.365.125-3.15-1.158-4.26-2.276-1.258-1.267-1.973-3.074-2.924-4.646l-.824.5,4.58,7.124-34.4,6.055c1.137-4.54,1.9-8.882,6.243-11.393l-.426-.458-2.729,1.627c.253-.908.451-1.679.683-2.44,2.321-7.628,4.607-15.266,7.011-22.867a2.972,2.972,0,0,0-.584-3.054q-9.231-12.147-18.4-24.345C261.15,1292.151,260.859,1291.649,260.417,1290.978Zm30.289,38.179c.251,3.643,2.943,5.5,5.6,7.386a1.19,1.19,0,0,0-.427-1.111c-.351-.37-.746-.7-1.068-1.095-1.393-1.706-2.766-3.427-4.147-5.143-.807-3.88,2.665-3.5,4.616-4.74H291.84a19.46,19.46,0,0,1-1.676,2.123c-.71.695-1.588,1.14-2.255-.1-1.141-2.125-2.24-4.274-3.376-6.4a8.747,8.747,0,0,0-1.244-1.991c-.255-.265-.92-.136-1.065-.152.756,1.869,1.377,3.55,2.119,5.178a6.687,6.687,0,0,0,1.494,2.307c1.606,1.389,1.685,2.88-.117,3.964a18.326,18.326,0,0,1-3.342,1.141,6.071,6.071,0,0,0,1.674.71c2.3.051,3.671-1.388,4.7-3.279Zm-8.669-25.553c-1.417-.555-2.54-.7-3.2-1.333-.7-.674-.922-1.836-1.468-2.712-.152-.245-.715-.233-1.09-.339,1.532,1.152.782,2.225.165,3.178l-2.769.448-.131.67c3.055-.906,4.45.95,5.545,3.307l.472-.287.232-2.571Zm-9.562-11.489c-2-1.119-6.078-.61-7.925.891C267.238,1292.826,269.836,1293.509,272.474,1292.114Zm7.194,49.351c2.309-.634,2.57-.9,2.526-2.464C279.7,1340.111,279.7,1340.111,279.668,1341.465Zm15.977-.41a7.429,7.429,0,0,0,2.612-.068c.505-.238.73-1.073,1.079-1.644a6.123,6.123,0,0,0-1.613.258A15.263,15.263,0,0,0,295.645,1341.055Z" transform="translate(0 -234.498)"/><path class="b" d="M426.99,1400.61l-.82,1.219c-1.731.359-2.07-7.619-.722-15.924,2.758-.513,5.582-1.092,8.43-1.507.395-.057,1.055.6,1.34,1.083,1.688,2.833,3.3,5.71,5.01,8.694l-1.271.993,2.552,1.34c3.709,4.52,7.52,9.605,11.8,14.258,4.232,4.6,8.937,8.765,13.571,13.253l-2.61,2.851.293.359,3.324-2.743c2.866,2.005,5.947,3.694,8.382,6.049,1.323,1.28,2.909,1.553,4.229,2.51.786.571,2.048.735,1.869,2.2-.02.165.865.688,1.009.587,1.253-.878,2.1.1,3.025.587a121.073,121.073,0,0,0,45.514,13.745c3.744.349,7.5.565,11.178.837l3.454,5.993c-4.16,0-8.154-.157-12.122.094-1.223.078-2.358,1.307-3.565,1.948-2.21,1.17-4.421,2.344-6.677,3.421-1.585.757-3.244,1.358-5.024,2.091-.166-.77-.268-1.244-.5-2.292l-.973,2.086c-3.777.382-7-.963-10.072-3.727,1.4-.8,2.7-1.428,3.872-2.241a39.873,39.873,0,0,0,3.073-2.579q1.287-1.1,2.567-2.206l.394.427c-.033-.444-.065-.889-.106-1.445l-2.465.273c.165,3.134-2.517,3.246-4.414,4.492-.542-1.275.78-3.579-2.268-3.1,2.667,2.557.98,4.183-1.366,5.916-1.317-1.758-2.7-3.5-3.967-5.315-5.183-7.422-12.18-11.352-21.328-11.024-2.961.106-5.9.649-8.865.766a13,13,0,0,1-9.31-2.966c.026-.192.052-.384.077-.575a10.783,10.783,0,0,0,2.884.219,3.348,3.348,0,0,0,1.938-1.5l-6.121.789c-3.2-3.411-4.356-7.641-4.9-12.072-.253-2.066.451-2.337,3.212-1.543-.165-1.877-.332-3.77-.5-5.663l-.479-.094a4.539,4.539,0,0,0-.5,1.656c.334,2.794.372,2.791-2.411,2.54a2.438,2.438,0,0,1-.446-.15c-3.283-8.9-10.1-13.48-19.079-15.716a28.891,28.891,0,0,1-8.43-4.112C426.3,1403.836,426.365,1403.205,426.99,1400.61ZM524.3,1457.5c.388-3.124-1.165-7-3.376-7.551Zm-20.307-8.7c-.264,1.138,2.062,5.549,3.943,6.164Zm-19-9.425-1.081-2.766-1.791,3.35Z" transform="translate(-100.87 -296.294)"/><path class="b" d="M590.561,983.368c3.671.029,5.487,2.075,6.989,4.8a51.88,51.88,0,0,0,3.908,5.363l-2.463.2.33.82c-1.789.9-3.572,1.878-5.429,2.68a1.716,1.716,0,0,1-1.579-.453c-1.489-2.113-3.261-4.165-2.3-7.121a5.366,5.366,0,0,0-.107-1.9l-.505-.04c-.236.7-.472,1.4-.775,2.3-2.247-1.74-4.182-.571-6.363.679l4.971,9.948-7.756,3.924-12.765-25.237,1.563.44-.871-.819a19.268,19.268,0,0,0,2.239-.768c3.682-1.772,7.323-3.631,11.026-5.356a13.841,13.841,0,0,1,3.59-1.02,6.136,6.136,0,0,1,6.572,2.638c1.647,2.442,2.011,4.977.459,7.619C591.1,982.4,590.917,982.741,590.561,983.368Zm-10.654,2.677c1.987-.949,4.173-1.626,4.306-3.992a4.214,4.214,0,0,0-1.733-3.251c-2-1.163-3.815.153-5.63,1.264Z" transform="translate(-186.6 -47.305)"/><path class="b" d="M569.886,1029.462l.988,2.566.32-.049c-.1-.915-.2-1.83-.338-3.142l13.3-3.781-1.79,3.335c.363-.023.559,0,.573-.041,1.025-2.895,3.269-3.562,6.1-3.874a90.716,90.716,0,0,1,26.431.653c3,.547,5.949,1.35,9.1,2.078l-2.055,3.524c-2.839-.587-5.52-1.3-8.246-1.652-1.866-.241-2.74-.962-2.6-2.846.023-.311-.073-.63-.593-.981-.083,1.018-.165,2.036-.251,3.091l-14.932-.862c-.1-.26-.008-.021.091.244-3.788.554-7.638,1.019-11.451,1.695a77.2,77.2,0,0,0-23.7,8.469,82.322,82.322,0,0,0-36.8,41.492,15.108,15.108,0,0,1-1.4,1.974,2.754,2.754,0,0,0-.619,1.5c.407,3.047.034,3.621-2.945,4.141-.511.089-1.016.21-1.876.39.861-3.3,1.164-6.542,3.809-8.1-.1-1.175-.405-1.969-.181-2.567.714-1.906,1.625-3.739,2.478-5.645l1.965.82.257-.309-1.361-1.78C531.065,1053.714,553.732,1033.645,569.886,1029.462Z" transform="translate(-156.711 -78.754)"/><path class="b" d="M673.156,1479.351c-.454,3.637-.892,7.156-1.359,10.905l-8.576-.97,3.216-27.631c3.34.354,6.539.62,9.706,1.094.58.087,1.032,1.021,1.155,1.152a7.011,7.011,0,0,1,2.36-.695,24.985,24.985,0,0,1,4.805,1.079c2.782.954,4.624,2.851,4.756,5.928a6.746,6.746,0,0,1-3.955,6.931c-.293.141-.578.3-.861.458-.049.028-.066.112-.159.284,4.073,2.538,3.05,6.508,2.783,10.278-1.682.787-.132,1.288.168,1.9l1.027,2.1-6.724-.77,2.076-1.873-1.137-1.033c-.787,1.634-1.52,3.31-4.329,2.329.106-1.8.083-3.8.366-5.758C679.1,1480.707,677.928,1479.318,673.156,1479.351Zm5.164-4.388c.571-1.145,1.911-2.6,1.824-3.957-.127-1.965-1.312-3.86-.654-5.978.018-.058-.207-.193-.457-.414-.5,2.646-2.316,3.015-4.349,2.829a1.829,1.829,0,0,0-.243.451c-.078.584-.133,1.173-.2,1.767l-1.074.17c.237.705.683,1.337.584,1.864-.335,1.769.113,2.5,1.885,2.729C676.39,1474.521,677.127,1474.719,678.32,1474.963Zm-12.643-3.3c1.34-.377,2.622-.7,3.88-1.1,1.99-.631,2.4-1.135,2.279-2.164-1.419.478-2.912,1.018-4.429,1.481C666.371,1470.2,665.323,1470.42,665.677,1471.663Z" transform="translate(-244.819 -342.906)"/><path class="b" d="M666,947.263l8.593-1.23c.462,4.165,2.243,8.208.535,12.575a5.568,5.568,0,0,0,.606-.533,10.245,10.245,0,0,0,.653-1.124c.477,3.847,1.061,7.136,1.244,10.446a6.751,6.751,0,0,1-4.059,6.716,21.44,21.44,0,0,1-13.092,1.97,6.628,6.628,0,0,1-5.707-5.126c-1-4.212-1.719-8.49-2.582-12.859l1.8-.3c.174-1.831-2.629-1.591-2.313-3.669.217-1.424-.309-2.961-.526-4.631l8.72-1.291c.693,4.519,1.346,8.867,2.03,13.211.358,2.277.69,4.563,1.177,6.814s1.552,3,3.392,2.652c1.967-.376,2.747-1.5,2.44-3.807-.6-4.544-1.281-9.08-1.941-13.617C666.684,951.506,666.363,949.558,666,947.263Zm-10.754,12.1,4.11-.789q.038-.271.075-.543a6.608,6.608,0,0,0-2.57-.619C656.305,957.509,655.909,958.514,655.25,959.359Z" transform="translate(-237.537 -31.827)"/><path class="b" d="M789.987,1299.244a84.723,84.723,0,0,1-14.1,28.31c-1.844,2.434-3.9,4.713-5.911,7.014a29.655,29.655,0,0,1-3.377,3.408,7.693,7.693,0,0,1-2.183.986,10.129,10.129,0,0,1-1.484,2.353,84.562,84.562,0,0,1-44.812,19.711c-1.767.223-3.538.454-5.315.537-.559.027-1.133-.444-1.717-.635-.254-.083-.65-.161-.814-.03-1.726,1.374-3.743.867-5.646.841-2.374-.032-4.748-.254-7.117-.452-.974-.081-1.936-.312-2.951-.483-.261-2.346,2.207-1.678,3.027-2.94l-1.121-.949c4.846,1.344,9.681.007,14.265,1.592,0,.075-.016-.281-.05-.872,2.461.222,4.958-1.225,7.066.24a12.338,12.338,0,0,1,2.669-1.2,82.063,82.063,0,0,0,64.655-55.308C785.715,1299.412,786.5,1299.074,789.987,1299.244Z" transform="translate(-263.713 -244.899)"/><path class="b" d="M762.749,1472.7c1.006,1.285,1.8,2.87,3.071,3.781,1.7,1.215,1.544,2.54,1.083,4.117-.693,2.372-2.549,3.728-4.59,4.674a22.084,22.084,0,0,1-11.185,2.006,6.77,6.77,0,0,1-6.191-4.259,30.108,30.108,0,0,1-1.853-7.02,3.9,3.9,0,0,1,1.556-2.969,22.128,22.128,0,0,1,4.537-1.936l.774-2.007-2.416-.443c.113,3.66-2.891,3.007-5.388,3.115-.626-3.225-1.317-6.784-2.009-10.343l.336-.129,1.938,2.4.577-.5-1.488-2.329,7.284-1.437c.99,5.14,1.927,10.11,2.915,15.07.373,1.872.791,3.741,1.324,5.573.48,1.653,1.8,2.018,3.32,1.661,1.5-.353,2.507-1.161,2.212-2.939-.669-4.028-1.313-8.061-1.958-12.041l3.437-3.278c.132-.7-.28-1.373-1.507-1.246a25.952,25.952,0,0,0-2.722.588c-.328-1.53-.636-2.963-.981-4.57l8.609-1.607c.084.861.143,1.461.2,2.061l-.362.121-.632-1.153c-1.176.9-3.25,1.149-2.511,3.79.821-.512,1.538-.893,2.179-1.376.881-.664,1.6-.453,1.8.521,1.08,5.246,2.072,10.509,3.093,15.76l-4.368-3.729c.635-1.8-.507-2.461-1.889-3.076C760.521,1471.264,761.559,1472.025,762.749,1472.7Z" transform="translate(-291.224 -339.868)"/><path class="b" d="M747.94,956.74c-.054-.835.16-1.749-.2-2.231a6.03,6.03,0,0,0-2.508-2.083,2.135,2.135,0,0,0-2.827,1.494,2.22,2.22,0,0,0,.282,1.833A21.7,21.7,0,0,0,745.6,958.4c1.382,1.11,3.147,1.7,3.832,3.69.24.7,1.136,2.234,2.678,1.154.086-.06.629.406.863.7,1.864,2.367,1.854,4.969.885,7.666a7.312,7.312,0,0,1-5.605,4.811,19.508,19.508,0,0,1-10.383-.724c-5.1-1.644-7.193-5.431-5.731-10.664l7.691,1.141c0,.771-.033,1.6.006,2.435a3.174,3.174,0,0,0,4.926,2.5,2.451,2.451,0,0,0,.488-3.789,33.823,33.823,0,0,0-3.585-3.064,84.819,84.819,0,0,1-6.506-5.65c-2.621-2.742-.914-8.453,2.529-10.106a11.5,11.5,0,0,1,9.456-.2,17.967,17.967,0,0,1-2.7-.185c-1.921-.413-3.118.3-2.986,1.7h7.088c.067-.26.221-.852.372-1.445,5,.8,7.645,4.476,6.606,9.406l-3.032-.321-1.872-2.728-.467.159c.106.7.211,1.39.343,2.254Z" transform="translate(-286.121 -32.643)"/><path class="b" d="M816.6,1451.734c1.726-2.071,3.151-3.771,4.555-5.489.09-.111.012-.36.012-.958l-5.485,5.318c-1.95-2.017-2.68-4.085-2.261-6.414l2.625-1.193-.116-.423-1.814-.171c1.676-4.089,8.217-7.825,13.312-7.32.468.23,1.158.786,1.369.641,2.106-1.445,2.887.516,3.964,1.518a10.063,10.063,0,0,1,1.321,2.093l-6.87,3.621a19.8,19.8,0,0,0-1.549-1.777,2.981,2.981,0,0,0-4.737,1.444,2.016,2.016,0,0,0,1.721,2.65,35.85,35.85,0,0,0,5.109.351c2.306.074,4.623-.044,6.918.143,2.553.207,3.293,1.2,3.283,3.651a5.641,5.641,0,0,0,.683,2.613c.35-.795.7-1.59,1.094-2.488a7.906,7.906,0,0,1-.357,8.457c-.381-.859-.69-1.555-1-2.251l-.384.055a4.086,4.086,0,0,0-.069,1.613c.769,1.887-.346,2.874-1.718,3.609-2.521,1.349-5.115,2.564-7.678,3.835l-.627-.61,1.382-4.424-.6-.2c-.529,1.637-1.058,3.275-1.6,4.946a7.149,7.149,0,0,1-7.576-4.632,1.682,1.682,0,0,1,.452-1.538c1.567-.969,3.233-1.777,4.872-2.629.4-.207.828-.356,1.275-.546.435.679.8,1.306,1.219,1.89.984,1.368,2.358,1.936,3.756.935a4.444,4.444,0,0,0,1.9-2.791c.072-1.56-1.316-2.369-2.846-2.442-3.348-.159-6.7-.177-10.049-.356A23.992,23.992,0,0,1,816.6,1451.734Zm9.9-11.044c.736-1.389,1.252-2.282,1.651-3.224.049-.115-.655-.768-.788-.7a11.094,11.094,0,0,0-1.533.958C826.082,1438.833,826.216,1439.43,826.5,1440.69Z" transform="translate(-335.365 -326.848)"/><path class="b" d="M520.76,1005.893l3.676,3.97-5.393,5.064,7.7,8.234c2.523,2.7,5.044,5.4,7.688,8.227l-6.405,6.054c-2.633-2.8-5.2-5.52-7.755-8.244-2.529-2.691-5.056-5.384-7.689-8.189l-5.2,4.793-3.645-3.978Z" transform="translate(-148.599 -67.941)"/><path class="b" d="M985.914,1043.872l-5.952-3.258a3.609,3.609,0,0,1,3.793-1.571l3.869-3.684-.393-.609-5.292,2.669,1.913-3.8c10.6,1.628,16.3,7.734,14.731,18.743l-1.321-.273c1.4,1.111.794,2.456.719,3.843-.114,2.112-1.354,2.07-2.881,2-.546-1.34-.5-3.145-2.868-3.577l2.025,3.867a41.087,41.087,0,0,1-4.4.81,2.176,2.176,0,0,1-1.692-.821c-3.106-4.9-6.136-9.84-9.157-14.789a5.087,5.087,0,0,1-.371-1.4,5.162,5.162,0,0,1,1.393.152c1.9.762,3.775,1.587,5.659,2.39Q985.8,1044.221,985.914,1043.872Zm4.744,2.11c-.718,2.361.436,3.336,4.519,3.953-.141-.341-.177-.707-.376-.862C993.456,1048.03,992.076,1047.032,990.658,1045.983Z" transform="translate(-435.111 -84.67)"/><path class="b" d="M811.859,990.964l-8.132-3.493,2.95-4.333c-1.225-1.6.876-3.021,1.24-4.8l.677-.133.689,2.627,4.241-2.229c-.534-1.344-.526-1.243-2.126-.75a14.775,14.775,0,0,1-3.316.191l4.762-11.164-6.417-2.872,2.06-4.859,21.47,9.134-2.1,4.963-6.71-2.853,1.583-1.7c-2.145-1.253-1.457-.566-4.828,4.029l2.431-.841L815.3,983.543c-.244-1.27-.409-2.128-.575-2.985C814.39,984.181,814.273,987.761,811.859,990.964Z" transform="translate(-329.588 -39.741)"/><path class="b" d="M615.732,1449.587c-.833-2.832-3.461-5.213-2.364-8.828,2.875,1.408,6.078,1.793,8.377,4.259,2.313-1.266,3.592,1.757,6,1.732l-2.073,4.932-6.9-2.849-8.662,20.8-8-3.611c.625-1.85,1.587-3.34,3.627-3.874.183-.048.453-.1.515-.228.867-1.81,1.706-3.634,2.551-5.455l-.518-.284-3.608,4.887-.382-.228,6.364-15.355-4.366-1.931.759-1.83-1.75,1.288c-.89-1.084-.674-2.059,1.155-5.172l5.528,2.307q.048.343.1.685l-4.45,1.271c.559.344.711.521.847.509,3.127-.273,3.1-.264,4.412,2.638.706,1.557,1.534,3.058,2.306,4.584Z" transform="translate(-207.946 -328.536)"/><path class="b" d="M892.035,1411.9l-6.458,5.976-15.3-16.41-5.2,4.67-1.6-1.7c1.2-1.064,1.2-1.064.129-3.925l9.995-9.547,1.653.712q.17-1.037.341-2.074l-.385-.16,3.3-2.994,3.655,3.89-5.357,5.042,2.481,3-3.669,3.914-.423-.376c.066.952.132,1.9.2,2.942l2.968.627c-1.942-2.841.455-4.427,1.637-6.527Zm-17.906-14.4c1.512,1.715-.864,1.228-1.185,2.138l1.692.941c.255-.657.429-1.2.673-1.708.26-.544.586-1.057,1.1-1.976Zm6.841,11.718,1.024-1.288-.378-.292-2.328,1.656,2.856,2.423.314-.335Z" transform="translate(-365.635 -297.533)"/><path class="b" d="M821.96,1060.559l.881-.615c-3.224-.119-4.422-3.134-6.417-4.89a85.444,85.444,0,0,0-31.029-17.627c-.309-.1-.612-.212-1.2-.42a21.9,21.9,0,0,1,1.811-2.773c.824-.928,2.467-.4,2.986.7a7.2,7.2,0,0,0,1.447,1.582l.432-.406-.064-.939a1.839,1.839,0,0,1,.582.008,88.762,88.762,0,0,1,23.652,13.4c1.294,1.014,2.162,2.014,1.676,3.771a6.682,6.682,0,0,0-.023,1.726l.515.191,1.336-2.659,2.106,1.878-2.418.88c.9.162,1.381.414,1.715.283,1.851-.728,2.6.733,3.572,1.728.177.181.291.73.178.836-1.333,1.25.338,1.616.811,2.4l.411-1.891,6.992,8.643-4.8.423Z" transform="translate(-317.801 -84.751)"/><path class="b" d="M387.415,1407.074q-2.665-1.534-5.328-3.07-3.67-2.131-7.332-4.276c-.789-.462-2.011-.765-.907-1.72a6.632,6.632,0,0,1-2.387-.255c-2.6-1.392-5.111-2.942-8.191-4.748l23.344-4.132c-1.347,6.192-2.177,12.2,1.43,17.871Z" transform="translate(-63.857 -298.996)"/><path class="b" d="M1068.286,1288.271a22.021,22.021,0,0,0-.967-10.107c-.224-.713.473-1.717.881-3.023l2.794,2.238,4.861-1c-1.2-1.114-7.015-2.124-8.733-1.4l-3.912-3.943.365-.692a21.586,21.586,0,0,0,3.913-.045c1.929-.36,3.779-1.135,5.7-1.522,3.438-.69,6.906-1.24,10.369-1.8a8.581,8.581,0,0,1,1.793.081c-.328.373-.689.724-.981,1.124-1.591,2.183-3.075,4.451-4.766,6.553-3.37,4.192-6.849,8.3-10.289,12.431C1069,1287.551,1068.631,1287.9,1068.286,1288.271Z" transform="translate(-486.137 -225.435)"/><path class="b" d="M706.964,932.949c6.377.215,12.754.411,19.13.658a21.587,21.587,0,0,1,3.925.467c2.085.474,4.138,1.605,6.2,1.588,6.022-.052,11.552,1.877,17.1,3.718a116.513,116.513,0,0,1,34.328,18.076c4.1,3.137,7.986,6.562,11.8,10.042,1.1,1,1.605,2.652,2.128,4.135-3.315-2.978-6.543-6.06-9.96-8.916a114.685,114.685,0,0,0-47.137-24.12,214.952,214.952,0,0,0-24.27-3.9c-3.745-.454-7.613.159-11.426.174a6.036,6.036,0,0,1-2.058-.847Q706.839,933.489,706.964,932.949Z" transform="translate(-271.06 -23.933)"/><path class="b" d="M749.084,1379.69c-2.264.873-4.764,1.158-6.119,2.554-1.306,1.345-1.428,3.838-2.174,6.146a43.984,43.984,0,0,1-2.812-3.8,3.018,3.018,0,0,0-3.264-1.6c-1.424.129-2.87.028-4.64.028.952-1.361,1.688-2.584,2.6-3.663a3.1,3.1,0,0,0,.544-3.761,42.573,42.573,0,0,1-1.585-4.385,49,49,0,0,0,5.084,1.49,6.577,6.577,0,0,0,2.645-.435,12.525,12.525,0,0,1,2.74-.822c.5-.006,1.5.946,1.428,1.308-.535,2.863,1.2,4.173,3.3,5.349C747.565,1378.518,748.222,1379.077,749.084,1379.69Z" transform="translate(-285.153 -288.342)"/><path class="b" d="M692.077,1085.19c-4.3-2.654-8.117-2.432-11.209,1.863-.9-3.32-.707-3.808,2.646-8.005-.648.113-1.523,0-1.9.384a1.53,1.53,0,0,1-2.385.12c-1.362-1.013-2.788-1.939-4.49-3.11,1.826-.626,3.312-1.248,4.855-1.631a2.641,2.641,0,0,0,2.133-2.231c.359-1.505.861-2.977,1.408-4.822,1.138,1.51,2.146,2.706,2.989,4.009a2.648,2.648,0,0,0,2.766,1.373c1.561-.142,3.144-.033,4.938-.033-1.008,1.486-1.861,2.917-2.891,4.2a2.494,2.494,0,0,0-.306,2.871c.614,1.447,1.065,2.961,1.586,4.447Z" transform="translate(-251.769 -105.264)"/><path class="b" d="M558.328,1374.273c.045.539.091,1.078.172,2.046l-3.322-4.159c3.208-.868,3.273-.847,4.552,1.658l.359-1.473-.476.522c2.295,1.962,4.66,3.847,6.871,5.9a87.608,87.608,0,0,0,19.85,13.963c2.209,1.128,2.557,2,1.794,4.871l-1.824-1.58c.019.344.038.693.067,1.22a97.452,97.452,0,0,1-16.065-9.809,38.976,38.976,0,0,1-11.464-13.424Z" transform="translate(-179.636 -288.601)"/><path class="b" d="M814.629,1311.121a6.553,6.553,0,0,1-.151,1.981,78.2,78.2,0,0,1-14.1,22.77,11.621,11.621,0,0,1-2.238,1.578c-.141.432-.156,1.088-.492,1.424-6.908,6.91-14.448,12.914-23.675,16.514-3.394,1.324-6.656,3.053-10.129,4.093-4.679,1.4-9.5,2.314-14.71,3.541.172-1.027.181-1.922.353-1.955a5.077,5.077,0,0,1,2.46.186,18.248,18.248,0,0,1,2.343-1.021c4.177-1.183,8.475-2.025,12.541-3.507,20.5-7.476,35.276-21.3,44.645-40.953.651-1.366,1.133-2.816,1.834-4.153.158-.3.9-.3,1.379-.434Z" transform="translate(-296.652 -252.087)"/><path class="b" d="M963.429,1336.031l1.942.765c-2.878,6.292-5.468,12.62-8.629,18.65-2.563,4.888-5.774,9.441-8.791,14.082a11.9,11.9,0,0,1-2.552,2.057l1.251.521c-4.8,5.1-9.442,10.058-14.122,14.978-1,1.053-1.07.988-2.492.065A122.315,122.315,0,0,0,963.429,1336.031Z" transform="translate(-405.791 -267.116)"/><path class="b" d="M665.829,1041.406c-20.441-2.431-39.122,1.641-56.052,13.145-.9.612-1.729,1.341-2.836-.277,3.134-1.919,6.18-3.97,9.394-5.711a71.964,71.964,0,0,1,18.321-7.031c1.685-.383,3.39-.7,5.081-1.1a30.1,30.1,0,0,1,5.664-.829c4.024-.144,8.055-.094,12.083-.115a39.324,39.324,0,0,1,5.807.089C664.166,1039.71,665.827,1039.5,665.829,1041.406Z" transform="translate(-210.865 -88.173)"/><path class="b" d="M585.807,1237.73c-.657-3.991-1.256-7.626-1.883-11.431l2.092-.643.221,1.319,1.948-.138-.932-1.1c4.073-.9,6.661.277,7.485,3.387.795,3,.221,5.319-2.026,6.362A59.372,59.372,0,0,1,585.807,1237.73Z" transform="translate(-196.979 -200.399)"/><path class="b" d="M737.594,1086.572c1.866-3.425,1.788-6.345-1.392-8.865l.372-.364c1.6,0,3.44.494,4.732-.136,1.328-.647,2.123-2.392,3.5-4.091.3,3.993,2.023,6.449,6.242,6.8-3.6,1.7-5.176,4.256-4.3,8.3C744.038,1085.278,741.182,1084.44,737.594,1086.572Z" transform="translate(-288.849 -108.496)"/><path class="b" d="M692.775,1373.3c-.465,1.555-1.449,3.183-1.245,4.645.194,1.39,1.63,2.605,2.939,4.506-4.221-1.255-6.918.071-8.594,3.8-.431-3.979-2.268-6.317-6.454-6.683,3.524-1.718,5.321-4.115,4.333-8.242,2.7,2.811,5.52,3.869,8.96,1.309Q692.744,1372.963,692.775,1373.3Z" transform="translate(-254.593 -288.407)"/><path class="b" d="M612.4,1520.895a10.137,10.137,0,0,1-2.361-.024c-4.854-1.417-9.782-2.651-14.508-4.421-5.4-2.024-10.621-4.54-15.92-6.843l.219-.9a7.354,7.354,0,0,1,2.661.231,116.877,116.877,0,0,0,36.46,11.94c4.943.73,9.959.961,14.935,1.475a7,7,0,0,1,1.789.716c-.626.292-1.282.889-1.874.832q-9.827-.949-19.632-2.112A4.984,4.984,0,0,1,612.4,1520.895Z" transform="translate(-194.379 -371.292)"/><path class="b" d="M634.32,1094.447c2.835,2.827,5.671,3.1,9.057.859-1.656,3.619-1.249,6.608,2.4,9.064-2.27.171-4.151-.182-5.411.544-1.284.74-1.958,2.541-3.026,4.059-.76-1.871-1.477-3.636-2.085-5.132l-4.577-.757-.413-.418C633.987,1101.068,635.117,1098.308,634.32,1094.447Z" transform="translate(-224.937 -121.366)"/><path class="b" d="M785.065,1356.058c3.881.48,6.432-.942,7.866-4.556.251,4.314,3.425,5.186,6.684,6.162l-4.19,3.807-3.829-2.759-.629.676a22.466,22.466,0,0,0,3.837,3.1c1.62.82,1.235,2.055,1.449,3.941-2.929-3.1-5.9-3.693-9.339-1.347C788.609,1361.54,788.177,1358.655,785.065,1356.058Z" transform="translate(-318.329 -276.449)"/><path class="b" d="M640.676,1429.529l21.471,6.375a7.7,7.7,0,0,1-2.307,1.311c-1.787.387-3.363,1.613-5.474.856-3.91-1.4-7.936-2.478-12.34-3.819l3.545-1.687C640.726,1433.077,640.726,1433.077,640.676,1429.529Z" transform="translate(-231.218 -323.524)"/><path class="b" d="M462.48,1038.587c-.333-.858-.927-1.528-.234-2.658a125.757,125.757,0,0,1,24.934-29.607c.386-.334.8-.637,1.2-.954l.556.377a11.271,11.271,0,0,1-1.649,2.651,134.724,134.724,0,0,0-22.074,25.806,46.449,46.449,0,0,1-2.774,4.334Z" transform="translate(-123.375 -67.624)"/><path class="b" d="M807.994,1056.672c12.909,5.045,22.715,13.843,31.313,24.166l-.341.716c-.72-.325-1.681-.455-2.125-1a79.984,79.984,0,0,0-28.116-22.1C807.471,1057.853,807.488,1057.82,807.994,1056.672Z" transform="translate(-331.967 -98.576)"/><path class="b" d="M639,1418.181a79.248,79.248,0,0,0,34.108,7.924q.067.325.134.649c-1.13.295-2.291.926-3.385.826-4.512-.414-9.108-.632-13.478-1.709-5.492-1.355-10.809-3.44-16.162-5.321-.706-.248-1.181-1.151-1.763-1.752Z" transform="translate(-229.878 -316.678)"/><path class="b" d="M431.8,1116.814c-.175.688-.305,1.393-.53,2.065-1.922,5.732-4.047,11.4-5.731,17.2a104.955,104.955,0,0,0-2.4,11.98c-.2,1.182-.62,1.572-2.154,1.509,1.076-5.066,2.1-9.995,3.183-14.91a40.241,40.241,0,0,1,1.3-4.623q2.15-6.144,4.441-12.238a8.546,8.546,0,0,1,1.183-1.721Z" transform="translate(-98.678 -134.419)"/><path class="b" d="M722.543,1537.457a145.644,145.644,0,0,0,33.137-3.735c-.354.5-.639,1.361-1.072,1.444-6.266,1.194-12.528,2.453-18.842,3.335a98.541,98.541,0,0,1-11.446.556c-.662.014-1.338-.587-2.007-.9Z" transform="translate(-280.47 -386.384)"/><path class="b" d="M536.778,1473.531c-1.754,1.322-1.946,1.256-2.281-.27a13.873,13.873,0,0,1-2.842-.926,113.8,113.8,0,0,1-20.812-16.077,7.442,7.442,0,0,1-1.631-3.422C517.45,1461.085,526.862,1467.605,536.778,1473.531Z" transform="translate(-151.904 -337.586)"/><path class="b" d="M584.25,949.6a17.533,17.533,0,0,1-2.613,1.878c-6.6,3.136-13.234,6.208-19.868,9.275a5.178,5.178,0,0,1-1.43.148c-.889,1.8-4.831,3.9-6.512,2.872a118.111,118.111,0,0,1,29.968-14.748Z" transform="translate(-178.821 -33.63)"/><path class="b" d="M555.062,1103.4c.063-3.762,2.388-6.419,4.5-9.17a79.168,79.168,0,0,1,14.027-14.138c.831-.65,1.6-1.182,2.647.032-.728.6-1.451,1.22-2.2,1.808a77.37,77.37,0,0,0-17.911,20.212,8.045,8.045,0,0,1-1.125,1.187Z" transform="translate(-179.53 -112.285)"/><path class="b" d="M571.713,1369.252l.378-.212-6.024-5.738.6-.843a7.214,7.214,0,0,1,2.206,1.226,81.837,81.837,0,0,0,19.933,17.346,3.989,3.989,0,0,1,1.27,2C586.524,1382.452,574.9,1373.29,571.713,1369.252Z" transform="translate(-186.205 -283.06)"/><path class="b" d="M662.938,935.654c-4.625.679-9.273,1.234-13.868,2.075-3.816.7-7.56,1.784-11.36,2.588a11.575,11.575,0,0,1-2.851-.1q-.033-.422-.067-.845c3.568-.911,7.1-2.01,10.713-2.686,5.114-.958,10.281-1.641,15.44-2.336.694-.094,1.472.424,2.21.658Z" transform="translate(-227.668 -24.771)"/><path class="b" d="M789.356,1094.693c-.253,2.7.563,4.518,3.368,5.488-1.454.619-2.73.826-3.46,1.569-.693.707-.814,1.974-1.252,3.171-1.513-1.85-2.664-4.148-5.76-2.74,1.895-1.913,2.369-3.882.5-6.555C785.418,1096.633,787.587,1097.19,789.356,1094.693Z" transform="translate(-316.632 -121.514)"/><path class="b" d="M825.828,1340.773c.519-2.779-.813-4.313-3.1-5.538,2.681-.387,4.119-1.834,4.273-4.522l.6.112c.313,1.315.625,2.629,1,4.191.9-2.428,2.68-1.33,4.685-1.7-2.087,2.085-2.914,4.007-1.151,6.409C829.73,1338.788,827.7,1338.656,825.828,1340.773Z" transform="translate(-341.054 -263.907)"/><path class="b" d="M657.5,1365.267c-2.182,1.872-2.4,3.78-1.069,6.113-2.387-1.085-4.426-.956-6.173,1.348-.582-1.937.577-4.149-1.782-5.092l1.865-.156-.847-.8,2.188-4.079C653.965,1364.989,653.965,1364.989,657.5,1365.267Z" transform="translate(-235.926 -283.147)"/><path class="b" d="M875.707,1483.234c.263-.568.37-1.365.814-1.67q6.442-4.412,13.005-8.647a4.727,4.727,0,0,1,1.948-.3c.173-2.771,3.053-3.289,4.494-4.99.268-.316,1.088-.165,1.74.086-6.382,6.423-13.685,11.366-21.333,15.839Z" transform="translate(-373.014 -346.404)"/><path class="b" d="M612.259,1136.131l-4.95-4.1c1.863-1.182.149-2.883-.019-4.513l.538-.17c.179.447.358.894.726,1.814l5.088-2.976c-.473,2.593.169,4.549,2.882,5.5C614.115,1132.515,611.758,1133.025,612.259,1136.131Z" transform="translate(-211.075 -140.512)"/><path class="b" d="M1022.069,1282.041q-2.459,10.52-4.919,21.039l-.964.05c-.171-.626-.6-1.309-.475-1.871q2.031-9.252,4.253-18.462c.123-.512.833-.883,1.271-1.319Z" transform="translate(-457.467 -234.203)"/><path class="b" d="M484.965,1428.708l-13.637-16.663.676-.769a8.791,8.791,0,0,1,2.148,1.4q5.382,6.431,10.607,12.994a10.925,10.925,0,0,1,1.122,2.505Z" transform="translate(-129.048 -312.512)"/><path class="b" d="M981.128,1073.038c-.588-.2-1.464-.228-1.722-.639-3.283-5.234-6.478-10.523-9.772-15.924l1.272-.872,10.657,16.8Z" transform="translate(-429.681 -97.931)"/><path class="b" d="M830.568,1513.974l16.422-7.4c.646.691.838,1.327-.421,1.887-4.744,2.113-9.454,4.3-14.221,6.36-.528.228-1.342-.205-2.023-.332Z" transform="translate(-345.635 -370.006)"/><path class="b" d="M544.1,1138.416c-.524,2.63-2.251,5.1-3.6,4.863,1.18,2.792-.7,4.3-2.653,5.955l1.163.441c-.391,1.026-.78,2.047-1.19,3.124-1.507-1.537-.771-2.974-.107-4.417,1.014-2.205,1.98-4.434,3.039-6.618.685-1.414,1.5-2.764,2.3-4.213l1.114.936Z" transform="translate(-168.628 -147.371)"/><path class="b" d="M775.76,1045.069c2.369.286,4.624.647,6.656,2.244,1.012.8,2.788.547,4.122,1.037.653.24,1.082,1.087,1.613,1.659l-.393.389c-3.841-1.266-7.692-2.5-11.5-3.854-.294-.1-.3-1.011-.444-1.545Z" transform="translate(-312.715 -91.534)"/><path class="b" d="M447.173,1099.948l-.706-.732a19.444,19.444,0,0,1,.9-2.911c1.164-2.406,2.468-4.743,3.663-7.135.512-1.025,1.119-1.4,2.123-.655l-.037-.05Z" transform="translate(-114.05 -117.553)"/><path class="b" d="M460.724,1393.73l-6.286-10.6.477-.6c.6.364,1.431.585,1.772,1.117,1.635,2.55,3.071,5.228,4.721,7.767C462.092,1392.47,461.929,1393.066,460.724,1393.73Z" transform="translate(-118.858 -295.171)"/><path class="b" d="M948.635,1028.654l7.889,9.107-1.13,1.242c-2.352-2.7-4.68-5.281-6.88-7.969-.413-.5-.316-1.427-.455-2.156Z" transform="translate(-416.664 -81.673)"/><path class="b" d="M540.424,989.07l-9.183,6.96-.479-.258a7.457,7.457,0,0,1,1.271-2.369c2.054-1.727,4.226-3.325,6.439-4.844.444-.3,1.277-.044,1.93-.044Q540.414,988.793,540.424,989.07Z" transform="translate(-164.905 -57.394)"/><path class="b" d="M1167.564,1131.395l7.431-1.379-1.543,5.22c-2.047-1.409-3-4.213-5.9-3.843Z" transform="translate(-549.089 -142.825)"/><path class="b" d="M816.27,1527.722l-8.664,2.788-.4-.644a11.112,11.112,0,0,1,2.223-1.64,35.725,35.725,0,0,1,5.029-1.617,5.218,5.218,0,0,1,1.946.313Q816.337,1527.322,816.27,1527.722Z" transform="translate(-331.688 -382.072)"/><path class="b" d="M764.428,1042.238l.05-.07c-2.088,1.986-4.255.282-6.372.069-.411-.042-.754-.763-1.129-1.172l.376-.759Z" transform="translate(-301.383 -88.703)"/><path class="b" d="M734.709,1437.053l.563,1.893h-5.746c.522-1.432.509-1.4,1.89-.877.276.1.7-.169,1.049-.282C733.188,1437.555,733.907,1437.316,734.709,1437.053Z" transform="translate(-284.822 -328.063)"/><path class="b" d="M913.783,1305.439c-.82-2.739-.51-3.477,2.2-3.843-.879,1.467-1.57,2.621-2.261,3.776C913.721,1305.375,913.783,1305.439,913.783,1305.439Z" transform="translate(-395.745 -246.341)"/><path class="b" d="M628.5,1412.417c1.045.776,2.978.684,2.372,2.963C629.472,1414.861,627.874,1414.66,628.5,1412.417Z" transform="translate(-223.786 -313.2)"/><path class="b" d="M555.246,1364.374l2.859.993a7.562,7.562,0,0,1-.478,1.066c-.946-.273-1.866-.633-2.793-.974Z" transform="translate(-179.429 -284.215)"/><path class="c" d="M789.616,1206.433c.759,1.122,1.579,2.21,2.236,3.389.166.3-.185.882-.3,1.336-.379-.194-.986-.3-1.1-.594-.483-1.286-.822-2.626-1.213-3.946Z" transform="translate(-320.85 -188.928)"/><path class="c" d="M1100.259,1211.971c1.937,1.538,3,3.769,1.933,5.295q-.946-2.665-1.89-5.331Z" transform="translate(-508.488 -192.248)"/><path class="c" d="M1056.555,1156.715c-.43,0-1.033.182-1.259-.032a30.187,30.187,0,0,1-2.606-2.886c-.092-.113.207-.546.445-1.12l3.726,3.607Z" transform="translate(-479.779 -156.496)"/><path class="c" d="M957.272,1267.154l-7.894-.707c2.406-1,4.9.633,7.487-.5.071.242.219.744.366,1.247Z" transform="translate(-417.46 -224.834)"/><path class="c" d="M1072.3,1220.285c.957-1.387,1.377-3.648,4.025-2.933Z" transform="translate(-491.617 -195.433)"/><path class="c" d="M1096.379,1171.7l-5.448,1.559q-.114-.4-.229-.809C1093.011,1173.475,1093.876,1169.5,1096.379,1171.7Z" transform="translate(-502.722 -167.568)"/><path class="c" d="M1005.4,1181.175l3.3-1.7C1008.461,1181.89,1008.458,1181.892,1005.4,1181.175Z" transform="translate(-451.257 -172.663)"/><path class="c" d="M1072.446,1179.086l2.395,3.538C1072.53,1181.9,1071.765,1180.531,1072.446,1179.086Z" transform="translate(-491.564 -172.429)"/><path class="c" d="M996.465,1186.9l-3.864-.312c.013-.2.026-.391.039-.587h3.894Q996.5,1186.448,996.465,1186.9Z" transform="translate(-443.537 -176.6)"/><path class="c" d="M448.221,1330.9a24.459,24.459,0,0,1-3.925-.044c-1.427-.235-2.359-.186-2.849,1.464a10.586,10.586,0,0,1-1.678,2.571l-.827-.532,3.179-5.608c-.115-1.987-.115-1.987,2.362-2.816l.338.406-2.182,1.591C443.414,1331.26,446.867,1328.362,448.221,1330.9Z" transform="translate(-109.51 -261.023)"/><path class="c" d="M523.373,1312.733l-9.912-2.523,2.155-1.232,7.881,3.228Q523.435,1312.469,523.373,1312.733Z" transform="translate(-154.468 -250.794)"/><path class="c" d="M433.881,1285.6c1.671-1.143,3.22-2.235,4.808-3.264a2.471,2.471,0,0,1,1.235-.271c.115,0,.4.5.332.6a3.667,3.667,0,0,1-.88.922,31.338,31.338,0,0,0-2.609,1.849C435.546,1286.55,434.985,1286.644,433.881,1285.6Z" transform="translate(-106.456 -234.559)"/><path class="c" d="M669.588,1234.713l-3.024,3.831c1.35-2.648,1.011-4.5-1.635-5.528l.548-.464Z" transform="translate(-245.85 -204.686)"/><path class="c" d="M668.319,1287.277c1.534-.539,4.277,1.478,4.777,3.817Z" transform="translate(-247.895 -237.649)"/><path class="c" d="M430.038,1351.879l-3.431,4.992C426.157,1354.709,427.993,1351.935,430.038,1351.879Z" transform="translate(-102.026 -276.677)"/><path class="c" d="M367.079,1316.929a6.088,6.088,0,0,1,1,.01,12.98,12.98,0,0,1,2.009.448,7.363,7.363,0,0,1,1.287.742c-.375.26-.866.821-1.107.729a36.484,36.484,0,0,1-3.3-1.594Z" transform="translate(-66.085 -255.581)"/><path class="c" d="M551.578,1299.759q.487,3.508.974,7.017l-.435.078q-.631-3.468-1.262-6.935Z" transform="translate(-177.028 -245.233)"/><path class="c" d="M422.387,1329.315l4.727,1.259-.106.562-4.818-.853Q422.288,1329.8,422.387,1329.315Z" transform="translate(-99.402 -263.064)"/><path class="c" d="M712.328,1315.343c.681.311,1.338.56,1.939.909.263.153.409.509.607.773-.339.178-.73.566-1.009.5C712.738,1317.246,712.011,1316.587,712.328,1315.343Z" transform="translate(-274.401 -254.635)"/><path class="c" d="M985.2,1427.794c1.749.221,3.489-.084,4.644,1.748l-4.422.389C985.392,1429.619,985.311,1428.837,985.2,1427.794Z" transform="translate(-439.073 -322.477)"/><path class="c" d="M1187.548,1297.624l-3.514,1.454-1.969-2.587,5.351.489C1187.459,1297.194,1187.5,1297.409,1187.548,1297.624Z" transform="translate(-557.842 -243.261)"/><path class="c" d="M1127.453,1292.737l-2.122-2.224,2.126-2.569.567.1C1127.845,1289.512,1127.666,1290.983,1127.453,1292.737Z" transform="translate(-523.614 -238.104)"/><path class="c" d="M1155.258,1297.65h7.129C1159.993,1298.3,1157.569,1299.36,1155.258,1297.65Z" transform="translate(-541.67 -243.96)"/><path class="c" d="M1165.325,1273.333c2-.713,2.514-.587,3.835,1.372l-3.978-.708Z" transform="translate(-547.657 -229.05)"/><path class="c" d="M328.417,1383.823l-1.954-1.208c-1.029,1.891-2.4,3.33-4.7,3.279a6.069,6.069,0,0,1-1.674-.71,18.316,18.316,0,0,0,3.342-1.141c1.8-1.084,1.722-2.575.117-3.964a6.687,6.687,0,0,1-1.494-2.307c-.741-1.628-1.363-3.309-2.119-5.178.146.015.81-.114,1.065.152a8.746,8.746,0,0,1,1.244,1.991c1.136,2.129,2.235,4.278,3.376,6.4.668,1.243,1.546.8,2.255.1a19.463,19.463,0,0,0,1.676-2.123h3.442c-1.951,1.241-5.424.859-4.616,4.74Z" transform="translate(-37.711 -289.164)"/><path class="c" d="M306.548,1329.844l-2.244.361-.232,2.571-.472.287c-1.095-2.357-2.49-4.214-5.545-3.307l.131-.67,2.769-.448c.617-.953,1.367-2.026-.165-3.178.375.106.938.094,1.09.339.546.876.763,2.039,1.468,2.712C304.008,1329.142,305.13,1329.288,306.548,1329.844Z" transform="translate(-24.511 -260.738)"/><path class="c" d="M341.215,1400.964c1.38,1.716,2.753,3.437,4.147,5.143.321.393.717.725,1.068,1.094a1.19,1.19,0,0,1,.427,1.112c-2.657-1.887-5.349-3.743-5.6-7.386Z" transform="translate(-50.55 -306.268)"/><path class="c" d="M283.307,1306.628c-2.638,1.395-5.236.712-7.925.891C277.229,1306.018,281.31,1305.509,283.307,1306.628Z" transform="translate(-10.832 -249.011)"/><path class="c" d="M313.494,1428.209c.034-1.354.034-1.354,2.526-2.464C316.064,1427.308,315.8,1427.575,313.494,1428.209Z" transform="translate(-33.826 -321.241)"/><path class="c" d="M353.769,1428.318a15.235,15.235,0,0,1,2.077-1.455,6.118,6.118,0,0,1,1.613-.258c-.349.571-.573,1.407-1.079,1.644A7.428,7.428,0,0,1,353.769,1428.318Z" transform="translate(-58.124 -321.76)"/><path class="c" d="M670.752,1557.205l-3.376-7.551C669.587,1550.2,671.14,1554.081,670.752,1557.205Z" transform="translate(-247.326 -395.996)"/><path class="c" d="M624.663,1546.749l3.943,6.164C626.724,1552.3,624.4,1547.887,624.663,1546.749Z" transform="translate(-221.544 -394.244)"/><path class="c" d="M572.42,1518.785l-2.872.585,1.791-3.35Z" transform="translate(-188.305 -375.704)"/><path class="c" d="M669.305,1481.918c-.354-1.242.694-1.468,1.73-1.784,1.517-.463,3.01-1,4.429-1.481.116,1.03-.289,1.533-2.279,2.164C671.927,1481.216,670.646,1481.541,669.305,1481.918Z" transform="translate(-248.447 -353.161)"/><path class="c" d="M794.244,1492.343c-1.19-.671-2.228-1.432-1.8-3.158,1.381.615,2.524,1.281,1.889,3.076Z" transform="translate(-322.72 -359.515)"/><path class="c" d="M845.554,1443.305c-.284-1.26-.418-1.857-.67-2.969a11.064,11.064,0,0,1,1.533-.958c.133-.063.837.59.788.7C846.805,1441.023,846.29,1441.916,845.554,1443.305Z" transform="translate(-354.418 -329.463)"/><path class="c" d="M888.527,1413.407l2.285-.6c-.519.919-.845,1.432-1.1,1.976-.244.509-.418,1.051-.673,1.708l-1.692-.941C887.663,1414.635,890.039,1415.122,888.527,1413.407Z" transform="translate(-380.033 -313.432)"/><path class="c" d="M905.018,1441.463l1.488,2.164-.314.335-2.856-2.423,2.328-1.656.378.292Z" transform="translate(-389.683 -329.771)"/><path class="b" d="M462.25,1306.2c-.879-1.683-.128-2.922,1.04-4.134,1.836,2.035-.432,2.859-1.043,4.138Z" transform="translate(-123.34 -246.626)"/></g></svg>