<svg xmlns="http://www.w3.org/2000/svg" width="19.158" height="16" viewBox="0 0 19.158 16"><defs><style>.a{fill:#8e8e8e;stroke:#8e8e8e;fill-rule:evenodd;}</style></defs><path class="a" d="M17.579,20h-15A1.579,1.579,0,0,1,1,18.421V6.579A1.579,1.579,0,0,1,2.579,5h15a1.579,1.579,0,0,1,1.579,1.579V18.421A1.579,1.579,0,0,1,17.579,20Zm.789-13.421a.79.79,0,0,0-.789-.789h-15a.79.79,0,0,0-.789.789V8.947H18.368Zm0,3.158H1.789v8.684a.79.79,0,0,0,.789.789h15a.79.79,0,0,0,.789-.789Zm-1.579,5.526H16a.4.4,0,0,1-.395-.395v-.789A.4.4,0,0,1,16,13.684h.789a.4.4,0,0,1,.395.395v.789A.394.394,0,0,1,16.789,15.263Zm0-2.763H16a.4.4,0,0,1-.395-.395v-.789A.4.4,0,0,1,16,10.921h.789a.394.394,0,0,1,.395.395v.789A.394.394,0,0,1,16.789,12.5Zm-3.158,2.763h-.789a.4.4,0,0,1-.395-.395v-.789a.4.4,0,0,1,.395-.395h.789a.4.4,0,0,1,.395.395v.789A.394.394,0,0,1,13.632,15.263Zm0-2.763h-.789a.4.4,0,0,1-.395-.395v-.789a.4.4,0,0,1,.395-.395h.789a.394.394,0,0,1,.395.395v.789A.394.394,0,0,1,13.632,12.5Zm-3.158,2.763H9.684a.394.394,0,0,1-.395-.395v-.789a.4.4,0,0,1,.395-.395h.789a.4.4,0,0,1,.395.395v.789A.394.394,0,0,1,10.474,15.263Zm0-2.763H9.684a.394.394,0,0,1-.395-.395v-.789a.394.394,0,0,1,.395-.395h.789a.394.394,0,0,1,.395.395v.789A.394.394,0,0,1,10.474,12.5ZM7.316,18.026H6.526a.394.394,0,0,1-.395-.395v-.789a.394.394,0,0,1,.395-.395h.789a.394.394,0,0,1,.395.395v.789A.394.394,0,0,1,7.316,18.026Zm0-2.763H6.526a.394.394,0,0,1-.395-.395v-.789a.4.4,0,0,1,.395-.395h.789a.4.4,0,0,1,.395.395v.789A.394.394,0,0,1,7.316,15.263Zm0-2.763H6.526a.394.394,0,0,1-.395-.395v-.789a.394.394,0,0,1,.395-.395h.789a.394.394,0,0,1,.395.395v.789A.394.394,0,0,1,7.316,12.5ZM4.158,18.026H3.368a.394.394,0,0,1-.395-.395v-.789a.394.394,0,0,1,.395-.395h.789a.394.394,0,0,1,.395.395v.789A.394.394,0,0,1,4.158,18.026Zm0-2.763H3.368a.394.394,0,0,1-.395-.395v-.789a.4.4,0,0,1,.395-.395h.789a.4.4,0,0,1,.395.395v.789A.394.394,0,0,1,4.158,15.263Zm5.526,1.184h.789a.394.394,0,0,1,.395.395v.789a.394.394,0,0,1-.395.395H9.684a.394.394,0,0,1-.395-.395v-.789A.394.394,0,0,1,9.684,16.447Z" transform="translate(-0.5 -4.5)"/></svg>