<svg xmlns="http://www.w3.org/2000/svg" width="45" height="45" viewBox="0 0 45 45"><defs><style>.a{fill:#9a66e4;}.b{fill:#fff;}</style></defs><g transform="translate(-9.5 30)"><rect class="a" width="45" height="45" rx="22.5" transform="translate(9.5 -30)"/><g transform="translate(20 -19.5)"><ellipse class="b" cx="5" cy="6" rx="5" ry="6" transform="translate(7 2)"/><path class="b" d="M21.8,19.1A9.114,9.114,0,0,0,17,14.9a2.239,2.239,0,0,0-1.8.1,6.139,6.139,0,0,1-6.4,0A2.25,2.25,0,0,0,7,15a9.114,9.114,0,0,0-4.8,4.2A1.974,1.974,0,0,0,4.1,22H19.9A2.025,2.025,0,0,0,21.8,19.1Z"/></g></g></svg>