<svg xmlns="http://www.w3.org/2000/svg" width="347.492" height="215.659" viewBox="0 0 347.492 215.659">
  <g id="Group_45" data-name="Group 45" transform="translate(-137.75 -69.19)">
    <g id="Group_44" data-name="Group 44" transform="translate(42.569 39.911)">
      <g id="Group_43" data-name="Group 43">
        <path id="Path_352" data-name="Path 352" d="M264.9,520.1s-35.643-75.9,34.606-75.9c37.117,0,21.827-20.826,47.062-44.927s113.487-43.357,132.27,3.184-27.638,81.877,17.219,75.816c53.9-7.284,75.2,41.832,75.2,41.832Z" transform="translate(-160.675 -275.165)" fill="#faedf6"/>
        <path id="Path_353" data-name="Path 353" d="M1286.846,1175.337c-4.79-3.5-14.578-1.137-21.8,1.39a33,33,0,0,0-3.971-4.607c15.562-10.025,37.055-31.4,25.663-33.213-9.9-1.573-23.267,17.67-30.409,29.385-7.417-4.989-18.782-8.657-36.134-7.385-45.032,3.3-80.212-25.746-106.144-16.058-20.618,7.7-39.514,12.018-57.737,10.544.784-13.312.954-39.45-9.5-42.161-10.613-2.753-.2,26.931,5.583,41.752q-2.036-.26-4.063-.622c-3.746-7.387-9.92-17.054-16.7-17.385-6.384-.311,1.5,8.38,9.249,15.743-22.285-4.679-48.72,13.436-49.159,34.855h278.217a25.784,25.784,0,0,0-2.676-7.248C1278.02,1180.116,1292.049,1179.139,1286.846,1175.337Z" transform="translate(-847.265 -944.338)" fill="#3aa6c3"/>
        <g id="Group_28" data-name="Group 28" transform="translate(109.213 226.683)">
          <g id="Group_27" data-name="Group 27">
            <rect id="Rectangle_185" data-name="Rectangle 185" width="73.328" height="16.558" transform="translate(22.61 0.001)" fill="#814eb3"/>
            <rect id="Rectangle_186" data-name="Rectangle 186" width="73.327" height="16.559" fill="#653893"/>
          </g>
        </g>
        <g id="Group_31" data-name="Group 31" transform="translate(217.161 166.92)">
          <g id="Group_30" data-name="Group 30" transform="translate(0 0)">
            <g id="Group_29" data-name="Group 29" transform="translate(0 0)">
              <rect id="Rectangle_187" data-name="Rectangle 187" width="54.601" height="76.318" transform="translate(71.436 76.318) rotate(180)" fill="#814eb3"/>
              <rect id="Rectangle_188" data-name="Rectangle 188" width="54.601" height="76.318" transform="translate(54.601 76.318) rotate(180)" fill="#653893"/>
            </g>
          </g>
          <path id="Path_354" data-name="Path 354" d="M1692.823,1103.168l16.835,11.459v-11.459Z" transform="translate(-1638.223 -1103.168)" fill="#653893"/>
        </g>
        <g id="Group_35" data-name="Group 35" transform="translate(218.482 29.279)">
          <path id="Path_364" data-name="Path 364" d="M1739.2,490.726c-.844-.128-3.387,2.223-3.387,2.223h0c-5.431.628-13.372,2.07-16.23,2.62-2.027.39-7.476-1.468-12.8-3.6-6.331-2.538-12.484-5.466-12.484-5.466-3.513-.179-7.5,6.23-.378,10.305,1.088.622,5.174,1.684,9.879,2.653h0c6.491,1.337,14.159,2.5,16.77,2.091,3.032-.474,11.615-3.614,16.72-6.019h0l.013-.006.057-.027a6.247,6.247,0,0,1,2.39-.651c.957.057,3.087-1.694,3.152-2.161S1740.044,490.854,1739.2,490.726Z" transform="translate(-1637.203 -460.829)" fill="#e89277"/>
          <path id="Path_365" data-name="Path 365" d="M1682.956,706.513l-2.99.608s-13.685-15.376-15.8-21.846c-1.13-3.458-8.355-4.952-15.905-6.9-6.572-1.7-13.39-3.746-16.646-7.74-7-8.582,4.4-19.127,4.4-19.127s12.115,7.2,22.567,14.639c7.305,5.2,13.8,10.513,14.777,13.568C1675.733,687.138,1680.772,701.256,1682.956,706.513Z" transform="translate(-1587.591 -595.873)" fill="#653893"/>
          <path id="Path_366" data-name="Path 366" d="M1896.4,954.916h1.682c.563-.088.979-.251,1.557-.327a1.561,1.561,0,0,1,1.362.327l.016.017h7.145c.18-.257.007-.851-.162-1.289a1.016,1.016,0,0,0-.669-.611,7.709,7.709,0,0,1-3.62-1.653c-.77-.7-3.717-2.557-3.717-2.557l-.016,0c-.065,0-.373.1-1.713,1.228-.693.584-1.874-.825-1.874-.825a1.681,1.681,0,0,0-.387.525,1.775,1.775,0,0,0-.154,1.1,7.11,7.11,0,0,1-.512,2.65c-.166.49-.307.838-.307.838S1894.951,954.735,1896.4,954.916Z" transform="translate(-1805.035 -839.203)" fill="#2b265e"/>
          <path id="Path_367" data-name="Path 367" d="M1658.581,666.142l-10.316,12.228c-6.572-1.7-13.39-3.746-16.646-7.74-7-8.582,4.4-19.127,4.4-19.127S1648.129,658.7,1658.581,666.142Z" transform="translate(-1587.591 -595.873)" fill="#431b73"/>
          <path id="Path_368" data-name="Path 368" d="M1588.91,676.011s-.832,2.623-2.186,6.568c-1.712,4.989-4.262,12.093-7.028,18.681-.608,1.447-1.227,2.871-1.849,4.241-2.3,5.07-4.655,9.415-6.728,11.624-3.725,3.97-12.781,29.494-12.781,29.494l-2.257-.625s-3.146-21.794,8-34.2a.788.788,0,0,0,.226-.463.006.006,0,0,0,0,0c.148-1.836.679-10.057,1.833-18.387.284-2.044.6-4.093.966-6.056.023-.126.047-.25.069-.374,1.7-9.078,3.319-13.116,5.414-15.147L1588,675.751Z" transform="translate(-1527.295 -612.128)" fill="#653893"/>
          <path id="Path_369" data-name="Path 369" d="M1550.377,1075.591h1.682c.563-.089.979-.252,1.557-.327a1.56,1.56,0,0,1,1.362.327l.016.017h7.146c.18-.257.007-.851-.162-1.289a1.017,1.017,0,0,0-.669-.612,7.708,7.708,0,0,1-3.62-1.653c-.77-.7-3.716-2.558-3.716-2.558l-.016,0c-.065,0-.373.1-1.713,1.228-.693.584-1.874-.825-1.874-.825a1.685,1.685,0,0,0-.387.525,1.776,1.776,0,0,0-.153,1.1,7.112,7.112,0,0,1-.512,2.65c-.167.49-.307.838-.307.838S1548.93,1075.41,1550.377,1075.591Z" transform="translate(-1521.842 -937.967)" fill="#2b265e"/>
          <path id="Path_370" data-name="Path 370" d="M1431.228,529.18s-2.578,6.307-5.551,12.446c-2.5,5.161-5.278,10.2-7.04,11.28-2.484,1.517-9.326,5.8-13.765,8.99,0,0-3.464-.026-4,.637s-1.78,3.643-1.417,3.944,3.116.162,3.785-.524a6.248,6.248,0,0,1,2.206-1.128l.06-.018.014,0h0c5.394-1.659,13.854-5.116,16.415-6.807,2.2-1.456,7.093-7.477,10.993-12.836h0c2.827-3.885,5.133-7.421,5.519-8.613C1440.97,528.737,1433.705,526.683,1431.228,529.18Z" transform="translate(-1399.388 -494.939)" fill="#f7b794"/>
          <path id="Path_371" data-name="Path 371" d="M1582.618,354.633a12.96,12.96,0,0,0-.924-1.193,2.9,2.9,0,0,0,1.138-.171c.905-.374,1.317-3.247,1.181-4.1s-1.393-3.316-2.943-3.562-3.152,1.476-3.152,1.476c.286-1.243,2.909-1.959,2.909-1.959-5.4,1-5.127,4.6-5.09,4.932-4.945-1.762-7.848,7.551-7.848,7.551l12.809,7.549s.034-2.057,1.256-1.924C1583.861,363.438,1585.448,358.758,1582.618,354.633Z" transform="translate(-1537.295 -345.124)" fill="#2b265e"/>
          <path id="Path_372" data-name="Path 372" d="M1611.385,458.931c-2.939,1.385-6.84-.61-6.819-.631.252-.252.164-1.007-.068-1.993a14.52,14.52,0,0,0-1.784-4.115c-.21-.357-.42-.714-.672-1.092l.336-.126,5.71-2.288s.924,1.658,1.89,3.17c.819,1.26,1.679,2.393,2.057,2.352C1612.057,454.186,1615.836,456.79,1611.385,458.931Z" transform="translate(-1565.246 -429.882)" fill="#f7b794"/>
          <path id="Path_373" data-name="Path 373" d="M1611.118,451.807c-.147,2.036-.84,5.71-3.59,7.054a14.521,14.521,0,0,0-1.784-4.115Z" transform="translate(-1568.275 -432.436)" fill="#e89277"/>
          <path id="Path_374" data-name="Path 374" d="M1575.347,416.02s7.435-2.93,5.538-7.532-2.214-8.079-7.04-6.4-5.02,3.81-4.76,5.5S1573.364,416.664,1575.347,416.02Z" transform="translate(-1538.213 -391.393)" fill="#f7b794"/>
          <path id="Path_375" data-name="Path 375" d="M1573.991,405.276c3.433-.485,4.435-1.872,4.435-1.872a9.508,9.508,0,0,1-5.019-4s-3.858-1.3-6.717.874a1.922,1.922,0,0,0-.361.806c-.655-.215-1.641-.159-2.209,1.693-.854,2.782,2.185,5.82,2.185,5.82.737-.208-.094-2.688-.21-4.011a6.267,6.267,0,0,1,.723-2.812c.364.472,3.985,5.023,8.406,5.2a18.652,18.652,0,0,1-4.461-2.4A5.708,5.708,0,0,0,1573.991,405.276Z" transform="translate(-1534.084 -389.23)" fill="#2b265e"/>
          <path id="Path_376" data-name="Path 376" d="M1585.952,489.838c-.063-.222-.13-.452-.2-.689a17.443,17.443,0,0,0,1.876-5.622,11.287,11.287,0,0,0-.357-5.5s-5.157-2.734-7.434-3.083a.122.122,0,0,0-.028-.009c-.027,0-.058-.006-.091-.009-2.3-.317-7.275.7-7.275.7a3.6,3.6,0,0,1-1.748,4.259c-2.708,1.7-5.6-.436-5.6-.436-.087.059-.18.123-.275.191h0s-7.125,4.7-7.765,5.776-3.38,6.394-3.38,6.394.869,4.466,10.495,4.839a22.237,22.237,0,0,1,1.594,5.353c.765,6.062-.123,10.844.768,14.382s16.952,1.521,19.86.84,2.254-3.787,2.478-6.8C1589.149,506.628,1586.9,493.182,1585.952,489.838Z" transform="translate(-1525.658 -451.308)" fill="#fe6083"/>
          <path id="Path_377" data-name="Path 377" d="M1718.91,516.322a17.45,17.45,0,0,1-1.889,5.647c-.252-1.112-1.281-5.185-2.939-7.033A14.229,14.229,0,0,1,1718.91,516.322Z" transform="translate(-1656.942 -484.103)" fill="#e22f67"/>
        </g>
        <g id="Group_39" data-name="Group 39" transform="translate(129.987 66.668)">
          <path id="Path_378" data-name="Path 378" d="M1380.382,718.377a50.641,50.641,0,0,1,3.636-4.055,11.053,11.053,0,0,1,3.632-1.029c.162.151.169.37-.181.68s-1.687,1.089-1.5,1.177,4.223-1.92,4.8-1.244-.329,3.462-1.883,4.8-6.192,1.906-6.484,2.092C1379.937,722.379,1380.382,718.377,1380.382,718.377Z" transform="translate(-1295.313 -683.816)" fill="#e89277"/>
          <path id="Path_379" data-name="Path 379" d="M1090.393,652.009s4.3,5.1,9.772,2.966a16.578,16.578,0,0,0,1.194-4.948c0-.258.005-.509.009-.747.029-2.364.109-3.691.109-3.691h-.006c-.249-.1-8.368-3.437-8.361-3.161C1093.25,648.823,1090.393,652.009,1090.393,652.009Z" transform="translate(-1058.004 -625.821)" fill="#f7b794"/>
          <path id="Path_380" data-name="Path 380" d="M1109.827,650.63a12.7,12.7,0,0,0,7.443,5.328c.029-2.364.109-3.691.109-3.691h-.006C1117.149,652.206,1109.594,650.2,1109.827,650.63Z" transform="translate(-1073.905 -632.498)" fill="#e89277"/>
          <path id="Path_381" data-name="Path 381" d="M1107.78,590.73s-9.131,2.147-10.38-3.56-3.269-9.273,2.508-10.885,7.39.317,8.27,2.12S1110.123,590.025,1107.78,590.73Z" transform="translate(-1062.606 -571.207)" fill="#f7b794"/>
          <path id="Path_382" data-name="Path 382" d="M1076.738,568.557c-.125.08-2.09.683-5.81-6.729a6.456,6.456,0,0,1,.38-5.9c1.362-2.224,6.189-3.973,10.2-4.734s4.974,1.5,5.919,3.764a12.244,12.244,0,0,0,3.855,4.341c-3.459,1.932-7.625-.831-9.068-.377s-1.953,2.729-2.061,3.458-.275,1.335-2.089.684-.82,2.572-.53,3.188C1077.532,566.248,1077.779,567.89,1076.738,568.557Z" transform="translate(-1041.631 -551.039)" fill="#2b265e"/>
          <g id="Group_36" data-name="Group 36" transform="translate(0 70.101)">
            <path id="Path_383" data-name="Path 383" d="M923.6,1369.933h-5.529c-1.159,0-2.447-1.176-2.769-3.329s-2.7-3.329-3.221-5.091,2.126-4.244,2.126-4.244l.442-.575.46-.6,4.379,1.044s.108,1.057.176,2.4c.047.972.073,2.1.018,3.081-.129,2.351.649,4.881,2.71,5.338S923.6,1369.933,923.6,1369.933Z" transform="translate(-912.011 -1280.019)" fill="#2b265e"/>
            <path id="Path_384" data-name="Path 384" d="M1117.206,1395.574h-14.655a1.3,1.3,0,0,1-.311-.093c-.978-.5-.672-4.361-.554-5.553.023-.221.039-.35.039-.35s5.153-4.244,5.863-.994c.023.1.048.2.076.3v0c.895,3.04,4.894,4.421,7.2,4.806A2.54,2.54,0,0,1,1117.206,1395.574Z" transform="translate(-1067.132 -1305.607)" fill="#2b265e"/>
            <path id="Path_385" data-name="Path 385" d="M1072.96,959.754s-.783,9.765-1.7,21.5c-1.25,15.945-2.754,35.53-2.9,39.241-.257,6.443-1.289,16.749-1.289,16.749s-2.447,2.448-7.343,1.416a168.576,168.576,0,0,1-5.61-30.278q-.029-.383-.058-.769c-1.159-15.846-2.962-49.214-2.962-49.214Z" transform="translate(-1025.839 -954.536)" fill="#61cef9"/>
            <path id="Path_386" data-name="Path 386" d="M1072.96,959.754s-.783,9.765-1.7,21.5l-17.145,27.128q-.029-.383-.058-.769c-1.159-15.846-2.962-49.214-2.962-49.214Z" transform="translate(-1025.839 -954.536)" fill="#3aa6c3"/>
            <path id="Path_387" data-name="Path 387" d="M965.44,943.494s-14.107,35.364-23.383,51.983-12.175,21.257-12.175,21.257-5.314-2.126-5.8-3.575c0,0,3.547-32.084,9.759-39.906,3.51-4.419,7.633-17.682,7.826-22.32s1.256-13.817,1.256-13.817Z" transform="translate(-921.893 -937.117)" fill="#61cef9"/>
          </g>
          <g id="Group_37" data-name="Group 37" transform="translate(4.336 26.753)">
            <path id="Path_388" data-name="Path 388" d="M942.8,931.938a47.79,47.79,0,0,1-.633,5.095,10.417,10.417,0,0,1-2.258,2.75c-.207-.03-.33-.2-.226-.624s.72-1.75.525-1.716-2.236,3.758-3.049,3.548-1.608-2.857-1.124-4.727,3.767-4.807,3.893-5.108C940.993,928.6,942.8,931.938,942.8,931.938Z" transform="translate(-935.89 -888.102)" fill="#e89277"/>
            <path id="Path_389" data-name="Path 389" d="M956.865,743.335c1.561.5,1.812.388,1.812.388s7.6-13.836,8.37-15.1S983.182,713.1,983.182,713.1l-3.949-14.725s-17.477,22.631-19.364,25.879c-3.119,5.366-4.946,17.83-4.946,17.83A4.57,4.57,0,0,0,956.865,743.335Z" transform="translate(-951.467 -698.379)" fill="#431b73"/>
          </g>
          <path id="Path_390" data-name="Path 390" d="M1051.79,704.044c-.055,3.024-.23,6.424-.467,9.876q-.022.307-.044.614c-.151,2.139-.316,4.283-.5,6.373q-.114,1.258-.24,2.481l-.013.11c-.007.3-.043.635-.077.937-.77,7.831-1.578,14.017-1.728,14.112a.879.879,0,0,1-.6.153c-2.054-.258-8.18.208-13.2-.884a38.029,38.029,0,0,1-11.74-4.868c-.513-.3-1.681-1.106-1.586-1.705.093-.659.266-1.612.485-2.81a152.029,152.029,0,0,0,2.523-19.715q.131-2.343.379-4.622a70.128,70.128,0,0,1,2.046-11.037c1.72-6.193,4.247-10.935,7.418-12.79.414-.232,2.643,1.186,4.691,2.5a9.037,9.037,0,0,0,5.817,1.378l1.7,1.884a19.031,19.031,0,0,1,4.86,10.131q.068.5.116,1.07A66.512,66.512,0,0,1,1051.79,704.044Z" transform="translate(-1001.691 -656.785)" fill="#653893"/>
          <path id="Path_391" data-name="Path 391" d="M1124.608,764.947c-.055,3.024-.23,6.424-.468,9.876q-.022.307-.043.614c-11.73-7.342-13.537-20.778-13.537-20.778a32.087,32.087,0,0,1,13.888,3.477A66.508,66.508,0,0,1,1124.608,764.947Z" transform="translate(-1074.509 -717.688)" fill="#431b73"/>
          <g id="Group_38" data-name="Group 38" transform="translate(35.006 29.771)">
            <path id="Path_392" data-name="Path 392" d="M1156.648,720.154c-.6-1.636-1.545-1.529-1.545-1.529s-17.441,4.346-19.006,4.533-18.781-6.722-18.781-6.722-6.776-3.041-9.95-.264a7.583,7.583,0,0,0-2.239,8.037,7.675,7.675,0,0,0,6.487,5.718c7.024.895,21.037,2.578,23.974,2.17,6.537-.91,21.349-9.46,21.349-9.46A5.49,5.49,0,0,0,1156.648,720.154Z" transform="translate(-1104.806 -715.002)" fill="#653893"/>
          </g>
        </g>
        <path id="Path_408" data-name="Path 408" d="M1224.05,1431.284v9.552l-22.61-9.552Z" transform="translate(-1018.901 -1204.787)" fill="#653893"/>
        <rect id="Rectangle_190" data-name="Rectangle 190" width="74.775" height="98.214" transform="translate(323.874 145.023)" fill="#814eb3"/>
        <rect id="Rectangle_191" data-name="Rectangle 191" width="74.776" height="98.214" transform="translate(300.817 145.023)" fill="#653893"/>
        <path id="Path_409" data-name="Path 409" d="M2287.725,982.575v14.686l-23.055-14.686Z" transform="translate(-1889.076 -837.552)" fill="#653893"/>
      </g>
    </g>
  </g>
</svg>
