<svg xmlns="http://www.w3.org/2000/svg" xmlns:xlink="http://www.w3.org/1999/xlink" width="344.121" height="258.143" viewBox="0 0 344.121 258.143">
  <defs>
    <linearGradient id="linear-gradient" y1="0.5" x2="1" y2="0.5" gradientUnits="objectBoundingBox">
      <stop offset="0.659" stop-color="#3e368a"/>
      <stop offset="1" stop-color="#444c87"/>
    </linearGradient>
    <linearGradient id="linear-gradient-3" x1="-1.192" y1="0.5" x2="-0.192" y2="0.5" xlink:href="#linear-gradient"/>
    <linearGradient id="linear-gradient-4" x1="-0.202" y1="0.5" x2="0.798" y2="0.5" xlink:href="#linear-gradient"/>
    <linearGradient id="linear-gradient-12" x1="0" y1="0.5" x2="1" y2="0.5" xlink:href="#linear-gradient"/>
    <linearGradient id="linear-gradient-13" x1="0" y1="0.5" x2="1" y2="0.5" xlink:href="#linear-gradient"/>
    <linearGradient id="linear-gradient-14" x1="0" y1="0.5" x2="1" y2="0.5" xlink:href="#linear-gradient"/>
    <linearGradient id="linear-gradient-15" x1="0" y1="0.5" x2="1" y2="0.5" xlink:href="#linear-gradient"/>
    <linearGradient id="linear-gradient-16" x1="0" y1="0.5" x2="1" y2="0.5" xlink:href="#linear-gradient"/>
    <linearGradient id="linear-gradient-19" x1="0" y1="0.5" x2="1" y2="0.5" xlink:href="#linear-gradient"/>
    <linearGradient id="linear-gradient-20" x1="0" y1="0.5" x2="1" y2="0.5" xlink:href="#linear-gradient"/>
    <linearGradient id="linear-gradient-22" y1="0.5" x2="1" y2="0.5" gradientUnits="objectBoundingBox">
      <stop offset="0.495" stop-color="#be6229"/>
      <stop offset="1" stop-color="#d27453"/>
    </linearGradient>
    <linearGradient id="linear-gradient-25" y1="0.5" x2="1" y2="0.5" gradientUnits="objectBoundingBox">
      <stop offset="0" stop-color="#fce065"/>
      <stop offset="1" stop-color="#fbf34a"/>
    </linearGradient>
    <linearGradient id="linear-gradient-32" x1="-0.922" y1="1.747" x2="-0.922" y2="0.716" gradientUnits="objectBoundingBox">
      <stop offset="0.132" stop-color="#817fff"/>
      <stop offset="1" stop-color="#94a7ff"/>
    </linearGradient>
    <linearGradient id="linear-gradient-33" x1="-1.973" y1="-2.593" x2="-0.973" y2="-2.593" xlink:href="#linear-gradient-32"/>
    <linearGradient id="linear-gradient-34" x1="-2.046" y1="-9.679" x2="-1.046" y2="-9.679" xlink:href="#linear-gradient-32"/>
    <linearGradient id="linear-gradient-35" x1="-2.297" y1="-0.463" x2="-1.012" y2="-0.463" xlink:href="#linear-gradient-32"/>
    <linearGradient id="linear-gradient-36" x1="-1.75" y1="-11.809" x2="-0.75" y2="-11.809" xlink:href="#linear-gradient-32"/>
    <linearGradient id="linear-gradient-37" x1="-1.337" y1="-3.916" x2="-0.337" y2="-3.916" xlink:href="#linear-gradient-32"/>
    <linearGradient id="linear-gradient-38" x1="-1.41" y1="-14.26" x2="-0.41" y2="-14.26" xlink:href="#linear-gradient-32"/>
    <linearGradient id="linear-gradient-39" y1="0.5" x2="1" y2="0.5" gradientUnits="objectBoundingBox">
      <stop offset="0" stop-color="#fb8a25"/>
      <stop offset="0.939" stop-color="#fca558"/>
    </linearGradient>
    <linearGradient id="linear-gradient-49" x1="0" y1="0.5" x2="1" y2="0.5" xlink:href="#linear-gradient-32"/>
  </defs>
  <g id="Group_18" data-name="Group 18" transform="translate(-29.077 -3.092)">
    <path id="Path_1" data-name="Path 1" d="M72.27,365.5H360.8c20.391,0,33.935-23.586,25.248-44.1-6.144-14.508-17.312-27.916-37.521-31.717-28.776-5.412-26.519-42.21-65.824-40.571-27.377,1.142-39.106,40.38-54.881,33.3s-50.021-70.013-83.9-24.423c-21.71,29.218-26.3,31.612-35.459,31.3-23.994-.811-48.4,5.918-60.523,30.934C38.033,340.678,51.371,365.5,72.27,365.5Z" transform="translate(-15.528 -104.287)" fill="#fff"/>
    <g id="Group_1" data-name="Group 1" transform="translate(49.791 155.947)">
      <path id="Path_2" data-name="Path 2" d="M225.3,406.061h-.276c.1-.291,9.824-29.371,2.79-44.649-6.766-14.7-15.863-18.376-16.633-18.664-6.837,3.984-13.791-5.413-13.86-5.509l-.09-.122.122-.086c.052-.036,5.292-3.6,10.417-.887a6.758,6.758,0,0,1,3.587,3.745,4.205,4.205,0,0,1-.014,2.62c1.206.475,10.082,4.391,16.705,18.777C235.138,376.673,225.4,405.768,225.3,406.061Zm-27.677-68.872c.85,1.1,7.226,8.938,13.444,5.3a3.912,3.912,0,0,0,.04-2.518,6.5,6.5,0,0,0-3.452-3.574C203.1,333.986,198.449,336.671,197.626,337.188Z" transform="translate(-131.476 -300.798)" fill="url(#linear-gradient)"/>
      <path id="Path_3" data-name="Path 3" d="M247.719,356.675c-.033-.112-3.207-11.154,3.272-17.108a4.608,4.608,0,0,1-.206-3.956c1.038-2.227,4.168-3.531,9.3-3.879l.174-.011-.037.184c-.054.267-1.36,6.56-4.775,8.239a4.352,4.352,0,0,1-4.273-.375c-6.367,5.83-3.24,16.709-3.207,16.819Zm3.536-17.184a4.14,4.14,0,0,0,4.086.394c2.977-1.463,4.341-6.792,4.586-7.856-4.862.354-7.94,1.635-8.907,3.71A4.4,4.4,0,0,0,251.255,339.491Z" transform="translate(-153.008 -299.323)" fill="url(#linear-gradient)"/>
      <path id="Path_4" data-name="Path 4" d="M374.326,360.368c6.623-14.386,15.5-18.3,16.7-18.777a4.207,4.207,0,0,1-.013-2.62,6.754,6.754,0,0,1,3.587-3.745c5.125-2.714,10.365.852,10.417.887l.122.086-.09.123c-.07.1-7.023,9.493-13.86,5.509-.769.288-9.867,3.968-16.633,18.664-7.034,15.278,2.662,44.26,2.761,44.55l-.247.1C376.977,404.851,367.242,375.755,374.326,360.368Zm20.394-24.886a6.5,6.5,0,0,0-3.451,3.574,3.914,3.914,0,0,0,.04,2.518c6.218,3.635,12.595-4.2,13.445-5.3C403.932,335.753,399.276,333.068,394.721,335.482Z" transform="translate(-207.117 -300.4)" fill="url(#linear-gradient-3)"/>
      <path id="Path_5" data-name="Path 5" d="M368.989,357.145c.032-.109,3.16-10.99-3.208-16.819a4.351,4.351,0,0,1-4.273.375c-3.415-1.68-4.72-7.972-4.774-8.239l-.037-.184.174.012c5.135.347,8.265,1.652,9.3,3.879a4.608,4.608,0,0,1-.206,3.956c6.479,5.955,3.305,17,3.272,17.108Zm-3.051-20.85c-.968-2.074-4.046-3.356-8.907-3.71.246,1.063,1.61,6.392,4.586,7.856a4.143,4.143,0,0,0,4.087-.394A4.4,4.4,0,0,0,365.938,336.295Z" transform="translate(-200.594 -299.564)" fill="url(#linear-gradient-4)"/>
      <path id="Path_6" data-name="Path 6" d="M200.014,431.384H183.385l-.029-.1c-.315-1.066-7.665-26.215-2.171-34.5a5.478,5.478,0,0,1,4.7-2.581c5.5-.1,9.675,6.294,12.1,18.474a121.63,121.63,0,0,1,2.025,18.559Zm-16.436-.284h16.166c-.072-2.529-1.284-36.61-13.733-36.61h-.118a5.23,5.23,0,0,0-4.494,2.462C176.151,404.864,183.068,429.333,183.578,431.1Z" transform="translate(-123.638 -326.406)" fill="url(#linear-gradient)"/>
      <path id="Path_7" data-name="Path 7" d="M143.066,410.578H120.039l-.019-.117c-1.061-6.5-3.349-14.211-5.561-21.672-4.346-14.654-8.84-29.807-4.73-37.538a9.632,9.632,0,0,1,6.625-4.892,6.307,6.307,0,0,1,5.306,1.3c5.4,3.943,10.646,15.7,15.578,34.957,3.67,14.324,5.782,27.664,5.8,27.8Zm-22.807-.284h22.494c-.533-3.291-8.828-53.344-21.241-62.4a6.073,6.073,0,0,0-5.1-1.257,9.258,9.258,0,0,0-6.452,4.757c-4.053,7.621.424,22.714,4.752,37.309C116.911,396.126,119.188,403.8,120.26,410.294Z" transform="translate(-92.844 -305.6)" fill="url(#linear-gradient)"/>
      <path id="Path_8" data-name="Path 8" d="M459.951,413.854H442.28l0-.147c0-.184.421-18.479-2.969-28.482a76.192,76.192,0,0,0-3.426-7.672c-3.637-7.482-8.164-16.794-5.168-21.462,1.7-2.654,5.534-3.525,11.711-2.667a15.6,15.6,0,0,1,10.745,6.892c5.861,8.236,7.393,22.325,7.647,32.695a161.292,161.292,0,0,1-.859,20.72Zm-17.4-.285h17.169c.271-2.387,4.068-37.879-6.75-53.08a15.346,15.346,0,0,0-10.571-6.783c-5.986-.831-9.843.026-11.461,2.547-2.905,4.526,1.58,13.753,5.184,21.167a76.231,76.231,0,0,1,3.44,7.707C442.807,394.7,442.583,411.808,442.55,413.569Z" transform="translate(-232.257 -308.592)" fill="url(#linear-gradient)"/>
      <path id="Path_9" data-name="Path 9" d="M330.951,413.854h-17.67l0-.147c.005-.184.421-18.479-2.969-28.482a76.177,76.177,0,0,0-3.426-7.672c-3.637-7.482-8.164-16.794-5.168-21.462,1.7-2.654,5.534-3.525,11.711-2.667a15.6,15.6,0,0,1,10.746,6.892c5.861,8.236,7.393,22.325,7.647,32.695a161.3,161.3,0,0,1-.859,20.72Zm-17.4-.285h17.169c.271-2.387,4.068-37.879-6.75-53.08a15.346,15.346,0,0,0-10.57-6.783c-5.987-.831-9.843.026-11.462,2.547-2.905,4.526,1.581,13.753,5.185,21.167a76.375,76.375,0,0,1,3.44,7.707C313.807,394.7,313.583,411.808,313.55,413.569Z" transform="translate(-176.342 -308.592)" fill="url(#linear-gradient)"/>
      <path id="Path_10" data-name="Path 10" d="M514.3,408.843H495.252l.006-.148a287.426,287.426,0,0,1,3.378-32.55c1.616-9.543,3.64-17.249,6.016-22.906,2.985-7.105,6.544-10.991,10.578-11.546,4.239-.585,7.294.566,9.08,3.419,3.638,5.815.937,17.087-2.035,22.874-11.427,22.258-7.884,40.5-7.847,40.685l.035.173Zm-18.773-.285h18.613c-.335-1.923-2.977-19.513,7.906-40.711,2.939-5.726,5.623-16.861,2.046-22.576-1.725-2.757-4.7-3.867-8.829-3.3-8.948,1.233-13.84,19.289-16.368,34.219A287.321,287.321,0,0,0,495.526,408.558Z" transform="translate(-260.65 -303.58)" fill="url(#linear-gradient)"/>
      <path id="Path_11" data-name="Path 11" d="M489.629,358.93a1.87,1.87,0,1,1,1.87-1.87A1.873,1.873,0,0,1,489.629,358.93Zm0-3.478a1.608,1.608,0,1,0,1.607,1.608A1.609,1.609,0,0,0,489.629,355.452Z" transform="translate(-257.402 -309.495)" fill="url(#linear-gradient)"/>
      <path id="Path_12" data-name="Path 12" d="M609.569,406.277a1.87,1.87,0,1,1,1.87-1.87A1.873,1.873,0,0,1,609.569,406.277Zm0-3.478a1.608,1.608,0,1,0,1.607,1.608A1.609,1.609,0,0,0,609.569,402.8Z" transform="translate(-309.39 -330.017)" fill="url(#linear-gradient)"/>
      <path id="Path_13" data-name="Path 13" d="M504.971,361.163a1.118,1.118,0,1,1,1.119-1.118A1.12,1.12,0,0,1,504.971,361.163Zm0-1.973a.855.855,0,1,0,.856.855A.856.856,0,0,0,504.971,359.19Z" transform="translate(-264.378 -311.115)" fill="url(#linear-gradient-12)"/>
      <path id="Path_14" data-name="Path 14" d="M494.654,308.263a1.118,1.118,0,1,1,1.118-1.118A1.119,1.119,0,0,1,494.654,308.263Zm0-1.973a.855.855,0,1,0,.855.855A.856.856,0,0,0,494.654,306.289Z" transform="translate(-259.906 -288.185)" fill="url(#linear-gradient-13)"/>
      <path id="Path_15" data-name="Path 15" d="M83.483,375a2.318,2.318,0,1,1,2.318-2.318A2.32,2.32,0,0,1,83.483,375Zm0-4.372a2.054,2.054,0,1,0,2.055,2.054A2.056,2.056,0,0,0,83.483,370.627Z" transform="translate(-81.166 -316.072)" fill="url(#linear-gradient-14)"/>
      <path id="Path_16" data-name="Path 16" d="M541.228,440.623a1.094,1.094,0,1,1,1.094-1.093A1.094,1.094,0,0,1,541.228,440.623Zm0-1.925a.831.831,0,1,0,.831.831A.832.832,0,0,0,541.228,438.7Z" transform="translate(-280.105 -345.578)" fill="url(#linear-gradient-15)"/>
      <path id="Path_17" data-name="Path 17" d="M255.163,276.723a1.094,1.094,0,1,1,1.093-1.094A1.1,1.1,0,0,1,255.163,276.723Zm0-1.925a.831.831,0,1,0,.831.831A.832.832,0,0,0,255.163,274.8Z" transform="translate(-156.111 -274.536)" fill="url(#linear-gradient-16)"/>
      <path id="Path_18" data-name="Path 18" d="M146.58,347.144a1.516,1.516,0,1,1,1.516-1.516A1.517,1.517,0,0,1,146.58,347.144Zm0-2.769a1.253,1.253,0,1,0,1.253,1.253A1.254,1.254,0,0,0,146.58,344.375Z" transform="translate(-108.863 -304.693)" fill="url(#linear-gradient)"/>
      <path id="Path_19" data-name="Path 19" d="M229.224,449.177a1.767,1.767,0,1,1,1.767-1.768A1.77,1.77,0,0,1,229.224,449.177Zm0-3.272a1.5,1.5,0,1,0,1.5,1.5A1.507,1.507,0,0,0,229.224,445.9Z" transform="translate(-144.575 -348.701)" fill="url(#linear-gradient)"/>
      <path id="Path_20" data-name="Path 20" d="M191.936,361.767a.995.995,0,1,1,.995-.995A1,1,0,0,1,191.936,361.767Zm0-1.727a.732.732,0,1,0,.731.732A.733.733,0,0,0,191.936,360.04Z" transform="translate(-128.748 -311.483)" fill="url(#linear-gradient-19)"/>
      <path id="Path_21" data-name="Path 21" d="M433.02,438.9a1.24,1.24,0,1,1,1.24-1.24A1.242,1.242,0,0,1,433.02,438.9Zm0-2.217a.977.977,0,1,0,.977.977A.978.978,0,0,0,433.02,436.683Z" transform="translate(-233.138 -344.704)" fill="url(#linear-gradient-20)"/>
      <path id="Path_22" data-name="Path 22" d="M404.861,449.313c-.02-.113-2.071-11.252-8.21-12.651a4.978,4.978,0,0,1-1.784,3.759c-2.449,1.886-6.45.712-6.618.661l-.135-.041.046-.142a7.086,7.086,0,0,1,8.4-4.547c6.427,1.291,8.545,12.792,8.566,12.907Zm-16.4-8.467c.733.19,4.16.959,6.257-.657a4.715,4.715,0,0,0,1.676-3.581A6.691,6.691,0,0,0,388.458,440.845Z" transform="translate(-214.211 -344.592)" fill="url(#linear-gradient)"/>
    </g>
    <g id="Group_2" data-name="Group 2" transform="translate(275.749 129.453)">
      <path id="Path_23" data-name="Path 23" d="M565.382,253.59s.407-3.584.53-7.777.748-8.585-.549-11.141-4.851-3.2-6.458-1.211-1.521,3.592-2.092,5.512c-.424,1.425-1.848,2.8-2.048,3.246a.111.111,0,0,0,.1.156l1.468.1s-1.507,4.117-.373,5.486a4.38,4.38,0,0,0,2.664.934,1.014,1.014,0,0,1,.917.951l.186,3.357Z" transform="translate(-512.4 -229.731)" fill="#f7bfb7"/>
      <path id="Path_24" data-name="Path 24" d="M568.326,241.95c-.867,2.485-.458,4.338-2.111,4.226s-2-2.152-2.328-2.811a5.11,5.11,0,0,1-.188-2.383c.051-.739,2.162-3.728.508-4.7-1.69-.995-2.216,2.436-3.682,2.772s-1.21-.665-1.074-1.717.492-3.16-.9-4.045-2.345-1.34-2.761-2.43c-.476-1.245.34-3.193,1.927-3.084s3.547,1.744,6.365,1.874,6.46,2.5,6.531,5.05S568.954,240.152,568.326,241.95Z" transform="translate(-512.789 -227.772)" fill="url(#linear-gradient-22)"/>
      <path id="Path_25" data-name="Path 25" d="M579.622,276.582s6.535,9.763,7.033,12.991-7.7,18.07-7.7,18.07l-3.1-3.251Z" transform="translate(-521.549 -248.929)" fill="url(#linear-gradient)"/>
      <path id="Path_26" data-name="Path 26" d="M547.191,300.034H534.773c-2.687-4.119-2.491-17.567-2.491-17.567s-11.5.936-16.934-1c-4.945-1.757-9.962-6-9.962-6v-5.7a142.666,142.666,0,0,0,15.44,0c6.724-.5,16.436-1.186,16.436-1.186l.024-2.051h7.945l.5,2.051a13.136,13.136,0,0,1,4.731,6.89C554.2,291.431,547.191,300.034,547.191,300.034Z" transform="translate(-491.002 -244.571)" fill="url(#linear-gradient)"/>
      <path id="Path_27" data-name="Path 27" d="M494.382,271.683s-13.482-.938-14.229-.689,1.411.83,1.992,1.246.913,1.743,2.573,2.573,9.664.518,9.664.518Z" transform="translate(-479.997 -246.488)" fill="#f2baaf"/>
      <path id="Path_28" data-name="Path 28" d="M565.746,325.668H553.328s-3.325,21.317-4.113,30.394a245.013,245.013,0,0,0-.3,41.769h6.094s3.786-22.2,4.812-25.343l6.324,24.121,5.851-1.7s-2.562-23.465-3.265-31.853S570.648,336.162,565.746,325.668Z" transform="translate(-509.557 -270.205)" fill="url(#linear-gradient-25)"/>
      <path id="Path_29" data-name="Path 29" d="M568.711,381.624s.27-6.635.7-11.7c.391-4.571,1.422-23.048,2.594-23.173s.624,8.323,0,15.316c-1.49,16.685-1.892,25.109-1.892,25.109Z" transform="translate(-518.45 -279.341)" fill="#ede95f" opacity="0.4" style="mix-blend-mode: multiply;isolation: isolate"/>
      <path id="Path_30" data-name="Path 30" d="M552.86,294.153s6.973-1.494,8.218,0-8.188,3.021-8.188,3.021Z" transform="translate(-511.579 -256.257)" opacity="0.83" fill="url(#linear-gradient)" style="mix-blend-mode: multiply;isolation: isolate"/>
      <path id="Path_31" data-name="Path 31" d="M554.386,397.829c.018-.252,1.719-25.229,2.638-33.1s4.061-38.743,4.092-39.054l-.344-.035c-.032.31-3.173,31.172-4.092,39.048s-2.623,32.869-2.64,33.12Z" transform="translate(-512.091 -270.191)" fill="#ede95f" opacity="0.4" style="mix-blend-mode: multiply;isolation: isolate"/>
      <path id="Path_32" data-name="Path 32" d="M571.24,322.5s2.725-3.7,1.4-4.119-2.685,4.119-2.685,4.119Z" transform="translate(-518.987 -267.033)" opacity="0.83" fill="url(#linear-gradient-13)" style="mix-blend-mode: multiply;isolation: isolate"/>
      <path id="Path_33" data-name="Path 33" d="M550.177,457.2h-7.889a.465.465,0,0,1-.441-.306c-.157-.448-.211-1.263,1.268-1.587a4.756,4.756,0,0,0,3.012-2.264h6.094l-.534,2.9A1.536,1.536,0,0,1,550.177,457.2Z" transform="translate(-506.772 -325.413)" fill="#2b2b2b"/>
      <path id="Path_34" data-name="Path 34" d="M583.578,452.113l-8.724,2.529a.465.465,0,0,1-.509-.17c-.276-.386-.556-1.155.773-1.879a4.756,4.756,0,0,0,2.259-3.016l5.851-1.7.984,2.967A1.02,1.02,0,0,1,583.578,452.113Z" transform="translate(-520.792 -323.175)" fill="#2b2b2b"/>
      <path id="Path_35" data-name="Path 35" d="M569.659,327.833l-13.187.025-.312,2.117,14.258-.117Z" transform="translate(-513.01 -271.143)" fill="#2b2b2b"/>
      <rect id="Rectangle_2" data-name="Rectangle 2" width="0.514" height="2.833" transform="translate(46.286 59.344) rotate(180)" fill="url(#linear-gradient-25)"/>
      <path id="Path_36" data-name="Path 36" d="M560.647,322.834s-2.2-4.626-3.361-3.538,2.132,3.538,2.132,3.538Z" transform="translate(-513.39 -267.371)" opacity="0.83" fill="url(#linear-gradient-14)" style="mix-blend-mode: multiply;isolation: isolate"/>
    </g>
    <g id="Group_6" data-name="Group 6" transform="translate(134.303 3.092)">
      <g id="Group_3" data-name="Group 3" transform="translate(0 0)">
        <circle id="Ellipse_1" data-name="Ellipse 1" cx="55.07" cy="55.07" r="55.07" transform="translate(0 77.88) rotate(-45)" fill="url(#linear-gradient-25)"/>
      </g>
      <path id="Path_37" data-name="Path 37" d="M374.984,97.906a55.64,55.64,0,0,1,.372,6.4,55.078,55.078,0,0,1-104.1,25.1,55.072,55.072,0,1,0,103.73-31.5Z" transform="translate(-248.071 -45.121)" opacity="0.74" fill="url(#linear-gradient-25)" style="mix-blend-mode: multiply;isolation: isolate"/>
      <g id="Group_4" data-name="Group 4" transform="translate(50.021 47.164)">
        <path id="Path_38" data-name="Path 38" d="M397.467,161.979c-8.651-6.611-19.122-14.347-29.271-21.5A42.088,42.088,0,0,1,357,144.55c-11.109,2.364-21.57.236-28.7-5.837-9.495-8.089-10.335-13.644-9.367-16.879,1.049-3.507,4.773-5.988,9.961-6.637,4.974-.629,22.907,10.979,39.453,22.609a27.65,27.65,0,0,0,5.621-4.323c-9.893-7.9-19.7-16.794-23.269-23.424-3.635-6.75-4.369-12.178-2.183-16.131,1.91-3.454,6.031-5.561,11.6-5.932,3.436-.231,7.849,3.225,12.087,9.479,6.59,9.723,11.158,23.963,7.14,32.366a17.868,17.868,0,0,1-2.092,3.322c11.795,9.261,23.22,16.889,23.434,17.031l-1.255,1.887c-.872-.58-12.089-8.068-23.691-17.192a29.357,29.357,0,0,1-5.394,4.328c13.555,9.593,25.756,18.869,28.493,20.961Zm-68-44.55a2.359,2.359,0,0,0-.291.016c-4.27.534-7.287,2.417-8.071,5.038-1.095,3.661,1.982,8.812,8.665,14.5,6.588,5.613,16.342,7.562,26.759,5.347a40.468,40.468,0,0,0,9.588-3.314C349.309,127.254,333.8,117.429,329.467,117.429Zm31-27.178c-.066,0-.129,0-.193.007-2.766.184-7.715,1.049-9.771,4.768-1.79,3.236-1.051,7.932,2.195,13.96,3.395,6.3,13.032,15,22.79,22.777a15.8,15.8,0,0,0,1.818-2.9c3.612-7.552-.9-21.153-6.97-30.117C366.76,93.475,363.005,90.251,360.463,90.251Z" transform="translate(-318.624 -87.985)" fill="#fff"/>
      </g>
      <g id="Group_5" data-name="Group 5" transform="translate(112.528 95.714)">
        <path id="Path_39" data-name="Path 39" d="M472.8,211.7h0a9.329,9.329,0,0,1-12.993,2.287l-20.442-14.324,10.707-15.28L470.509,198.7A9.328,9.328,0,0,1,472.8,211.7Z" transform="translate(-433.464 -178.316)" fill="url(#linear-gradient-32)"/>
        <rect id="Rectangle_3" data-name="Rectangle 3" width="27.921" height="6.98" transform="translate(17.758 35.309) rotate(-54.982)" fill="url(#linear-gradient-33)"/>
        <rect id="Rectangle_4" data-name="Rectangle 4" width="27.921" height="2.017" transform="translate(21.822 38.157) rotate(-54.982)" opacity="0.61" fill="url(#linear-gradient-34)" style="mix-blend-mode: multiply;isolation: isolate"/>
        <path id="Path_40" data-name="Path 40" d="M467.457,189.431,451.435,212.3l-5.717-4.005,8.866-12.653,7.157-10.214Z" transform="translate(-436.22 -178.77)" fill="url(#linear-gradient-35)"/>
        <rect id="Rectangle_5" data-name="Rectangle 5" width="27.921" height="2.017" transform="translate(13.563 32.37) rotate(-54.981)" opacity="0.61" fill="url(#linear-gradient-36)" style="mix-blend-mode: multiply;isolation: isolate"/>
        <rect id="Rectangle_6" data-name="Rectangle 6" width="27.921" height="6.98" transform="translate(0 22.866) rotate(-54.98)" fill="url(#linear-gradient-37)"/>
        <rect id="Rectangle_7" data-name="Rectangle 7" width="27.921" height="2.017" transform="translate(4.065 25.714) rotate(-54.98)" opacity="0.61" fill="url(#linear-gradient-38)" style="mix-blend-mode: multiply;isolation: isolate"/>
      </g>
    </g>
    <g id="Group_7" data-name="Group 7" transform="translate(155.283 118.072)">
      <path id="Path_41" data-name="Path 41" d="M267.367,452.223l7.889,2.863h5c.676-1.727-6.552-5.191-6.552-5.191l-4.866-1.723Z" transform="translate(-267.367 -311.923)" fill="#232323"/>
      <path id="Path_42" data-name="Path 42" d="M281.534,322.659l13.558.032-.4,36.7-4.827,36.979-5.009,0,.707-22.4,1.85-15.262-1.318-1.561-11.26,38.346-4.866-1.723s2.836-17.717,4.164-22.791c1.116-4.26,5.233-14.445,5.233-14.445Z" transform="translate(-268.493 -257.52)" fill="#fdb8a3"/>
      <path id="Path_43" data-name="Path 43" d="M296.048,456.882l11.935.16c.687-2.624-6.817-4.273-6.817-4.273l-5.009,0Z" transform="translate(-279.799 -313.915)" fill="#232323"/>
      <path id="Path_44" data-name="Path 44" d="M295.917,343.905l.283,22.45-2.911,11.389Z" transform="translate(-278.603 -266.729)" fill="#fdb8a3" opacity="0.3" style="mix-blend-mode: multiply;isolation: isolate"/>
      <path id="Path_45" data-name="Path 45" d="M344.1,222.23a18.852,18.852,0,0,1,1.5-4.9,9.643,9.643,0,0,1,1.642-2.476.39.39,0,0,1,.642.425c-.414.9-1.516,2.776-1.057,2.376.912-.794,3.169-3.484,4.994-3.25s-3.381,8.124-3.381,8.124Z" transform="translate(-300.625 -210.592)" fill="#fdb8a3"/>
      <path id="Path_46" data-name="Path 46" d="M310.068,217.161a32.658,32.658,0,0,1,2.117-6.1c.523-1.026,1.543-2.976,2.042-3.224,1.445-.717,1.287,1.229.982,2.2-.3.943-.612,3.04-.086,2.909.819-.2,2.14-3.456,2.48-2.609.456,1.135-2.824,6.82-2.824,6.82Z" transform="translate(-285.876 -207.685)" fill="#fdb8a3"/>
      <path id="Path_47" data-name="Path 47" d="M285.164,322.258l13.113-.748,3.613,33.269s-18.6,4.24-24.576-2.865Z" transform="translate(-271.678 -257.022)" fill="url(#linear-gradient-39)"/>
      <path id="Path_48" data-name="Path 48" d="M314.59,265.456l-.463-5.019s2.065.249,2.931-.713-.441-4.31-.441-4.31,1.452-.629.837-1.083a5.579,5.579,0,0,1-1.909-2.318c-.88-1.527-4.551-4.819-5.93-2.591s.027,8.523.395,10.549a37.123,37.123,0,0,1,.024,6.512Z" transform="translate(-285.421 -225.45)" fill="#fdb8a3"/>
      <path id="Path_49" data-name="Path 49" d="M290.385,280.073s12.215,5.03,14.122-.236l1.87-9.1a54.013,54.013,0,0,1,4.787-12.184s7.7-13.954,9.652-17.432c.365-.649,4.345-14.248,4.345-14.248l-4.345-.3s-4.846,11.417-5.666,13.234-8.7,14.884-8.7,14.884h-8.808l4.711-13.819,3.892-16.462h-4.711l-3.892,16.868-3.072,19.1Z" transform="translate(-277.344 -214.934)" fill="#232323"/>
      <path id="Path_50" data-name="Path 50" d="M303.021,244.347c1.033,1.12,1.985,4.666-.754,6.328-1.784,1.082-3.81-.771-4.169,1.51-.345,2.19,2.216,2.117,2.913,6.333.882,5.34-.564,14.59-6.6,13.777-2.127-.286-3.182,3.394-5.085,4.361-3.421,1.738-8.587-2.492-6.552-8.457,2.044-5.991,7.87-5.008,8.749-13.325.312-2.944-1.633-7.2,3.351-9.89a4.619,4.619,0,0,1,2.908-.531,4,4,0,0,0,2.309-.3A2.351,2.351,0,0,1,303.021,244.347Z" transform="translate(-273.847 -223.305)" fill="url(#linear-gradient-22)"/>
    </g>
    <g id="Group_8" data-name="Group 8" transform="translate(221.434 120.133)">
      <path id="Path_51" data-name="Path 51" d="M441.764,319.935l14.577-1.807,7.55,77.23-6.323-.249s-6.127-24.34-7.016-32.638c-.622-5.808-.748-17.382-.748-17.382L447,360.117,444.2,395.358l-6.259-.312s-1.16-26.413-.556-35.191C438.087,349.723,441.764,319.935,441.764,319.935Z" transform="translate(-407.137 -257.617)" fill="#232323"/>
      <path id="Path_52" data-name="Path 52" d="M427.861,248.53c-1.472-4.569,2.454-8.694,2.4-18.027l-.916-10.463s1.922-5.194,2.268-6.765c.494-2.243-.718-2.871-2.243-.18-.324.572-2.91,4.794-3.948,4.531-.636-.161-2.881-2.651-3.8-2l3.671,4.37h.036a35.715,35.715,0,0,1,.4,11.632c-1.165,6.735-2.555,12.431-3.531,13.3-2.479,2.2-9.049,2.823-9.049,2.823s-8.78-4.152-10.536-7.265c-1.514-2.685-6.739-13.725-8.161-16.433-.242-1.582.586-3.946.289-4.677-.268-.659-1.649,2.651-1.649,2.651a9.569,9.569,0,0,1-4.63-.768c-.874-.35-3.937-1.81-4.306-.718s2.512,2.781,2.512,2.781l4.223,2.478a19.465,19.465,0,0,0,.71,1.956c1.67,4.552,5.388,14.383,7.063,16.362,2.2,2.595,14.928,12.2,14.928,12.2l5.488,18.424,14.049-1.557S429.617,253.979,427.861,248.53Z" transform="translate(-384.126 -211.323)" fill="#936844"/>
      <path id="Path_53" data-name="Path 53" d="M414.394,267.307l3.612-5.206,8.191,4.111s7.621-1.571,8.314-3.386c1.21-3.172,2.456-5.888,2.456-5.888l5.607,1.257s-2.848,6.428-1.592,10.106c2.364,6.924,5.724,24.343,5.724,24.343s-1.259,5.82-15.443,1.618l-4.582-14.55a12.21,12.21,0,0,0-5.305-6.893Z" transform="translate(-397.246 -231.095)" fill="url(#linear-gradient-39)"/>
      <path id="Path_54" data-name="Path 54" d="M425.867,244.556a37.239,37.239,0,0,0,.614,5.084c.081.4-.525,2.62-.422,3.01.078.3,1.181-.244,1.273.036a11.5,11.5,0,0,0,1.555,3.275c1.371,1.359,3.583-.219,3.583-.219l1.308,3.194a8.884,8.884,0,0,0,4.314-1.324,40.962,40.962,0,0,1-1.568-4.862c-.918-3.576-1.836-8.189-2.859-9.681C431.845,240.413,426.134,239.907,425.867,244.556Z" transform="translate(-402.218 -224.213)" fill="#936844"/>
      <path id="Path_55" data-name="Path 55" d="M434.57,252.057l-.074.028a3.132,3.132,0,0,1-3.856-1.509l-.909-1.6c1.441-1.489.218-4.93-1.851-3.41-3.607,2.65-7.45-3.287-6.562-4.652,0,0,2.786.689,7.2-1.121,3.3-1.354,5.311,2.858,5.824,4.843S434.57,252.057,434.57,252.057Z" transform="translate(-400.191 -223.549)" fill="#232323"/>
      <path id="Path_56" data-name="Path 56" d="M438.924,264.436l-1.4,1.436.7,1.712Z" transform="translate(-407.271 -234.345)" fill="#e69373" opacity="0.3" style="mix-blend-mode: multiply;isolation: isolate"/>
      <path id="Path_57" data-name="Path 57" d="M439.755,454.237V457.6H428.721a3.433,3.433,0,0,1,1.951-2.02c1.48-.539,4.438-1.611,4.438-1.611Z" transform="translate(-403.456 -316.496)" fill="url(#linear-gradient-39)"/>
      <path id="Path_58" data-name="Path 58" d="M475.853,454.22V457.6H465.814a2.552,2.552,0,0,1,1.615-2.066c1.48-.538,3.778-1.565,3.778-1.565Z" transform="translate(-419.533 -316.496)" fill="url(#linear-gradient-39)"/>
      <path id="Path_59" data-name="Path 59" d="M459.438,357.042l3.319-11.339L459.779,368.7Z" transform="translate(-416.77 -269.57)" fill="#232323"/>
    </g>
    <g id="Group_10" data-name="Group 10" transform="translate(55.425 137.339)">
      <g id="Group_9" data-name="Group 9">
        <path id="Path_60" data-name="Path 60" d="M123,326.542l2.592,35.064L123.5,396.669h-6.047s.027-22.527.539-31.911c.127-2.315-1.96-16.821-1.96-16.821l-3.234,18.05-11.608,30.682-5.559-2.657s7.092-20.207,9.993-33.076c.644-2.854,2.387-32.592,2.387-32.592Z" transform="translate(-93.072 -278.47)" fill="url(#linear-gradient-39)"/>
        <path id="Path_61" data-name="Path 61" d="M135.1,458.143h12.732c.589,0,.759-.691.222-.9l-5.3-2.023H135.1Z" transform="translate(-110.179 -334.247)" fill="#303030"/>
        <path id="Path_62" data-name="Path 62" d="M135.1,450.321V453.1h5.378l.053-2.777Z" transform="translate(-110.179 -332.122)" fill="#f9c5af"/>
        <path id="Path_63" data-name="Path 63" d="M91.11,452.247l6.141,2.931,4.784.1c.414.208.408-.268.139-.675l-4.133-2.735-5.375-2.709Z" transform="translate(-91.11 -331.618)" fill="#303030"/>
        <path id="Path_64" data-name="Path 64" d="M94.865,445.632l-1.007,2,4.985,2.513,1.04-2.113Z" transform="translate(-92.301 -330.089)" fill="#f9c5af"/>
        <path id="Path_65" data-name="Path 65" d="M108.017,329.725l15.269,2.117s-9.369,1.532-11.322,3.914c-4.844,5.907-2.425,22.793-3.5,30.356-1.126,7.927-11.009,30.15-11.009,30.15l-1.819-.869s8.815-25.294,9.993-33.076c.433-2.861.753-7.65,1.116-12.66C107.433,340.129,108.017,329.725,108.017,329.725Z" transform="translate(-93.072 -279.85)" fill="#fcbd4c" opacity="0.2" style="mix-blend-mode: multiply;isolation: isolate"/>
        <path id="Path_66" data-name="Path 66" d="M108.913,272.863s-4.753,1.692-6.3-1.274-1.334-6.722,1.378-8.884c1.822-1.451,3.132-1.822,3.234-3.433s-1.3-2.951-2.038-5.382c-.4-1.306-2.591-8.6,2.4-11.4,2.128-1.193,3.256-.112,3.256-.112a4.687,4.687,0,0,1,3.834-.449c2.2.762,4.681,5.079,3.9,10.365-.705,4.769,1.952,3.561,3.175,4.973C125.986,262.144,118.639,271.639,108.913,272.863Z" transform="translate(-95.678 -241.692)" fill="url(#linear-gradient-22)"/>
        <path id="Path_67" data-name="Path 67" d="M113.731,274.142s-6.1,2.346-6.927,4.252c-1.319,3.032-.855,13.63-.232,18.867.4,3.4.558,4.352,3.246,4.424,1.872.05,2.952-2.207,2.952-2.207l-1.056,7.588a.744.744,0,0,0,.774.846l15.05-.756a.806.806,0,0,0,.757-.923l-1.475-9.987a4.843,4.843,0,0,0,4.4,2.8c3.087-.151,2.26-8.149,2.26-8.149l-.935-11.321-4.122.462s-1.279-4.577-3.135-5.479S122.136,270.971,113.731,274.142Z" transform="translate(-97.546 -255.106)" fill="url(#linear-gradient-25)"/>
        <path id="Path_68" data-name="Path 68" d="M144.795,274.992h4.16s.334-11.617-3.328-13.882c-1.671-1.033.577,4.982,0,7.227-.264,1.023-1.236-4.353-1.78-3.727S144.795,274.992,144.795,274.992Z" transform="translate(-113.916 -250.058)" fill="#f9c5af"/>
        <path id="Path_69" data-name="Path 69" d="M117.328,301.463l8.556-14.98,4.067-8.627s-2.368,9.492-4.114,13.54a88.692,88.692,0,0,1-9.362,16.4Z" transform="translate(-102.104 -257.367)" fill="#ede95f" opacity="0.4" style="mix-blend-mode: multiply;isolation: isolate"/>
        <path id="Path_70" data-name="Path 70" d="M112.771,294.424l6.983-8.2s2.855-4.653,1.853-4.127C118.34,283.808,112.771,294.424,112.771,294.424Z" transform="translate(-100.499 -259.186)" fill="#ede95f" opacity="0.4" style="mix-blend-mode: multiply;isolation: isolate"/>
        <path id="Path_71" data-name="Path 71" d="M144.057,282.218v11.625l-2.035-16.18A13.246,13.246,0,0,1,144.057,282.218Z" transform="translate(-113.178 -257.283)" fill="#ede95f" opacity="0.4" style="mix-blend-mode: multiply;isolation: isolate"/>
        <path id="Path_72" data-name="Path 72" d="M139.3,306.221l2.023,4.756,1.434,9.831a.767.767,0,0,1-.718.876l-2.739.142C141.531,319.14,139.3,306.221,139.3,306.221Z" transform="translate(-111.996 -269.662)" fill="#ede95f" opacity="0.4" style="mix-blend-mode: multiply;isolation: isolate"/>
        <path id="Path_73" data-name="Path 73" d="M125.1,281.665l3.849,3.3a67.491,67.491,0,0,1,3.262-6.684c1.679-3.256,3.546-6.621,1.865-6.686-1.336-.052-2.357.437-3.561,2.356a9.433,9.433,0,0,0-1.869,3.892c-.126,1.049,1.185-4.534.454-4.141S125.1,281.665,125.1,281.665Z" transform="translate(-105.842 -254.653)" fill="#f9c5af"/>
        <path id="Path_74" data-name="Path 74" d="M131.69,360.685l1.378-4.732,3.354,22.794-1.1,30.671h-2.207l.079-14.857.435-17.585-.452-4.884Z" transform="translate(-108.699 -291.218)" fill="#fcbd4c" opacity="0.2" style="mix-blend-mode: multiply;isolation: isolate"/>
        <path id="Path_75" data-name="Path 75" d="M117.862,266.74l.779,4.473a8.134,8.134,0,0,0,2.514-.048,4.184,4.184,0,0,0,2.258-1.318l-1.24-4.575Z" transform="translate(-102.706 -251.913)" fill="#f9c5af"/>
        <path id="Path_76" data-name="Path 76" d="M120.791,248.831c-.63-.646-1.157.442-1.288.74-1.177-3.454-3.968-5.38-6.251-4.727-2.075.593-3.157,3.365-2.719,6.532-.479-.319-1.213-.671-1.418-.015-.23.736,1.276,3.1,2.33,3.121,1.316,2.834,3.656,4.547,5.7,3.964,1.835-.525,2.893-2.753,2.811-5.453C121,252.381,121.4,249.462,120.791,248.831Z" transform="translate(-98.904 -243.004)" fill="#f9c5af"/>
        <path id="Path_77" data-name="Path 77" d="M111.269,250.641a4.06,4.06,0,0,0,3.585-3.063,6.247,6.247,0,0,0-.072-3.271s.868,4.153,2.607,4.529a5.387,5.387,0,0,0,2.851,0s-1.1-7.607-6.281-5.421C109.111,245.46,111.269,250.641,111.269,250.641Z" transform="translate(-99.64 -242.268)" fill="url(#linear-gradient-22)"/>
      </g>
      <path id="Path_78" data-name="Path 78" d="M118.13,269.107a3.824,3.824,0,0,0,2.508.574,4.114,4.114,0,0,0,2.167-1.25l-.339-1.25a3.381,3.381,0,0,1-4.6.387Z" transform="translate(-102.706 -252.74)" fill="#f9c5af" opacity="0.31" style="mix-blend-mode: multiply;isolation: isolate"/>
    </g>
    <g id="Group_12" data-name="Group 12" transform="translate(100.284 107.449)">
      <path id="Path_79" data-name="Path 79" d="M197.184,319.687l13.976-1.5s4.1,29.358,5.1,40.1c.872,9.336.323,37.432.323,37.432l-5.568-.2-1.768-30.944-3.264-22.73-1.571,22.4-2.81,31.494-5.9.046,1.887-35.675Z" transform="translate(-181.305 -244.959)" fill="url(#linear-gradient)"/>
      <path id="Path_80" data-name="Path 80" d="M214.41,340.518l-.075,10.949,3.417,25.407,1.614,28.267,3.845.138-3.133-30.571Z" transform="translate(-189.381 -254.637)" fill="#4b69bc" opacity="0.22" style="mix-blend-mode: multiply;isolation: isolate"/>
      <path id="Path_81" data-name="Path 81" d="M195.7,393.753l2.928.241,1.806-35.478s-1.916-27.172-1.131-31.534c.629-3.5,12.447-6.392,12.447-6.392l-1.056-7.113-13.513,4.167.405,40.433Z" transform="translate(-181.305 -242.917)" fill="#4b69bc" opacity="0.22" style="mix-blend-mode: multiply;isolation: isolate"/>
      <path id="Path_82" data-name="Path 82" d="M180.675,242.943c2.958-2.6,11.043-4.417,13.294-7.244,2.585-3.245,2.8-12,2.279-16.113-.508-3.991-6.557-14.861-6.557-14.861l5.059-3.615s7.649,13.867,8.3,18.245c.765,5.148-3.044,23.851-3.044,23.851s1.214,13.771.039,24.343c-.386,3.471-11.757,8.612-13.894,4.957-1.777-3.036-2.141-9.654-2.148-14.47,0-.923.01-1.781.028-2.534.044-1.873.122-3.1.122-3.1a.915.915,0,0,0-1.575-.515c-1.835,1.959-4.919,5.511-5.077,7.411-.344,4.148,7.459,14.885,7.459,14.885l-5.332,2.37s-9.261-12.055-9.338-16.812C170.213,254.878,177.025,246.156,180.675,242.943Z" transform="translate(-170.29 -194.211)" fill="url(#linear-gradient-49)"/>
      <g id="Group_11" data-name="Group 11" transform="translate(4.968 6.899)" opacity="0.25" style="mix-blend-mode: multiply;isolation: isolate">
        <path id="Path_83" data-name="Path 83" d="M187.72,312.078a8.1,8.1,0,0,1-.527-1.106c-2.248-3.353-6.216-9.747-5.968-12.73.139-1.671,3.329-5.6,5.154-7.617-.3-.482-1.8.371-2.232.833-1.835,1.959-4.919,5.511-5.077,7.411-.345,4.148,7.459,14.885,7.459,14.885l-2.212.983.189.246,4.178-1.857s-.075-.1-.207-.289A2.168,2.168,0,0,1,187.72,312.078Z" transform="translate(-179.059 -239.848)" fill="#6470b5" opacity="0.7"/>
        <path id="Path_84" data-name="Path 84" d="M218.93,219.355c-.651-4.378-8.3-18.245-8.3-18.245l-1.8,1.284c1.517,2.8,7.376,13.781,7.942,17.588.766,5.149-3.044,23.852-3.044,23.852s.2,2.222.354,5.568a128.162,128.162,0,0,1-.314,18.775c-.2,1.832-3.466,4.128-6.816,5.352,3.952-.837,8.723-3.752,8.97-5.979,1.174-10.572-.039-24.343-.039-24.343S219.7,224.5,218.93,219.355Z" transform="translate(-191.151 -201.11)" fill="#6470b5" opacity="0.7"/>
      </g>
      <path id="Path_85" data-name="Path 85" d="M203.641,400.866l-.292-.019,2.1-31.155V329.308h.292V369.7Z" transform="translate(-184.619 -249.779)" fill="#4b69bc" style="mix-blend-mode: screen;isolation: isolate"/>
      <path id="Path_86" data-name="Path 86" d="M224.837,398.3l-.292,0c0-.291.247-29.18-.66-38.7-.836-8.769-6.083-34.859-6.136-35.122l.287-.057c.053.263,5.3,26.369,6.14,35.151C225.084,369.11,224.839,398.013,224.837,398.3Z" transform="translate(-190.861 -247.662)" fill="#4b69bc" style="mix-blend-mode: screen;isolation: isolate"/>
      <path id="Path_87" data-name="Path 87" d="M200.372,199.256l4.642-3.326s-4.634-6.844-5.794-6.989-4.31,1.662-3.346,3.26a16.713,16.713,0,0,0,1.766,2.468s-3.211-.582-3.32.921,3.426.805,3.915,1.227S200.372,199.256,200.372,199.256Z" transform="translate(-180.705 -188.934)" fill="#936844"/>
      <path id="Path_88" data-name="Path 88" d="M201.287,253.227l-.378-2.851a2.4,2.4,0,0,0,2.381-1.181c.809-1.43-.021-4.019-.021-4.019l.775-.422a.438.438,0,0,0,.1-.7,10.6,10.6,0,0,1-1.264-1.436c-.539-.8-1.007-7.166-3.563-5.881s-5.458,1.589-5.228,5.958a16.279,16.279,0,0,0,3.232,8.135l.43,4.391Z" transform="translate(-180.598 -209.581)" fill="#936844"/>
      <path id="Path_89" data-name="Path 89" d="M191,327.132s4.775.943,5.048,1.695c.74,2.036-.819.6-2.281.887-2.143.426.5,4.979-.739,6.1s-6.254-4.64-6.254-4.64Z" transform="translate(-177.434 -248.835)" fill="#a87d54"/>
      <path id="Path_90" data-name="Path 90" d="M188.1,248.05s-.725,1.944.686,1.837,1.986-1.283,2.318-.806.1,1.828,1.341,1.606.956-1.892,1.5-2.4,1.606-.6,1.645-1.551-5.115-2.5-3.606-4.634c.857-1.209,2.134.9,3.276.406s-.246-2.187-.158-2.728,1.936.218,2.274-.926l.338-1.143s1.771-.333,1.8-1.081-.941-3.375-3.419-2.94-2.2,1.493-5.83,1.271c-1.772-.109-4.443.443-3.425,2.093.579.94-1.419.293-1.32,2.2a1.659,1.659,0,0,0,1.864,1.7s-3.025.424-2.033,2.232,2.088.765,2.088.765a1.676,1.676,0,0,0-.988,2.68A3.5,3.5,0,0,0,188.1,248.05Z" transform="translate(-176.736 -208.312)" fill="#232323"/>
      <path id="Path_91" data-name="Path 91" d="M199.06,265.03l4.852-1.819.818,1.985-5.668,1.991Z" transform="translate(-182.76 -221.129)" fill="url(#linear-gradient-49)"/>
      <path id="Path_92" data-name="Path 92" d="M203.188,295.269c6.97-2.2,7.758-4.057,7.758-4.057l.074,2.687c-6.074,4.935-17,4.054-16.53,4.062l-.031-2.27A22.558,22.558,0,0,0,203.188,295.269Z" transform="translate(-180.766 -233.266)" fill="url(#linear-gradient-25)"/>
      <path id="Path_93" data-name="Path 93" d="M222.708,454.465l-.074,3.092,10.678.256c.944.023,1.238-.981.38-1.3l-5.176-1.912Z" transform="translate(-192.978 -304.027)" fill="#303030"/>
      <path id="Path_94" data-name="Path 94" d="M195.5,454.473l-.258,3.088,10.679.256c.943.023,1.237-.981.38-1.3l-5.177-1.912Z" transform="translate(-181.107 -304.031)" fill="#303030"/>
      <path id="Path_95" data-name="Path 95" d="M200.345,198.111s2.22,1.162,3.772.5a4.849,4.849,0,0,0,1.758-1.736l1.208,1.71a4.878,4.878,0,0,1-2.1,1.569C202.565,201.062,200.345,198.111,200.345,198.111Z" transform="translate(-183.317 -192.374)" fill="#a87d54" opacity="0.26" style="mix-blend-mode: multiply;isolation: isolate"/>
    </g>
    <path id="Path_96" data-name="Path 96" d="M630.777,204.393l-3.79-.973-2.95,2.571-.246-3.905-3.356-2.011,3.638-1.441.876-3.813,2.495,3.015,3.9-.346-2.1,3.3Z" transform="translate(-265.12 -84.036)" fill="#4b69bc"/>
    <path id="Path_97" data-name="Path 97" d="M98.777,98.393l-3.79-.973-2.95,2.571-.246-3.905-3.356-2.011,3.638-1.441.876-3.813,2.494,3.015,3.9-.346-2.1,3.3Z" transform="translate(-34.526 -38.091)" fill="#4b69bc"/>
    <path id="Path_98" data-name="Path 98" d="M564.592,146.365l-2.481-.637-1.931,1.683-.161-2.556-2.2-1.316,2.381-.943.573-2.5,1.633,1.973,2.551-.226-1.372,2.162Z" transform="translate(-237.981 -60.318)" fill="#7e9ee8"/>
    <path id="Path_99" data-name="Path 99" d="M215.592,75.365l-2.481-.637-1.931,1.682-.161-2.556-2.2-1.316L211.2,71.6l.573-2.5,1.632,1.973,2.551-.226-1.372,2.162Z" transform="translate(-86.708 -29.543)" fill="#7e9ee8"/>
    <path id="Path_100" data-name="Path 100" d="M511.065,90.306a.344.344,0,0,1-.483-.056c-.036-.046-3.578-4.6-.979-8.647a4.444,4.444,0,0,1,3.259-1.982c1.7-.378,3.457-.771,5.229-4.94a.344.344,0,0,1,.633.269c-1.91,4.494-3.931,4.945-5.712,5.342a3.783,3.783,0,0,0-2.831,1.683c-2.337,3.642.906,7.808.94,7.85A.343.343,0,0,1,511.065,90.306Z" transform="translate(-216.668 -31.872)" fill="#b56485"/>
    <path id="Path_101" data-name="Path 101" d="M192.29,137.582a.344.344,0,0,1-.019-.485c.04-.043,3.993-4.241,8.395-2.293a4.441,4.441,0,0,1,2.459,2.916c.634,1.622,1.291,3.3,5.684,4.41a.343.343,0,0,1-.169.666c-4.734-1.2-5.489-3.125-6.154-4.825a3.785,3.785,0,0,0-2.1-2.539c-3.957-1.751-7.576,2.093-7.612,2.132A.343.343,0,0,1,192.29,137.582Z" transform="translate(-79.494 -57.799)" fill="#b56485"/>
    <path id="Path_102" data-name="Path 102" d="M615.4,105.285a11.26,11.26,0,0,1-2.545,1.519.344.344,0,0,1-.257-.637c.038-.015,3.833-1.577,4.7-4.628a4.883,4.883,0,0,0,0-2.607,6.858,6.858,0,0,1-.893-.12c-2.741-.552-4.081-2.229-4.192-3.647a1.452,1.452,0,0,1,.829-1.586c.434-.161,1.631-.28,3.372,2.093a9.784,9.784,0,0,1,1.4,2.584,5.506,5.506,0,0,0,4.471-2.537,8.386,8.386,0,0,0,.169-8.993.343.343,0,1,1,.581-.365,9.088,9.088,0,0,1-.186,9.748,6.176,6.176,0,0,1-4.841,2.829,5.514,5.514,0,0,1-.052,2.792A7.192,7.192,0,0,1,615.4,105.285ZM613.156,94.3a.928.928,0,0,0-.254.815c.068.866.912,2.479,3.643,3.028.177.036.353.063.528.083a9.417,9.417,0,0,0-1.209-2.143c-1.2-1.632-2.136-2.019-2.578-1.855A.468.468,0,0,0,613.156,94.3Z" transform="translate(-261.555 -36.955)" fill="#ffa901"/>
    <path id="Path_103" data-name="Path 103" d="M82.608,180.867a11.3,11.3,0,0,1-2.544,1.519.344.344,0,0,1-.257-.637c.039-.015,3.833-1.577,4.7-4.628a4.893,4.893,0,0,0,0-2.607,6.835,6.835,0,0,1-.893-.12c-2.742-.551-4.081-2.229-4.192-3.647a1.452,1.452,0,0,1,.829-1.586c.434-.161,1.631-.28,3.371,2.093a9.787,9.787,0,0,1,1.4,2.584A5.507,5.507,0,0,0,89.5,171.3a8.385,8.385,0,0,0,.169-8.993.343.343,0,1,1,.582-.365,9.09,9.09,0,0,1-.186,9.748,6.179,6.179,0,0,1-4.841,2.829,5.519,5.519,0,0,1-.052,2.792A7.193,7.193,0,0,1,82.608,180.867Zm-2.246-10.989a.926.926,0,0,0-.254.814c.068.867.912,2.479,3.643,3.028.177.036.353.063.528.083a9.387,9.387,0,0,0-1.209-2.143c-1.2-1.632-2.136-2.019-2.578-1.855A.484.484,0,0,0,80.363,169.878Z" transform="translate(-30.617 -69.716)" fill="#ffa901"/>
  </g>
</svg>
