<svg xmlns="http://www.w3.org/2000/svg" width="251.86" height="262.907" viewBox="0 0 251.86 262.907">
  <g id="Group_2850" data-name="Group 2850" transform="translate(-154.284 -761.093)">
    <g id="Group_48" data-name="Group 48" transform="translate(-1483.641 219.548)">
      <path id="Path_440" data-name="Path 440" d="M1763.8,804.452q1.318-.435,2.613-.892c116.956-41.263,98.1-207.783,98.1-207.783L1764.3,541.545h-1.177L1662.9,595.777S1643.913,763.5,1762.279,804Z" fill="#8093e9"/>
      <path id="Path_441" data-name="Path 441" d="M1819.476,854.924q1.1-.366,2.19-.749c97.965-34.562,82.172-174.044,82.172-174.044L1819.89,634.7h-.987l-83.947,45.427s-15.907,140.494,83.242,174.416Z" transform="translate(-55.686 -71.815)" fill="#bfd4f8"/>
      <path id="Path_442" data-name="Path 442" d="M2117.88,799a44.126,44.126,0,1,1-44.125-44.127A44.129,44.129,0,0,1,2117.88,799Z" transform="translate(-283.568 -164.453)" fill="#fff" opacity="0.3"/>
      <path id="Path_443" data-name="Path 443" d="M1869.149,944.33a39.96,39.96,0,1,1-39.959-39.962A39.963,39.963,0,0,1,1869.149,944.33Z" transform="translate(-98.246 -279.696)" fill="#a8bcff" opacity="0.5"/>
    </g>
    <g id="Group_47" data-name="Group 47" transform="translate(-72.569 681.913)">
      <path id="Path_410" data-name="Path 410" d="M362.457,161.987c-3.5.371-7.179,5.336-7.626,8.735a29.226,29.226,0,0,1-2.38,7.1l2.534,1.161s1.926,7.279,6.932,6.923c3.2-.223,7.572-3.779,9.181-7.569,2.232-5.25.936-6.875-.3-10.025-1.107-2.822-4.678-6.085-7.626-6.33A4.023,4.023,0,0,0,362.457,161.987Z" transform="translate(32.039 0.975)" fill="#f59c6f"/>
      <path id="Path_411" data-name="Path 411" d="M367.952,170.6c-.477,4.777-3.318,3.918-6.308,7.582,0,0-.3,9.553-3.727,14.221-.858,1.161,8.449-2.506,9.319-2.81,2.273-.8,6.083-1.25,7.741-3.09,1.769-1.967,2.35-1.712.743-3.25-2.423-2.312-5.133-6.805-7.157-14.157Z" transform="translate(35.197 5.137)" fill="#f59c6f"/>
      <path id="Path_412" data-name="Path 412" d="M365.943,173.31c-.683,1.383-2.26,3.328-5.668,5.046a10.992,10.992,0,0,1-.567,4.439A29.57,29.57,0,0,0,365.943,173.31Z" transform="translate(36.275 7.597)" fill="#b9b3c0" style="mix-blend-mode: multiply;isolation: isolate"/>
      <path id="Path_413" data-name="Path 413" d="M383.269,274.9l.13,4.078-14.08.249s-.527-2.726,4.97-3.651,4.81-2.4,4.81-2.4l.108-5.961,5.187-1.088Z" transform="translate(41.878 61.782)" fill="#5c75c3"/>
      <path id="Path_414" data-name="Path 414" d="M361.252,223.406s5.573,29.434,9.867,39.311c5.024,11.566,11.682,36.368,10.776,42.337l6.679-.318s3.961-19.279.385-28.712-3.584-17.854-4.447-27.4.573-32.062.573-32.062S359.3,201.675,361.252,223.406Z" transform="translate(37.115 29.941)" fill="#2a2b7c"/>
      <path id="Path_415" data-name="Path 415" d="M372.534,275.371l.578,3.857-13.817.548s-.82-2.57,4.482-3.57,4.466-2.376,4.466-2.376l-.548-5.645,4.984-1.148Z" transform="translate(36.007 62.312)" fill="#5c75c3"/>
      <path id="Path_416" data-name="Path 416" d="M376.865,180.121a17.993,17.993,0,0,1-3.08-3.874c-.605-1.338-3.464,1.416-4.525,2.049a30.321,30.321,0,0,1-10.136,3.413c-.345,1.764.087,3.4-.266,5.182a32.177,32.177,0,0,1-1.148,5.136c2.13-6.406,11.94-14.824,19.01-10.453Z" transform="translate(35.108 9.1)" fill="#c7e6fe"/>
      <path id="Path_417" data-name="Path 417" d="M357.14,218s4.838,48.975,4.766,49.8,5.085,45.583,5.085,45.583,5.616-.143,8.358-2.236a377.667,377.667,0,0,0-.537-40.773c3.462-12.521,4.2-18.963,5.675-28.158s9.625-18.205,1.617-34.656S354.666,207.581,357.14,218Z" transform="translate(34.65 23.522)" fill="#2a2b7c"/>
      <path id="Path_418" data-name="Path 418" d="M359.489,187.374c-1.349,2.323-1.885,5.586-2.52,8.082-.773,3.047-1,6.224-1.72,9.29-.857,3.613.055,6.2.25,9.935.554,10.809.116,21.061,1.653,31.821,2.678.112,7.129.995,10.016,1,3.4,0,6.486.052,9.959-.242,3.343-.288,6.785-1.756,10.081-2.363,1.308-.239,5.665-.811,6.273-.858-.363-7.829-5.652-18.869-6.424-23.258a128.081,128.081,0,0,1-1.5-23.546c.228-10.2-2.282-13.266-6.389-17.163-7.154-6.785-17.537,4.235-19.27,6.671C359.752,186.942,359.619,187.153,359.489,187.374Z" transform="translate(33.461 10.271)" fill="#5c75c3"/>
      <path id="Path_419" data-name="Path 419" d="M390.534,190.284c.811-5.44,1.162-11.558-6.014-10.527s-8.4,12.654-11.509,20.524-5.1,8.573-9.607,11.47-14.522,7.7-17.61,7.856-11.1.687-12.344,1.813-.966,4.221,0,5.206,7.057,1.091,10.152-.824c0,0,23.2-3.012,33.107-8.66C376.7,217.141,389.207,199.153,390.534,190.284Z" transform="translate(20.46 11.293)" fill="#f59c6f"/>
      <path id="Path_420" data-name="Path 420" d="M385.979,190.284c.811-5.44,1.162-11.558-6.014-10.527s-8.4,12.654-11.509,20.524-5.1,8.573-9.607,11.47a58.965,58.965,0,0,1-9.8,4.585c-1.2.493-7.469,2.417-8.318,3.372-1.359,1.528,2.187,5.706,2.574,7.312,2.068.226,5.974-1.077,8.017-1.493,2.555-.526,4.823-1.649,7.371-2.246,4.845-1.136,9.043-3.617,13.461-6.139C372.15,217.141,384.652,199.153,385.979,190.284Z" transform="translate(25.015 11.293)" fill="#2a2b7c"/>
      <path id="Path_421" data-name="Path 421" d="M362.21,170.595c-1.4-.234-2.509.749-3.792,1.088a7.675,7.675,0,0,1-4.743-.426c-.938-.415-2.453-1.606-2-2.806a2.068,2.068,0,0,1,2.726-.846c-2.2-2.157-.043-4.773,2.23-5.645a23.08,23.08,0,0,1,4.137-.892c2.593-.472,5.827,1.066,8.072,2.19a8.224,8.224,0,0,1,3.822,4.686c.876,2.243,1.81,6.425.09,8.473-.6.724-7.227,2.2-7.075.974.174-1.4,1.512-2.762.806-4.175a1.617,1.617,0,0,0-2.819.049c-.735-.4-.907-1.747-1.516-2.426Z" transform="translate(31.537 0.399)" fill="#0b1238"/>
      <g id="Group_46" data-name="Group 46" transform="translate(297.569 160.297)">
        <path id="Path_422" data-name="Path 422" d="M316.052,179.644c8.22,1.419,7.927,16.49,7.911,22.555a78.747,78.747,0,0,1-1.807,14.688c-.827,4.347-2.762,7.981-4.3,12.03Z" transform="translate(-286.779 -149.003)" fill="#0b1238"/>
        <path id="Path_423" data-name="Path 423" d="M329.929,205.774c1.508-.572,3.027-.646,4.533-1.245s4.188-.847,5.382.436c.822.882-.9,1.124.44,1.633a14.311,14.311,0,0,1,4.311,2.277c.792.792,1.335,2.414.817,2.672-.792.4-1.486-.668-1.486-.668s.619.892.149,1.386c-.763.8-1.695-.493-1.695-.493s.741.7.284,1.186c-.6.637-1.764.089-2,.025-1.493,1.634-6.1-1.685-7.524-2.113-1.866-.556-3.255.2-3.377-1.983A17.856,17.856,0,0,1,329.929,205.774Z" transform="translate(-278.779 -134.759)" fill="#ba6b4f"/>
        <path id="Path_424" data-name="Path 424" d="M317.623,268.17c.136,2.968-.947,5.844-.849,8.9,4.49.721,8.248,1.68,12.89,1.544-1.012-2.811-3.388-3.386-5.827-5.108-3.932-2.776-1.984-4.591-3.335-8.47Z" transform="translate(-286.361 -99.153)" fill="#0b1238"/>
        <path id="Path_425" data-name="Path 425" d="M304,268.355c.133,2.963-.95,5.846-.85,8.9,4.493.722,8.248,1.685,12.89,1.547-1.014-2.811-3.386-3.386-5.825-5.109-3.932-2.775-1.984-4.59-3.335-8.468Z" transform="translate(-294.316 -99.045)" fill="#0b1238"/>
        <path id="Path_426" data-name="Path 426" d="M330.551,211.912l3.792,91.577-9.344.66-4.886-61.625-6.457,60.47-9.29-.182S299.31,259,299.572,246.269c-.619-16.533-1.3-28.739,4.821-35.206C304.393,211.063,323.123,214.761,330.551,211.912Z" transform="translate(-296.626 -130.661)" fill="#0b1238"/>
        <path id="Path_427" data-name="Path 427" d="M304.5,185.693c1.585-2.32,3.747-4.137,5.133-6.722.367-.692,1.815-6.017,2.414-6.117,2.255-.391,5.944-1.2,7.615.551,1.723,1.807,1.321,6.549,2.186,8.844.466,1.25,1.709,2.127,2.224,3.263,2.007,4.457-2.941,11.788-4.446,15.945-.984,2.71-1.766,7.626-4.864,9.078-4.346,2.043-7.464-3.5-9-6.652a21.588,21.588,0,0,1-2.369-6.771c-.225-2.162-1.143-5.548-.621-7.673A11.2,11.2,0,0,1,304.5,185.693Z" transform="translate(-294.62 -153.275)" fill="#ba6b4f"/>
        <path id="Path_428" data-name="Path 428" d="M318.242,182.568c0-.035,0-.067.006-.092a4.533,4.533,0,0,1-.257-.58c-.559-1.658-.526-4.6-1.064-6.761a4.4,4.4,0,0,0-.909-1.731c-1.128-1.18-3.174-1.191-5.079-.955-.719,1.033-1.53,2.293-2.073,3.1a10.587,10.587,0,0,0,.662,1.3C311.338,179.917,314.975,183.227,318.242,182.568Z" transform="translate(-290.974 -153.273)" fill="#ecb49f" style="mix-blend-mode: multiply;isolation: isolate"/>
        <path id="Path_429" data-name="Path 429" d="M321.9,181.575a6.27,6.27,0,0,0-1.853-2.5l-1.1,2.909s-9.9-5.252-11.159-5.971c.057.033-2.515,4.278-2.515,4.278a15.587,15.587,0,0,1,3.413,1.866c.922.99,1.364,3.416,1.872,4.7q1.853,4.656,3.706,9.317,4.219,10.612,8.445,21.23c-.535-1.346-.079-3.882-.106-5.306-.079-3.909,1.851-6.837,1.771-10.744-.089-4.344-1.041-8.917-1.131-13.261A48.866,48.866,0,0,0,321.9,181.575Z" transform="translate(-293.069 -151.121)" fill="#fff"/>
        <path id="Path_430" data-name="Path 430" d="M311.218,183.346a10.876,10.876,0,0,1-1.486-1.1c-3.071-2.8-2.551-10.88-1.432-14.642,1.258-4.2,4.14-6.1,7.789-6.2,8.814-.23,10.511,16.123,6.118,22.159C319.932,186.675,314.512,185.385,311.218,183.346Z" transform="translate(-291.814 -159.654)" fill="#ba6b4f"/>
        <path id="Path_431" data-name="Path 431" d="M314.268,181.163l-.452,3.616,1.206,1.432,3.392,16.5,3.39-1.356-4.973-15.522v-1.881l-2.261-3.165Z" transform="translate(-288.084 -148.335)" fill="#fa989c"/>
        <path id="Path_432" data-name="Path 432" d="M307.634,178.219l9.49,6.929.753-3.165-.3,4.822Z" transform="translate(-291.693 -149.835)" fill="#c7e6fe"/>
        <path id="Path_433" data-name="Path 433" d="M314.1,180.6l2.338,2.789.678-1.96-.531,3.392Z" transform="translate(-287.917 -148.447)" fill="#c7e6fe"/>
        <path id="Path_434" data-name="Path 434" d="M333.115,230.116c.089-3.526.168-7.048.212-10.573.081-6.117.348-12.42-.482-18.5-1.069-7.827-2.556-14.352-6.793-21.2.182,2.376,1.307,16.036,1.929,17.338-1.593-3.34-8.933-12.559-10.412-14.276-1.823-2.125-4.137-4.821-7.227-4.971a10.993,10.993,0,0,0-10.325,5.877c-1.3,2.3-2.439,4.7-2.45,7.265-.035,6.973,1.767,18.815,2.108,20.5.429,2.1.984,4.058,1.291,6.177a35.571,35.571,0,0,1-.654,12.593c-1.045,4.317-1.4,6.739-2.306,10.4,5.019.258,10.073.534,15.041.779,3.619.181,7.173.3,10.819.3,1.908,0,3.845.1,5.755.006.836-.041,3.156.139,3.777-.456.041-.011.081-.017.12-.029C333.863,239.943,333.071,231.94,333.115,230.116Z" transform="translate(-297.569 -150.007)" fill="#2e3054"/>
        <path id="Path_435" data-name="Path 435" d="M349.972,218.186c-4.648-2.775-22.813-8.278-25.339-11.109-5.454-6.128-13.484-29.835-22.132-25.334-1.707.888-3.194,5.024-1.3,10.568,1.56,4.552,9.64,15.112,15.993,21.547,5.231,5.3,26.017,8.763,30.625,10.917Z" transform="translate(-295.963 -148.107)" fill="#0b1238"/>
        <path id="Path_436" data-name="Path 436" d="M327.342,167.408c-.567-.192-.865-.643-1.474-.8-.182.008-.174.017.008.025,3.5-2.54-3.036-5.238-4.731-5.648-4.376-1.06-8.437-1.261-11.931,2a9.55,9.55,0,0,0-2.927,8.543c.741,4.3,3.552,4.58,6.02,7.127-2.789-2.879,2.368-7.41,4.639-8.144,2.783-.893,4.71,1.4,7.608.431C324.935,170.816,329.145,168.021,327.342,167.408Z" transform="translate(-292.556 -160.297)" fill="#2e3054"/>
        <path id="Path_437" data-name="Path 437" d="M307.561,178.931l2.035,6.893,1.582-.678-.415,3.652s13.072,13.411,13.411,13.411-.227-14.691-.227-14.691l.678,1.809-.227.79.678,13.9-15.03-15.256.565-2.827-1.245.565Z" transform="translate(-291.735 -149.419)" fill="#0b1238"/>
        <path id="Path_438" data-name="Path 438" d="M337.217,207.407c1.584-.436,3.264-.291,4.851-.863a8,8,0,0,0,2.393-1.343c-2.371-.583-4.967-1.174-7.333-.252-.673.264-4.9,2.567-2.395,3.3C335.532,208.487,336.493,207.609,337.217,207.407Z" transform="translate(-276.333 -134.51)" fill="#f59c6f"/>
        <path id="Path_439" data-name="Path 439" d="M331.8,209.2c.518-1.158,1.161-1.628,1.631-1.5,1.064.4-.266,1.348-.247,1.88.31-.431,1.574-1.824,2.227-1.62.846.269.165,1.769-.272,2.289,1.707-2.129,2.92-1.46,1.905.594.995-.687,2.137-1.972,2.079-.025-.043,1.511-.668,1.658-1.456,1.535a16.493,16.493,0,0,1-5.474-2.152A1.7,1.7,0,0,1,331.8,209.2Z" transform="translate(-277.587 -132.639)" fill="#f59c6f"/>
      </g>
    </g>
    <g id="Group_53" data-name="Group 53" transform="translate(-52.626 741.099)">
      <g id="Group_51" data-name="Group 51" transform="translate(241.575 167.408)">
        <path id="Path_444" data-name="Path 444" d="M266.09,168.06l2.151,12.849a10.214,10.214,0,1,1-20.147,3.376l-2.153-12.847Z" transform="translate(-238.896 -167.008)" fill="#fff"/>
        <rect id="Rectangle_192" data-name="Rectangle 192" width="2.97" height="12.232" transform="matrix(0.986, -0.165, 0.165, 0.986, 18.81, 21.807)" fill="#fff"/>
        <path id="Path_445" data-name="Path 445" d="M250.833,193.171c-.379-2.264,2.851-4.694,7.218-5.425s8.216.511,8.6,2.775Z" transform="translate(-235.913 -155.057)" fill="#fff"/>
        <g id="Group_49" data-name="Group 49" transform="translate(23.676)">
          <path id="Path_446" data-name="Path 446" d="M265.268,184.88l-9.02,1.512,1.075-17.52,8.729-1.464,1.554,9.28Zm-7.23-.474,5.919-.992,1.948-6.821-1.218-7.269-5.785.966Z" transform="translate(-256.248 -167.408)" fill="#fff"/>
        </g>
        <g id="Group_50" data-name="Group 50" transform="translate(0 4.147)">
          <path id="Path_447" data-name="Path 447" d="M243.132,180.723l-1.557-9.28,8.728-1.465,6.727,16.215-9.017,1.51Zm6.143-8.888-5.785.971,1.218,7.269,4.066,5.814,5.919-.992Z" transform="translate(-241.575 -169.978)" fill="#fff"/>
        </g>
      </g>
      <g id="Group_52" data-name="Group 52" transform="translate(256.202 175.584)">
        <path id="Path_448" data-name="Path 448" d="M253.7,174.686c-.047.01-2.409,1.844-2.409,1.844l-.649-1.475,2.967-2.291,1.727-.289,2.032,12.123-1.951.326Z" transform="translate(-250.64 -172.475)" fill="#ff6d69"/>
      </g>
    </g>
    <g id="Group_69" data-name="Group 69" transform="translate(48.544 729.709)">
      <rect id="Rectangle_193" data-name="Rectangle 193" width="51.158" height="40.324" transform="translate(307.459 48.291) rotate(11.448)" fill="#a8bcff" opacity="0.3"/>
      <rect id="Rectangle_194" data-name="Rectangle 194" width="44.184" height="34.305" transform="translate(310.217 51.614) rotate(11.445)" fill="#fff"/>
      <rect id="Rectangle_195" data-name="Rectangle 195" width="44.184" height="34.305" transform="translate(310.217 51.614) rotate(11.445)" fill="#f0f3fa"/>
      <g id="Group_68" data-name="Group 68" transform="translate(307.338 57.771)">
        <path id="Path_449" data-name="Path 449" d="M339.924,78.337l4.213-20.817-10,8.363-4.27-5.317-10.969,5.795-5.759-2.354-9.505,6.981Z" transform="translate(-302.928 -48.021)" fill="#bfd4f8"/>
        <g id="Group_54" data-name="Group 54" transform="translate(0.523 9.268)">
          <path id="Path_450" data-name="Path 450" d="M303.9,71.348l-.359-.484,9.643-7.082,5.782,2.365,11.07-5.844,4.227,5.271,9.772-8.166.386.461L334.178,66.43l-4.3-5.363L319,66.812l-5.73-2.344Z" transform="translate(-303.543 -57.407)" fill="#6268a5"/>
        </g>
        <g id="Group_66" data-name="Group 66" transform="translate(2.15 1.833)">
          <g id="Group_58" data-name="Group 58" transform="translate(2.405)">
            <g id="Group_55" data-name="Group 55">
              <path id="Path_451" data-name="Path 451" d="M308.694,54.985l-2.951-.6a.3.3,0,0,1,.123-.59l2.947.6a.3.3,0,0,1,.234.354A.3.3,0,0,1,308.694,54.985Z" transform="translate(-305.503 -53.792)" fill="#6268a5"/>
            </g>
            <g id="Group_56" data-name="Group 56" transform="translate(9.04 1.83)">
              <path id="Path_452" data-name="Path 452" d="M328.413,58.978l-6.091-1.234a.3.3,0,0,1,.121-.59l6.093,1.234a.3.3,0,0,1-.123.59Zm-12.184-2.466-6.089-1.234a.3.3,0,0,1,.119-.59l6.093,1.232a.3.3,0,0,1-.123.592Z" transform="translate(-309.899 -54.682)" fill="#6268a5"/>
            </g>
            <g id="Group_57" data-name="Group 57" transform="translate(33.407 6.764)">
              <path id="Path_453" data-name="Path 453" d="M324.939,58.274l-2.951-.6a.3.3,0,0,1,.121-.59l2.949.6a.3.3,0,0,1-.119.59Z" transform="translate(-321.748 -57.081)" fill="#6268a5"/>
            </g>
          </g>
          <g id="Group_62" data-name="Group 62" transform="translate(1.286 5.524)">
            <g id="Group_59" data-name="Group 59">
              <path id="Path_454" data-name="Path 454" d="M308.148,57.671l-2.945-.594a.3.3,0,1,1,.117-.592l2.947.6a.311.311,0,0,1,.241.356A.3.3,0,0,1,308.148,57.671Z" transform="translate(-304.959 -56.478)" fill="#6268a5"/>
            </g>
            <g id="Group_60" data-name="Group 60" transform="translate(8.684 1.758)">
              <path id="Path_455" data-name="Path 455" d="M315.154,59.091l-5.733-1.162a.3.3,0,0,1-.232-.356.3.3,0,0,1,.352-.234l5.733,1.16a.3.3,0,1,1-.119.592Z" transform="translate(-309.182 -57.333)" fill="#6268a5"/>
            </g>
            <g id="Group_61" data-name="Group 61" transform="translate(20.151 4.08)">
              <path id="Path_456" data-name="Path 456" d="M317.947,59.655l-2.951-.6a.3.3,0,0,1,.123-.59l2.947.6a.306.306,0,0,1,.239.356A.3.3,0,0,1,317.947,59.655Z" transform="translate(-314.758 -58.462)" fill="#6268a5"/>
            </g>
          </g>
          <g id="Group_65" data-name="Group 65" transform="translate(0 12.45)">
            <g id="Group_63" data-name="Group 63">
              <path id="Path_457" data-name="Path 457" d="M307.521,61.039l-2.949-.6a.3.3,0,0,1,.121-.59l2.949.6a.3.3,0,1,1-.121.588Z" transform="translate(-304.334 -59.846)" fill="#6268a5"/>
            </g>
            <g id="Group_64" data-name="Group 64" transform="translate(4.664 0.945)">
              <path id="Path_458" data-name="Path 458" d="M309.792,61.5l-2.949-.6a.3.3,0,1,1,.121-.588l2.945.6a.3.3,0,0,1,.239.354A.306.306,0,0,1,309.792,61.5Z" transform="translate(-306.602 -60.306)" fill="#6268a5"/>
            </g>
          </g>
        </g>
        <g id="Group_67" data-name="Group 67">
          <rect id="Rectangle_196" data-name="Rectangle 196" width="23.921" height="1.205" transform="matrix(0.198, -0.98, 0.98, 0.198, 0, 23.447)" fill="#6268a5"/>
        </g>
      </g>
    </g>
    <g id="Group_75" data-name="Group 75" transform="translate(-1504.677 -114.13)">
      <path id="Path_459" data-name="Path 459" d="M1711.143,992.359a2.525,2.525,0,0,1-2.524,2.524h-47.133a2.525,2.525,0,0,1-2.524-2.524V950.277a2.526,2.526,0,0,1,2.524-2.526h47.133a2.526,2.526,0,0,1,2.524,2.526Z" transform="translate(0)" fill="#acc9ff"/>
      <g id="Group_70" data-name="Group 70" transform="translate(1665.859 952.744)">
        <path id="Path_460" data-name="Path 460" d="M1704.22,966.649a15.254,15.254,0,0,1-2.9,1.4c-8.661,3.543-10.129,8.357-11.019,10.108-1.479,2.439-5.231,2-5.231,2V984.4a20.319,20.319,0,0,0,5.918-.632,16.828,16.828,0,0,0,3.739-1.648,9.663,9.663,0,0,0,3.74-4.379c.787-1.525,1.734-2.977.935-3.714s-4.219,5.462-4.576,2.533c-.149-1.919,4.133-5.559,6.348-6.74s2.46-1.181,2.946-1.844A1.266,1.266,0,0,0,1704.22,966.649Z" transform="translate(-1685.067 -966.649)" fill="#fff"/>
        <path id="Path_461" data-name="Path 461" d="M1764.166,966.649a15.266,15.266,0,0,0,2.9,1.4c8.659,3.543,10.127,8.357,11.017,10.108,1.479,2.439,5.231,2,5.231,2V984.4a20.313,20.313,0,0,1-5.916-.632,16.8,16.8,0,0,1-3.739-1.648,9.657,9.657,0,0,1-3.739-4.379c-.786-1.525-1.736-2.977-.937-3.714s4.221,5.462,4.578,2.533c.147-1.919-4.135-5.559-6.348-6.74s-2.46-1.181-2.948-1.844A1.267,1.267,0,0,1,1764.166,966.649Z" transform="translate(-1743.16 -966.649)" fill="#fff"/>
      </g>
      <g id="Group_74" data-name="Group 74" transform="translate(1675.648 968.406)">
        <g id="Group_72" data-name="Group 72" transform="translate(0)">
          <path id="Path_462" data-name="Path 462" d="M1730.379,1032.847v-4.816c0-1.167-1.851-2.11-4.133-2.11s-4.133.944-4.133,2.11v16.1c0,1.193,1.866,2.161,4.168,2.161s4.167-.968,4.167-2.161l-.08-1.574C1730.368,1042.3,1730.379,1032.847,1730.379,1032.847Z" transform="translate(-1722.112 -1025.92)" fill="#f6b676"/>
          <path id="Path_463" data-name="Path 463" d="M1726.238,1054.023v-17.088h-1.013v16.582A4.122,4.122,0,0,0,1726.238,1054.023Z" transform="translate(-1724.402 -1034.025)" fill="#f6d488"/>
          <path id="Path_464" data-name="Path 464" d="M1731.617,1054.215a7.592,7.592,0,0,0,1.656.178,7.721,7.721,0,0,0,1.386-.125v-17.333h-3.042Z" transform="translate(-1729.105 -1034.025)" fill="#f6d488"/>
          <path id="Path_465" data-name="Path 465" d="M1730.352,1028.306c0,1.12-1.814,2.029-4.055,2.029s-4.055-.909-4.055-2.029,1.815-2.028,4.055-2.028S1730.352,1027.186,1730.352,1028.306Z" transform="translate(-1722.208 -1026.183)" fill="#f6b676"/>
          <path id="Path_466" data-name="Path 466" d="M1722.136,1034.312a5.957,5.957,0,0,0,8.263,0V1033.3a4.479,4.479,0,0,1-4.105,2.088c-3.148-.064-3.943-1.734-4.158-2.062Z" transform="translate(-1722.13 -1031.351)" fill="#dc9568"/>
          <path id="Path_467" data-name="Path 467" d="M1722.136,1046.509a5.957,5.957,0,0,0,8.263,0V1045.5a4.477,4.477,0,0,1-4.105,2.089c-3.148-.064-3.943-1.734-4.158-2.063Z" transform="translate(-1722.13 -1040.323)" fill="#dc9568"/>
          <path id="Path_468" data-name="Path 468" d="M1722.136,1058.712a5.957,5.957,0,0,0,8.263,0V1057.7a4.479,4.479,0,0,1-4.105,2.087c-3.148-.064-3.943-1.734-4.158-2.062Z" transform="translate(-1722.13 -1049.303)" fill="#dc9568"/>
          <path id="Path_469" data-name="Path 469" d="M1722.136,1070.91a5.958,5.958,0,0,0,8.263,0V1069.9a4.479,4.479,0,0,1-4.105,2.088c-3.148-.063-3.943-1.734-4.158-2.063Z" transform="translate(-1722.13 -1058.278)" fill="#dc9568"/>
          <path id="Path_470" data-name="Path 470" d="M1722.136,1083.112a5.96,5.96,0,0,0,8.263,0V1082.1a4.479,4.479,0,0,1-4.105,2.088c-3.148-.064-3.943-1.735-4.158-2.062Z" transform="translate(-1722.13 -1067.255)" fill="#dc9568"/>
          <g id="Group_71" data-name="Group 71" transform="translate(7.907 10.896)">
            <path id="Path_471" data-name="Path 471" d="M1752.284,1073.343v-4.3c0-1.042,1.653-1.887,3.693-1.887s3.692.845,3.692,1.887v5.693c0,1.041-1.653,1.885-3.692,1.885s-3.693-.844-3.693-1.885Z" transform="translate(-1752.219 -1067.155)" fill="#f6b676"/>
            <path id="Path_472" data-name="Path 472" d="M1756.706,1082.317a4.572,4.572,0,0,0,.8.291v-6.987h-.8Z" transform="translate(-1755.472 -1073.384)" fill="#f6d488"/>
            <path id="Path_473" data-name="Path 473" d="M1761.736,1082.806a7.1,7.1,0,0,0,1.2.1,7.011,7.011,0,0,0,1.195-.1v-7.1h-2.39Z" transform="translate(-1759.173 -1073.443)" fill="#f6d488"/>
            <path id="Path_474" data-name="Path 474" d="M1759.635,1069.96c0,.935-1.514,1.69-3.379,1.69s-3.38-.755-3.38-1.69,1.511-1.689,3.38-1.689S1759.635,1069.027,1759.635,1069.96Z" transform="translate(-1752.654 -1067.976)" fill="#f6b676"/>
            <path id="Path_475" data-name="Path 475" d="M1752.036,1075.013a5.373,5.373,0,0,0,7.45,0v-.912a4.315,4.315,0,0,1-3.808,1.771c-2.84-.056-3.448-1.452-3.642-1.748Z" transform="translate(-1752.036 -1072.266)" fill="#dc9568"/>
            <path id="Path_476" data-name="Path 476" d="M1752.036,1086.015a5.369,5.369,0,0,0,7.45,0v-.912a4.036,4.036,0,0,1-3.7,1.883c-2.84-.058-3.556-1.564-3.75-1.86Z" transform="translate(-1752.036 -1080.361)" fill="#dc9568"/>
            <path id="Path_477" data-name="Path 477" d="M1752.1,1096.351a5.373,5.373,0,0,0,7.452,0v-.911a4.04,4.04,0,0,1-3.7,1.882c-2.838-.058-3.555-1.563-3.75-1.86Z" transform="translate(-1752.084 -1087.966)" fill="#dc9568"/>
          </g>
        </g>
        <g id="Group_73" data-name="Group 73" transform="translate(12.875 1.989)">
          <path id="Path_478" data-name="Path 478" d="M1779.089,1040.909h-8.25v9.71c0,1.193,1.866,2.161,4.168,2.161s4.083-.839,4.083-2.033Z" transform="translate(-1770.839 -1038.938)" fill="#f6b676"/>
          <path id="Path_479" data-name="Path 479" d="M1773.946,1038.43v11.649a4.179,4.179,0,0,0,1.014.507V1038.43Z" transform="translate(-1773.125 -1037.114)" fill="#f6d488"/>
          <path id="Path_480" data-name="Path 480" d="M1780.345,1038.43v12.347a7.567,7.567,0,0,0,1.656.178,7.754,7.754,0,0,0,1.386-.125v-12.4Z" transform="translate(-1777.833 -1037.114)" fill="#f6d488"/>
          <ellipse id="Ellipse_2" data-name="Ellipse 2" cx="4.102" cy="1.983" rx="4.102" ry="1.983" transform="translate(0.031)" fill="#f6b676"/>
          <path id="Path_481" data-name="Path 481" d="M1770.993,1041.539a5.889,5.889,0,0,0,8.209,0v-1.012a4.445,4.445,0,0,1-4.077,2.087c-3.128-.064-3.915-1.734-4.132-2.062Z" transform="translate(-1770.952 -1038.656)" fill="#dc9568"/>
          <path id="Path_482" data-name="Path 482" d="M1770.922,1053.465a5.891,5.891,0,0,0,8.21,0v-1.012a4.445,4.445,0,0,1-4.077,2.089c-3.129-.064-3.916-1.734-4.133-2.062Z" transform="translate(-1770.9 -1047.431)" fill="#dc9568"/>
          <path id="Path_483" data-name="Path 483" d="M1770.922,1065.669a5.9,5.9,0,0,0,8.21,0v-1.012a4.445,4.445,0,0,1-4.077,2.088c-3.129-.065-3.916-1.734-4.133-2.063Z" transform="translate(-1770.9 -1056.411)" fill="#dc9568"/>
          <path id="Path_484" data-name="Path 484" d="M1770.922,1077.866a5.89,5.89,0,0,0,8.21,0v-1.011a4.445,4.445,0,0,1-4.077,2.088c-3.129-.065-3.916-1.734-4.133-2.063Z" transform="translate(-1770.9 -1065.385)" fill="#dc9568"/>
        </g>
      </g>
    </g>
  </g>
</svg>
