<svg xmlns="http://www.w3.org/2000/svg" xmlns:xlink="http://www.w3.org/1999/xlink" width="1452" height="300" viewBox="0 0 1452 300"><defs><style>.a{fill:url(#a);}.b{clip-path:url(#b);}.c{opacity:0.13;}.d,.f,.i,.j,.l,.n{mix-blend-mode:color-dodge;isolation:isolate;}.e,.g,.h,.k,.m,.o{fill:#fff;}.f,.g{opacity:0.5;}.h,.i{opacity:0.2;}.j,.k{opacity:0.3;}.l,.m{opacity:0.63;}.n,.o{opacity:0.9;}</style><linearGradient id="a" x1="1" y1="0.538" x2="0" y2="0.542" gradientUnits="objectBoundingBox"><stop offset="0" stop-color="#111328"/><stop offset="0.502" stop-color="#01426e"/><stop offset="1" stop-color="#19b8a8"/></linearGradient><clipPath id="b"><rect class="a" width="1452" height="300"/></clipPath></defs><g class="b"><g class="c" transform="translate(316.21 -10.201)"><g class="d"><g class="d"><path class="e" d="M411.01,89.587A1.729,1.729,0,1,0,411,87.141,1.729,1.729,0,0,0,411.01,89.587Z"/></g><g class="d"><path class="e" d="M402.717,90.332a1.96,1.96,0,0,1-1.39-.572h0a1.974,1.974,0,1,1,1.4.572Zm0-3.458a1.486,1.486,0,0,0-1.048,2.54h0a1.488,1.488,0,0,0,2.1-.007,1.486,1.486,0,0,0-1.055-2.533Z"/></g><g class="d"><path class="e" d="M382.474,89.587a1.729,1.729,0,1,0-.009-2.446A1.73,1.73,0,0,0,382.474,89.587Z"/></g><g class="d"><path class="e" d="M372.961,89.587a1.729,1.729,0,1,0-.009-2.446A1.73,1.73,0,0,0,372.961,89.587Z"/></g><g class="f"><path class="e" d="M363.449,89.587a1.729,1.729,0,1,0-.009-2.446A1.729,1.729,0,0,0,363.449,89.587Z"/></g><g class="d"><path class="g" d="M355.155,90.332a1.96,1.96,0,0,1-1.389-.572h0a1.974,1.974,0,0,1,1.381-3.373h.008a1.973,1.973,0,0,1,.007,3.945Zm0-3.459h-.006a1.486,1.486,0,0,0-1.042,2.541h0a1.426,1.426,0,0,0,1.053.432,1.487,1.487,0,0,0-.005-2.973Z"/></g><g class="d"><path class="e" d="M345.643,90.332a1.96,1.96,0,0,1-1.39-.572h0a1.974,1.974,0,1,1,1.4.572Zm0-3.459h-.005a1.487,1.487,0,0,0-1.042,2.541h0a1.486,1.486,0,1,0,1.047-2.541Z"/></g><g class="d"><path class="e" d="M334.912,89.587a1.729,1.729,0,1,0-.009-2.446A1.728,1.728,0,0,0,334.912,89.587Z"/></g><g class="d"><path class="h" d="M411.01,81.6A1.729,1.729,0,1,0,411,79.154,1.73,1.73,0,0,0,411.01,81.6Z"/></g><g class="d"><path class="h" d="M411.01,57.637A1.729,1.729,0,1,0,411,55.191,1.729,1.729,0,0,0,411.01,57.637Z"/></g><g class="d"><path class="e" d="M372.961,81.6a1.729,1.729,0,1,0-.009-2.446A1.73,1.73,0,0,0,372.961,81.6Z"/></g><g class="f"><path class="e" d="M363.449,81.6a1.729,1.729,0,1,0-.009-2.446A1.73,1.73,0,0,0,363.449,81.6Z"/></g><g class="d"><path class="g" d="M355.155,82.344a1.964,1.964,0,0,1-1.389-.572h0a1.974,1.974,0,1,1,1.389.572Zm-1.048-.916a1.487,1.487,0,1,0-.007-2.1,1.489,1.489,0,0,0,.007,2.1Z"/></g><g class="d"><path class="e" d="M344.424,81.6a1.729,1.729,0,1,0-.009-2.446A1.73,1.73,0,0,0,344.424,81.6Z"/></g><g class="d"><path class="e" d="M334.912,81.6a1.729,1.729,0,1,0-.009-2.446A1.729,1.729,0,0,0,334.912,81.6Z"/></g><g class="d"><path class="e" d="M345.643,74.357a1.957,1.957,0,0,1-1.39-.573h0a1.971,1.971,0,1,1,1.4.573Zm0-3.459h-.005A1.487,1.487,0,0,0,344.6,73.44h0a1.471,1.471,0,0,0,1.047.431h.005a1.471,1.471,0,0,0,1.049-.439,1.486,1.486,0,0,0-1.054-2.534Z"/></g><g class="d"><path class="e" d="M334.912,73.612a1.73,1.73,0,1,0-.009-2.446A1.729,1.729,0,0,0,334.912,73.612Z"/></g><g class="d"><path class="e" d="M325.4,73.612a1.73,1.73,0,1,0-.008-2.446A1.732,1.732,0,0,0,325.4,73.612Z"/></g><g class="d"><path class="e" d="M345.643,66.369a1.968,1.968,0,0,1-1.39-.572h0a1.974,1.974,0,1,1,1.39.572Zm-1.047-.917a1.486,1.486,0,1,0,1.047-2.542h-.005a1.487,1.487,0,0,0-1.042,2.542Z"/></g><g class="d"><path class="e" d="M334.912,65.625a1.73,1.73,0,1,0-.009-2.446A1.728,1.728,0,0,0,334.912,65.625Z"/></g><g class="d"><path class="e" d="M326.617,66.449a2.039,2.039,0,0,1-1.445-.6h0a2.053,2.053,0,0,1,1.439-3.51h.008a2.052,2.052,0,1,1,0,4.1Zm-.99-1.054a1.406,1.406,0,1,0-.007-1.988,1.407,1.407,0,0,0,.007,1.988Z"/></g><g class="f"><path class="e" d="M344.424,57.637a1.729,1.729,0,1,0-.009-2.446A1.729,1.729,0,0,0,344.424,57.637Z"/></g><g class="f"><path class="e" d="M334.912,57.637a1.729,1.729,0,1,0-.009-2.446A1.728,1.728,0,0,0,334.912,57.637Z"/></g><g class="d"><path class="e" d="M345.643,50.4a1.961,1.961,0,0,1-1.39-.573h0a1.972,1.972,0,1,1,1.4.573Zm0-3.46h-.005a1.488,1.488,0,0,0-1.042,2.543h0a1.475,1.475,0,0,0,1.047.431h.005a1.487,1.487,0,0,0-.005-2.974Z"/></g><g class="d"><path class="e" d="M334.912,49.649A1.729,1.729,0,1,0,334.9,47.2,1.729,1.729,0,0,0,334.912,49.649Z"/></g><g class="i"><path class="e" d="M411.01,41.662A1.73,1.73,0,1,0,411,39.217,1.729,1.729,0,0,0,411.01,41.662Z"/></g><g class="d"><path class="e" d="M411.01,49.649A1.729,1.729,0,1,0,411,47.2,1.73,1.73,0,0,0,411.01,49.649Z"/></g><g class="d"><path class="e" d="M402.717,42.406a1.967,1.967,0,0,1-1.39-.571h0a1.975,1.975,0,1,1,1.39.571Zm-1.048-.916a1.487,1.487,0,1,0-.007-2.1,1.49,1.49,0,0,0,.007,2.1Z"/></g><g class="d"><path class="e" d="M391.986,41.662a1.73,1.73,0,1,0-.009-2.445A1.73,1.73,0,0,0,391.986,41.662Z"/></g><g class="d"><path class="e" d="M391.986,49.649a1.729,1.729,0,1,0-.009-2.445A1.73,1.73,0,0,0,391.986,49.649Z"/></g><g class="d"><path class="e" d="M383.691,42.406a1.964,1.964,0,0,1-1.388-.571h0a1.975,1.975,0,1,1,1.388.571Zm-1.046-.916a1.486,1.486,0,1,0-.008-2.1,1.489,1.489,0,0,0,.008,2.1Z"/></g><g class="j"><path class="e" d="M372.961,41.662a1.73,1.73,0,1,0-.009-2.445A1.73,1.73,0,0,0,372.961,41.662Z"/></g><g class="d"><path class="e" d="M345.643,42.406a1.967,1.967,0,0,1-1.39-.571h0a1.975,1.975,0,1,1,1.39.571ZM344.6,41.49a1.486,1.486,0,1,0-.008-2.1,1.488,1.488,0,0,0,.008,2.1Z"/></g><g class="d"><path class="k" d="M334.912,41.662a1.73,1.73,0,1,0-.009-2.445A1.728,1.728,0,0,0,334.912,41.662Z"/></g><g class="d"><path class="e" d="M325.4,41.662a1.73,1.73,0,1,0-.008-2.445A1.731,1.731,0,0,0,325.4,41.662Z"/></g><g class="d"><path class="e" d="M401.5,33.092a1.73,1.73,0,1,0-.009-2.446A1.727,1.727,0,0,0,401.5,33.092Z"/></g><g class="d"><path class="e" d="M393.2,33.916a2.042,2.042,0,0,1-1.446-.6h0a2.056,2.056,0,1,1,1.446.6Zm-.99-1.055a1.405,1.405,0,1,0-.007-1.987,1.405,1.405,0,0,0,.007,1.987Z"/></g><g class="d"><path class="e" d="M383.691,33.836a1.965,1.965,0,0,1-1.388-.572h0a1.974,1.974,0,1,1,1.388.572Zm-1.046-.917a1.486,1.486,0,1,0-.008-2.1,1.489,1.489,0,0,0,.008,2.1Z"/></g><g class="d"><path class="e" d="M364.667,33.916a2.042,2.042,0,0,1-1.446-.6h0a2.056,2.056,0,1,1,1.446.6Zm-.99-1.055a1.405,1.405,0,1,0-.007-1.987,1.407,1.407,0,0,0,.007,1.987Z"/></g><g class="d"><path class="e" d="M344.424,33.092a1.73,1.73,0,1,0-.009-2.446A1.729,1.729,0,0,0,344.424,33.092Z"/></g><g class="d"><path class="e" d="M336.131,33.916a2.041,2.041,0,0,1-1.447-.6h0a2.056,2.056,0,1,1,1.447.6Zm-.991-1.055a1.406,1.406,0,1,0-.415-.992A1.389,1.389,0,0,0,335.14,32.861Z"/></g><g class="d"><path class="e" d="M336.13,108a2.037,2.037,0,0,1-1.446-.6h0a2.052,2.052,0,1,1,1.454.6Zm0-3.459a1.406,1.406,0,0,0-.991,2.4h0a1.405,1.405,0,1,0,.99-2.4Z"/></g><g class="j"><path class="e" d="M325.4,33.092a1.73,1.73,0,1,0-.008-2.446A1.73,1.73,0,0,0,325.4,33.092Z"/></g><g class="d"><path class="e" d="M402.717,25.848a1.972,1.972,0,1,1,1.4-.581A1.964,1.964,0,0,1,402.717,25.848Zm0-3.457a1.485,1.485,0,1,0,1.047.431A1.48,1.48,0,0,0,402.717,22.391Z"/></g><g class="d"><path class="e" d="M382.474,25.1a1.729,1.729,0,1,0-.009-2.446A1.73,1.73,0,0,0,382.474,25.1Z"/></g><g class="d"><path class="e" d="M363.449,25.1a1.73,1.73,0,1,0-.009-2.446A1.73,1.73,0,0,0,363.449,25.1Z"/></g><g class="d"><path class="e" d="M355.155,25.85a1.973,1.973,0,0,1-.008-3.946h.008a1.973,1.973,0,0,1,.007,3.946Zm0-3.46h-.005a1.487,1.487,0,0,0,.006,2.973h.005a1.487,1.487,0,0,0-.006-2.973Z"/></g><g class="d"><path class="e" d="M344.424,25.1a1.73,1.73,0,1,0-.009-2.446A1.73,1.73,0,0,0,344.424,25.1Z"/></g><g class="d"><path class="e" d="M372.961,163.665a1.729,1.729,0,1,0-.009-2.445A1.73,1.73,0,0,0,372.961,163.665Z"/></g><g class="l"><path class="e" d="M334.912,163.665a1.729,1.729,0,1,0-.009-2.445A1.728,1.728,0,0,0,334.912,163.665Z"/></g><g class="l"><path class="e" d="M325.4,163.665a1.729,1.729,0,1,0-.008-2.445A1.731,1.731,0,0,0,325.4,163.665Z"/></g><g class="d"><path class="e" d="M411.01,155.678a1.73,1.73,0,1,0-.008-2.446A1.729,1.729,0,0,0,411.01,155.678Z"/></g><g class="d"><path class="e" d="M383.691,156.422a1.971,1.971,0,0,1-.006-3.943h.007a1.971,1.971,0,1,1,0,3.943Zm0-3.457a1.486,1.486,0,1,0,1.048.431A1.48,1.48,0,0,0,383.691,152.965Z"/></g><g class="d"><path class="e" d="M372.961,155.678a1.73,1.73,0,1,0-.009-2.446A1.73,1.73,0,0,0,372.961,155.678Z"/></g><g class="l"><path class="e" d="M344.424,155.678a1.73,1.73,0,1,0-.009-2.446A1.729,1.729,0,0,0,344.424,155.678Z"/></g><g class="l"><path class="e" d="M334.912,155.678a1.73,1.73,0,1,0-.009-2.446A1.728,1.728,0,0,0,334.912,155.678Z"/></g><g class="l"><path class="e" d="M325.4,155.678a1.73,1.73,0,1,0-.008-2.446A1.731,1.731,0,0,0,325.4,155.678Z"/></g><g class="d"><path class="e" d="M411.01,147.69a1.73,1.73,0,1,0-.008-2.446A1.73,1.73,0,0,0,411.01,147.69Z"/></g><g class="d"><path class="m" d="M393.2,148.517a2.037,2.037,0,0,1-1.446-.6h0a2.054,2.054,0,0,1,1.439-3.511,1.975,1.975,0,0,1,1.454.6,2.054,2.054,0,0,1-1.439,3.511Zm0-3.458a1.4,1.4,0,0,0-.991,2.4h0a1.39,1.39,0,0,0,.989.409h.005a1.405,1.405,0,0,0,0-2.81Z"/></g><g class="l"><path class="e" d="M383.691,148.435a1.962,1.962,0,0,1-1.388-.573h0a1.972,1.972,0,1,1,1.388.573Zm0-3.458h0a1.486,1.486,0,0,0-1.044,2.541h0a1.486,1.486,0,1,0,1.047-2.541Z"/></g><g class="l"><path class="e" d="M372.961,147.69a1.73,1.73,0,1,0-.009-2.446A1.73,1.73,0,0,0,372.961,147.69Z"/></g><g class="l"><path class="e" d="M345.643,148.435a1.965,1.965,0,0,1-1.39-.573h0a1.972,1.972,0,1,1,1.39.573Zm0-3.458h-.005a1.472,1.472,0,0,0-1.05.439,1.487,1.487,0,0,0,.008,2.1h0a1.486,1.486,0,1,0,1.047-2.541Z"/></g><g class="l"><path class="e" d="M334.912,147.69a1.73,1.73,0,1,0-.009-2.446A1.729,1.729,0,0,0,334.912,147.69Z"/></g><g class="l"><path class="e" d="M325.4,147.69a1.73,1.73,0,1,0-.008-2.446A1.732,1.732,0,0,0,325.4,147.69Z"/></g><g class="d"><path class="e" d="M411.01,139.7a1.73,1.73,0,1,0-.008-2.446A1.729,1.729,0,0,0,411.01,139.7Z"/></g><g class="d"><path class="e" d="M401.5,139.7a1.73,1.73,0,1,0-.009-2.446A1.728,1.728,0,0,0,401.5,139.7Z"/></g><g class="l"><path class="e" d="M391.986,139.7a1.73,1.73,0,1,0-.009-2.446A1.73,1.73,0,0,0,391.986,139.7Z"/></g><g class="l"><path class="e" d="M383.691,140.447a1.965,1.965,0,0,1-1.388-.572h0a1.974,1.974,0,1,1,1.388.572Zm-1.046-.917a1.486,1.486,0,1,0-.008-2.1,1.489,1.489,0,0,0,.008,2.1Z"/></g><g class="l"><path class="e" d="M374.18,140.527a2.045,2.045,0,0,1-1.447-.594h0a2.059,2.059,0,1,1,1.448.594Zm-.99-1.054a1.405,1.405,0,1,0-.007-1.988,1.407,1.407,0,0,0,.007,1.988Z"/></g><g class="l"><path class="e" d="M355.155,140.447a1.964,1.964,0,0,1-1.389-.572h0a1.974,1.974,0,1,1,1.389.572Zm-1.048-.917a1.486,1.486,0,1,0-.439-1.05,1.488,1.488,0,0,0,.439,1.05Z"/></g><g class="l"><path class="e" d="M345.643,140.447a1.968,1.968,0,0,1-1.39-.572h0a1.974,1.974,0,1,1,1.39.572Zm-1.047-.917a1.486,1.486,0,1,0-.008-2.1,1.488,1.488,0,0,0,.008,2.1Z"/></g><g class="l"><path class="e" d="M334.912,139.7a1.73,1.73,0,1,0-.009-2.446A1.728,1.728,0,0,0,334.912,139.7Z"/></g><g class="l"><path class="e" d="M326.617,140.527a2.043,2.043,0,0,1-1.445-.594h0a2.058,2.058,0,1,1,1.446.594Zm-.99-1.054a1.405,1.405,0,1,0-.007-1.988,1.407,1.407,0,0,0,.007,1.988Z"/></g><g class="d"><path class="e" d="M411.01,131.715A1.729,1.729,0,1,0,411,129.27,1.729,1.729,0,0,0,411.01,131.715Z"/></g><g class="d"><path class="m" d="M402.717,132.46a1.972,1.972,0,0,1-.008-3.944h.008a1.972,1.972,0,1,1,0,3.944Zm0-3.458a1.487,1.487,0,1,0,0,2.973h0a1.487,1.487,0,0,0,0-2.973Z"/></g><g class="l"><path class="e" d="M391.986,131.715a1.729,1.729,0,1,0-.009-2.445A1.729,1.729,0,0,0,391.986,131.715Z"/></g><g class="l"><path class="e" d="M383.691,132.46a1.972,1.972,0,0,1-.006-3.944h.007a1.972,1.972,0,1,1,0,3.944Zm0-3.458a1.487,1.487,0,1,0,1.048.432A1.484,1.484,0,0,0,383.691,129Z"/></g><g class="l"><path class="e" d="M372.961,131.715a1.729,1.729,0,1,0-.009-2.445A1.729,1.729,0,0,0,372.961,131.715Z"/></g><g class="l"><path class="e" d="M363.449,131.715a1.729,1.729,0,1,0-.009-2.445A1.729,1.729,0,0,0,363.449,131.715Z"/></g><g class="l"><path class="e" d="M355.154,132.461a1.973,1.973,0,0,1-.007-3.945h.008a1.973,1.973,0,0,1,.007,3.945Zm0-3.459h-.005a1.487,1.487,0,0,0,.005,2.973h.006a1.487,1.487,0,0,0-.006-2.973Z"/></g><g class="l"><path class="e" d="M344.424,131.715a1.729,1.729,0,1,0-.009-2.445A1.729,1.729,0,0,0,344.424,131.715Z"/></g><g class="d"><path class="e" d="M411.01,123.728a1.73,1.73,0,1,0-.008-2.446A1.731,1.731,0,0,0,411.01,123.728Z"/></g><g class="d"><path class="e" d="M401.5,123.728a1.73,1.73,0,1,0-.009-2.446A1.73,1.73,0,0,0,401.5,123.728Z"/></g><g class="d"><path class="e" d="M391.986,123.728a1.73,1.73,0,1,0-.009-2.446A1.731,1.731,0,0,0,391.986,123.728Z"/></g><g class="d"><path class="h" d="M355.154,257.189a2.04,2.04,0,0,1-1.446-.6h0a2.053,2.053,0,0,1,1.439-3.51,1.935,1.935,0,0,1,1.455.6,2.054,2.054,0,0,1-1.44,3.511Zm0-3.46h-.005a1.406,1.406,0,0,0-.986,2.4h0a1.4,1.4,0,0,0,.99.408h.005a1.406,1.406,0,0,0-.005-2.812Z"/></g><g class="d"><path class="e" d="M363.449,248.375a1.73,1.73,0,1,0-.009-2.445A1.729,1.729,0,0,0,363.449,248.375Z"/></g><g class="d"><path class="e" d="M353.936,248.375a1.73,1.73,0,1,0-.008-2.445A1.731,1.731,0,0,0,353.936,248.375Z"/></g><g class="d"><path class="e" d="M364.667,241.132a1.97,1.97,0,0,1-1.39-.572h0a1.975,1.975,0,1,1,1.39.572Zm-1.047-.917a1.487,1.487,0,1,0-.008-2.1,1.489,1.489,0,0,0,.008,2.1Z"/></g><g class="d"><path class="e" d="M353.936,240.388a1.73,1.73,0,1,0-.008-2.447A1.732,1.732,0,0,0,353.936,240.388Z"/></g><g class="d"><path class="e" d="M363.449,232.4a1.73,1.73,0,1,0-.009-2.446A1.729,1.729,0,0,0,363.449,232.4Z"/></g><g class="d"><path class="e" d="M353.936,232.4a1.73,1.73,0,1,0-.008-2.446A1.731,1.731,0,0,0,353.936,232.4Z"/></g><g class="d"><path class="m" d="M383.691,124.473a1.956,1.956,0,0,1-1.388-.573h0a1.972,1.972,0,1,1,1.4.573Zm0-3.459h0a1.487,1.487,0,0,0-1.044,2.542h0a1.487,1.487,0,1,0,1.047-2.542Z"/></g><g class="d"><path class="e" d="M372.961,123.728a1.73,1.73,0,1,0-.009-2.446A1.731,1.731,0,0,0,372.961,123.728Z"/></g><g class="d"><path class="e" d="M411.01,115.74a1.73,1.73,0,1,0-.008-2.445A1.729,1.729,0,0,0,411.01,115.74Z"/></g><g class="d"><path class="e" d="M402.717,116.484a1.967,1.967,0,0,1-1.39-.571h0a1.975,1.975,0,1,1,1.39.571Zm-1.048-.916a1.487,1.487,0,1,0-.007-2.1,1.488,1.488,0,0,0,.007,2.1Z"/></g><g class="d"><path class="e" d="M391.986,115.74a1.73,1.73,0,1,0-.009-2.445A1.73,1.73,0,0,0,391.986,115.74Z"/></g><g class="d"><path class="e" d="M382.474,115.74a1.729,1.729,0,1,0-.009-2.445A1.73,1.73,0,0,0,382.474,115.74Z"/></g><g class="d"><path class="e" d="M412.229,108a2.041,2.041,0,1,1,.007,0Zm0-3.459a1.4,1.4,0,0,0-.99,2.4,1.323,1.323,0,0,0,.995.408,1.406,1.406,0,0,0-.005-2.811Z"/></g><g class="d"><path class="e" d="M402.717,107.914a1.971,1.971,0,1,1,1.4-.582A1.964,1.964,0,0,1,402.717,107.914Zm0-3.458a1.487,1.487,0,0,0,0,2.974h0a1.487,1.487,0,0,0,0-2.974Z"/></g><g class="d"><path class="e" d="M393.2,108a2.053,2.053,0,0,1-1.457-3.5,2.054,2.054,0,1,1,1.465,3.5Zm0-3.459a1.405,1.405,0,0,0,0,2.811h.005a1.392,1.392,0,0,0,.992-.415,1.4,1.4,0,0,0-1-2.4Z"/></g><g class="d"><path class="e" d="M383.691,107.914a1.972,1.972,0,1,1,1.4-.582A1.959,1.959,0,0,1,383.691,107.914Zm0-3.458a1.486,1.486,0,1,0,1.047.431A1.486,1.486,0,0,0,383.692,104.456Z"/></g><g class="d"><path class="e" d="M372.961,107.17a1.73,1.73,0,1,0-.009-2.446A1.73,1.73,0,0,0,372.961,107.17Z"/></g><g class="d"><path class="e" d="M412.229,100.008a2.041,2.041,0,0,1-1.447-.6h0a2.054,2.054,0,0,1,1.44-3.511,1.925,1.925,0,0,1,1.454.6,2.054,2.054,0,0,1-1.44,3.51Zm0-3.458a1.405,1.405,0,0,0-.991,2.4h0a1.481,1.481,0,0,0,.995.408,1.405,1.405,0,0,0-.005-2.81Z"/></g><g class="d"><path class="e" d="M412.229,66.449a2.046,2.046,0,0,1-1.447-.6h0a2.053,2.053,0,0,1,1.44-3.51h.007a2.052,2.052,0,1,1,0,4.1Zm-.991-1.054a1.406,1.406,0,1,0-.007-1.988,1.409,1.409,0,0,0,.007,1.988Z"/></g><g class="d"><path class="e" d="M402.717,99.926a1.964,1.964,0,0,1-1.39-.572h0a1.974,1.974,0,1,1,1.39.572Zm0-3.457a1.486,1.486,0,0,0-1.048,2.541h0a1.477,1.477,0,0,0,1.048.431h0a1.486,1.486,0,0,0,0-2.972Z"/></g><g class="l"><path class="e" d="M355.155,148.254a1.964,1.964,0,0,1-1.389-.572h0a1.972,1.972,0,0,1-.01-2.789,1.951,1.951,0,0,1,1.391-.583h.008a1.972,1.972,0,1,1,0,3.944Zm-1.048-.917a1.486,1.486,0,1,0,1.048-2.542h-.006a1.487,1.487,0,0,0-1.042,2.542Z"/></g><g class="d"><path class="e" d="M353.936,197.625a1.73,1.73,0,1,0-.008-2.445A1.731,1.731,0,0,0,353.936,197.625Z"/></g><g class="d"><path class="e" d="M355.154,190.383a1.972,1.972,0,0,1-.007-3.944h.008a1.972,1.972,0,0,1,.007,3.944Zm0-3.459h-.005a1.487,1.487,0,0,0,.005,2.973h.006a1.487,1.487,0,0,0-.006-2.973Z"/></g><g class="d"><path class="e" d="M353.936,181.65a1.73,1.73,0,1,0-.008-2.446A1.732,1.732,0,0,0,353.936,181.65Z"/></g><g class="d"><path class="h" d="M355.155,174.406a1.959,1.959,0,0,1-1.389-.571h0a1.976,1.976,0,1,1,1.389.571Zm-1.048-.916a1.486,1.486,0,1,0-.007-2.1,1.487,1.487,0,0,0,.007,2.1Z"/></g><g class="d"><path class="h" d="M355.155,165.836a1.963,1.963,0,0,1-1.389-.571h0a1.972,1.972,0,0,1,1.381-3.372h.008a1.971,1.971,0,1,1,0,3.943Zm-1.048-.916a1.487,1.487,0,1,0,2.1-2.11,1.42,1.42,0,0,0-1.053-.432,1.487,1.487,0,0,0-1.042,2.542Z"/></g><g class="d"><path class="e" d="M355.155,157.85a1.973,1.973,0,0,1-.008-3.946h.008a1.973,1.973,0,0,1,.007,3.946Zm0-3.459h-.005a1.473,1.473,0,0,0-1.049.439,1.485,1.485,0,0,0,1.055,2.533h.005a1.486,1.486,0,0,0-.006-2.972Z"/></g><g class="d"><path class="e" d="M391.986,99.182a1.729,1.729,0,1,0-.009-2.446A1.729,1.729,0,0,0,391.986,99.182Z"/></g><g class="d"><path class="e" d="M383.691,99.926a1.959,1.959,0,0,1-1.388-.572h0a1.974,1.974,0,1,1,1.388.572Zm0-3.457h0a1.474,1.474,0,0,0-1.052.438,1.489,1.489,0,0,0,.008,2.1h0a1.486,1.486,0,1,0,1.047-2.541Z"/></g><g class="d"><path class="e" d="M382.474,64.018a1.729,1.729,0,1,0-.009-2.447A1.731,1.731,0,0,0,382.474,64.018Z"/></g><g class="d"><path class="e" d="M391.986,73.612a1.73,1.73,0,1,0-.009-2.446A1.73,1.73,0,0,0,391.986,73.612Z"/></g><g class="d"><path class="e" d="M383.691,74.357a1.956,1.956,0,0,1-1.388-.573h0a1.971,1.971,0,1,1,1.4.573Zm0-3.459h0a1.487,1.487,0,0,0-1.044,2.542h0a1.472,1.472,0,0,0,1.046.431h.006a1.487,1.487,0,0,0-.005-2.973Z"/></g><g class="d"><path class="e" d="M372.961,99.182a1.729,1.729,0,1,0-.009-2.446A1.729,1.729,0,0,0,372.961,99.182Z"/></g><g class="d"><path class="e" d="M372.961,170.6a1.73,1.73,0,1,0-.009-2.447A1.731,1.731,0,0,0,372.961,170.6Z"/></g><g class="d"><path class="e" d="M353.936,215.221a1.73,1.73,0,1,0-.008-2.447A1.73,1.73,0,0,0,353.936,215.221Z"/></g><g class="d"><path class="e" d="M353.936,207.232a1.729,1.729,0,1,0-.008-2.445A1.731,1.731,0,0,0,353.936,207.232Z"/></g><g class="d"><path class="e" d="M353.936,222.158a1.73,1.73,0,1,0-.008-2.445A1.731,1.731,0,0,0,353.936,222.158Z"/></g><g class="d"><path class="g" d="M363.449,99.182a1.729,1.729,0,1,0-.009-2.446A1.729,1.729,0,0,0,363.449,99.182Z"/></g><g class="d"><path class="g" d="M355.154,99.928a1.957,1.957,0,0,1-1.388-.574h0a1.973,1.973,0,0,1,1.381-3.372h.008a1.973,1.973,0,0,1,.007,3.946Zm0-3.459h-.006a1.486,1.486,0,0,0-1.042,2.541h0a1.482,1.482,0,0,0,1.047.431h.006a1.486,1.486,0,0,0-.005-2.972Z"/></g><g class="d"><path class="e" d="M344.424,99.182a1.729,1.729,0,1,0-.009-2.446A1.729,1.729,0,0,0,344.424,99.182Z"/></g><g class="d"><path class="e" d="M344.424,107.17a1.73,1.73,0,1,0-.009-2.446A1.729,1.729,0,0,0,344.424,107.17Z"/></g><g class="d"><path class="e" d="M334.912,99.182a1.729,1.729,0,1,0-.009-2.446A1.727,1.727,0,0,0,334.912,99.182Z"/></g><g class="d"><path class="e" d="M334.912,115.74a1.73,1.73,0,1,0-.009-2.445A1.728,1.728,0,0,0,334.912,115.74Z"/></g><g class="d"><path class="e" d="M325.4,99.182a1.729,1.729,0,1,0-.008-2.446A1.73,1.73,0,0,0,325.4,99.182Z"/></g><g class="d"><path class="e" d="M325.4,89.587a1.729,1.729,0,1,0-.008-2.446A1.731,1.731,0,0,0,325.4,89.587Z"/></g><g class="d"><path class="e" d="M325.4,107.17a1.73,1.73,0,1,0-.008-2.446A1.731,1.731,0,0,0,325.4,107.17Z"/></g><g class="d"><path class="e" d="M420.59,89.587a1.729,1.729,0,1,0-.008-2.446A1.73,1.73,0,0,0,420.59,89.587Z"/></g><g class="d"><path class="e" d="M430.1,81.6a1.729,1.729,0,1,0-.009-2.446A1.73,1.73,0,0,0,430.1,81.6Z"/></g><g class="d"><path class="e" d="M420.59,81.6a1.729,1.729,0,1,0-.008-2.446A1.73,1.73,0,0,0,420.59,81.6Z"/></g><g class="i"><path class="e" d="M506.2,73.612a1.73,1.73,0,1,0-.009-2.446A1.73,1.73,0,0,0,506.2,73.612Z"/></g><g class="d"><path class="e" d="M522.815,73.612a1.73,1.73,0,1,0-.008-2.446A1.73,1.73,0,0,0,522.815,73.612Z"/></g><g class="d"><path class="e" d="M515.816,74.439a2.038,2.038,0,0,1-1.446-.6h0a2.054,2.054,0,0,1,1.439-3.511h.008a2.054,2.054,0,0,1,.007,4.108Zm0-3.46a1.406,1.406,0,0,0-.99,2.4h0a1.393,1.393,0,0,0,.99.409h.005a1.406,1.406,0,0,0-.005-2.812Z"/></g><g class="d"><path class="e" d="M497.907,74.357a1.958,1.958,0,0,1-1.389-.573h0a1.971,1.971,0,1,1,1.4.573Zm0-3.459H497.9a1.487,1.487,0,0,0-1.042,2.542h0a1.474,1.474,0,0,0,1.047.431h.006a1.487,1.487,0,0,0-.005-2.973Z"/></g><g class="d"><path class="e" d="M488.395,74.439a2.042,2.042,0,0,1-1.447-.6h0a2.053,2.053,0,1,1,1.454.6Zm0-3.46a1.406,1.406,0,0,0-.992,2.4h0a1.394,1.394,0,0,0,.99.409h.005a1.406,1.406,0,0,0,0-2.812Z"/></g><g class="d"><path class="e" d="M478.883,74.357a1.957,1.957,0,0,1-1.39-.573h0a1.971,1.971,0,1,1,1.4.573Zm0-3.459h-.005a1.487,1.487,0,0,0-1.042,2.542h0a1.473,1.473,0,0,0,1.047.431h.006a1.487,1.487,0,0,0-.006-2.973Z"/></g><g class="d"><path class="e" d="M468.152,73.612a1.73,1.73,0,1,0-.009-2.446A1.73,1.73,0,0,0,468.152,73.612Z"/></g><g class="d"><path class="e" d="M459.858,74.439a2.038,2.038,0,0,1-1.446-.6h0a2.054,2.054,0,0,1,1.44-3.511,1.981,1.981,0,0,1,1.453.6,2.054,2.054,0,0,1-1.44,3.511Zm0-3.46a1.406,1.406,0,0,0-.99,2.4h0a1.393,1.393,0,0,0,.99.409h.005a1.406,1.406,0,0,0-.005-2.812Z"/></g><g class="d"><path class="e" d="M450.346,74.357a1.957,1.957,0,0,1-1.39-.573h0a1.972,1.972,0,1,1,1.4.573Zm0-3.459h0A1.487,1.487,0,0,0,449.3,73.44h0a1.473,1.473,0,0,0,1.047.431h.006a1.471,1.471,0,0,0,1.048-.439,1.486,1.486,0,0,0-1.054-2.534Z"/></g><g class="d"><path class="e" d="M440.834,74.357a1.959,1.959,0,0,1-1.39-.573h0a1.973,1.973,0,0,1,1.382-3.372,2.006,2.006,0,0,1,1.4.573,1.973,1.973,0,0,1-1.383,3.372Zm0-3.459h-.006a1.487,1.487,0,0,0-1.042,2.542h0a1.475,1.475,0,0,0,1.048.431h0a1.487,1.487,0,0,0,0-2.973Z"/></g><g class="d"><path class="h" d="M430.1,73.612a1.73,1.73,0,1,0-.009-2.446A1.73,1.73,0,0,0,430.1,73.612Z"/></g><g class="i"><path class="e" d="M420.59,73.612a1.73,1.73,0,1,0-.008-2.446A1.73,1.73,0,0,0,420.59,73.612Z"/></g><g class="d"><path class="h" d="M506.2,65.625a1.73,1.73,0,1,0-.009-2.446A1.73,1.73,0,0,0,506.2,65.625Z"/></g><g class="d"><path class="e" d="M496.69,65.625a1.729,1.729,0,1,0-.009-2.446A1.728,1.728,0,0,0,496.69,65.625Z"/></g><g class="d"><path class="e" d="M487.177,65.625a1.729,1.729,0,1,0-.009-2.446A1.729,1.729,0,0,0,487.177,65.625Z"/></g><g class="d"><path class="e" d="M478.883,66.369a1.97,1.97,0,0,1-1.39-.572h0a1.972,1.972,0,1,1,2.779-2.8,1.971,1.971,0,0,1-1.389,3.371Zm-1.047-.917a1.487,1.487,0,1,0,1.047-2.542h-.005a1.487,1.487,0,0,0-1.042,2.542Z"/></g><g class="d"><path class="k" d="M458.64,65.625a1.729,1.729,0,1,0-.009-2.446A1.729,1.729,0,0,0,458.64,65.625Z"/></g><g class="d"><path class="h" d="M450.346,66.369a1.968,1.968,0,0,1-1.39-.572h0a1.975,1.975,0,1,1,1.39.572Zm-1.047-.917a1.486,1.486,0,0,0,2.094-2.11,1.591,1.591,0,0,0-1.052-.432,1.487,1.487,0,0,0-1.042,2.542Z"/></g><g class="d"><path class="e" d="M440.834,66.369a1.968,1.968,0,0,1-1.39-.572h0a1.973,1.973,0,0,1,1.382-3.372h.008a1.972,1.972,0,1,1,0,3.944Zm-1.048-.917a1.487,1.487,0,1,0,1.048-2.542h-.006a1.487,1.487,0,0,0-1.042,2.542Z"/></g><g class="d"><path class="e" d="M430.1,65.625a1.73,1.73,0,1,0-.009-2.446A1.73,1.73,0,0,0,430.1,65.625Z"/></g><g class="d"><path class="h" d="M506.2,57.637a1.73,1.73,0,1,0-.009-2.446A1.73,1.73,0,0,0,506.2,57.637Z"/></g><g class="d"><path class="e" d="M497.907,58.383a1.973,1.973,0,0,1-.007-3.945,1.91,1.91,0,0,1,1.4.572,1.973,1.973,0,0,1-1.382,3.373Zm0-3.459a1.486,1.486,0,1,0,0,2.972h.006a1.486,1.486,0,0,0-.006-2.972Z"/></g><g class="d"><path class="k" d="M487.177,57.637a1.729,1.729,0,1,0-.009-2.446A1.729,1.729,0,0,0,487.177,57.637Z"/></g><g class="d"><path class="e" d="M478.883,58.383a1.973,1.973,0,0,1-.007-3.945,1.911,1.911,0,0,1,1.4.572,1.973,1.973,0,0,1-1.381,3.373Zm0-3.459a1.486,1.486,0,0,0-1.047,2.541,1.427,1.427,0,0,0,1.053.431,1.486,1.486,0,0,0-.006-2.972Z"/></g><g class="d"><path class="k" d="M458.64,57.637a1.729,1.729,0,1,0-.009-2.446A1.729,1.729,0,0,0,458.64,57.637Z"/></g><g class="d"><path class="h" d="M450.346,58.381a1.972,1.972,0,0,1-.007-3.943h.007a1.972,1.972,0,1,1,0,3.943Zm0-3.457a1.485,1.485,0,1,0,1.047.431A1.481,1.481,0,0,0,450.346,54.924Z"/></g><g class="d"><path class="e" d="M439.615,57.637a1.729,1.729,0,1,0-.009-2.446A1.728,1.728,0,0,0,439.615,57.637Z"/></g><g class="d"><path class="e" d="M506.2,49.649a1.73,1.73,0,1,0-.009-2.445A1.73,1.73,0,0,0,506.2,49.649Z"/></g><g class="d"><path class="k" d="M496.69,49.649a1.729,1.729,0,1,0-.009-2.445A1.729,1.729,0,0,0,496.69,49.649Z"/></g><g class="d"><path class="e" d="M487.177,49.649a1.729,1.729,0,1,0-.009-2.445A1.73,1.73,0,0,0,487.177,49.649Z"/></g><g class="d"><path class="e" d="M458.64,49.649a1.729,1.729,0,1,0-.009-2.445A1.73,1.73,0,0,0,458.64,49.649Z"/></g><g class="d"><path class="e" d="M450.346,50.4a1.961,1.961,0,0,1-1.39-.573h0a1.974,1.974,0,1,1,1.4.573Zm0-3.46h0a1.487,1.487,0,0,0-1.043,2.543h0a1.477,1.477,0,0,0,1.047.431h.006a1.487,1.487,0,0,0-.006-2.974Z"/></g><g class="d"><path class="e" d="M440.834,50.4a1.963,1.963,0,0,1-1.39-.573h0a1.973,1.973,0,0,1,1.382-3.372,2.009,2.009,0,0,1,1.4.572,1.973,1.973,0,0,1-1.383,3.373Zm0-3.46h-.006a1.488,1.488,0,0,0-1.042,2.543h0a1.479,1.479,0,0,0,1.048.431h0a1.487,1.487,0,0,0,0-2.974Z"/></g><g class="d"><path class="e" d="M430.1,49.649a1.729,1.729,0,1,0-.009-2.445A1.73,1.73,0,0,0,430.1,49.649Z"/></g><g class="d"><path class="e" d="M420.59,49.649a1.729,1.729,0,1,0-.008-2.445A1.73,1.73,0,0,0,420.59,49.649Z"/></g><g class="d"><path class="e" d="M507.42,42.487a2.051,2.051,0,0,1-1.447-.594h0a2.058,2.058,0,1,1,1.447.594Zm-.99-1.054a1.405,1.405,0,1,0-.007-1.989,1.406,1.406,0,0,0,.007,1.989Z"/></g><g class="d"><path class="h" d="M515.816,50.476a2.038,2.038,0,0,1-1.446-.6h0a2.053,2.053,0,0,1,1.439-3.51h.008a2.054,2.054,0,0,1,.007,4.107Zm0-3.458a1.4,1.4,0,0,0-.99,2.4h0a1.392,1.392,0,0,0,.99.408h.005a1.405,1.405,0,0,0-.005-2.81Z"/></g><g class="d"><path class="e" d="M514.6,41.662a1.73,1.73,0,1,0-.009-2.445A1.729,1.729,0,0,0,514.6,41.662Z"/></g><g class="d"><path class="e" d="M459.858,42.487a2.047,2.047,0,0,1-1.446-.594h0a2.058,2.058,0,1,1,1.447.594Zm-.99-1.054a1.406,1.406,0,1,0-.007-1.989,1.407,1.407,0,0,0,.007,1.989Z"/></g><g class="d"><path class="e" d="M450.346,42.406a1.967,1.967,0,0,1-1.39-.571h0a1.976,1.976,0,1,1,1.39.571ZM449.3,41.49a1.486,1.486,0,1,0-.008-2.1,1.488,1.488,0,0,0,.008,2.1Z"/></g><g class="d"><path class="e" d="M430.1,41.662a1.73,1.73,0,1,0-.009-2.445A1.73,1.73,0,0,0,430.1,41.662Z"/></g><g class="d"><path class="e" d="M420.59,41.662a1.73,1.73,0,1,0-.008-2.445A1.73,1.73,0,0,0,420.59,41.662Z"/></g><g class="d"><path class="h" d="M497.907,33.836a1.966,1.966,0,0,1-1.389-.572h0a1.974,1.974,0,1,1,1.389.572Zm-1.047-.917a1.487,1.487,0,1,0-.007-2.1,1.49,1.49,0,0,0,.007,2.1Z"/></g><g class="d"><path class="e" d="M488.395,33.916a2.046,2.046,0,0,1-1.447-.6h0a2.057,2.057,0,1,1,1.447.6Zm-.991-1.055a1.405,1.405,0,1,0-.007-1.987,1.408,1.408,0,0,0,.007,1.987Z"/></g><g class="d"><path class="e" d="M450.346,33.836a1.968,1.968,0,0,1-1.39-.572h0a1.975,1.975,0,1,1,1.39.572Zm-1.047-.917a1.486,1.486,0,1,0-.008-2.1,1.488,1.488,0,0,0,.008,2.1Z"/></g><g class="d"><path class="e" d="M431.321,33.916a2.04,2.04,0,0,1-1.446-.6h0a2.056,2.056,0,1,1,1.447.6Zm-.99-1.055a1.405,1.405,0,1,0-.008-1.987,1.405,1.405,0,0,0,.008,1.987Z"/></g><g class="d"><path class="e" d="M431.321,17.843a2.044,2.044,0,1,1,.007,0Zm0-3.458a1.4,1.4,0,0,0-.99,2.4h0a1.405,1.405,0,1,0,.99-2.4Z"/></g><g class="d"><path class="e" d="M420.59,33.092a1.73,1.73,0,1,0-.008-2.446A1.729,1.729,0,0,0,420.59,33.092Z"/></g><g class="d"><path class="e" d="M487.177,25.1a1.729,1.729,0,1,0-.009-2.446A1.73,1.73,0,0,0,487.177,25.1Z"/></g><g class="d"><path class="e" d="M430.1,25.1a1.73,1.73,0,1,0-.009-2.446A1.73,1.73,0,0,0,430.1,25.1Z"/></g><g class="d"><path class="e" d="M430.1,228.171a1.729,1.729,0,1,0-.009-2.445A1.73,1.73,0,0,0,430.1,228.171Z"/></g><g class="d"><path class="e" d="M430.1,220.184a1.73,1.73,0,1,0-.009-2.446A1.73,1.73,0,0,0,430.1,220.184Z"/></g><g class="d"><path class="e" d="M430.1,212.2a1.73,1.73,0,1,0-.009-2.446A1.73,1.73,0,0,0,430.1,212.2Z"/></g><g class="d"><path class="e" d="M430.1,196.221a1.729,1.729,0,1,0-.009-2.446A1.729,1.729,0,0,0,430.1,196.221Z"/></g><g class="d"><path class="e" d="M430.1,188.233a1.729,1.729,0,1,0-.009-2.445A1.73,1.73,0,0,0,430.1,188.233Z"/></g><g class="d"><path class="e" d="M431.321,180.488a2.048,2.048,0,0,1-1.447-.6h0a2.055,2.055,0,1,1,1.446.6Zm0-3.457a1.4,1.4,0,0,0-.99,2.4h0a1.405,1.405,0,1,0,.99-2.4Z"/></g><g class="d"><path class="e" d="M430.1,171.676a1.73,1.73,0,1,0-.009-2.447A1.729,1.729,0,0,0,430.1,171.676Z"/></g><g class="d"><path class="e" d="M420.59,25.1a1.73,1.73,0,1,0-.008-2.446A1.73,1.73,0,0,0,420.59,25.1Z"/></g><g class="d"><path class="h" d="M507.42,164.491a2.045,2.045,0,1,1,.008,0Zm0-3.458a1.4,1.4,0,0,0-1.4,1.41,1.391,1.391,0,0,0,.415.992h0a1.405,1.405,0,1,0,.99-2.4Z"/></g><g class="d"><path class="h" d="M506.2,172.333a1.73,1.73,0,1,0-.009-2.446A1.73,1.73,0,0,0,506.2,172.333Z"/></g><g class="d"><path class="k" d="M487.177,163.665a1.729,1.729,0,1,0-.009-2.445A1.729,1.729,0,0,0,487.177,163.665Z"/></g><g class="f"><path class="e" d="M468.152,163.665a1.729,1.729,0,1,0-.009-2.445A1.729,1.729,0,0,0,468.152,163.665Z"/></g><g class="d"><path class="e" d="M430.1,163.665a1.729,1.729,0,1,0-.009-2.445A1.73,1.73,0,0,0,430.1,163.665Z"/></g><g class="d"><path class="k" d="M506.2,155.678a1.73,1.73,0,1,0-.009-2.446A1.73,1.73,0,0,0,506.2,155.678Z"/></g><g class="d"><path class="e" d="M487.177,155.678a1.729,1.729,0,1,0-.009-2.446A1.729,1.729,0,0,0,487.177,155.678Z"/></g><g class="f"><path class="e" d="M468.152,155.678a1.73,1.73,0,1,0-.009-2.446A1.729,1.729,0,0,0,468.152,155.678Z"/></g><g class="d"><path class="g" d="M458.64,155.678a1.729,1.729,0,1,0-.009-2.446A1.729,1.729,0,0,0,458.64,155.678Z"/></g><g class="d"><path class="e" d="M449.127,155.678a1.73,1.73,0,1,0-.009-2.446A1.729,1.729,0,0,0,449.127,155.678Z"/></g><g class="d"><path class="e" d="M430.1,155.678a1.73,1.73,0,1,0-.009-2.446A1.73,1.73,0,0,0,430.1,155.678Z"/></g><g class="d"><path class="k" d="M506.2,147.69a1.73,1.73,0,1,0-.009-2.446A1.73,1.73,0,0,0,506.2,147.69Z"/></g><g class="d"><path class="e" d="M515.816,148.516a2.051,2.051,0,0,1-1.447-.6h0a2.054,2.054,0,0,1,1.439-3.511h.008a2.054,2.054,0,0,1,0,4.107Zm0-3.457a1.4,1.4,0,0,0-.99,2.4h0a1.405,1.405,0,1,0,.99-2.4Z"/></g><g class="d"><path class="k" d="M488.395,148.516a2.049,2.049,0,0,1-1.447-.6h0a2.055,2.055,0,0,1,1.44-3.511h.008a2.054,2.054,0,1,1,0,4.107Zm0-3.457a1.4,1.4,0,0,0-.992,2.4h0a1.406,1.406,0,0,0,1.988-.007,1.4,1.4,0,0,0-1-2.394Z"/></g><g class="f"><path class="e" d="M478.883,148.435a1.957,1.957,0,0,1-1.39-.573h0a1.972,1.972,0,1,1,1.4.573Zm0-3.458h-.005a1.486,1.486,0,0,0-1.042,2.541h0a1.543,1.543,0,0,0,1.053.431,1.486,1.486,0,0,0-.006-2.972Z"/></g><g class="f"><path class="e" d="M468.152,147.69a1.73,1.73,0,1,0-.009-2.446A1.73,1.73,0,0,0,468.152,147.69Z"/></g><g class="d"><path class="g" d="M459.858,148.517a2.038,2.038,0,0,1-1.446-.6h0a2.054,2.054,0,0,1,1.44-3.511,1.951,1.951,0,0,1,1.453.6,2.054,2.054,0,0,1-1.44,3.511Zm0-3.458a1.4,1.4,0,0,0-.99,2.4h0a1.393,1.393,0,0,0,.99.409h.005a1.405,1.405,0,0,0-.005-2.81Z"/></g><g class="d"><path class="e" d="M449.127,147.69a1.73,1.73,0,1,0-.009-2.446A1.73,1.73,0,0,0,449.127,147.69Z"/></g><g class="d"><path class="e" d="M430.1,147.69a1.73,1.73,0,1,0-.009-2.446A1.73,1.73,0,0,0,430.1,147.69Z"/></g><g class="d"><path class="e" d="M506.2,139.7a1.73,1.73,0,1,0-.009-2.446A1.73,1.73,0,0,0,506.2,139.7Z"/></g><g class="d"><path class="k" d="M487.177,139.7a1.729,1.729,0,1,0-.009-2.446A1.729,1.729,0,0,0,487.177,139.7Z"/></g><g class="d"><path class="k" d="M487.177,195.995a1.729,1.729,0,1,0-.009-2.446A1.729,1.729,0,0,0,487.177,195.995Z"/></g><g class="d"><path class="e" d="M487.177,188.008a1.729,1.729,0,1,0-.009-2.447A1.729,1.729,0,0,0,487.177,188.008Z"/></g><g class="d"><path class="k" d="M488.395,180.846a2.051,2.051,0,0,1-1.447-.6h0a2.056,2.056,0,1,1,1.447.6Zm-.991-1.056a1.406,1.406,0,1,0-.007-1.987,1.409,1.409,0,0,0,.007,1.987Z"/></g><g class="d"><path class="e" d="M487.177,172.032a1.729,1.729,0,1,0-.009-2.445A1.729,1.729,0,0,0,487.177,172.032Z"/></g><g class="f"><path class="e" d="M478.883,140.447a1.97,1.97,0,0,1-1.39-.572h0a1.972,1.972,0,1,1,2.779-2.8,1.971,1.971,0,0,1-1.389,3.371Zm-1.047-.917a1.487,1.487,0,1,0-.439-1.05,1.487,1.487,0,0,0,.439,1.05Z"/></g><g class="f"><path class="e" d="M469.37,140.527a2.045,2.045,0,0,1-1.446-.594h0a2.058,2.058,0,1,1,1.446.594Zm-.99-1.054a1.405,1.405,0,1,0-.007-1.988,1.407,1.407,0,0,0,.007,1.988Z"/></g><g class="f"><path class="e" d="M458.64,139.7a1.729,1.729,0,1,0-.009-2.446A1.729,1.729,0,0,0,458.64,139.7Z"/></g><g class="d"><path class="g" d="M450.346,140.447a1.968,1.968,0,0,1-1.39-.572h0a1.975,1.975,0,1,1,1.39.572Zm-1.047-.917a1.486,1.486,0,1,0-.008-2.1,1.488,1.488,0,0,0,.008,2.1Z"/></g><g class="d"><path class="e" d="M458.64,179.877a1.729,1.729,0,1,0-.009-2.445A1.729,1.729,0,0,0,458.64,179.877Z"/></g><g class="d"><path class="e" d="M459.857,172.716a2.045,2.045,0,1,1,.008,0Zm0-3.459a1.4,1.4,0,0,0-.99,2.4,1.535,1.535,0,0,0,.995.408,1.405,1.405,0,0,0-.005-2.81Z"/></g><g class="d"><path class="e" d="M450.346,172.634a1.972,1.972,0,0,1-.007-3.944h.007a1.972,1.972,0,1,1,0,3.944Zm0-3.458a1.485,1.485,0,1,0,1.047.431A1.481,1.481,0,0,0,450.346,169.176Z"/></g><g class="d"><path class="g" d="M458.64,163.9a1.729,1.729,0,1,0-.009-2.446A1.731,1.731,0,0,0,458.64,163.9Z"/></g><g class="d"><path class="e" d="M450.346,164.646a1.96,1.96,0,0,1-1.39-.572h0a1.972,1.972,0,1,1,2.79-.009,1.955,1.955,0,0,1-1.392.581Zm0-3.458h0a1.486,1.486,0,0,0-1.043,2.541h0a1.486,1.486,0,1,0,1.047-2.541Z"/></g><g class="d"><path class="e" d="M440.834,140.447a1.968,1.968,0,0,1-1.39-.572h0a1.974,1.974,0,1,1,1.39.572Zm-1.048-.917a1.487,1.487,0,1,0-.439-1.05,1.488,1.488,0,0,0,.439,1.05Z"/></g><g class="d"><path class="e" d="M430.1,139.7a1.73,1.73,0,1,0-.009-2.446A1.73,1.73,0,0,0,430.1,139.7Z"/></g><g class="d"><path class="e" d="M506.2,131.715a1.73,1.73,0,1,0-.009-2.445A1.729,1.729,0,0,0,506.2,131.715Z"/></g><g class="d"><path class="e" d="M522.815,131.715a1.729,1.729,0,1,0-.008-2.445A1.729,1.729,0,0,0,522.815,131.715Z"/></g><g class="d"><path class="e" d="M497.907,132.461a1.973,1.973,0,0,1-.007-3.945h.008a1.973,1.973,0,0,1,.007,3.945Zm0-3.459a1.487,1.487,0,0,0,0,2.973h.006a1.487,1.487,0,0,0-.006-2.973Z"/></g><g class="d"><path class="e" d="M515.816,132.46a1.972,1.972,0,0,1-.007-3.944h.007a1.972,1.972,0,1,1,0,3.944Zm0-3.458a1.486,1.486,0,0,0-1.046,2.541,1.393,1.393,0,0,0,1.051.432,1.487,1.487,0,0,0-.005-2.973Z"/></g><g class="d"><path class="e" d="M487.177,131.715a1.729,1.729,0,1,0-.009-2.445A1.729,1.729,0,0,0,487.177,131.715Z"/></g><g class="f"><path class="e" d="M478.883,132.461a1.973,1.973,0,0,1-.007-3.945h.007a1.973,1.973,0,0,1,.008,3.945Zm0-3.459a1.487,1.487,0,0,0,0,2.973h.006a1.487,1.487,0,0,0-.006-2.973Z"/></g><g class="f"><path class="e" d="M468.152,131.715a1.729,1.729,0,1,0-.009-2.445A1.729,1.729,0,0,0,468.152,131.715Z"/></g><g class="f"><path class="e" d="M458.64,131.715a1.729,1.729,0,1,0-.009-2.445A1.729,1.729,0,0,0,458.64,131.715Z"/></g><g class="f"><path class="e" d="M450.346,132.46a1.972,1.972,0,0,1-.007-3.944h.007a1.972,1.972,0,1,1,0,3.944Zm0-3.458a1.486,1.486,0,1,0,1.047.432A1.481,1.481,0,0,0,450.346,129Z"/></g><g class="d"><path class="g" d="M439.615,131.715a1.729,1.729,0,1,0-.009-2.445A1.727,1.727,0,0,0,439.615,131.715Z"/></g><g class="d"><path class="e" d="M430.1,131.715a1.729,1.729,0,1,0-.009-2.445A1.729,1.729,0,0,0,430.1,131.715Z"/></g><g class="d"><path class="e" d="M420.59,131.715a1.729,1.729,0,1,0-.008-2.445A1.729,1.729,0,0,0,420.59,131.715Z"/></g><g class="d"><path class="e" d="M506.2,123.728a1.73,1.73,0,1,0-.009-2.446A1.731,1.731,0,0,0,506.2,123.728Z"/></g><g class="d"><path class="e" d="M496.69,123.728a1.729,1.729,0,1,0-.009-2.446A1.73,1.73,0,0,0,496.69,123.728Z"/></g><g class="d"><path class="e" d="M487.177,123.728a1.729,1.729,0,1,0-.009-2.446A1.731,1.731,0,0,0,487.177,123.728Z"/></g><g class="d"><path class="g" d="M478.883,124.473a1.957,1.957,0,0,1-1.39-.573h0a1.972,1.972,0,1,1,1.4.573Zm0-3.459h-.005a1.487,1.487,0,0,0-1.042,2.542h0a1.6,1.6,0,0,0,1.053.431,1.487,1.487,0,0,0-.006-2.973Z"/></g><g class="f"><path class="e" d="M468.152,123.728a1.73,1.73,0,1,0-.009-2.446A1.731,1.731,0,0,0,468.152,123.728Z"/></g><g class="f"><path class="e" d="M458.64,123.728a1.729,1.729,0,1,0-.009-2.446A1.731,1.731,0,0,0,458.64,123.728Z"/></g><g class="f"><path class="e" d="M450.346,124.473a1.957,1.957,0,0,1-1.39-.573h0a1.974,1.974,0,1,1,1.4.573Zm0-3.459h0a1.486,1.486,0,0,0-1.043,2.542h0a1.487,1.487,0,1,0,1.047-2.542Z"/></g><g class="d"><path class="g" d="M440.834,124.473a1.959,1.959,0,0,1-1.39-.573h0a1.973,1.973,0,0,1,1.382-3.372,1.926,1.926,0,0,1,1.4.573,1.973,1.973,0,0,1-1.383,3.372Zm0-3.459h-.006a1.487,1.487,0,0,0-1.042,2.542h0a1.544,1.544,0,0,0,1.053.431,1.487,1.487,0,0,0,0-2.973Z"/></g><g class="d"><path class="e" d="M430.1,123.728a1.73,1.73,0,1,0-.009-2.446A1.731,1.731,0,0,0,430.1,123.728Z"/></g><g class="d"><path class="e" d="M420.59,123.728a1.73,1.73,0,1,0-.008-2.446A1.731,1.731,0,0,0,420.59,123.728Z"/></g><g class="d"><path class="e" d="M506.2,115.74a1.73,1.73,0,1,0-.009-2.445A1.73,1.73,0,0,0,506.2,115.74Z"/></g><g class="d"><path class="e" d="M497.907,116.484a1.965,1.965,0,0,1-1.389-.571h0a1.975,1.975,0,1,1,1.389.571Zm-1.047-.916a1.487,1.487,0,1,0-.007-2.1,1.486,1.486,0,0,0,.007,2.1Z"/></g><g class="d"><path class="e" d="M515.816,116.484a1.965,1.965,0,0,1-1.389-.571h0a1.975,1.975,0,1,1,1.389.571Zm-1.046-.916a1.486,1.486,0,1,0-.008-2.1,1.486,1.486,0,0,0,.008,2.1Z"/></g><g class="d"><path class="e" d="M487.177,115.74a1.729,1.729,0,1,0-.009-2.445A1.729,1.729,0,0,0,487.177,115.74Z"/></g><g class="f"><path class="e" d="M478.883,116.484a1.969,1.969,0,0,1-1.39-.571h0a1.972,1.972,0,1,1,2.779-2.8,1.971,1.971,0,0,1-1.389,3.371Zm-1.047-.916a1.487,1.487,0,1,0-.008-2.1,1.487,1.487,0,0,0,.008,2.1Z"/></g><g class="f"><path class="e" d="M468.152,115.74a1.73,1.73,0,1,0-.009-2.445A1.729,1.729,0,0,0,468.152,115.74Z"/></g><g class="f"><path class="e" d="M459.858,116.565a2.047,2.047,0,0,1-1.446-.594h0a2.058,2.058,0,1,1,1.447.594Zm-.99-1.054a1.406,1.406,0,1,0-.007-1.988,1.407,1.407,0,0,0,.007,1.988Z"/></g><g class="f"><path class="e" d="M450.346,116.484a1.967,1.967,0,0,1-1.39-.571h0a1.976,1.976,0,1,1,1.39.571Zm-1.047-.916a1.486,1.486,0,1,0-.008-2.1,1.486,1.486,0,0,0,.008,2.1Z"/></g><g class="d"><path class="g" d="M440.834,116.484a1.967,1.967,0,0,1-1.39-.571h0a1.975,1.975,0,1,1,1.39.571Zm-1.048-.916a1.487,1.487,0,1,0-.439-1.049,1.487,1.487,0,0,0,.439,1.049Z"/></g><g class="d"><path class="e" d="M430.1,115.74a1.73,1.73,0,1,0-.009-2.445A1.73,1.73,0,0,0,430.1,115.74Z"/></g><g class="d"><path class="e" d="M420.59,115.74a1.73,1.73,0,1,0-.008-2.445A1.73,1.73,0,0,0,420.59,115.74Z"/></g><g class="d"><path class="e" d="M507.42,108a2.043,2.043,0,1,1,.008,0Zm0-3.459a1.4,1.4,0,1,0,.99.407A1.405,1.405,0,0,0,507.42,104.537Z"/></g><g class="d"><path class="e" d="M497.907,107.915a1.963,1.963,0,1,1,.008,0Zm0-3.459a1.487,1.487,0,0,0,0,2.974h.006a1.487,1.487,0,0,0-.005-2.974Z"/></g><g class="d"><path class="k" d="M488.395,108a2.046,2.046,0,1,1,.007,0Zm0-3.459a1.405,1.405,0,1,0,.989.407A1.405,1.405,0,0,0,488.4,104.537Z"/></g><g class="d"><path class="e" d="M478.883,107.915a1.961,1.961,0,1,1,.008,0Zm0-3.459A1.486,1.486,0,0,0,477.836,107a1.507,1.507,0,0,0,1.053.433,1.487,1.487,0,0,0-.006-2.974Z"/></g><g class="d"><path class="e" d="M468.152,107.17a1.73,1.73,0,1,0-.009-2.446A1.729,1.729,0,0,0,468.152,107.17Z"/></g><g class="d"><path class="e" d="M459.857,108a2.045,2.045,0,1,1,.008,0Zm0-3.459a1.405,1.405,0,0,0-.99,2.4,1.341,1.341,0,0,0,.995.408,1.4,1.4,0,0,0,.992-.415,1.4,1.4,0,0,0-1-2.4Z"/></g><g class="d"><path class="e" d="M450.346,107.914a1.971,1.971,0,1,1,1.4-.582A1.964,1.964,0,0,1,450.346,107.914Zm0-3.458a1.485,1.485,0,1,0,1.047.431A1.482,1.482,0,0,0,450.346,104.456Z"/></g><g class="d"><path class="e" d="M439.615,107.17a1.73,1.73,0,1,0-.009-2.446A1.728,1.728,0,0,0,439.615,107.17Z"/></g><g class="d"><path class="e" d="M431.32,108a2.045,2.045,0,1,1,.008,0Zm0-3.459a1.4,1.4,0,1,0,.99.407A1.4,1.4,0,0,0,431.321,104.537Z"/></g><g class="d"><path class="e" d="M420.59,107.17a1.73,1.73,0,1,0-.008-2.446A1.73,1.73,0,0,0,420.59,107.17Z"/></g><g class="d"><path class="e" d="M507.42,100.008a2.038,2.038,0,0,1-1.447-.6h0a2.054,2.054,0,0,1,1.439-3.511,1.951,1.951,0,0,1,1.455.6,2.054,2.054,0,0,1-1.439,3.51Zm0-3.459h0a1.406,1.406,0,0,0-.986,2.4h0a1.405,1.405,0,1,0,.99-2.4Z"/></g><g class="d"><path class="e" d="M497.907,99.928a1.957,1.957,0,0,1-1.389-.574h0a1.969,1.969,0,1,1,1.4.574Zm0-3.459H497.9a1.486,1.486,0,0,0-1.042,2.541h0a1.479,1.479,0,0,0,1.047.431h.006a1.486,1.486,0,0,0-.005-2.972Z"/></g><g class="d"><path class="e" d="M487.177,99.182a1.729,1.729,0,1,0-.009-2.446A1.729,1.729,0,0,0,487.177,99.182Z"/></g><g class="d"><path class="e" d="M478.883,99.928a1.958,1.958,0,0,1-1.39-.574h0a1.969,1.969,0,1,1,1.4.574Zm0-3.459h-.005a1.486,1.486,0,0,0-1.042,2.541h0a1.477,1.477,0,0,0,1.047.431h.006a1.486,1.486,0,0,0-.006-2.972Z"/></g><g class="d"><path class="e" d="M468.152,99.182a1.729,1.729,0,1,0-.009-2.446A1.729,1.729,0,0,0,468.152,99.182Z"/></g><g class="d"><path class="e" d="M458.64,99.182a1.729,1.729,0,1,0-.009-2.446A1.729,1.729,0,0,0,458.64,99.182Z"/></g><g class="d"><path class="e" d="M533.545,99.926a1.961,1.961,0,0,1-1.389-.572h0a1.973,1.973,0,0,1,1.382-3.372h.008a1.972,1.972,0,1,1,0,3.944Zm0-3.457h0A1.486,1.486,0,0,0,532.5,99.01h0a1.487,1.487,0,1,0,1.048-2.541Z"/></g><g class="d"><path class="e" d="M522.815,99.182a1.729,1.729,0,1,0-.008-2.446A1.729,1.729,0,0,0,522.815,99.182Z"/></g><g class="d"><path class="e" d="M514.6,99.182a1.729,1.729,0,1,0-.009-2.446A1.729,1.729,0,0,0,514.6,99.182Z"/></g><g class="d"><path class="e" d="M450.346,99.926a1.964,1.964,0,0,1-1.39-.572h0a1.975,1.975,0,1,1,1.39.572Zm0-3.457h0a1.472,1.472,0,0,0-1.051.438,1.488,1.488,0,0,0,.008,2.1h0a1.486,1.486,0,1,0,1.047-2.541Z"/></g><g class="d"><path class="e" d="M439.615,99.182a1.729,1.729,0,1,0-.009-2.446A1.727,1.727,0,0,0,439.615,99.182Z"/></g><g class="d"><path class="e" d="M430.1,99.182a1.729,1.729,0,1,0-.009-2.446A1.729,1.729,0,0,0,430.1,99.182Z"/></g><g class="d"><path class="e" d="M420.59,99.182a1.729,1.729,0,1,0-.008-2.446A1.729,1.729,0,0,0,420.59,99.182Z"/></g><g class="d"><path class="e" d="M306.283,57.637a1.729,1.729,0,1,0-.009-2.446A1.73,1.73,0,0,0,306.283,57.637Z"/></g><g class="d"><path class="k" d="M307.5,50.476a2.039,2.039,0,0,1-1.447-.6h0a2.053,2.053,0,0,1,1.439-3.51h.008a2.054,2.054,0,0,1,.007,4.107Zm0-3.458a1.4,1.4,0,0,0-.99,2.4h0a1.39,1.39,0,0,0,.99.408h0a1.4,1.4,0,0,0,0-2.81Z"/></g><g class="d"><path class="k" d="M296.771,49.649a1.729,1.729,0,1,0-.009-2.445A1.73,1.73,0,0,0,296.771,49.649Z"/></g><g class="d"><path class="e" d="M288.477,50.476a2.041,2.041,0,0,1-1.447-.6h0a2.054,2.054,0,0,1,1.439-3.51h.008a2.054,2.054,0,0,1,.007,4.107Zm0-3.459h-.005a1.406,1.406,0,0,0-.986,2.4h0a1.4,1.4,0,0,0,.991.408h0a1.406,1.406,0,0,0,0-2.811Z"/></g><g class="d"><path class="k" d="M307.5,33.916a2.044,2.044,0,0,1-1.447-.6h0a2.056,2.056,0,1,1,1.447.6Zm-.99-1.055a1.405,1.405,0,1,0-.008-1.987,1.405,1.405,0,0,0,.008,1.987Z"/></g><g class="d"><path class="e" d="M297.988,33.836a1.963,1.963,0,0,1-1.388-.572h0a1.974,1.974,0,1,1,1.388.572Zm-1.047-.917a1.487,1.487,0,0,0,2.535-1.06,1.487,1.487,0,1,0-2.535,1.06Z"/></g><g class="n"><path class="m" d="M306.283,163.665a1.729,1.729,0,1,0-.009-2.445A1.73,1.73,0,0,0,306.283,163.665Z"/></g><g class="n"><path class="e" d="M297.989,164.409a1.963,1.963,0,0,1-1.389-.571h0a1.976,1.976,0,1,1,1.389.571Zm0-3.457a1.486,1.486,0,0,0-1.048,2.54h0a1.486,1.486,0,1,0,1.048-2.54Z"/></g><g class="n"><path class="e" d="M250.18,163.665a1.729,1.729,0,1,0-.009-2.445A1.73,1.73,0,0,0,250.18,163.665Z"/></g><g class="n"><path class="e" d="M250.18,172.567a1.729,1.729,0,1,0-.009-2.446A1.73,1.73,0,0,0,250.18,172.567Z"/></g><g class="n"><path class="e" d="M241.887,164.409a1.969,1.969,0,0,1-1.391-.571h0a1.977,1.977,0,1,1,1.391.571Zm0-3.457a1.485,1.485,0,0,0-1.048,2.54h0a1.486,1.486,0,1,0,1.048-2.54Z"/></g><g class="n"><path class="e" d="M306.283,155.678a1.73,1.73,0,1,0-.009-2.446A1.73,1.73,0,0,0,306.283,155.678Z"/></g><g class="d"><path class="o" d="M306.283,147.69a1.73,1.73,0,1,0-.009-2.446A1.73,1.73,0,0,0,306.283,147.69Z"/></g><g class="n"><path class="h" d="M297.988,148.435a1.96,1.96,0,0,1-1.388-.573h0a1.972,1.972,0,1,1,1.388.573Zm0-3.458h-.005a1.486,1.486,0,0,0-1.043,2.541h0a1.487,1.487,0,1,0,1.048-2.541Z"/></g><g class="d"><path class="e" d="M307.5,100.008a2.034,2.034,0,0,1-1.446-.6h0a2.054,2.054,0,0,1,1.439-3.511h.008a2.054,2.054,0,0,1,.007,4.107Zm0-3.458a1.4,1.4,0,0,0-.99,2.4h0a1.405,1.405,0,1,0,.99-2.4Z"/></g><g class="d"><path class="e" d="M297.988,99.926a1.959,1.959,0,0,1-1.388-.572h0a1.973,1.973,0,0,1,1.382-3.372,1.907,1.907,0,0,1,1.4.573,1.972,1.972,0,0,1-1.391,3.371Zm0-3.457h-.005a1.486,1.486,0,0,0-1.043,2.541h0a1.482,1.482,0,0,0,1.047.431h.006a1.486,1.486,0,0,0,0-2.972Z"/></g><g class="d"><path class="e" d="M317.081,66.449a2.04,2.04,0,0,1-1.446-.6h0a2.053,2.053,0,0,1,1.439-3.51h.008a2.052,2.052,0,1,1,0,4.1Zm-.99-1.054a1.405,1.405,0,1,0-.007-1.988,1.406,1.406,0,0,0,.007,1.988Z"/></g><g class="d"><path class="e" d="M315.863,57.637a1.729,1.729,0,1,0-.009-2.446A1.729,1.729,0,0,0,315.863,57.637Z"/></g><g class="d"><path class="k" d="M315.863,33.092a1.73,1.73,0,1,0-.009-2.446A1.729,1.729,0,0,0,315.863,33.092Z"/></g><g class="l"><path class="e" d="M315.863,163.665a1.729,1.729,0,1,0-.009-2.445A1.729,1.729,0,0,0,315.863,163.665Z"/></g><g class="l"><path class="e" d="M315.863,177.673a1.73,1.73,0,1,0-.009-2.446A1.729,1.729,0,0,0,315.863,177.673Z"/></g><g class="l"><path class="e" d="M315.863,155.678a1.73,1.73,0,1,0-.009-2.446A1.729,1.729,0,0,0,315.863,155.678Z"/></g><g class="l"><path class="e" d="M315.863,147.69a1.73,1.73,0,1,0-.009-2.446A1.73,1.73,0,0,0,315.863,147.69Z"/></g><g class="n"><path class="h" d="M278.3,148.435a1.957,1.957,0,0,1-1.39-.573h0a1.972,1.972,0,1,1,1.4.573Zm0-3.458h-.005a1.486,1.486,0,0,0-1.043,2.541h0a1.524,1.524,0,0,0,1.053.431,1.486,1.486,0,0,0-.005-2.972Z"/></g><g class="d"><path class="h" d="M267.567,147.69a1.73,1.73,0,1,0-.008-2.446A1.73,1.73,0,0,0,267.567,147.69Z"/></g><g class="d"><path class="e" d="M258.055,147.69a1.729,1.729,0,1,0-.009-2.446A1.729,1.729,0,0,0,258.055,147.69Z"/></g><g class="n"><path class="h" d="M287.81,148.254a1.97,1.97,0,0,1-1.39-.572h0a1.975,1.975,0,1,1,1.39.572Zm-1.047-.917a1.487,1.487,0,0,0,2.534-1.06,1.488,1.488,0,0,0-2.542-1.043,1.49,1.49,0,0,0,.008,2.1Z"/></g><g class="d"><path class="h" d="M238.939,147.69a1.729,1.729,0,1,0-.009-2.446A1.729,1.729,0,0,0,238.939,147.69Z"/></g><g class="n"><path class="h" d="M230.645,148.435a1.965,1.965,0,0,1-1.39-.573h0a1.972,1.972,0,1,1,1.39.573Zm0-3.458h-.006a1.471,1.471,0,0,0-1.049.439,1.487,1.487,0,0,0,.008,2.1h0a1.486,1.486,0,1,0,1.047-2.541Z"/></g><g class="d"><path class="e" d="M248.518,147.69a1.73,1.73,0,1,0-.009-2.446A1.73,1.73,0,0,0,248.518,147.69Z"/></g><g class="d"><path class="m" d="M317.081,140.527a2.043,2.043,0,0,1-1.446-.594h0a2.057,2.057,0,1,1,1.446.594Zm-.99-1.054a1.405,1.405,0,1,0-.007-1.988,1.405,1.405,0,0,0,.007,1.988Z"/></g><g class="d"><path class="e" d="M317.081,132.541a2.053,2.053,0,0,1-1.457-3.5,2.053,2.053,0,1,1,1.465,3.5Zm0-3.458a1.4,1.4,0,1,0,.991.407A1.4,1.4,0,0,0,317.081,129.083Z"/></g><g class="l"><path class="e" d="M317.081,171.43a2.04,2.04,0,1,1,.008,0Zm0-3.459a1.405,1.405,0,0,0-.99,2.4,1.483,1.483,0,0,0,.995.408,1.405,1.405,0,0,0-.005-2.81Z"/></g><g class="d"><path class="e" d="M315.863,99.182a1.729,1.729,0,1,0-.009-2.446A1.729,1.729,0,0,0,315.863,99.182Z"/></g><g class="d"><path class="e" d="M315.863,107.17a1.73,1.73,0,1,0-.009-2.446A1.729,1.729,0,0,0,315.863,107.17Z"/></g></g><g class="d"><g class="d"><path class="e" d="M204.17,21.3a2.055,2.055,0,1,1,1.454-.6h0a2.037,2.037,0,0,1-1.446.6Zm-.982-3.052a1.405,1.405,0,1,0,1.98,1.995h0a1.405,1.405,0,0,0-1.98-1.995Z"/></g><g class="d"><path class="e" d="M167.347,76.967a1.729,1.729,0,1,1,.008-2.446A1.729,1.729,0,0,1,167.347,76.967Z"/></g><g class="l"><path class="e" d="M205.4,76.967a1.73,1.73,0,1,1,.008-2.446A1.731,1.731,0,0,1,205.4,76.967Z"/></g><g class="l"><path class="e" d="M214.908,76.967a1.729,1.729,0,1,1,.01-2.446A1.728,1.728,0,0,1,214.908,76.967Z"/></g><g class="d"><path class="e" d="M129.3,68.979a1.73,1.73,0,1,1,.009-2.446A1.73,1.73,0,0,1,129.3,68.979Z"/></g><g class="d"><path class="e" d="M155.217,69.142a1.974,1.974,0,0,1,1.4-3.363h.007a1.973,1.973,0,1,1-1.406,3.363Zm.351-2.445a1.491,1.491,0,1,0,1.048-.43A1.49,1.49,0,0,0,155.568,66.7Z"/></g><g class="d"><path class="e" d="M167.347,68.979a1.729,1.729,0,1,1,.008-2.446A1.73,1.73,0,0,1,167.347,68.979Z"/></g><g class="l"><path class="e" d="M195.884,68.979a1.729,1.729,0,1,1,.009-2.446A1.73,1.73,0,0,1,195.884,68.979Z"/></g><g class="l"><path class="e" d="M205.4,68.979a1.73,1.73,0,1,1,.008-2.446A1.732,1.732,0,0,1,205.4,68.979Z"/></g><g class="l"><path class="e" d="M214.908,68.979a1.729,1.729,0,1,1,.01-2.446A1.729,1.729,0,0,1,214.908,68.979Z"/></g><g class="d"><path class="e" d="M129.3,60.992a1.73,1.73,0,1,1,.009-2.446A1.729,1.729,0,0,1,129.3,60.992Z"/></g><g class="d"><path class="m" d="M147.1,61.818a2.054,2.054,0,0,1-1.44-3.51,1.977,1.977,0,0,1,1.455-.6,2.055,2.055,0,0,1,1.44,3.512h0a2.049,2.049,0,0,1-1.447.6Zm-.983-3.05a1.405,1.405,0,0,0,.986,2.4h.005a1.4,1.4,0,0,0,.99-.408h0a1.405,1.405,0,0,0-1.981-1.994Z"/></g><g class="l"><path class="e" d="M155.217,61.154a1.972,1.972,0,1,1,2.789.01h0a1.974,1.974,0,0,1-2.789-.01Zm.351-2.444a1.487,1.487,0,1,0,2.1,2.109h0a1.487,1.487,0,0,0,.007-2.1,1.471,1.471,0,0,0-1.05-.44h-.005A1.484,1.484,0,0,0,155.568,58.71Z"/></g><g class="l"><path class="e" d="M167.347,60.992a1.73,1.73,0,1,1,.008-2.446A1.729,1.729,0,0,1,167.347,60.992Z"/></g><g class="l"><path class="e" d="M193.266,61.154a1.972,1.972,0,1,1,2.789.01h0a1.974,1.974,0,0,1-2.789-.01Zm.352-2.444a1.486,1.486,0,1,0,2.1,2.109h0a1.487,1.487,0,0,0-1.042-2.541h-.006A1.479,1.479,0,0,0,193.618,58.71Z"/></g><g class="l"><path class="e" d="M205.4,60.992a1.73,1.73,0,1,1,.008-2.446A1.731,1.731,0,0,1,205.4,60.992Z"/></g><g class="l"><path class="e" d="M214.908,60.992a1.729,1.729,0,1,1,.01-2.446A1.728,1.728,0,0,1,214.908,60.992Z"/></g><g class="d"><path class="e" d="M129.3,53.005a1.73,1.73,0,1,1,.009-2.446A1.729,1.729,0,0,1,129.3,53.005Z"/></g><g class="d"><path class="e" d="M138.81,53.005a1.73,1.73,0,1,1,.008-2.446A1.729,1.729,0,0,1,138.81,53.005Z"/></g><g class="l"><path class="e" d="M148.322,53.005a1.73,1.73,0,1,1,.009-2.446A1.729,1.729,0,0,1,148.322,53.005Z"/></g><g class="l"><path class="e" d="M155.217,53.167a1.972,1.972,0,1,1,2.789.011h0a1.975,1.975,0,0,1-2.789-.011Zm2.447-.335a1.487,1.487,0,1,0-2.1-.008,1.489,1.489,0,0,0,2.1.008Z"/></g><g class="l"><path class="e" d="M164.671,53.225a2.055,2.055,0,1,1,2.9.009h0a2.055,2.055,0,0,1-2.9-.009Zm2.448-.45a1.406,1.406,0,1,0-1.988-.007,1.408,1.408,0,0,0,1.988.007Z"/></g><g class="l"><path class="e" d="M183.754,53.167a1.972,1.972,0,1,1,2.789.011h0a1.975,1.975,0,0,1-2.789-.011Zm2.446-.335a1.485,1.485,0,0,0,.008-2.1,1.486,1.486,0,1,0-.008,2.1Z"/></g><g class="l"><path class="e" d="M193.266,53.167a1.972,1.972,0,1,1,2.789.011h0a1.975,1.975,0,0,1-2.789-.011Zm2.447-.335a1.486,1.486,0,1,0-2.1-.008,1.488,1.488,0,0,0,2.1.008Z"/></g><g class="l"><path class="e" d="M205.4,53.005a1.73,1.73,0,1,1,.008-2.446A1.731,1.731,0,0,1,205.4,53.005Z"/></g><g class="l"><path class="e" d="M212.232,53.224a2.053,2.053,0,1,1,2.9.01h0a2.056,2.056,0,0,1-2.9-.01Zm2.449-.449a1.406,1.406,0,1,0-1.989-.007,1.409,1.409,0,0,0,1.989.007Z"/></g><g class="d"><path class="e" d="M129.3,45.018a1.73,1.73,0,1,1,.009-2.447A1.73,1.73,0,0,1,129.3,45.018Z"/></g><g class="d"><path class="m" d="M136.191,45.18a1.974,1.974,0,0,1,1.4-3.363h.008a1.973,1.973,0,1,1-1.408,3.363Zm.353-2.445a1.486,1.486,0,0,0,1.042,2.541h.006a1.486,1.486,0,1,0-1.048-2.541Z"/></g><g class="l"><path class="e" d="M148.322,45.018a1.73,1.73,0,1,1,.009-2.447A1.73,1.73,0,0,1,148.322,45.018Z"/></g><g class="l"><path class="e" d="M155.217,45.18a1.974,1.974,0,0,1,1.4-3.363h.007a1.973,1.973,0,1,1-1.406,3.363Zm.351-2.445a1.49,1.49,0,1,0,1.048-.431A1.489,1.489,0,0,0,155.568,42.735Z"/></g><g class="l"><path class="e" d="M167.347,45.018a1.73,1.73,0,1,1,.008-2.447A1.73,1.73,0,0,1,167.347,45.018Z"/></g><g class="l"><path class="e" d="M176.859,45.018a1.73,1.73,0,1,1,.009-2.447A1.729,1.729,0,0,1,176.859,45.018Z"/></g><g class="l"><path class="e" d="M185.146,45.763a1.973,1.973,0,0,1,.007-3.946h.007a1.973,1.973,0,0,1-.007,3.946ZM184.1,42.735a1.487,1.487,0,0,0,1.042,2.541h.006a1.487,1.487,0,0,0,.005-2.973h-.005A1.479,1.479,0,0,0,184.1,42.735Z"/></g><g class="l"><path class="e" d="M195.884,45.018a1.73,1.73,0,1,1,.009-2.447A1.73,1.73,0,0,1,195.884,45.018Z"/></g><g class="d"><path class="e" d="M129.3,37.029a1.73,1.73,0,1,1,.009-2.445A1.729,1.729,0,0,1,129.3,37.029Z"/></g><g class="d"><path class="e" d="M138.81,37.029a1.729,1.729,0,1,1,.008-2.445A1.729,1.729,0,0,1,138.81,37.029Z"/></g><g class="d"><path class="e" d="M148.322,37.029a1.729,1.729,0,1,1,.009-2.445A1.729,1.729,0,0,1,148.322,37.029Z"/></g><g class="d"><path class="h" d="M185.146,170.49a2.054,2.054,0,0,1-1.44-3.511,1.938,1.938,0,0,1,1.454-.6,2.053,2.053,0,0,1,1.44,3.511h0a2.041,2.041,0,0,1-1.447.6Zm-.983-3.05a1.406,1.406,0,0,0,.985,2.4h.005a1.4,1.4,0,0,0,.99-.408h0a1.407,1.407,0,0,0-.986-2.4h-.005A1.393,1.393,0,0,0,184.163,167.44Z"/></g><g class="d"><path class="e" d="M176.859,161.677a1.729,1.729,0,1,1,.009-2.447A1.728,1.728,0,0,1,176.859,161.677Z"/></g><g class="d"><path class="e" d="M186.371,161.677a1.729,1.729,0,1,1,.01-2.447A1.728,1.728,0,0,1,186.371,161.677Z"/></g><g class="d"><path class="e" d="M174.241,153.852a1.973,1.973,0,1,1,2.789.009h0a1.972,1.972,0,0,1-2.789-.009Zm2.448-.334a1.487,1.487,0,1,0-2.1-.008,1.49,1.49,0,0,0,2.1.008Z"/></g><g class="d"><path class="e" d="M186.371,153.69a1.73,1.73,0,1,1,.01-2.447A1.73,1.73,0,0,1,186.371,153.69Z"/></g><g class="d"><path class="e" d="M176.859,145.7a1.73,1.73,0,1,1,.009-2.446A1.728,1.728,0,0,1,176.859,145.7Z"/></g><g class="d"><path class="e" d="M186.371,145.7a1.729,1.729,0,1,1,.01-2.446A1.728,1.728,0,0,1,186.371,145.7Z"/></g><g class="d"><path class="m" d="M156.609,37.775a1.973,1.973,0,1,1,1.4-.573h0a1.961,1.961,0,0,1-1.39.573Zm-1.041-3.028a1.487,1.487,0,1,0,2.1,2.11h0a1.488,1.488,0,0,0-1.043-2.542h-.005A1.484,1.484,0,0,0,155.568,34.747Z"/></g><g class="d"><path class="e" d="M167.347,37.029a1.729,1.729,0,1,1,.008-2.445A1.729,1.729,0,0,1,167.347,37.029Z"/></g><g class="d"><path class="e" d="M129.3,29.042a1.73,1.73,0,1,1,.009-2.446A1.729,1.729,0,0,1,129.3,29.042Z"/></g><g class="d"><path class="e" d="M136.191,29.2a1.972,1.972,0,1,1,2.79.01h0a1.977,1.977,0,0,1-2.79-.01Zm2.448-.335a1.487,1.487,0,1,0-2.1-.008,1.488,1.488,0,0,0,2.1.008Z"/></g><g class="d"><path class="e" d="M148.322,29.042a1.729,1.729,0,1,1,.009-2.446A1.729,1.729,0,0,1,148.322,29.042Z"/></g><g class="d"><path class="e" d="M157.834,29.042a1.729,1.729,0,1,1,.01-2.446A1.728,1.728,0,0,1,157.834,29.042Z"/></g><g class="d"><path class="e" d="M128.071,21.3a2.058,2.058,0,1,1,.009,0Zm-.982-3.052a1.407,1.407,0,0,0,.985,2.4,1.318,1.318,0,0,0,.995-.409,1.405,1.405,0,0,0-1.98-1.995Z"/></g><g class="d"><path class="e" d="M136.191,20.634a1.975,1.975,0,1,1,1.4.582A1.976,1.976,0,0,1,136.191,20.634Zm.353-2.444a1.486,1.486,0,0,0,1.042,2.54h.006a1.486,1.486,0,1,0-1.048-2.54Z"/></g><g class="d"><path class="e" d="M147.1,21.3a2.062,2.062,0,1,1,.008,0Zm-.983-3.052a1.407,1.407,0,0,0,.986,2.4h.005a1.406,1.406,0,1,0-.991-2.4Z"/></g><g class="d"><path class="e" d="M155.217,20.634a1.974,1.974,0,1,1,1.4.582A1.975,1.975,0,0,1,155.217,20.634Zm.351-2.444a1.488,1.488,0,1,0,1.048-.432A1.489,1.489,0,0,0,155.568,18.19Z"/></g><g class="d"><path class="e" d="M167.347,20.472a1.73,1.73,0,1,1,.008-2.447A1.729,1.729,0,0,1,167.347,20.472Z"/></g><g class="d"><path class="e" d="M128.071,13.31A2.053,2.053,0,0,1,126.632,9.8a1.927,1.927,0,0,1,1.454-.6,2.053,2.053,0,0,1,1.439,3.511h0a2.033,2.033,0,0,1-1.445.6Zm-.982-3.05a1.405,1.405,0,0,0,.985,2.4,1.479,1.479,0,0,0,.995-.408h0a1.405,1.405,0,0,0-1.98-1.994Z"/></g><g class="d"><path class="e" d="M136.191,12.646a1.972,1.972,0,1,1,2.79.01h0a1.972,1.972,0,0,1-2.79-.01Zm.353-2.445a1.487,1.487,0,0,0,1.042,2.542h.006a1.477,1.477,0,0,0,1.047-.432h0a1.487,1.487,0,0,0-2.1-2.11Z"/></g><g class="l"><path class="e" d="M183.754,60.974a1.973,1.973,0,0,1,1.4-3.363h.008a1.973,1.973,0,0,1,1.383,3.373h0a1.974,1.974,0,0,1-2.789-.01Zm2.446-.335a1.486,1.486,0,0,0-1.042-2.541h-.006a1.486,1.486,0,1,0,1.048,2.541Z"/></g><g class="d"><path class="e" d="M186.371,110.928a1.729,1.729,0,1,1,.01-2.447A1.729,1.729,0,0,1,186.371,110.928Z"/></g><g class="d"><path class="e" d="M185.146,103.685a1.973,1.973,0,0,1,.007-3.945h.007a1.973,1.973,0,0,1-.007,3.945Zm-1.041-3.028a1.487,1.487,0,0,0,1.042,2.542h.006a1.487,1.487,0,0,0,.005-2.973h-.005A1.483,1.483,0,0,0,184.1,100.657Z"/></g><g class="d"><path class="e" d="M186.371,94.952a1.729,1.729,0,1,1,.01-2.446A1.728,1.728,0,0,1,186.371,94.952Z"/></g><g class="d"><path class="h" d="M183.754,87.127a1.972,1.972,0,1,1,2.789.01h0a1.974,1.974,0,0,1-2.789-.01Zm2.446-.335a1.487,1.487,0,1,0-2.1-.007,1.488,1.488,0,0,0,2.1.007Z"/></g><g class="d"><path class="h" d="M183.754,78.557a1.973,1.973,0,0,1,1.4-3.363h.007a1.972,1.972,0,0,1,1.383,3.372h0a1.975,1.975,0,0,1-2.789-.009Zm2.446-.335a1.487,1.487,0,0,0-1.042-2.542,1.432,1.432,0,0,0-1.053.431,1.487,1.487,0,0,0,2.1,2.111Z"/></g><g class="d"><path class="e" d="M185.146,71.151a1.973,1.973,0,0,1,.007-3.945h.007a1.973,1.973,0,0,1-.007,3.945ZM184.1,68.124a1.487,1.487,0,0,0,1.042,2.542h.006a1.487,1.487,0,0,0,.005-2.974h-.005A1.484,1.484,0,0,0,184.1,68.124Z"/></g><g class="d"><path class="e" d="M148.322,12.484a1.73,1.73,0,1,1,.009-2.446A1.73,1.73,0,0,1,148.322,12.484Z"/></g><g class="d"><path class="e" d="M155.217,12.646a1.972,1.972,0,1,1,2.789.01h0a1.971,1.971,0,0,1-2.789-.01Zm.351-2.445a1.487,1.487,0,1,0,2.1,2.11h0a1.487,1.487,0,0,0-1.043-2.541h-.005A1.487,1.487,0,0,0,155.568,10.2Z"/></g><g class="d"><path class="e" d="M167.347,12.484a1.73,1.73,0,1,1,.008-2.446A1.73,1.73,0,0,1,167.347,12.484Z"/></g><g class="d"><path class="e" d="M167.347,83.9a1.73,1.73,0,1,1,.008-2.446A1.729,1.729,0,0,1,167.347,83.9Z"/></g><g class="d"><path class="e" d="M186.371,128.522a1.729,1.729,0,1,1,.01-2.446A1.729,1.729,0,0,1,186.371,128.522Z"/></g><g class="d"><path class="e" d="M186.371,120.535a1.729,1.729,0,1,1,.01-2.446A1.729,1.729,0,0,1,186.371,120.535Z"/></g><g class="d"><path class="e" d="M186.371,135.46a1.729,1.729,0,1,1,.01-2.446A1.728,1.728,0,0,1,186.371,135.46Z"/></g><g class="d"><path class="g" d="M176.859,12.484a1.73,1.73,0,1,1,.009-2.446A1.729,1.729,0,0,1,176.859,12.484Z"/></g><g class="d"><path class="g" d="M185.146,13.229a1.973,1.973,0,0,1,.006-3.945h.008a1.973,1.973,0,0,1,1.383,3.372h0a1.961,1.961,0,0,1-1.39.573ZM184.1,10.2a1.487,1.487,0,0,0,1.042,2.542h.006a1.474,1.474,0,0,0,1.047-.432h0a1.486,1.486,0,0,0-1.042-2.541h-.006A1.486,1.486,0,0,0,184.1,10.2Z"/></g><g class="d"><path class="e" d="M195.884,12.484a1.73,1.73,0,1,1,.009-2.446A1.73,1.73,0,0,1,195.884,12.484Z"/></g><g class="d"><path class="e" d="M195.884,20.472a1.73,1.73,0,1,1,.009-2.447A1.729,1.729,0,0,1,195.884,20.472Z"/></g><g class="d"><path class="e" d="M205.4,12.484a1.73,1.73,0,1,1,.008-2.446A1.732,1.732,0,0,1,205.4,12.484Z"/></g><g class="d"><path class="e" d="M205.4,29.042A1.73,1.73,0,1,1,205.4,26.6,1.731,1.731,0,0,1,205.4,29.042Z"/></g><g class="d"><path class="e" d="M214.908,12.484a1.729,1.729,0,1,1,.01-2.446A1.729,1.729,0,0,1,214.908,12.484Z"/></g><g class="d"><path class="e" d="M214.908,20.472a1.729,1.729,0,1,1,.01-2.447A1.728,1.728,0,0,1,214.908,20.472Z"/></g><g class="d"><path class="e" d="M110.205,141.473a1.729,1.729,0,1,1,.009-2.446A1.727,1.727,0,0,1,110.205,141.473Z"/></g><g class="d"><path class="e" d="M110.205,133.485a1.729,1.729,0,1,1,.009-2.446A1.729,1.729,0,0,1,110.205,133.485Z"/></g><g class="d"><path class="e" d="M110.205,125.5a1.729,1.729,0,1,1,.009-2.445A1.728,1.728,0,0,1,110.205,125.5Z"/></g><g class="d"><path class="e" d="M110.205,109.523a1.729,1.729,0,1,1,.009-2.446A1.729,1.729,0,0,1,110.205,109.523Z"/></g><g class="d"><path class="e" d="M110.205,101.535a1.729,1.729,0,1,1,.009-2.445A1.727,1.727,0,0,1,110.205,101.535Z"/></g><g class="d"><path class="e" d="M107.529,93.184a2.053,2.053,0,1,1,2.9.01h0a2.056,2.056,0,0,1-2.9-.01ZM108,90.74a1.405,1.405,0,1,0,1.98,1.994h0A1.405,1.405,0,0,0,108,90.74Z"/></g><g class="d"><path class="e" d="M110.205,84.978a1.73,1.73,0,1,1,.009-2.447A1.73,1.73,0,0,1,110.205,84.978Z"/></g><g class="d"><path class="h" d="M32.881,77.793a2.053,2.053,0,0,1-1.44-3.511,2.053,2.053,0,0,1,3.5,1.465,2.052,2.052,0,0,1-2.052,2.046ZM31.9,74.742a1.406,1.406,0,1,0,1.981,2h0a1.406,1.406,0,0,0-1.981-2Z"/></g><g class="d"><path class="h" d="M34.106,85.635a1.729,1.729,0,1,1,.009-2.446A1.73,1.73,0,0,1,34.106,85.635Z"/></g><g class="d"><path class="k" d="M53.131,76.967a1.729,1.729,0,1,1,.01-2.446A1.729,1.729,0,0,1,53.131,76.967Z"/></g><g class="f"><path class="e" d="M72.156,76.967a1.729,1.729,0,1,1,.009-2.446A1.729,1.729,0,0,1,72.156,76.967Z"/></g><g class="d"><path class="e" d="M110.205,76.967a1.729,1.729,0,1,1,.009-2.446A1.728,1.728,0,0,1,110.205,76.967Z"/></g><g class="d"><path class="k" d="M34.106,68.979a1.729,1.729,0,1,1,.009-2.446A1.73,1.73,0,0,1,34.106,68.979Z"/></g><g class="d"><path class="e" d="M53.131,68.979a1.729,1.729,0,1,1,.01-2.446A1.73,1.73,0,0,1,53.131,68.979Z"/></g><g class="f"><path class="e" d="M72.156,68.979a1.729,1.729,0,1,1,.009-2.446A1.73,1.73,0,0,1,72.156,68.979Z"/></g><g class="d"><path class="g" d="M81.668,68.979a1.729,1.729,0,1,1,.01-2.446A1.729,1.729,0,0,1,81.668,68.979Z"/></g><g class="d"><path class="e" d="M91.181,68.979a1.729,1.729,0,1,1,.009-2.446A1.732,1.732,0,0,1,91.181,68.979Z"/></g><g class="d"><path class="e" d="M110.205,68.979a1.729,1.729,0,1,1,.009-2.446A1.729,1.729,0,0,1,110.205,68.979Z"/></g><g class="d"><path class="k" d="M34.106,60.992a1.729,1.729,0,1,1,.009-2.446A1.73,1.73,0,0,1,34.106,60.992Z"/></g><g class="d"><path class="e" d="M23.034,61.212a2.055,2.055,0,0,1,1.457-3.5H24.5a2.055,2.055,0,0,1,1.44,3.512h0a2.059,2.059,0,0,1-2.9-.011Zm.467-2.444a1.405,1.405,0,1,0,1.98,1.994h0A1.405,1.405,0,0,0,23.5,58.768Z"/></g><g class="d"><path class="k" d="M50.455,61.212a2.055,2.055,0,0,1,1.457-3.5h.008a2.054,2.054,0,0,1,1.439,3.512h0a2.058,2.058,0,0,1-2.9-.011Zm.467-2.444A1.405,1.405,0,1,0,52.9,60.762h0a1.405,1.405,0,0,0-1.981-1.994Z"/></g><g class="f"><path class="e" d="M61.418,61.737a1.972,1.972,0,1,1,1.4-.573h0a1.96,1.96,0,0,1-1.39.573ZM60.377,58.71a1.487,1.487,0,0,0,1.043,2.542,1.548,1.548,0,0,0,1.053-.433h0a1.487,1.487,0,0,0-1.042-2.541h-.006A1.482,1.482,0,0,0,60.377,58.71Z"/></g><g class="f"><path class="e" d="M72.156,60.992a1.73,1.73,0,1,1,.009-2.446A1.729,1.729,0,0,1,72.156,60.992Z"/></g><g class="d"><path class="g" d="M80.442,61.818A2.053,2.053,0,0,1,79,58.308a1.952,1.952,0,0,1,1.454-.6,2.054,2.054,0,0,1,1.44,3.512h0a2.047,2.047,0,0,1-1.447.6Zm-.983-3.05a1.406,1.406,0,0,0,.986,2.4h0a1.4,1.4,0,0,0,.99-.408h0a1.405,1.405,0,0,0-1.981-1.994Z"/></g><g class="d"><path class="e" d="M91.181,60.992a1.73,1.73,0,1,1,.009-2.446A1.731,1.731,0,0,1,91.181,60.992Z"/></g><g class="d"><path class="e" d="M110.205,60.992a1.729,1.729,0,1,1,.009-2.446A1.728,1.728,0,0,1,110.205,60.992Z"/></g><g class="d"><path class="e" d="M34.106,53.005a1.729,1.729,0,1,1,.009-2.446A1.729,1.729,0,0,1,34.106,53.005Z"/></g><g class="d"><path class="k" d="M53.131,53.005a1.73,1.73,0,1,1,.01-2.446A1.729,1.729,0,0,1,53.131,53.005Z"/></g><g class="d"><path class="k" d="M53.131,109.3a1.73,1.73,0,1,1,.01-2.445A1.729,1.729,0,0,1,53.131,109.3Z"/></g><g class="d"><path class="e" d="M53.131,101.31a1.73,1.73,0,1,1,.01-2.447A1.73,1.73,0,0,1,53.131,101.31Z"/></g><g class="d"><path class="k" d="M50.455,93.541a2.053,2.053,0,1,1,2.9.011h0a2.058,2.058,0,0,1-2.9-.011Zm2.448-.449a1.405,1.405,0,1,0-1.988-.007,1.408,1.408,0,0,0,1.988.007Z"/></g><g class="d"><path class="e" d="M53.131,85.334a1.729,1.729,0,1,1,.01-2.445A1.729,1.729,0,0,1,53.131,85.334Z"/></g><g class="f"><path class="e" d="M60.025,53.167a1.972,1.972,0,1,1,2.79.011h0a1.976,1.976,0,0,1-2.79-.011Zm2.448-.335a1.487,1.487,0,1,0-2.1-.008,1.48,1.48,0,0,0,2.1.008Z"/></g><g class="f"><path class="e" d="M69.48,53.224a2.054,2.054,0,1,1,2.9.01h0a2.055,2.055,0,0,1-2.9-.01Zm2.448-.449a1.406,1.406,0,1,0-1.988-.007,1.407,1.407,0,0,0,1.988.007Z"/></g><g class="f"><path class="e" d="M81.668,53.005a1.73,1.73,0,1,1,.01-2.446A1.728,1.728,0,0,1,81.668,53.005Z"/></g><g class="d"><path class="g" d="M88.563,53.167a1.972,1.972,0,1,1,2.789.011h0a1.975,1.975,0,0,1-2.789-.011Zm2.447-.335a1.486,1.486,0,1,0-2.1-.008,1.489,1.489,0,0,0,2.1.008Z"/></g><g class="d"><path class="e" d="M81.668,93.179a1.729,1.729,0,1,1,.01-2.447A1.728,1.728,0,0,1,81.668,93.179Z"/></g><g class="d"><path class="e" d="M80.442,86.018a2.062,2.062,0,1,1,.008,0Zm-.983-3.051a1.406,1.406,0,0,0,.986,2.4,1.537,1.537,0,0,0,1-.408,1.405,1.405,0,0,0-1.981-1.994Z"/></g><g class="d"><path class="e" d="M88.563,85.354a1.973,1.973,0,0,1,1.4-3.363h.007a1.972,1.972,0,1,1-1.406,3.363Zm.352-2.445a1.49,1.49,0,1,0,1.048-.431A1.488,1.488,0,0,0,88.915,82.909Z"/></g><g class="d"><path class="g" d="M81.668,77.2a1.729,1.729,0,1,1,.01-2.445A1.727,1.727,0,0,1,81.668,77.2Z"/></g><g class="d"><path class="e" d="M89.955,77.949a1.973,1.973,0,1,1,1.4-.573h0a1.964,1.964,0,0,1-1.389.573Zm-1.04-3.027a1.486,1.486,0,1,0,2.1,2.109h0a1.487,1.487,0,0,0-1.042-2.541h-.006A1.474,1.474,0,0,0,88.915,74.922Z"/></g><g class="d"><path class="e" d="M98.074,53.167a1.972,1.972,0,1,1,2.79.011h0a1.976,1.976,0,0,1-2.79-.011Zm2.448-.335a1.486,1.486,0,1,0-2.1-.008,1.476,1.476,0,0,0,2.1.008Z"/></g><g class="d"><path class="e" d="M110.205,53.005a1.729,1.729,0,1,1,.009-2.446A1.728,1.728,0,0,1,110.205,53.005Z"/></g><g class="d"><path class="e" d="M34.106,45.018a1.729,1.729,0,1,1,.009-2.447A1.73,1.73,0,0,1,34.106,45.018Z"/></g><g class="d"><path class="e" d="M17.493,45.018a1.729,1.729,0,1,1,.009-2.447A1.729,1.729,0,0,1,17.493,45.018Z"/></g><g class="d"><path class="e" d="M42.393,45.763a1.973,1.973,0,0,1,.007-3.946h.007a1.973,1.973,0,0,1-.007,3.946Zm-1.039-3.028A1.486,1.486,0,0,0,42.4,45.276h0a1.486,1.486,0,1,0-1.045-2.541Z"/></g><g class="d"><path class="e" d="M23.092,45.18a1.974,1.974,0,0,1,1.4-3.363H24.5a1.973,1.973,0,1,1-1.407,3.363Zm.352-2.445a1.486,1.486,0,0,0,1.042,2.541,1.391,1.391,0,0,0,1.053-.431,1.487,1.487,0,0,0-2.095-2.11Z"/></g><g class="d"><path class="e" d="M53.131,45.018a1.73,1.73,0,1,1,.01-2.447A1.73,1.73,0,0,1,53.131,45.018Z"/></g><g class="f"><path class="e" d="M61.418,45.763a1.973,1.973,0,0,1,.007-3.946h.007a1.973,1.973,0,0,1-.006,3.946Zm-1.041-3.028a1.487,1.487,0,0,0,1.043,2.541h.006a1.486,1.486,0,1,0-1.049-2.541Z"/></g><g class="f"><path class="e" d="M72.156,45.018a1.73,1.73,0,1,1,.009-2.447A1.73,1.73,0,0,1,72.156,45.018Z"/></g><g class="f"><path class="e" d="M81.668,45.018a1.73,1.73,0,1,1,.01-2.447A1.729,1.729,0,0,1,81.668,45.018Z"/></g><g class="f"><path class="e" d="M88.563,45.18a1.973,1.973,0,0,1,1.4-3.363h.007a1.973,1.973,0,1,1-1.406,3.363Zm.352-2.445a1.49,1.49,0,1,0,1.048-.431A1.488,1.488,0,0,0,88.915,42.735Z"/></g><g class="d"><path class="g" d="M100.693,45.018a1.73,1.73,0,1,1,.009-2.447A1.73,1.73,0,0,1,100.693,45.018Z"/></g><g class="d"><path class="e" d="M110.205,45.018a1.729,1.729,0,1,1,.009-2.447A1.729,1.729,0,0,1,110.205,45.018Z"/></g><g class="d"><path class="e" d="M119.718,45.018a1.73,1.73,0,1,1,.009-2.447A1.73,1.73,0,0,1,119.718,45.018Z"/></g><g class="d"><path class="e" d="M34.106,37.029a1.729,1.729,0,1,1,.009-2.445A1.729,1.729,0,0,1,34.106,37.029Z"/></g><g class="d"><path class="e" d="M43.619,37.029a1.729,1.729,0,1,1,.009-2.445A1.729,1.729,0,0,1,43.619,37.029Z"/></g><g class="d"><path class="e" d="M53.131,37.029a1.729,1.729,0,1,1,.01-2.445A1.729,1.729,0,0,1,53.131,37.029Z"/></g><g class="d"><path class="g" d="M61.418,37.775a1.972,1.972,0,1,1,1.4-.573h0a1.965,1.965,0,0,1-1.39.573Zm-1.041-3.028a1.487,1.487,0,0,0,1.043,2.542,1.6,1.6,0,0,0,1.053-.432h0a1.488,1.488,0,0,0-1.042-2.542h-.006A1.482,1.482,0,0,0,60.377,34.747Z"/></g><g class="f"><path class="e" d="M72.156,37.029a1.729,1.729,0,1,1,.009-2.445A1.729,1.729,0,0,1,72.156,37.029Z"/></g><g class="f"><path class="e" d="M81.668,37.029a1.729,1.729,0,1,1,.01-2.445A1.727,1.727,0,0,1,81.668,37.029Z"/></g><g class="f"><path class="e" d="M89.955,37.775a1.973,1.973,0,1,1,1.4-.573h0a1.964,1.964,0,0,1-1.389.573Zm-1.04-3.028a1.487,1.487,0,1,0,2.1,2.11h0a1.487,1.487,0,0,0-1.042-2.542h-.006A1.478,1.478,0,0,0,88.915,34.747Z"/></g><g class="d"><path class="g" d="M99.467,37.775A1.973,1.973,0,0,1,98.085,34.4a1.928,1.928,0,0,1,1.4-.572,1.972,1.972,0,0,1,1.383,3.372h0a1.961,1.961,0,0,1-1.389.573Zm-1.04-3.028a1.487,1.487,0,0,0,1.042,2.542,1.538,1.538,0,0,0,1.053-.432h0a1.488,1.488,0,0,0-1.042-2.542h-.005A1.478,1.478,0,0,0,98.427,34.747Z"/></g><g class="d"><path class="e" d="M110.205,37.029a1.729,1.729,0,1,1,.009-2.445A1.727,1.727,0,0,1,110.205,37.029Z"/></g><g class="d"><path class="e" d="M119.718,37.029a1.729,1.729,0,1,1,.009-2.445A1.729,1.729,0,0,1,119.718,37.029Z"/></g><g class="d"><path class="e" d="M34.106,29.042a1.729,1.729,0,1,1,.009-2.446A1.729,1.729,0,0,1,34.106,29.042Z"/></g><g class="d"><path class="e" d="M41,29.2a1.972,1.972,0,1,1,2.789.01h0A1.976,1.976,0,0,1,41,29.2Zm2.446-.335a1.486,1.486,0,1,0-2.1-.008,1.476,1.476,0,0,0,2.1.008Z"/></g><g class="d"><path class="e" d="M23.092,29.2a1.972,1.972,0,1,1,2.789.01h0a1.976,1.976,0,0,1-2.789-.01Zm2.447-.335a1.487,1.487,0,1,0-2.1-.008,1.488,1.488,0,0,0,2.1.008Z"/></g><g class="d"><path class="e" d="M53.131,29.042a1.729,1.729,0,1,1,.01-2.446A1.729,1.729,0,0,1,53.131,29.042Z"/></g><g class="f"><path class="e" d="M60.025,29.2a1.972,1.972,0,1,1,2.79.01h0a1.977,1.977,0,0,1-2.79-.01Zm2.448-.335a1.487,1.487,0,1,0-2.1-.008,1.484,1.484,0,0,0,2.1.008Z"/></g><g class="f"><path class="e" d="M72.156,29.042a1.729,1.729,0,1,1,.009-2.446A1.729,1.729,0,0,1,72.156,29.042Z"/></g><g class="f"><path class="e" d="M78.992,29.262a2.055,2.055,0,1,1,2.905.01h0a2.058,2.058,0,0,1-2.905-.01Zm2.448-.449a1.406,1.406,0,1,0-1.987-.007,1.408,1.408,0,0,0,1.987.007Z"/></g><g class="f"><path class="e" d="M88.563,29.2a1.972,1.972,0,1,1,2.789.01h0a1.976,1.976,0,0,1-2.789-.01Zm2.447-.335a1.487,1.487,0,1,0-2.1-.008,1.489,1.489,0,0,0,2.1.008Z"/></g><g class="d"><path class="g" d="M98.074,29.2a1.972,1.972,0,1,1,2.79.01h0a1.977,1.977,0,0,1-2.79-.01Zm2.448-.335a1.487,1.487,0,1,0-2.1-.008,1.48,1.48,0,0,0,2.1.008Z"/></g><g class="d"><path class="e" d="M110.205,29.042a1.729,1.729,0,1,1,.009-2.446A1.728,1.728,0,0,1,110.205,29.042Z"/></g><g class="d"><path class="e" d="M119.718,29.042a1.729,1.729,0,1,1,.009-2.446A1.729,1.729,0,0,1,119.718,29.042Z"/></g><g class="d"><path class="e" d="M32.881,21.3a2.059,2.059,0,1,1,.008,0ZM31.9,18.246a1.406,1.406,0,1,0,.99-.407A1.407,1.407,0,0,0,31.9,18.246Z"/></g><g class="d"><path class="e" d="M42.393,21.217a1.981,1.981,0,1,1,.007,0ZM41.354,18.19A1.486,1.486,0,0,0,42.4,20.73h0a1.486,1.486,0,1,0-1.045-2.54Z"/></g><g class="d"><path class="k" d="M51.9,21.3a2.059,2.059,0,1,1,.008,0Zm-.982-3.052a1.406,1.406,0,1,0,.99-.407A1.407,1.407,0,0,0,50.923,18.246Z"/></g><g class="d"><path class="e" d="M61.418,21.217a1.98,1.98,0,1,1,.008,0ZM60.377,18.19a1.488,1.488,0,1,0,1.048-.432A1.488,1.488,0,0,0,60.377,18.19Z"/></g><g class="d"><path class="e" d="M72.156,20.472a1.73,1.73,0,1,1,.009-2.447A1.729,1.729,0,0,1,72.156,20.472Z"/></g><g class="d"><path class="e" d="M80.442,21.3a2.062,2.062,0,1,1,.008,0Zm-.983-3.052a1.407,1.407,0,0,0,.986,2.4,1.34,1.34,0,0,0,1-.409,1.406,1.406,0,0,0-1.981-1.995Z"/></g><g class="d"><path class="e" d="M88.563,20.634a1.974,1.974,0,1,1,1.4.582A1.976,1.976,0,0,1,88.563,20.634Zm.352-2.444a1.488,1.488,0,1,0,1.047-.432A1.487,1.487,0,0,0,88.915,18.19Z"/></g><g class="d"><path class="e" d="M100.693,20.472a1.73,1.73,0,1,1,.009-2.447A1.729,1.729,0,0,1,100.693,20.472Z"/></g><g class="d"><path class="e" d="M108.979,21.3a2.062,2.062,0,1,1,.008,0ZM108,18.246a1.406,1.406,0,1,0,.989-.407A1.408,1.408,0,0,0,108,18.246Z"/></g><g class="d"><path class="e" d="M119.718,20.472a1.73,1.73,0,1,1,.009-2.447A1.729,1.729,0,0,1,119.718,20.472Z"/></g><g class="d"><path class="e" d="M32.881,13.31A2.053,2.053,0,0,1,31.441,9.8,1.957,1.957,0,0,1,32.9,9.2a2.054,2.054,0,0,1,1.439,3.511h0a2.037,2.037,0,0,1-1.446.6ZM31.9,10.26a1.406,1.406,0,0,0,1.982,1.994h0a1.405,1.405,0,0,0-.986-2.4h-.005A1.4,1.4,0,0,0,31.9,10.26Z"/></g><g class="d"><path class="e" d="M42.393,13.229a1.972,1.972,0,0,1-1.382-3.372,1.972,1.972,0,1,1,2.779,2.8h0a1.961,1.961,0,0,1-1.39.573ZM41.354,10.2A1.487,1.487,0,0,0,42.4,12.743h0a1.472,1.472,0,0,0,1.048-.432h0A1.486,1.486,0,0,0,42.4,9.77h0A1.479,1.479,0,0,0,41.354,10.2Z"/></g><g class="d"><path class="e" d="M53.131,12.484a1.73,1.73,0,1,1,.01-2.446A1.73,1.73,0,0,1,53.131,12.484Z"/></g><g class="d"><path class="e" d="M61.418,13.229a1.972,1.972,0,1,1,1.4-.573h0a1.964,1.964,0,0,1-1.389.573ZM60.377,10.2a1.487,1.487,0,0,0,1.043,2.542h.006a1.477,1.477,0,0,0,1.047-.432h0A1.487,1.487,0,0,0,61.431,9.77h-.006A1.485,1.485,0,0,0,60.377,10.2Z"/></g><g class="d"><path class="e" d="M72.156,12.484a1.73,1.73,0,1,1,.009-2.446A1.73,1.73,0,0,1,72.156,12.484Z"/></g><g class="d"><path class="e" d="M81.668,12.484a1.73,1.73,0,1,1,.01-2.446A1.729,1.729,0,0,1,81.668,12.484Z"/></g><g class="d"><path class="e" d="M5.363,12.646a1.973,1.973,0,0,1,1.4-3.362H6.77a1.973,1.973,0,0,1,1.382,3.372h0a1.971,1.971,0,0,1-2.789-.01ZM5.715,10.2a1.487,1.487,0,0,0,1.043,2.542,1.46,1.46,0,0,0,1.052-.432h0A1.487,1.487,0,0,0,6.768,9.77H6.762A1.483,1.483,0,0,0,5.715,10.2Z"/></g><g class="d"><path class="e" d="M17.493,12.484a1.729,1.729,0,1,1,.009-2.446A1.729,1.729,0,0,1,17.493,12.484Z"/></g><g class="d"><path class="e" d="M25.71,12.484a1.73,1.73,0,1,1,.009-2.446A1.729,1.729,0,0,1,25.71,12.484Z"/></g><g class="d"><path class="e" d="M88.563,12.646a1.972,1.972,0,1,1,2.789.01h0a1.971,1.971,0,0,1-2.789-.01Zm.352-2.445a1.487,1.487,0,1,0,2.1,2.11h0A1.486,1.486,0,0,0,89.968,9.77h-.006A1.481,1.481,0,0,0,88.915,10.2Z"/></g><g class="d"><path class="e" d="M100.693,12.484a1.73,1.73,0,1,1,.009-2.446A1.73,1.73,0,0,1,100.693,12.484Z"/></g><g class="d"><path class="e" d="M110.205,12.484a1.729,1.729,0,1,1,.009-2.446A1.729,1.729,0,0,1,110.205,12.484Z"/></g><g class="d"><path class="e" d="M119.718,12.484a1.73,1.73,0,1,1,.009-2.446A1.73,1.73,0,0,1,119.718,12.484Z"/></g><g class="n"><path class="m" d="M234.025,76.967a1.729,1.729,0,1,1,.009-2.446A1.729,1.729,0,0,1,234.025,76.967Z"/></g><g class="n"><path class="e" d="M240.919,77.129a1.972,1.972,0,1,1,2.79.011h0a1.976,1.976,0,0,1-2.79-.011Zm.353-2.444a1.486,1.486,0,0,0,2.094,2.11h0a1.486,1.486,0,0,0-2.094-2.11Z"/></g><g class="n"><path class="e" d="M290.128,76.967a1.729,1.729,0,1,1,.009-2.446A1.729,1.729,0,0,1,290.128,76.967Z"/></g><g class="n"><path class="e" d="M290.128,85.869a1.73,1.73,0,1,1,.009-2.446A1.729,1.729,0,0,1,290.128,85.869Z"/></g><g class="n"><path class="e" d="M297.022,77.129a1.973,1.973,0,1,1,2.789.011h0a1.975,1.975,0,0,1-2.789-.011Zm.353-2.444a1.486,1.486,0,0,0,2.094,2.11h0a1.486,1.486,0,0,0-2.094-2.11Z"/></g><g class="n"><path class="e" d="M234.025,68.979a1.729,1.729,0,1,1,.009-2.446A1.73,1.73,0,0,1,234.025,68.979Z"/></g><g class="d"><path class="o" d="M234.025,60.992a1.73,1.73,0,1,1,.009-2.446A1.729,1.729,0,0,1,234.025,60.992Z"/></g><g class="n"><path class="h" d="M240.919,61.154a1.972,1.972,0,1,1,2.79.01h0a1.975,1.975,0,0,1-2.79-.01Zm.353-2.444a1.486,1.486,0,1,0,2.094,2.109h0a1.487,1.487,0,0,0-1.042-2.541h-.006A1.479,1.479,0,0,0,241.272,58.71Z"/></g><g class="d"><path class="e" d="M232.8,13.31a2.036,2.036,0,0,1-1.449-.607,2.052,2.052,0,0,1,1.457-3.5h.008a2.054,2.054,0,0,1,1.438,3.511h0a2.036,2.036,0,0,1-1.446.6Zm-.983-3.05a1.405,1.405,0,0,0,1.981,1.994h0a1.405,1.405,0,0,0-1.981-1.994Z"/></g><g class="d"><path class="e" d="M240.919,12.646a1.972,1.972,0,0,1,.011-2.789,1.9,1.9,0,0,1,1.4-.573,1.973,1.973,0,0,1,1.383,3.372h0a1.972,1.972,0,0,1-2.79-.01Zm.353-2.445a1.487,1.487,0,0,0,1.042,2.542h.005a1.472,1.472,0,0,0,1.047-.432h0a1.487,1.487,0,0,0-1.042-2.541h-.006A1.482,1.482,0,0,0,241.272,10.2Z"/></g><g class="l"><path class="e" d="M224.445,76.967a1.729,1.729,0,1,1,.009-2.446A1.73,1.73,0,0,1,224.445,76.967Z"/></g><g class="l"><path class="e" d="M224.445,90.975a1.73,1.73,0,1,1,.009-2.447A1.73,1.73,0,0,1,224.445,90.975Z"/></g><g class="l"><path class="e" d="M224.445,68.979a1.729,1.729,0,1,1,.009-2.446A1.73,1.73,0,0,1,224.445,68.979Z"/></g><g class="l"><path class="e" d="M224.445,60.992a1.73,1.73,0,1,1,.009-2.446A1.73,1.73,0,0,1,224.445,60.992Z"/></g><g class="n"><path class="h" d="M262,61.737a1.972,1.972,0,1,1,1.4-.573h0a1.96,1.96,0,0,1-1.39.573Zm-1.04-3.027a1.486,1.486,0,0,0,1.042,2.542,1.526,1.526,0,0,0,1.053-.433h0a1.487,1.487,0,0,0-1.042-2.541h-.006A1.478,1.478,0,0,0,260.963,58.71Z"/></g><g class="d"><path class="h" d="M272.741,60.992a1.73,1.73,0,1,1,.009-2.446A1.729,1.729,0,0,1,272.741,60.992Z"/></g><g class="d"><path class="e" d="M282.254,60.992a1.73,1.73,0,1,1,.009-2.446A1.729,1.729,0,0,1,282.254,60.992Z"/></g><g class="n"><path class="h" d="M251.1,60.974a1.972,1.972,0,1,1,2.79.01h0a1.975,1.975,0,0,1-2.79-.01Zm2.447-.335a1.486,1.486,0,1,0-2.1-.007,1.488,1.488,0,0,0,2.1.007Z"/></g><g class="d"><path class="h" d="M301.37,60.992a1.73,1.73,0,1,1,.009-2.446A1.729,1.729,0,0,1,301.37,60.992Z"/></g><g class="n"><path class="h" d="M308.264,61.154a1.972,1.972,0,1,1,2.789.01h0a1.974,1.974,0,0,1-2.789-.01Zm.352-2.444a1.486,1.486,0,1,0,2.1,2.109h0a1.487,1.487,0,0,0-1.042-2.541h-.005A1.482,1.482,0,0,0,308.616,58.71Z"/></g><g class="d"><path class="e" d="M291.79,60.992a1.729,1.729,0,1,1,.009-2.446A1.73,1.73,0,0,1,291.79,60.992Z"/></g><g class="d"><path class="m" d="M221.77,53.225a2.054,2.054,0,1,1,2.9.009h0a2.055,2.055,0,0,1-2.9-.009Zm2.447-.45a1.406,1.406,0,1,0-1.988-.007,1.407,1.407,0,0,0,1.988.007Z"/></g><g class="d"><path class="e" d="M223.219,45.844a2.062,2.062,0,1,1,.008,0Zm-.983-3.051a1.405,1.405,0,0,0,.986,2.4,1.376,1.376,0,0,0,.995-.408,1.405,1.405,0,0,0-1.981-1.994Z"/></g><g class="l"><path class="e" d="M223.219,84.731a2.064,2.064,0,1,1,.008,0Zm-.983-3.05a1.406,1.406,0,0,0,.986,2.4,1.487,1.487,0,0,0,.995-.409,1.405,1.405,0,1,0-1.981-1.994Z"/></g><g class="d"><path class="e" d="M224.445,12.484a1.73,1.73,0,1,1,.009-2.446A1.73,1.73,0,0,1,224.445,12.484Z"/></g><g class="d"><path class="e" d="M224.445,20.472a1.73,1.73,0,1,1,.009-2.447A1.73,1.73,0,0,1,224.445,20.472Z"/></g></g></g></g></svg>