<svg xmlns="http://www.w3.org/2000/svg" width="492.669" height="272.816" viewBox="0 0 492.669 272.816"><defs><style>.a{opacity:0.14;mix-blend-mode:color-dodge;isolation:isolate;}.b{fill:#00a6ff;}</style></defs><g class="a" transform="translate(-211.23 -302.056)"><g transform="translate(663.224 322.657)"><g transform="translate(2.017 2.219)"><rect class="b" width="1.105" height="23.789" transform="matrix(0.866, -0.5, 0.5, 0.866, 0, 0.553)"/></g><g transform="translate(0)"><path class="b" d="M577.317,322.469a2.495,2.495,0,1,1,3.408.912A2.5,2.5,0,0,1,577.317,322.469Z" transform="translate(-576.982 -318.726)"/></g></g><g transform="translate(675.119 343.259)"><g transform="translate(2.495 1.942)"><rect class="b" width="23.789" height="1.105"/></g><g transform="translate(0)"><path class="b" d="M589.1,340.386a2.494,2.494,0,1,1,2.5-2.494A2.494,2.494,0,0,1,589.1,340.386Z" transform="translate(-586.608 -335.397)"/></g></g><g transform="translate(627.541 302.056)"><g transform="translate(2.016 2.218)"><rect class="b" width="1.104" height="23.789" transform="translate(0 0.552) rotate(-29.999)"/></g><path class="b" d="M548.442,305.8a2.495,2.495,0,1,1,3.408.912A2.5,2.5,0,0,1,548.442,305.8Z" transform="translate(-548.107 -302.056)"/></g><g transform="translate(639.435 322.658)"><g transform="translate(2.495 1.941)"><rect class="b" width="23.789" height="1.107"/></g><path class="b" d="M560.227,323.716a2.494,2.494,0,1,1,2.5-2.5A2.5,2.5,0,0,1,560.227,323.716Z" transform="translate(-557.732 -318.727)"/></g><g transform="translate(591.857 322.657)"><g transform="translate(2.017 2.219)"><rect class="b" width="1.105" height="23.788" transform="matrix(0.866, -0.5, 0.5, 0.866, 0, 0.553)"/></g><path class="b" d="M519.567,322.469a2.495,2.495,0,1,1,3.407.912A2.495,2.495,0,0,1,519.567,322.469Z" transform="translate(-519.232 -318.726)"/></g><g transform="translate(629.557 304.273)"><g transform="translate(0)"><rect class="b" width="1.104" height="23.789" transform="translate(0 0.552) rotate(-29.999)"/></g><g transform="translate(9.878 18.384)"><path class="b" d="M562.387,319.974a2.495,2.495,0,1,1-3.407-.913A2.494,2.494,0,0,1,562.387,319.974Z" transform="translate(-557.732 -318.726)"/></g></g><g transform="translate(627.541 324.88)"><g transform="translate(2.01)"><rect class="b" width="23.789" height="1.104" transform="matrix(0.501, -0.866, 0.866, 0.501, 0, 20.594)"/></g><g transform="translate(0 18.379)"><path class="b" d="M552.762,339.14a2.495,2.495,0,1,1-.912-3.408A2.494,2.494,0,0,1,552.762,339.14Z" transform="translate(-548.107 -335.397)"/></g></g><g transform="translate(603.751 343.259)"><g transform="translate(2.495 1.942)"><rect class="b" width="23.789" height="1.105"/></g><g transform="translate(0)"><path class="b" d="M531.352,340.386a2.494,2.494,0,1,1,2.5-2.494A2.495,2.495,0,0,1,531.352,340.386Z" transform="translate(-528.857 -335.397)"/></g></g><g transform="translate(663.224 363.862)"><g transform="translate(2.017 2.218)"><rect class="b" width="1.105" height="23.79" transform="translate(0 0.553) rotate(-29.999)"/></g><g transform="translate(0)"><path class="b" d="M577.317,355.811a2.495,2.495,0,1,1,3.408.913A2.493,2.493,0,0,1,577.317,355.811Z" transform="translate(-576.982 -352.069)"/></g></g><g transform="translate(665.239 343.259)"><g transform="translate(0 2.219)"><rect class="b" width="23.789" height="1.105" transform="translate(0 20.6) rotate(-59.989)"/></g><g transform="translate(9.88)"><path class="b" d="M586.942,336.645a2.495,2.495,0,1,1,.913,3.407A2.5,2.5,0,0,1,586.942,336.645Z" transform="translate(-586.607 -335.397)"/></g></g><g transform="translate(677.614 343.259)"><g transform="translate(0 1.942)"><rect class="b" width="23.789" height="1.105"/></g><g transform="translate(21.294)"><path class="b" d="M608.352,335.4a2.494,2.494,0,1,1-2.494,2.495A2.5,2.5,0,0,1,608.352,335.4Z" transform="translate(-605.858 -335.397)"/></g></g><g transform="translate(627.541 343.259)"><g transform="translate(2.017 2.218)"><rect class="b" width="1.104" height="23.789" transform="matrix(0.866, -0.5, 0.5, 0.866, 0, 0.552)"/></g><path class="b" d="M548.442,339.14a2.495,2.495,0,1,1,3.408.912A2.5,2.5,0,0,1,548.442,339.14Z" transform="translate(-548.107 -335.397)"/></g><g transform="translate(629.55 322.657)"><g transform="translate(0 2.223)"><rect class="b" width="23.789" height="1.104" transform="matrix(0.501, -0.866, 0.866, 0.501, 0, 20.594)"/></g><g transform="translate(9.885)"><path class="b" d="M558.067,319.974a2.495,2.495,0,1,1,.913,3.407A2.5,2.5,0,0,1,558.067,319.974Z" transform="translate(-557.732 -318.726)"/></g></g><g transform="translate(641.93 322.658)"><g transform="translate(0 1.941)"><rect class="b" width="23.789" height="1.107"/></g><g transform="translate(21.295)"><path class="b" d="M579.477,318.727a2.494,2.494,0,1,1-2.494,2.494A2.5,2.5,0,0,1,579.477,318.727Z" transform="translate(-576.983 -318.727)"/></g></g><g transform="translate(665.241 324.876)"><rect class="b" width="1.105" height="23.789" transform="matrix(0.866, -0.5, 0.5, 0.866, 0, 0.553)"/><g transform="translate(9.878 18.383)"><path class="b" d="M591.262,336.645a2.495,2.495,0,1,1-3.407-.913A2.493,2.493,0,0,1,591.262,336.645Z" transform="translate(-586.607 -335.397)"/></g></g><g transform="translate(663.224 345.478)"><g transform="translate(2.015)"><rect class="b" width="23.789" height="1.105" transform="translate(0 20.6) rotate(-59.989)"/></g><g transform="translate(0 18.383)"><path class="b" d="M581.637,355.811a2.495,2.495,0,1,1-.912-3.407A2.495,2.495,0,0,1,581.637,355.811Z" transform="translate(-576.982 -352.069)"/></g></g><g transform="translate(639.435 363.861)"><g transform="translate(2.495 1.942)"><rect class="b" width="23.789" height="1.107"/></g><path class="b" d="M560.227,357.057a2.494,2.494,0,1,1,2.5-2.493A2.495,2.495,0,0,1,560.227,357.057Z" transform="translate(-557.732 -352.068)"/></g><g transform="translate(591.857 343.259)"><g transform="translate(0 20.603)"><g transform="translate(2.017 2.218)"><rect class="b" width="1.105" height="23.789" transform="translate(0 0.553) rotate(-29.996)"/></g><path class="b" d="M519.567,355.811a2.495,2.495,0,1,1,3.407.913A2.493,2.493,0,0,1,519.567,355.811Z" transform="translate(-519.232 -352.069)"/></g><g transform="translate(2.015 0)"><g transform="translate(0 2.22)"><rect class="b" width="23.788" height="1.105" transform="translate(0 20.599) rotate(-59.989)"/></g><g transform="translate(9.88)"><path class="b" d="M529.192,336.645a2.495,2.495,0,1,1,.913,3.407A2.5,2.5,0,0,1,529.192,336.645Z" transform="translate(-528.857 -335.397)"/></g></g><g transform="translate(14.39)"><g transform="translate(0 1.942)"><rect class="b" width="23.789" height="1.105"/></g><g transform="translate(21.294)"><path class="b" d="M550.6,335.4a2.494,2.494,0,1,1-2.495,2.495A2.5,2.5,0,0,1,550.6,335.4Z" transform="translate(-548.107 -335.397)"/></g></g><g transform="translate(37.701 2.219)"><rect class="b" width="1.104" height="23.789" transform="matrix(0.866, -0.5, 0.5, 0.866, 0, 0.552)"/><g transform="translate(9.878 18.384)"><path class="b" d="M562.387,353.316a2.495,2.495,0,1,1-3.407-.912A2.5,2.5,0,0,1,562.387,353.316Z" transform="translate(-557.732 -352.069)"/></g></g><g transform="translate(35.684 22.825)"><g transform="translate(2.009)"><rect class="b" width="23.79" height="1.104" transform="matrix(0.501, -0.866, 0.866, 0.501, 0, 20.594)"/></g><g transform="translate(0 18.38)"><path class="b" d="M552.762,372.481a2.494,2.494,0,1,1-.912-3.406A2.494,2.494,0,0,1,552.762,372.481Z" transform="translate(-548.107 -368.74)"/></g></g><g transform="translate(11.895 41.205)"><g transform="translate(2.495 1.942)"><rect class="b" width="23.789" height="1.105"/></g><path class="b" d="M531.352,373.729a2.494,2.494,0,1,1,2.5-2.494A2.5,2.5,0,0,1,531.352,373.729Z" transform="translate(-528.857 -368.74)"/></g></g><g transform="translate(556.173 343.259)"><g transform="translate(2.017 2.218)"><rect class="b" width="1.104" height="23.789" transform="matrix(0.866, -0.5, 0.5, 0.866, 0, 0.552)"/></g><g transform="translate(0)"><path class="b" d="M490.692,339.14a2.495,2.495,0,1,1,3.407.912A2.495,2.495,0,0,1,490.692,339.14Z" transform="translate(-490.357 -335.397)"/></g></g><g transform="translate(593.874 324.876)"><g transform="translate(0)"><rect class="b" width="1.105" height="23.788" transform="matrix(0.866, -0.5, 0.5, 0.866, 0, 0.553)"/></g><g transform="translate(9.877 18.383)"><path class="b" d="M533.512,336.645a2.495,2.495,0,1,1-3.407-.913A2.493,2.493,0,0,1,533.512,336.645Z" transform="translate(-528.857 -335.397)"/></g></g><g transform="translate(591.857 345.479)"><g transform="translate(2.015)"><rect class="b" width="23.788" height="1.105" transform="translate(0 20.599) rotate(-59.989)"/></g><g transform="translate(0 18.383)"><path class="b" d="M523.887,355.811a2.495,2.495,0,1,1-.913-3.407A2.5,2.5,0,0,1,523.887,355.811Z" transform="translate(-519.232 -352.069)"/></g></g><g transform="translate(568.068 363.861)"><g transform="translate(2.495 1.942)"><rect class="b" width="23.789" height="1.107"/></g><path class="b" d="M502.477,357.057a2.494,2.494,0,1,1,2.5-2.493A2.494,2.494,0,0,1,502.477,357.057Z" transform="translate(-499.982 -352.068)"/></g><g transform="translate(520.489 363.862)"><g transform="translate(2.016 2.218)"><rect class="b" width="1.105" height="23.79" transform="translate(0 0.553) rotate(-29.999)"/></g><path class="b" d="M461.817,355.811a2.495,2.495,0,1,1,3.407.913A2.493,2.493,0,0,1,461.817,355.811Z" transform="translate(-461.482 -352.069)"/></g><g transform="translate(522.504 343.259)"><g transform="translate(0 2.219)"><rect class="b" width="23.789" height="1.105" transform="translate(0 20.6) rotate(-59.989)"/></g><g transform="translate(9.88)"><path class="b" d="M471.442,336.645a2.495,2.495,0,1,1,.912,3.407A2.494,2.494,0,0,1,471.442,336.645Z" transform="translate(-471.107 -335.397)"/></g></g><g transform="translate(558.19 345.478)"><rect class="b" width="1.104" height="23.789" transform="matrix(0.866, -0.5, 0.5, 0.866, 0, 0.552)"/><g transform="translate(9.877 18.384)"><path class="b" d="M504.637,353.316a2.495,2.495,0,1,1-3.408-.912A2.5,2.5,0,0,1,504.637,353.316Z" transform="translate(-499.982 -352.069)"/></g></g><g transform="translate(556.173 366.083)"><g transform="translate(2.01)"><rect class="b" width="23.79" height="1.104" transform="matrix(0.501, -0.866, 0.866, 0.501, 0, 20.594)"/></g><g transform="translate(0 18.38)"><path class="b" d="M495.012,372.481a2.494,2.494,0,1,1-.913-3.406A2.5,2.5,0,0,1,495.012,372.481Z" transform="translate(-490.357 -368.74)"/></g></g><g transform="translate(532.384 384.464)"><g transform="translate(2.495 1.942)"><rect class="b" width="23.789" height="1.105"/></g><path class="b" d="M473.6,373.729a2.494,2.494,0,1,1,2.494-2.494A2.495,2.495,0,0,1,473.6,373.729Z" transform="translate(-471.107 -368.74)"/></g><g transform="translate(484.806 343.259)"><g transform="translate(2.017 2.219)"><rect class="b" width="1.105" height="23.789" transform="matrix(0.866, -0.5, 0.5, 0.866, 0, 0.552)"/></g><path class="b" d="M432.942,339.14a2.495,2.495,0,1,1,3.407.912A2.495,2.495,0,0,1,432.942,339.14Z" transform="translate(-432.607 -335.397)"/></g><g transform="translate(520.489 345.478)"><g transform="translate(2.014)"><rect class="b" width="23.789" height="1.105" transform="translate(0 20.6) rotate(-59.989)"/></g><g transform="translate(0 18.383)"><path class="b" d="M466.137,355.811a2.495,2.495,0,1,1-.913-3.407A2.5,2.5,0,0,1,466.137,355.811Z" transform="translate(-461.482 -352.069)"/></g></g><g transform="translate(496.699 363.861)"><g transform="translate(2.495 1.942)"><rect class="b" width="23.789" height="1.107"/></g><path class="b" d="M444.727,357.057a2.494,2.494,0,1,1,2.494-2.493A2.495,2.495,0,0,1,444.727,357.057Z" transform="translate(-442.231 -352.068)"/></g><g transform="translate(449.121 363.862)"><g transform="translate(2.017 2.218)"><rect class="b" width="1.105" height="23.79" transform="translate(0 0.553) rotate(-29.999)"/></g><path class="b" d="M404.066,355.811a2.494,2.494,0,1,1,3.408.913A2.492,2.492,0,0,1,404.066,355.811Z" transform="translate(-403.731 -352.069)"/></g><g transform="translate(451.137 343.259)"><g transform="translate(0 2.219)"><rect class="b" width="23.789" height="1.105" transform="translate(0 20.6) rotate(-59.989)"/></g><g transform="translate(9.879)"><path class="b" d="M413.691,336.645a2.494,2.494,0,1,1,.913,3.407A2.5,2.5,0,0,1,413.691,336.645Z" transform="translate(-413.356 -335.397)"/></g></g><g transform="translate(486.823 345.478)"><rect class="b" width="1.105" height="23.789" transform="matrix(0.866, -0.5, 0.5, 0.866, 0, 0.552)"/><g transform="translate(9.878 18.384)"><path class="b" d="M446.887,353.316a2.495,2.495,0,1,1-3.408-.912A2.5,2.5,0,0,1,446.887,353.316Z" transform="translate(-442.232 -352.069)"/></g></g><g transform="translate(484.806 366.081)"><g transform="translate(2.014)"><rect class="b" width="23.79" height="1.105" transform="translate(0 20.6) rotate(-59.989)"/></g><g transform="translate(0 18.383)"><path class="b" d="M437.262,372.481a2.494,2.494,0,1,1-.913-3.406A2.5,2.5,0,0,1,437.262,372.481Z" transform="translate(-432.607 -368.74)"/></g></g><g transform="translate(461.016 384.464)"><g transform="translate(2.495 1.942)"><rect class="b" width="23.79" height="1.105"/></g><path class="b" d="M415.851,373.729a2.494,2.494,0,1,1,2.5-2.494A2.5,2.5,0,0,1,415.851,373.729Z" transform="translate(-413.356 -368.74)"/></g><g transform="translate(413.438 343.259)"><g transform="translate(2.016 2.218)"><rect class="b" width="1.105" height="23.789" transform="matrix(0.866, -0.5, 0.5, 0.866, 0, 0.553)"/></g><path class="b" d="M375.191,339.14a2.495,2.495,0,1,1,3.407.912A2.494,2.494,0,0,1,375.191,339.14Z" transform="translate(-374.856 -335.397)"/></g><g transform="translate(449.121 345.478)"><g transform="translate(2.015)"><rect class="b" width="23.789" height="1.105" transform="translate(0 20.6) rotate(-59.989)"/></g><g transform="translate(0 18.383)"><path class="b" d="M408.386,355.811a2.494,2.494,0,1,1-.912-3.407A2.5,2.5,0,0,1,408.386,355.811Z" transform="translate(-403.731 -352.069)"/></g></g><g transform="translate(425.332 363.861)"><g transform="translate(2.495 1.942)"><rect class="b" width="23.789" height="1.107"/></g><path class="b" d="M386.976,357.057a2.494,2.494,0,1,1,2.5-2.493A2.495,2.495,0,0,1,386.976,357.057Z" transform="translate(-384.481 -352.068)"/></g><g transform="translate(415.454 345.477)"><rect class="b" width="1.105" height="23.789" transform="matrix(0.866, -0.5, 0.5, 0.866, 0, 0.553)"/><g transform="translate(9.878 18.384)"><path class="b" d="M389.136,353.316a2.495,2.495,0,1,1-3.407-.912A2.495,2.495,0,0,1,389.136,353.316Z" transform="translate(-384.481 -352.069)"/></g></g><g transform="translate(413.438 366.08)"><g transform="translate(2.014)"><rect class="b" width="23.79" height="1.105" transform="translate(0 20.6) rotate(-59.989)"/></g><g transform="translate(0 18.383)"><path class="b" d="M379.511,372.481a2.494,2.494,0,1,1-.913-3.406A2.495,2.495,0,0,1,379.511,372.481Z" transform="translate(-374.856 -368.74)"/></g></g><g transform="translate(389.649 384.464)"><g transform="translate(2.495 1.942)"><rect class="b" width="23.789" height="1.105"/></g><path class="b" d="M358.1,373.729a2.494,2.494,0,1,1,2.5-2.494A2.495,2.495,0,0,1,358.1,373.729Z" transform="translate(-355.606 -368.74)"/></g><g transform="translate(306.386 363.862)"><g transform="translate(2.016 2.218)"><rect class="b" width="1.105" height="23.79" transform="translate(0 0.552) rotate(-30.001)"/></g><path class="b" d="M288.565,355.811a2.495,2.495,0,1,1,3.408.913A2.493,2.493,0,0,1,288.565,355.811Z" transform="translate(-288.23 -352.069)"/></g><g transform="translate(318.282 384.464)"><g transform="translate(2.494 1.942)"><rect class="b" width="23.79" height="1.105"/></g><path class="b" d="M300.35,373.729a2.494,2.494,0,1,1,2.5-2.494A2.495,2.495,0,0,1,300.35,373.729Z" transform="translate(-297.856 -368.74)"/></g><g transform="translate(627.541 384.464)"><g transform="translate(2.017 2.219)"><rect class="b" width="1.104" height="23.789" transform="matrix(0.866, -0.5, 0.5, 0.866, 0, 0.552)"/></g><path class="b" d="M548.442,372.481a2.494,2.494,0,1,1,3.408.914A2.493,2.493,0,0,1,548.442,372.481Z" transform="translate(-548.107 -368.74)"/></g><g transform="translate(629.55 363.862)"><g transform="translate(0 2.222)"><rect class="b" width="23.79" height="1.104" transform="matrix(0.501, -0.866, 0.866, 0.501, 0, 20.594)"/></g><g transform="translate(9.885)"><path class="b" d="M558.067,353.316a2.495,2.495,0,1,1,.913,3.408A2.495,2.495,0,0,1,558.067,353.316Z" transform="translate(-557.732 -352.069)"/></g></g><g transform="translate(641.93 363.861)"><g transform="translate(0 1.942)"><rect class="b" width="23.789" height="1.107"/></g><g transform="translate(21.295)"><path class="b" d="M579.477,352.068a2.494,2.494,0,1,1-2.494,2.5A2.5,2.5,0,0,1,579.477,352.068Z" transform="translate(-576.983 -352.068)"/></g></g><g transform="translate(665.241 366.079)"><rect class="b" width="1.105" height="23.79" transform="translate(0 0.553) rotate(-29.999)"/><g transform="translate(9.878 18.384)"><path class="b" d="M591.262,369.987a2.494,2.494,0,1,1-3.407-.912A2.495,2.495,0,0,1,591.262,369.987Z" transform="translate(-586.607 -368.74)"/></g></g><g transform="translate(591.857 405.065)"><g transform="translate(2.017 2.219)"><rect class="b" width="1.105" height="23.788" transform="matrix(0.866, -0.5, 0.5, 0.866, 0, 0.553)"/></g><path class="b" d="M519.567,389.153a2.495,2.495,0,1,1,3.407.913A2.493,2.493,0,0,1,519.567,389.153Z" transform="translate(-519.232 -385.411)"/></g><g transform="translate(593.871 384.464)"><g transform="translate(0 2.22)"><rect class="b" width="23.788" height="1.105" transform="translate(0 20.599) rotate(-59.989)"/></g><g transform="translate(9.88)"><path class="b" d="M529.192,369.987a2.494,2.494,0,1,1,.913,3.408A2.495,2.495,0,0,1,529.192,369.987Z" transform="translate(-528.857 -368.74)"/></g></g><g transform="translate(606.246 384.464)"><g transform="translate(0 1.942)"><rect class="b" width="23.789" height="1.105"/></g><g transform="translate(21.294)"><path class="b" d="M550.6,368.74a2.494,2.494,0,1,1-2.495,2.5A2.5,2.5,0,0,1,550.6,368.74Z" transform="translate(-548.107 -368.74)"/></g></g><g transform="translate(629.557 386.682)"><g transform="translate(0)"><rect class="b" width="1.104" height="23.789" transform="matrix(0.866, -0.5, 0.5, 0.866, 0, 0.552)"/></g><g transform="translate(9.878 18.383)"><path class="b" d="M562.387,386.658a2.495,2.495,0,1,1-3.407-.912A2.495,2.495,0,0,1,562.387,386.658Z" transform="translate(-557.732 -385.411)"/></g></g><g transform="translate(603.751 425.668)"><g transform="translate(2.495 1.942)"><rect class="b" width="23.789" height="1.105"/></g><g transform="translate(0)"><path class="b" d="M531.352,407.071a2.494,2.494,0,1,1,2.5-2.494A2.5,2.5,0,0,1,531.352,407.071Z" transform="translate(-528.857 -402.082)"/></g></g><g transform="translate(556.173 363.861)"><g transform="translate(0 20.603)"><g transform="translate(2.017 2.219)"><rect class="b" width="1.104" height="23.789" transform="matrix(0.866, -0.5, 0.5, 0.866, 0, 0.552)"/></g><path class="b" d="M490.692,372.481a2.494,2.494,0,1,1,3.407.914A2.492,2.492,0,0,1,490.692,372.481Z" transform="translate(-490.357 -368.74)"/></g><g transform="translate(2.01 0.001)"><g transform="translate(0 2.222)"><rect class="b" width="23.79" height="1.104" transform="matrix(0.501, -0.866, 0.866, 0.501, 0, 20.594)"/></g><g transform="translate(9.885)"><path class="b" d="M500.317,353.316a2.495,2.495,0,1,1,.912,3.408A2.495,2.495,0,0,1,500.317,353.316Z" transform="translate(-499.982 -352.069)"/></g></g><g transform="translate(14.39)"><g transform="translate(0 1.942)"><rect class="b" width="23.789" height="1.107"/></g><g transform="translate(21.294)"><path class="b" d="M521.727,352.068a2.494,2.494,0,1,1-2.5,2.5A2.5,2.5,0,0,1,521.727,352.068Z" transform="translate(-519.232 -352.068)"/></g></g><g transform="translate(37.701 2.219)"><rect class="b" width="1.105" height="23.789" transform="translate(0 0.553) rotate(-29.996)"/><g transform="translate(9.877 18.384)"><path class="b" d="M533.512,369.987a2.494,2.494,0,1,1-3.407-.912A2.495,2.495,0,0,1,533.512,369.987Z" transform="translate(-528.857 -368.74)"/></g></g><g transform="translate(35.684 22.823)"><g transform="translate(2.015)"><rect class="b" width="23.788" height="1.105" transform="translate(0 20.599) rotate(-59.989)"/></g><g transform="translate(0 18.382)"><path class="b" d="M523.887,389.153a2.495,2.495,0,1,1-.913-3.407A2.5,2.5,0,0,1,523.887,389.153Z" transform="translate(-519.232 -385.411)"/></g></g><g transform="translate(11.895 41.205)"><g transform="translate(2.495 1.942)"><rect class="b" width="23.789" height="1.105"/></g><path class="b" d="M502.477,390.4a2.494,2.494,0,1,1,2.5-2.494A2.495,2.495,0,0,1,502.477,390.4Z" transform="translate(-499.982 -385.411)"/></g></g><g transform="translate(520.489 384.464)"><g transform="translate(0 20.602)"><g transform="translate(2.016 2.219)"><rect class="b" width="1.105" height="23.789" transform="matrix(0.866, -0.5, 0.5, 0.866, 0, 0.553)"/></g><path class="b" d="M461.817,389.153a2.495,2.495,0,1,1,3.407.913A2.493,2.493,0,0,1,461.817,389.153Z" transform="translate(-461.482 -385.411)"/></g><g transform="translate(2.014)"><g transform="translate(0 2.22)"><rect class="b" width="23.789" height="1.105" transform="translate(0 20.6) rotate(-59.989)"/></g><g transform="translate(9.88)"><path class="b" d="M471.442,369.987a2.494,2.494,0,1,1,.912,3.408A2.494,2.494,0,0,1,471.442,369.987Z" transform="translate(-471.107 -368.74)"/></g></g><g transform="translate(14.39 0)"><g transform="translate(0 1.942)"><rect class="b" width="23.789" height="1.105"/></g><g transform="translate(21.294)"><path class="b" d="M492.852,368.74a2.494,2.494,0,1,1-2.5,2.5A2.5,2.5,0,0,1,492.852,368.74Z" transform="translate(-490.357 -368.74)"/></g></g><g transform="translate(37.701 2.219)"><rect class="b" width="1.104" height="23.789" transform="matrix(0.866, -0.5, 0.5, 0.866, 0, 0.552)"/><g transform="translate(9.877 18.383)"><path class="b" d="M504.637,386.658a2.495,2.495,0,1,1-3.408-.912A2.5,2.5,0,0,1,504.637,386.658Z" transform="translate(-499.982 -385.411)"/></g></g><g transform="translate(35.684 22.824)"><g transform="translate(2.01)"><rect class="b" width="23.789" height="1.104" transform="matrix(0.501, -0.866, 0.866, 0.501, 0, 20.594)"/></g><g transform="translate(0 18.379)"><path class="b" d="M495.012,405.824a2.494,2.494,0,1,1-.913-3.407A2.5,2.5,0,0,1,495.012,405.824Z" transform="translate(-490.357 -402.082)"/></g></g><g transform="translate(11.895 41.204)"><g transform="translate(2.495 1.942)"><rect class="b" width="23.789" height="1.105"/></g><path class="b" d="M473.6,407.071a2.494,2.494,0,1,1,2.494-2.494A2.495,2.495,0,0,1,473.6,407.071Z" transform="translate(-471.107 -402.082)"/></g></g><g transform="translate(484.806 363.861)"><g transform="translate(0 20.603)"><g transform="translate(2.017 2.219)"><rect class="b" width="1.105" height="23.789" transform="matrix(0.866, -0.5, 0.5, 0.866, 0, 0.552)"/></g><path class="b" d="M432.942,372.481a2.494,2.494,0,1,1,3.407.914A2.492,2.492,0,0,1,432.942,372.481Z" transform="translate(-432.607 -368.74)"/></g><g transform="translate(2.014 0.001)"><g transform="translate(0 2.219)"><rect class="b" width="23.79" height="1.105" transform="translate(0 20.6) rotate(-59.989)"/></g><g transform="translate(9.88)"><path class="b" d="M442.567,353.316a2.495,2.495,0,1,1,.912,3.408A2.493,2.493,0,0,1,442.567,353.316Z" transform="translate(-442.232 -352.069)"/></g></g><g transform="translate(14.389)"><g transform="translate(0 1.942)"><rect class="b" width="23.789" height="1.107"/></g><g transform="translate(21.295)"><path class="b" d="M463.977,352.068a2.494,2.494,0,1,1-2.5,2.5A2.5,2.5,0,0,1,463.977,352.068Z" transform="translate(-461.482 -352.068)"/></g></g><g transform="translate(37.7 2.219)"><rect class="b" width="1.105" height="23.79" transform="translate(0 0.553) rotate(-29.999)"/><g transform="translate(9.878 18.384)"><path class="b" d="M475.762,369.987a2.494,2.494,0,1,1-3.408-.912A2.5,2.5,0,0,1,475.762,369.987Z" transform="translate(-471.107 -368.74)"/></g></g><g transform="translate(35.684 22.823)"><g transform="translate(2.014)"><rect class="b" width="23.789" height="1.105" transform="translate(0 20.6) rotate(-59.989)"/></g><g transform="translate(0 18.382)"><path class="b" d="M466.137,389.153a2.495,2.495,0,1,1-.913-3.407A2.5,2.5,0,0,1,466.137,389.153Z" transform="translate(-461.482 -385.411)"/></g></g><g transform="translate(11.893 41.205)"><g transform="translate(2.495 1.942)"><rect class="b" width="23.789" height="1.105"/></g><path class="b" d="M444.727,390.4a2.494,2.494,0,1,1,2.494-2.494A2.5,2.5,0,0,1,444.727,390.4Z" transform="translate(-442.231 -385.411)"/></g></g><g transform="translate(449.121 384.464)"><g transform="translate(0 20.602)"><g transform="translate(2.017 2.219)"><rect class="b" width="1.105" height="23.789" transform="matrix(0.866, -0.5, 0.5, 0.866, 0, 0.553)"/></g><path class="b" d="M404.066,389.153a2.494,2.494,0,1,1,3.408.913A2.493,2.493,0,0,1,404.066,389.153Z" transform="translate(-403.731 -385.411)"/></g><g transform="translate(2.015)"><g transform="translate(0 2.22)"><rect class="b" width="23.789" height="1.105" transform="translate(0 20.6) rotate(-59.989)"/></g><g transform="translate(9.879)"><path class="b" d="M413.691,369.987a2.494,2.494,0,1,1,.913,3.408A2.495,2.495,0,0,1,413.691,369.987Z" transform="translate(-413.356 -368.74)"/></g></g><g transform="translate(14.39 0)"><g transform="translate(0 1.942)"><rect class="b" width="23.79" height="1.105"/></g><g transform="translate(21.294)"><path class="b" d="M435.1,368.74a2.494,2.494,0,1,1-2.5,2.5A2.495,2.495,0,0,1,435.1,368.74Z" transform="translate(-432.606 -368.74)"/></g></g><g transform="translate(37.701 2.219)"><rect class="b" width="1.105" height="23.789" transform="matrix(0.866, -0.5, 0.5, 0.866, 0, 0.552)"/><g transform="translate(9.878 18.383)"><path class="b" d="M446.887,386.658a2.495,2.495,0,1,1-3.408-.912A2.5,2.5,0,0,1,446.887,386.658Z" transform="translate(-442.232 -385.411)"/></g></g><g transform="translate(35.685 22.822)"><g transform="translate(2.015)"><rect class="b" width="23.789" height="1.105" transform="translate(0 20.599) rotate(-59.989)"/></g><g transform="translate(0 18.382)"><path class="b" d="M437.262,405.824a2.494,2.494,0,1,1-.913-3.407A2.5,2.5,0,0,1,437.262,405.824Z" transform="translate(-432.607 -402.082)"/></g></g><g transform="translate(11.895 41.204)"><g transform="translate(2.495 1.942)"><rect class="b" width="23.79" height="1.105"/></g><path class="b" d="M415.851,407.071a2.494,2.494,0,1,1,2.5-2.494A2.5,2.5,0,0,1,415.851,407.071Z" transform="translate(-413.356 -402.082)"/></g></g><g transform="translate(413.438 363.861)"><g transform="translate(0 20.603)"><g transform="translate(2.016 2.219)"><rect class="b" width="1.105" height="23.789" transform="matrix(0.866, -0.5, 0.5, 0.866, 0, 0.553)"/></g><path class="b" d="M375.191,372.481a2.494,2.494,0,1,1,3.407.914A2.492,2.492,0,0,1,375.191,372.481Z" transform="translate(-374.856 -368.74)"/></g><g transform="translate(2.014 0.001)"><g transform="translate(0 2.219)"><rect class="b" width="23.79" height="1.105" transform="translate(0 20.6) rotate(-59.989)"/></g><g transform="translate(9.881)"><path class="b" d="M384.816,353.316a2.495,2.495,0,1,1,.913,3.408A2.494,2.494,0,0,1,384.816,353.316Z" transform="translate(-384.481 -352.069)"/></g></g><g transform="translate(14.39)"><g transform="translate(0 1.942)"><rect class="b" width="23.789" height="1.107"/></g><g transform="translate(21.294)"><path class="b" d="M406.226,352.068a2.494,2.494,0,1,1-2.5,2.5A2.5,2.5,0,0,1,406.226,352.068Z" transform="translate(-403.731 -352.068)"/></g></g><g transform="translate(37.701 2.219)"><rect class="b" width="1.105" height="23.79" transform="translate(0 0.553) rotate(-29.999)"/><g transform="translate(9.877 18.384)"><path class="b" d="M418.011,369.987a2.494,2.494,0,1,1-3.407-.912A2.495,2.495,0,0,1,418.011,369.987Z" transform="translate(-413.356 -368.74)"/></g></g><g transform="translate(35.684 22.823)"><g transform="translate(2.015)"><rect class="b" width="23.789" height="1.105" transform="translate(0 20.6) rotate(-59.989)"/></g><g transform="translate(0 18.382)"><path class="b" d="M408.386,389.153a2.494,2.494,0,1,1-.912-3.407A2.5,2.5,0,0,1,408.386,389.153Z" transform="translate(-403.731 -385.411)"/></g></g><g transform="translate(11.895 41.205)"><g transform="translate(2.495 1.942)"><rect class="b" width="23.789" height="1.105"/></g><path class="b" d="M386.976,390.4a2.494,2.494,0,1,1,2.5-2.494A2.5,2.5,0,0,1,386.976,390.4Z" transform="translate(-384.481 -385.411)"/></g></g><g transform="translate(377.754 405.065)"><g transform="translate(2.017 2.219)"><rect class="b" width="1.105" height="23.789" transform="matrix(0.866, -0.5, 0.5, 0.866, 0, 0.553)"/></g><path class="b" d="M346.316,389.153a2.495,2.495,0,1,1,3.407.913A2.493,2.493,0,0,1,346.316,389.153Z" transform="translate(-345.981 -385.411)"/></g><g transform="translate(379.77 384.464)"><g transform="translate(0 2.22)"><rect class="b" width="23.789" height="1.105" transform="translate(0 20.6) rotate(-59.989)"/></g><g transform="translate(9.879)"><path class="b" d="M355.941,369.987a2.494,2.494,0,1,1,.913,3.408A2.494,2.494,0,0,1,355.941,369.987Z" transform="translate(-355.606 -368.74)"/></g></g><g transform="translate(392.144 384.464)"><g transform="translate(0 1.942)"><rect class="b" width="23.789" height="1.105"/></g><g transform="translate(21.294)"><path class="b" d="M377.351,368.74a2.494,2.494,0,1,1-2.5,2.5A2.5,2.5,0,0,1,377.351,368.74Z" transform="translate(-374.856 -368.74)"/></g></g><g transform="translate(415.454 386.682)"><rect class="b" width="1.105" height="23.789" transform="matrix(0.866, -0.5, 0.5, 0.866, 0, 0.553)"/><g transform="translate(9.878 18.383)"><path class="b" d="M389.136,386.658a2.495,2.495,0,1,1-3.407-.912A2.494,2.494,0,0,1,389.136,386.658Z" transform="translate(-384.481 -385.411)"/></g></g><g transform="translate(413.438 407.285)"><g transform="translate(2.014)"><rect class="b" width="23.789" height="1.105" transform="translate(0 20.6) rotate(-59.989)"/></g><g transform="translate(0 18.382)"><path class="b" d="M379.511,405.824a2.494,2.494,0,1,1-.913-3.407A2.5,2.5,0,0,1,379.511,405.824Z" transform="translate(-374.856 -402.082)"/></g></g><g transform="translate(389.649 425.668)"><g transform="translate(2.495 1.942)"><rect class="b" width="23.789" height="1.105"/></g><path class="b" d="M358.1,407.071a2.494,2.494,0,1,1,2.5-2.494A2.495,2.495,0,0,1,358.1,407.071Z" transform="translate(-355.606 -402.082)"/></g><g transform="translate(342.07 384.464)"><g transform="translate(2.017 2.219)"><rect class="b" width="1.105" height="23.789" transform="matrix(0.866, -0.5, 0.5, 0.866, 0, 0.553)"/></g><path class="b" d="M317.44,372.481a2.494,2.494,0,1,1,3.408.914A2.493,2.493,0,0,1,317.44,372.481Z" transform="translate(-317.105 -368.74)"/></g><g transform="translate(377.754 386.683)"><g transform="translate(2.015)"><rect class="b" width="23.789" height="1.105" transform="translate(0 20.6) rotate(-59.989)"/></g><g transform="translate(0 18.382)"><path class="b" d="M350.636,389.153a2.495,2.495,0,1,1-.913-3.407A2.5,2.5,0,0,1,350.636,389.153Z" transform="translate(-345.981 -385.411)"/></g></g><g transform="translate(353.965 405.066)"><g transform="translate(2.495 1.942)"><rect class="b" width="23.789" height="1.105"/></g><path class="b" d="M329.226,390.4a2.494,2.494,0,1,1,2.5-2.494A2.495,2.495,0,0,1,329.226,390.4Z" transform="translate(-326.731 -385.411)"/></g><g transform="translate(306.386 405.065)"><g transform="translate(2.016 2.219)"><rect class="b" width="1.105" height="23.789" transform="matrix(0.866, -0.5, 0.5, 0.866, 0, 0.552)"/></g><path class="b" d="M288.565,389.153a2.495,2.495,0,1,1,3.408.913A2.494,2.494,0,0,1,288.565,389.153Z" transform="translate(-288.23 -385.411)"/></g><g transform="translate(308.401 384.464)"><g transform="translate(0 2.22)"><rect class="b" width="23.789" height="1.105" transform="translate(0 20.6) rotate(-59.989)"/></g><g transform="translate(9.88)"><path class="b" d="M298.19,369.987a2.494,2.494,0,1,1,.913,3.408A2.5,2.5,0,0,1,298.19,369.987Z" transform="translate(-297.855 -368.74)"/></g></g><g transform="translate(320.776 384.464)"><g transform="translate(0 1.942)"><rect class="b" width="23.79" height="1.105"/></g><g transform="translate(21.295)"><path class="b" d="M319.6,368.74a2.494,2.494,0,1,1-2.5,2.5A2.5,2.5,0,0,1,319.6,368.74Z" transform="translate(-317.106 -368.74)"/></g></g><g transform="translate(344.087 386.682)"><rect class="b" width="1.105" height="23.789" transform="matrix(0.866, -0.5, 0.5, 0.866, 0, 0.553)"/><g transform="translate(9.878 18.383)"><path class="b" d="M331.386,386.658a2.5,2.5,0,1,1-3.408-.912A2.5,2.5,0,0,1,331.386,386.658Z" transform="translate(-326.731 -385.411)"/></g></g><g transform="translate(342.07 407.285)"><g transform="translate(2.015)"><rect class="b" width="23.789" height="1.105" transform="translate(0 20.6) rotate(-59.989)"/></g><g transform="translate(0 18.382)"><path class="b" d="M321.76,405.824a2.494,2.494,0,1,1-.912-3.407A2.495,2.495,0,0,1,321.76,405.824Z" transform="translate(-317.105 -402.082)"/></g></g><g transform="translate(318.282 425.668)"><g transform="translate(2.494 1.942)"><rect class="b" width="23.79" height="1.105"/></g><path class="b" d="M300.35,407.071a2.494,2.494,0,1,1,2.5-2.494A2.495,2.495,0,0,1,300.35,407.071Z" transform="translate(-297.856 -402.082)"/></g><g transform="translate(270.703 384.464)"><g transform="translate(2.017 2.219)"><rect class="b" width="1.105" height="23.789" transform="matrix(0.866, -0.5, 0.5, 0.866, 0, 0.553)"/></g><path class="b" d="M259.69,372.481a2.494,2.494,0,1,1,3.408.914A2.493,2.493,0,0,1,259.69,372.481Z" transform="translate(-259.355 -368.74)"/></g><g transform="translate(308.403 366.079)"><rect class="b" width="1.105" height="23.79" transform="translate(0 0.552) rotate(-30.001)"/><g transform="translate(9.878 18.384)"><path class="b" d="M302.51,369.987a2.494,2.494,0,1,1-3.407-.912A2.495,2.495,0,0,1,302.51,369.987Z" transform="translate(-297.855 -368.74)"/></g></g><g transform="translate(306.386 386.683)"><g transform="translate(2.015)"><rect class="b" width="23.789" height="1.105" transform="translate(0 20.6) rotate(-59.989)"/></g><g transform="translate(0 18.382)"><path class="b" d="M292.885,389.153a2.495,2.495,0,1,1-.912-3.407A2.495,2.495,0,0,1,292.885,389.153Z" transform="translate(-288.23 -385.411)"/></g></g><g transform="translate(282.597 405.066)"><g transform="translate(2.496 1.942)"><rect class="b" width="23.788" height="1.105"/></g><path class="b" d="M271.475,390.4a2.494,2.494,0,1,1,2.5-2.494A2.5,2.5,0,0,1,271.475,390.4Z" transform="translate(-268.98 -385.411)"/></g><g transform="translate(272.72 386.682)"><rect class="b" width="1.105" height="23.789" transform="matrix(0.866, -0.5, 0.5, 0.866, 0, 0.553)"/><g transform="translate(9.878 18.383)"><path class="b" d="M273.635,386.658a2.495,2.495,0,1,1-3.407-.912A2.495,2.495,0,0,1,273.635,386.658Z" transform="translate(-268.98 -385.411)"/></g></g><g transform="translate(270.703 407.285)"><g transform="translate(2.015)"><rect class="b" width="23.789" height="1.105" transform="translate(0 20.6) rotate(-59.989)"/></g><g transform="translate(0 18.382)"><path class="b" d="M264.01,405.824a2.494,2.494,0,1,1-.912-3.407A2.495,2.495,0,0,1,264.01,405.824Z" transform="translate(-259.355 -402.082)"/></g></g><g transform="translate(246.914 425.668)"><g transform="translate(2.495 1.942)"><rect class="b" width="23.789" height="1.105"/></g><path class="b" d="M242.6,407.071a2.494,2.494,0,1,1,2.5-2.494A2.5,2.5,0,0,1,242.6,407.071Z" transform="translate(-240.105 -402.082)"/></g><g transform="translate(593.871 425.667)"><g transform="translate(0 2.22)"><rect class="b" width="23.789" height="1.105" transform="translate(0 20.6) rotate(-59.989)"/></g><g transform="translate(9.88)"><path class="b" d="M529.192,403.33a2.494,2.494,0,1,1,.913,3.407A2.494,2.494,0,0,1,529.192,403.33Z" transform="translate(-528.857 -402.082)"/></g></g><g transform="translate(606.246 425.668)"><g transform="translate(0 1.942)"><rect class="b" width="23.789" height="1.105"/></g><g transform="translate(21.294)"><path class="b" d="M550.6,402.082a2.494,2.494,0,1,1-2.495,2.5A2.5,2.5,0,0,1,550.6,402.082Z" transform="translate(-548.107 -402.082)"/></g></g><g transform="translate(556.173 425.667)"><g transform="translate(2.017 2.219)"><rect class="b" width="1.104" height="23.79" transform="translate(0 0.552) rotate(-29.999)"/></g><g transform="translate(0)"><path class="b" d="M490.692,405.824a2.494,2.494,0,1,1,3.407.913A2.493,2.493,0,0,1,490.692,405.824Z" transform="translate(-490.357 -402.082)"/></g></g><g transform="translate(558.183 405.065)"><g transform="translate(0 2.223)"><rect class="b" width="23.789" height="1.104" transform="matrix(0.501, -0.866, 0.866, 0.501, 0, 20.594)"/></g><g transform="translate(9.884)"><path class="b" d="M500.317,386.658a2.495,2.495,0,1,1,.912,3.408A2.494,2.494,0,0,1,500.317,386.658Z" transform="translate(-499.982 -385.411)"/></g></g><g transform="translate(570.563 405.066)"><g transform="translate(0 1.942)"><rect class="b" width="23.789" height="1.105"/></g><g transform="translate(21.294)"><path class="b" d="M521.727,385.411a2.494,2.494,0,1,1-2.5,2.5A2.494,2.494,0,0,1,521.727,385.411Z" transform="translate(-519.232 -385.411)"/></g></g><g transform="translate(593.874 407.284)"><g transform="translate(0)"><rect class="b" width="1.105" height="23.788" transform="matrix(0.866, -0.5, 0.5, 0.866, 0, 0.553)"/></g><g transform="translate(9.877 18.383)"><path class="b" d="M533.512,403.33a2.494,2.494,0,1,1-3.407-.913A2.493,2.493,0,0,1,533.512,403.33Z" transform="translate(-528.857 -402.082)"/></g></g><g transform="translate(591.857 427.887)"><g transform="translate(2.015)"><rect class="b" width="23.789" height="1.105" transform="translate(0 20.6) rotate(-59.989)"/></g><g transform="translate(0 18.382)"><path class="b" d="M523.887,422.495a2.494,2.494,0,1,1-.913-3.408A2.5,2.5,0,0,1,523.887,422.495Z" transform="translate(-519.232 -418.753)"/></g></g><g transform="translate(568.068 446.269)"><g transform="translate(2.495 1.942)"><rect class="b" width="23.789" height="1.107"/></g><path class="b" d="M502.477,423.742a2.494,2.494,0,1,1,2.5-2.5A2.494,2.494,0,0,1,502.477,423.742Z" transform="translate(-499.982 -418.753)"/></g><g transform="translate(520.489 446.27)"><g transform="translate(2.016 2.219)"><rect class="b" width="1.105" height="23.788" transform="translate(0 0.553) rotate(-30.002)"/></g><path class="b" d="M461.817,422.495a2.494,2.494,0,1,1,3.407.913A2.495,2.495,0,0,1,461.817,422.495Z" transform="translate(-461.482 -418.753)"/></g><g transform="translate(522.503 425.667)"><g transform="translate(0 2.22)"><rect class="b" width="23.79" height="1.105" transform="translate(0 20.6) rotate(-59.989)"/></g><g transform="translate(9.881)"><path class="b" d="M471.442,403.33a2.494,2.494,0,1,1,.912,3.407A2.493,2.493,0,0,1,471.442,403.33Z" transform="translate(-471.107 -402.082)"/></g></g><g transform="translate(534.879 425.668)"><g transform="translate(0 1.942)"><rect class="b" width="23.789" height="1.105"/></g><g transform="translate(21.294)"><path class="b" d="M492.852,402.082a2.494,2.494,0,1,1-2.5,2.5A2.5,2.5,0,0,1,492.852,402.082Z" transform="translate(-490.357 -402.082)"/></g></g><g transform="translate(558.19 427.886)"><rect class="b" width="1.104" height="23.79" transform="translate(0 0.552) rotate(-29.999)"/><g transform="translate(9.877 18.384)"><path class="b" d="M504.637,420a2.494,2.494,0,1,1-3.408-.914A2.495,2.495,0,0,1,504.637,420Z" transform="translate(-499.982 -418.753)"/></g></g><g transform="translate(556.173 448.493)"><g transform="translate(2.01)"><rect class="b" width="23.788" height="1.105" transform="matrix(0.501, -0.866, 0.866, 0.501, 0, 20.593)"/></g><g transform="translate(0 18.379)"><path class="b" d="M495.012,439.166a2.494,2.494,0,1,1-.913-3.407A2.5,2.5,0,0,1,495.012,439.166Z" transform="translate(-490.357 -435.425)"/></g></g><g transform="translate(484.806 405.065)"><g transform="translate(0 20.602)"><g transform="translate(2.017 2.219)"><rect class="b" width="1.105" height="23.79" transform="translate(0 0.552) rotate(-29.999)"/></g><path class="b" d="M432.942,405.824a2.494,2.494,0,1,1,3.407.913A2.494,2.494,0,0,1,432.942,405.824Z" transform="translate(-432.607 -402.082)"/></g><g transform="translate(2.015)"><g transform="translate(0 2.22)"><rect class="b" width="23.789" height="1.105" transform="translate(0 20.599) rotate(-59.989)"/></g><g transform="translate(9.88)"><path class="b" d="M442.567,386.658a2.495,2.495,0,1,1,.912,3.408A2.493,2.493,0,0,1,442.567,386.658Z" transform="translate(-442.232 -385.411)"/></g></g><g transform="translate(14.389 0)"><g transform="translate(0 1.942)"><rect class="b" width="23.789" height="1.105"/></g><g transform="translate(21.295)"><path class="b" d="M463.977,385.411a2.494,2.494,0,1,1-2.5,2.5A2.494,2.494,0,0,1,463.977,385.411Z" transform="translate(-461.482 -385.411)"/></g></g><g transform="translate(37.7 2.219)"><rect class="b" width="1.105" height="23.789" transform="matrix(0.866, -0.5, 0.5, 0.866, 0, 0.553)"/><g transform="translate(9.878 18.383)"><path class="b" d="M475.762,403.33a2.494,2.494,0,1,1-3.408-.913A2.494,2.494,0,0,1,475.762,403.33Z" transform="translate(-471.107 -402.082)"/></g></g><g transform="translate(35.684 22.822)"><g transform="translate(2.014)"><rect class="b" width="23.79" height="1.105" transform="translate(0 20.6) rotate(-59.989)"/></g><g transform="translate(0 18.383)"><path class="b" d="M466.137,422.495a2.494,2.494,0,1,1-.913-3.408A2.5,2.5,0,0,1,466.137,422.495Z" transform="translate(-461.482 -418.753)"/></g></g><g transform="translate(11.893 41.204)"><g transform="translate(2.495 1.942)"><rect class="b" width="23.789" height="1.107"/></g><path class="b" d="M444.727,423.742a2.494,2.494,0,1,1,2.494-2.5A2.5,2.5,0,0,1,444.727,423.742Z" transform="translate(-442.231 -418.753)"/></g></g><g transform="translate(449.121 446.27)"><g transform="translate(2.017 2.219)"><rect class="b" width="1.105" height="23.788" transform="translate(0 0.553) rotate(-30.002)"/></g><path class="b" d="M404.066,422.495a2.494,2.494,0,1,1,3.408.913A2.494,2.494,0,0,1,404.066,422.495Z" transform="translate(-403.731 -418.753)"/></g><g transform="translate(451.136 425.667)"><g transform="translate(0 2.22)"><rect class="b" width="23.79" height="1.105" transform="translate(0 20.6) rotate(-59.989)"/></g><g transform="translate(9.879)"><path class="b" d="M413.691,403.33a2.494,2.494,0,1,1,.913,3.407A2.494,2.494,0,0,1,413.691,403.33Z" transform="translate(-413.356 -402.082)"/></g></g><g transform="translate(463.511 425.668)"><g transform="translate(0 1.942)"><rect class="b" width="23.79" height="1.105"/></g><g transform="translate(21.294)"><path class="b" d="M435.1,402.082a2.494,2.494,0,1,1-2.5,2.5A2.495,2.495,0,0,1,435.1,402.082Z" transform="translate(-432.606 -402.082)"/></g></g><g transform="translate(486.823 427.886)"><rect class="b" width="1.105" height="23.79" transform="translate(0 0.552) rotate(-29.999)"/><g transform="translate(9.878 18.383)"><path class="b" d="M446.887,420a2.494,2.494,0,1,1-3.408-.914A2.494,2.494,0,0,1,446.887,420Z" transform="translate(-442.232 -418.753)"/></g></g><g transform="translate(484.806 448.49)"><g transform="translate(2.015)"><rect class="b" width="23.788" height="1.105" transform="translate(0 20.599) rotate(-59.989)"/></g><g transform="translate(0 18.382)"><path class="b" d="M437.262,439.166a2.494,2.494,0,1,1-.913-3.407A2.5,2.5,0,0,1,437.262,439.166Z" transform="translate(-432.607 -435.425)"/></g></g><g transform="translate(413.438 405.065)"><g transform="translate(0 20.602)"><g transform="translate(2.016 2.218)"><rect class="b" width="1.105" height="23.79" transform="translate(0 0.553) rotate(-29.999)"/></g><path class="b" d="M375.191,405.824a2.494,2.494,0,1,1,3.407.913A2.493,2.493,0,0,1,375.191,405.824Z" transform="translate(-374.856 -402.082)"/></g><g transform="translate(2.014)"><g transform="translate(0 2.22)"><rect class="b" width="23.789" height="1.105" transform="translate(0 20.6) rotate(-59.989)"/></g><g transform="translate(9.88)"><path class="b" d="M384.816,386.658a2.495,2.495,0,1,1,.913,3.408A2.494,2.494,0,0,1,384.816,386.658Z" transform="translate(-384.481 -385.411)"/></g></g><g transform="translate(14.39 0)"><g transform="translate(0 1.942)"><rect class="b" width="23.789" height="1.105"/></g><g transform="translate(21.294)"><path class="b" d="M406.226,385.411a2.494,2.494,0,1,1-2.5,2.5A2.5,2.5,0,0,1,406.226,385.411Z" transform="translate(-403.731 -385.411)"/></g></g><g transform="translate(37.701 2.219)"><rect class="b" width="1.105" height="23.789" transform="matrix(0.866, -0.5, 0.5, 0.866, 0, 0.553)"/><g transform="translate(9.877 18.383)"><path class="b" d="M418.011,403.33a2.494,2.494,0,1,1-3.407-.913A2.493,2.493,0,0,1,418.011,403.33Z" transform="translate(-413.356 -402.082)"/></g></g><g transform="translate(35.684 22.822)"><g transform="translate(2.015)"><rect class="b" width="23.79" height="1.105" transform="translate(0 20.6) rotate(-59.989)"/></g><g transform="translate(0 18.383)"><path class="b" d="M408.386,422.495a2.494,2.494,0,1,1-.912-3.408A2.5,2.5,0,0,1,408.386,422.495Z" transform="translate(-403.731 -418.753)"/></g></g><g transform="translate(11.895 41.204)"><g transform="translate(2.495 1.942)"><rect class="b" width="23.789" height="1.107"/></g><path class="b" d="M386.976,423.742a2.494,2.494,0,1,1,2.5-2.5A2.5,2.5,0,0,1,386.976,423.742Z" transform="translate(-384.481 -418.753)"/></g></g><g transform="translate(377.754 425.667)"><g transform="translate(0 20.602)"><g transform="translate(2.017 2.219)"><rect class="b" width="1.105" height="23.788" transform="translate(0 0.553) rotate(-30.002)"/></g><path class="b" d="M346.316,422.495a2.494,2.494,0,1,1,3.407.913A2.495,2.495,0,0,1,346.316,422.495Z" transform="translate(-345.981 -418.753)"/></g><g transform="translate(2.015)"><g transform="translate(0 2.22)"><rect class="b" width="23.79" height="1.105" transform="translate(0 20.6) rotate(-59.989)"/></g><g transform="translate(9.879)"><path class="b" d="M355.941,403.33a2.494,2.494,0,1,1,.913,3.407A2.493,2.493,0,0,1,355.941,403.33Z" transform="translate(-355.606 -402.082)"/></g></g><g transform="translate(14.39 0)"><g transform="translate(0 1.942)"><rect class="b" width="23.789" height="1.105"/></g><g transform="translate(21.294)"><path class="b" d="M377.351,402.082a2.494,2.494,0,1,1-2.5,2.5A2.5,2.5,0,0,1,377.351,402.082Z" transform="translate(-374.856 -402.082)"/></g></g><g transform="translate(37.7 2.218)"><rect class="b" width="1.105" height="23.79" transform="translate(0 0.553) rotate(-29.999)"/><g transform="translate(9.878 18.384)"><path class="b" d="M389.136,420a2.494,2.494,0,1,1-3.407-.914A2.493,2.493,0,0,1,389.136,420Z" transform="translate(-384.481 -418.753)"/></g></g><g transform="translate(35.684 22.822)"><g transform="translate(2.014)"><rect class="b" width="23.788" height="1.105" transform="translate(0 20.599) rotate(-59.989)"/></g><g transform="translate(0 18.382)"><path class="b" d="M379.511,439.166a2.494,2.494,0,1,1-.913-3.407A2.494,2.494,0,0,1,379.511,439.166Z" transform="translate(-374.856 -435.425)"/></g></g><g transform="translate(11.895 41.205)"><g transform="translate(2.495 1.94)"><rect class="b" width="23.789" height="1.107"/></g><path class="b" d="M358.1,440.413a2.494,2.494,0,1,1,2.5-2.494A2.494,2.494,0,0,1,358.1,440.413Z" transform="translate(-355.606 -435.425)"/></g></g><g transform="translate(342.07 405.065)"><g transform="translate(0 20.602)"><g transform="translate(2.017 2.218)"><rect class="b" width="1.105" height="23.79" transform="translate(0 0.553) rotate(-29.999)"/></g><path class="b" d="M317.44,405.824a2.494,2.494,0,1,1,3.408.913A2.494,2.494,0,0,1,317.44,405.824Z" transform="translate(-317.105 -402.082)"/></g><g transform="translate(2.015)"><g transform="translate(0 2.22)"><rect class="b" width="23.789" height="1.105" transform="translate(0 20.6) rotate(-59.989)"/></g><g transform="translate(9.88)"><path class="b" d="M327.065,386.658a2.5,2.5,0,1,1,.913,3.408A2.5,2.5,0,0,1,327.065,386.658Z" transform="translate(-326.731 -385.411)"/></g></g><g transform="translate(14.39 0)"><g transform="translate(0 1.942)"><rect class="b" width="23.789" height="1.105"/></g><g transform="translate(21.294)"><path class="b" d="M348.476,385.411a2.494,2.494,0,1,1-2.5,2.5A2.5,2.5,0,0,1,348.476,385.411Z" transform="translate(-345.981 -385.411)"/></g></g><g transform="translate(37.701 2.219)"><rect class="b" width="1.105" height="23.789" transform="matrix(0.866, -0.5, 0.5, 0.866, 0, 0.553)"/><g transform="translate(9.877 18.383)"><path class="b" d="M360.261,403.33a2.494,2.494,0,1,1-3.407-.913A2.493,2.493,0,0,1,360.261,403.33Z" transform="translate(-355.606 -402.082)"/></g></g><g transform="translate(35.684 22.822)"><g transform="translate(2.015)"><rect class="b" width="23.79" height="1.105" transform="translate(0 20.6) rotate(-59.989)"/></g><g transform="translate(0 18.383)"><path class="b" d="M350.636,422.495a2.494,2.494,0,1,1-.913-3.408A2.5,2.5,0,0,1,350.636,422.495Z" transform="translate(-345.981 -418.753)"/></g></g><g transform="translate(11.895 41.204)"><g transform="translate(2.495 1.942)"><rect class="b" width="23.789" height="1.107"/></g><path class="b" d="M329.226,423.742a2.494,2.494,0,1,1,2.5-2.5A2.494,2.494,0,0,1,329.226,423.742Z" transform="translate(-326.731 -418.753)"/></g></g><g transform="translate(306.386 425.667)"><g transform="translate(0 20.602)"><g transform="translate(2.016 2.22)"><rect class="b" width="1.105" height="23.789" transform="translate(0 0.553) rotate(-30.004)"/></g><path class="b" d="M288.565,422.495a2.494,2.494,0,1,1,3.408.913A2.5,2.5,0,0,1,288.565,422.495Z" transform="translate(-288.23 -418.753)"/></g><g transform="translate(2.014)"><g transform="translate(0 2.22)"><rect class="b" width="23.79" height="1.105" transform="translate(0 20.601) rotate(-59.989)"/></g><g transform="translate(9.88)"><path class="b" d="M298.19,403.33a2.494,2.494,0,1,1,.913,3.407A2.494,2.494,0,0,1,298.19,403.33Z" transform="translate(-297.855 -402.082)"/></g></g><g transform="translate(14.389 0)"><g transform="translate(0 1.942)"><rect class="b" width="23.79" height="1.105"/></g><g transform="translate(21.295)"><path class="b" d="M319.6,402.082a2.494,2.494,0,1,1-2.5,2.5A2.5,2.5,0,0,1,319.6,402.082Z" transform="translate(-317.106 -402.082)"/></g></g><g transform="translate(37.7 2.218)"><rect class="b" width="1.105" height="23.79" transform="translate(0 0.553) rotate(-29.999)"/><g transform="translate(9.878 18.384)"><path class="b" d="M331.386,420a2.495,2.495,0,1,1-3.408-.914A2.494,2.494,0,0,1,331.386,420Z" transform="translate(-326.731 -418.753)"/></g></g><g transform="translate(35.684 22.822)"><g transform="translate(2.015)"><rect class="b" width="23.788" height="1.105" transform="translate(0 20.599) rotate(-59.989)"/></g><g transform="translate(0 18.382)"><path class="b" d="M321.76,439.166a2.494,2.494,0,1,1-.912-3.407A2.494,2.494,0,0,1,321.76,439.166Z" transform="translate(-317.105 -435.425)"/></g></g><g transform="translate(11.895 41.205)"><g transform="translate(2.494 1.94)"><rect class="b" width="23.79" height="1.107"/></g><path class="b" d="M300.35,440.413a2.494,2.494,0,1,1,2.5-2.494A2.494,2.494,0,0,1,300.35,440.413Z" transform="translate(-297.856 -435.425)"/></g></g><g transform="translate(270.703 405.065)"><g transform="translate(0 20.602)"><g transform="translate(2.017 2.218)"><rect class="b" width="1.105" height="23.79" transform="translate(0 0.553) rotate(-29.999)"/></g><path class="b" d="M259.69,405.824a2.494,2.494,0,1,1,3.408.913A2.494,2.494,0,0,1,259.69,405.824Z" transform="translate(-259.355 -402.082)"/></g><g transform="translate(2.015)"><g transform="translate(0 2.22)"><rect class="b" width="23.789" height="1.105" transform="translate(0 20.6) rotate(-59.989)"/></g><g transform="translate(9.88)"><path class="b" d="M269.315,386.658a2.495,2.495,0,1,1,.913,3.408A2.495,2.495,0,0,1,269.315,386.658Z" transform="translate(-268.98 -385.411)"/></g></g><g transform="translate(14.39 0)"><g transform="translate(0 1.942)"><rect class="b" width="23.788" height="1.105"/></g><g transform="translate(21.294)"><path class="b" d="M290.725,385.411a2.494,2.494,0,1,1-2.494,2.5A2.5,2.5,0,0,1,290.725,385.411Z" transform="translate(-288.231 -385.411)"/></g></g><g transform="translate(37.7 2.219)"><rect class="b" width="1.105" height="23.789" transform="matrix(0.866, -0.5, 0.5, 0.866, 0, 0.552)"/><g transform="translate(9.878 18.383)"><path class="b" d="M302.51,403.33a2.494,2.494,0,1,1-3.407-.913A2.493,2.493,0,0,1,302.51,403.33Z" transform="translate(-297.855 -402.082)"/></g></g><g transform="translate(35.684 22.822)"><g transform="translate(2.014)"><rect class="b" width="23.79" height="1.105" transform="translate(0 20.601) rotate(-59.989)"/></g><g transform="translate(0 18.383)"><path class="b" d="M292.885,422.495a2.494,2.494,0,1,1-.912-3.408A2.495,2.495,0,0,1,292.885,422.495Z" transform="translate(-288.23 -418.753)"/></g></g><g transform="translate(11.894 41.204)"><g transform="translate(2.496 1.942)"><rect class="b" width="23.788" height="1.107"/></g><path class="b" d="M271.475,423.742a2.494,2.494,0,1,1,2.5-2.5A2.5,2.5,0,0,1,271.475,423.742Z" transform="translate(-268.98 -418.753)"/></g></g><g transform="translate(235.019 446.27)"><g transform="translate(2.017 2.22)"><rect class="b" width="1.104" height="23.788" transform="translate(0 0.552) rotate(-30.002)"/></g><path class="b" d="M230.815,422.495a2.494,2.494,0,1,1,3.407.913A2.495,2.495,0,0,1,230.815,422.495Z" transform="translate(-230.48 -418.753)"/></g><g transform="translate(237.028 425.667)"><g transform="translate(0 2.223)"><rect class="b" width="23.79" height="1.104" transform="translate(0 20.594) rotate(-59.957)"/></g><g transform="translate(9.885)"><path class="b" d="M240.44,403.33a2.494,2.494,0,1,1,.912,3.407A2.494,2.494,0,0,1,240.44,403.33Z" transform="translate(-240.105 -402.082)"/></g></g><g transform="translate(249.409 425.668)"><g transform="translate(0 1.942)"><rect class="b" width="23.789" height="1.105"/></g><g transform="translate(21.294)"><path class="b" d="M261.85,402.082a2.494,2.494,0,1,1-2.5,2.5A2.5,2.5,0,0,1,261.85,402.082Z" transform="translate(-259.355 -402.082)"/></g></g><g transform="translate(272.72 427.886)"><rect class="b" width="1.105" height="23.79" transform="translate(0 0.553) rotate(-29.999)"/><g transform="translate(9.878 18.384)"><path class="b" d="M273.635,420a2.494,2.494,0,1,1-3.407-.914A2.494,2.494,0,0,1,273.635,420Z" transform="translate(-268.98 -418.753)"/></g></g><g transform="translate(270.703 448.49)"><g transform="translate(2.015)"><rect class="b" width="23.788" height="1.105" transform="translate(0 20.599) rotate(-59.989)"/></g><g transform="translate(0 18.382)"><path class="b" d="M264.01,439.166a2.494,2.494,0,1,1-.912-3.407A2.494,2.494,0,0,1,264.01,439.166Z" transform="translate(-259.355 -435.425)"/></g></g><g transform="translate(246.914 466.873)"><g transform="translate(2.495 1.94)"><rect class="b" width="23.789" height="1.107"/></g><path class="b" d="M242.6,440.413a2.494,2.494,0,1,1,2.5-2.494A2.495,2.495,0,0,1,242.6,440.413Z" transform="translate(-240.105 -435.425)"/></g><g transform="translate(235.019 427.89)"><g transform="translate(2.009)"><rect class="b" width="23.79" height="1.104" transform="translate(0 20.594) rotate(-59.957)"/></g><g transform="translate(0 18.379)"><path class="b" d="M235.135,422.495a2.494,2.494,0,1,1-.913-3.408A2.5,2.5,0,0,1,235.135,422.495Z" transform="translate(-230.48 -418.753)"/></g></g><g transform="translate(211.23 446.269)"><g transform="translate(2.495 1.942)"><rect class="b" width="23.789" height="1.107"/></g><path class="b" d="M213.725,423.742a2.494,2.494,0,1,1,2.5-2.5A2.494,2.494,0,0,1,213.725,423.742Z" transform="translate(-211.23 -418.753)"/></g><g transform="translate(558.183 446.27)"><g transform="translate(0 2.223)"><rect class="b" width="23.788" height="1.105" transform="matrix(0.501, -0.866, 0.866, 0.501, 0, 20.593)"/></g><g transform="translate(9.884)"><path class="b" d="M500.317,420a2.494,2.494,0,1,1,.912,3.407A2.5,2.5,0,0,1,500.317,420Z" transform="translate(-499.982 -418.753)"/></g></g><g transform="translate(570.563 446.269)"><g transform="translate(0 1.942)"><rect class="b" width="23.789" height="1.107"/></g><g transform="translate(21.294)"><path class="b" d="M521.727,418.753a2.494,2.494,0,1,1-2.5,2.494A2.495,2.495,0,0,1,521.727,418.753Z" transform="translate(-519.232 -418.753)"/></g></g><g transform="translate(486.821 446.27)"><g transform="translate(0 2.22)"><rect class="b" width="23.788" height="1.105" transform="translate(0 20.599) rotate(-59.989)"/></g><g transform="translate(9.88)"><path class="b" d="M442.567,420a2.494,2.494,0,1,1,.912,3.407A2.5,2.5,0,0,1,442.567,420Z" transform="translate(-442.232 -418.753)"/></g></g><g transform="translate(499.194 446.269)"><g transform="translate(0 1.942)"><rect class="b" width="23.789" height="1.107"/></g><g transform="translate(21.295)"><path class="b" d="M463.977,418.753a2.494,2.494,0,1,1-2.5,2.494A2.495,2.495,0,0,1,463.977,418.753Z" transform="translate(-461.482 -418.753)"/></g></g><g transform="translate(522.505 448.489)"><rect class="b" width="1.105" height="23.788" transform="translate(0 0.553) rotate(-30.002)"/><g transform="translate(9.879 18.383)"><path class="b" d="M475.762,436.672a2.494,2.494,0,1,1-3.408-.913A2.494,2.494,0,0,1,475.762,436.672Z" transform="translate(-471.107 -435.425)"/></g></g><g transform="translate(413.438 466.872)"><g transform="translate(2.016 2.217)"><path class="b" d="M377.444,437.219l11.895,20.6-.957.554-11.895-20.6Z" transform="translate(-376.487 -437.219)"/></g><path class="b" d="M375.191,439.166a2.494,2.494,0,1,1,3.407.913A2.493,2.493,0,0,1,375.191,439.166Z" transform="translate(-374.856 -435.425)"/></g><g transform="translate(415.452 446.27)"><g transform="translate(0 2.22)"><rect class="b" width="23.788" height="1.105" transform="translate(0 20.599) rotate(-59.989)"/></g><g transform="translate(9.88)"><path class="b" d="M384.816,420a2.494,2.494,0,1,1,.913,3.407A2.5,2.5,0,0,1,384.816,420Z" transform="translate(-384.481 -418.753)"/></g></g><g transform="translate(427.827 446.269)"><g transform="translate(0 1.942)"><rect class="b" width="23.789" height="1.107"/></g><g transform="translate(21.294)"><path class="b" d="M406.226,418.753a2.494,2.494,0,1,1-2.5,2.494A2.5,2.5,0,0,1,406.226,418.753Z" transform="translate(-403.731 -418.753)"/></g></g><g transform="translate(451.138 448.489)"><rect class="b" width="1.105" height="23.788" transform="translate(0 0.553) rotate(-30.002)"/><g transform="translate(9.878 18.383)"><path class="b" d="M418.011,436.672a2.494,2.494,0,1,1-3.407-.913A2.493,2.493,0,0,1,418.011,436.672Z" transform="translate(-413.356 -435.425)"/></g></g><g transform="translate(379.772 466.872)"><g transform="translate(0 2.217)"><path class="b" d="M359.508,437.219l.957.554-11.895,20.6-.957-.554Z" transform="translate(-347.613 -437.219)"/></g><g transform="translate(9.877)"><path class="b" d="M355.941,436.672a2.494,2.494,0,1,1,.913,3.407A2.5,2.5,0,0,1,355.941,436.672Z" transform="translate(-355.606 -435.425)"/></g></g><g transform="translate(392.144 466.873)"><g transform="translate(0 1.94)"><rect class="b" width="23.789" height="1.107"/></g><g transform="translate(21.294)"><path class="b" d="M377.351,435.425a2.494,2.494,0,1,1-2.5,2.494A2.495,2.495,0,0,1,377.351,435.425Z" transform="translate(-374.856 -435.425)"/></g></g><g transform="translate(415.454 469.089)"><path class="b" d="M377.444,437.219l11.895,20.6-.957.554-11.895-20.6Z" transform="translate(-376.487 -437.219)"/><g transform="translate(9.878 18.385)"><path class="b" d="M389.136,453.342a2.495,2.495,0,1,1-3.407-.912A2.494,2.494,0,0,1,389.136,453.342Z" transform="translate(-384.481 -452.096)"/></g></g><g transform="translate(342.07 466.872)"><g transform="translate(2.017 2.217)"><path class="b" d="M319.694,437.219l11.895,20.6-.957.554-11.895-20.6Z" transform="translate(-318.737 -437.219)"/></g><path class="b" d="M317.44,439.166a2.494,2.494,0,1,1,3.408.913A2.494,2.494,0,0,1,317.44,439.166Z" transform="translate(-317.105 -435.425)"/></g><g transform="translate(344.085 446.27)"><g transform="translate(0 2.22)"><rect class="b" width="23.788" height="1.105" transform="translate(0 20.599) rotate(-59.989)"/></g><g transform="translate(9.88)"><path class="b" d="M327.065,420a2.495,2.495,0,1,1,.913,3.407A2.5,2.5,0,0,1,327.065,420Z" transform="translate(-326.731 -418.753)"/></g></g><g transform="translate(356.46 446.269)"><g transform="translate(0 1.942)"><rect class="b" width="23.789" height="1.107"/></g><g transform="translate(21.294)"><path class="b" d="M348.476,418.753a2.494,2.494,0,1,1-2.5,2.494A2.5,2.5,0,0,1,348.476,418.753Z" transform="translate(-345.981 -418.753)"/></g></g><g transform="translate(379.771 448.489)"><rect class="b" width="1.105" height="23.788" transform="translate(0 0.553) rotate(-30.002)"/><g transform="translate(9.878 18.383)"><path class="b" d="M360.261,436.672a2.494,2.494,0,1,1-3.407-.913A2.493,2.493,0,0,1,360.261,436.672Z" transform="translate(-355.606 -435.425)"/></g></g><g transform="translate(377.754 469.089)"><g transform="translate(2.017)"><path class="b" d="M359.508,437.219l.957.554-11.895,20.6-.957-.554Z" transform="translate(-347.613 -437.219)"/></g><g transform="translate(0 18.385)"><path class="b" d="M350.636,455.837a2.495,2.495,0,1,1-.913-3.407A2.494,2.494,0,0,1,350.636,455.837Z" transform="translate(-345.981 -452.096)"/></g></g><g transform="translate(353.965 487.474)"><g transform="translate(2.495 1.94)"><rect class="b" width="23.789" height="1.105"/></g><path class="b" d="M329.226,457.085a2.494,2.494,0,1,1,2.5-2.5A2.5,2.5,0,0,1,329.226,457.085Z" transform="translate(-326.731 -452.096)"/></g><g transform="translate(306.386 466.872)"><g transform="translate(0 20.602)"><g transform="translate(2.016 2.218)"><rect class="b" width="1.105" height="23.79" transform="translate(0 0.552) rotate(-30.001)"/></g><path class="b" d="M288.565,455.837a2.495,2.495,0,1,1,3.408.913A2.494,2.494,0,0,1,288.565,455.837Z" transform="translate(-288.23 -452.096)"/></g><g transform="translate(2.017)"><g transform="translate(0 2.217)"><path class="b" d="M301.757,437.219l.957.554-11.9,20.6-.956-.554Z" transform="translate(-289.862 -437.219)"/></g><g transform="translate(9.878)"><path class="b" d="M298.19,436.672a2.494,2.494,0,1,1,.913,3.407A2.5,2.5,0,0,1,298.19,436.672Z" transform="translate(-297.855 -435.425)"/></g></g><g transform="translate(14.389 0.001)"><g transform="translate(0 1.94)"><rect class="b" width="23.79" height="1.107"/></g><g transform="translate(21.295)"><path class="b" d="M319.6,435.425a2.494,2.494,0,1,1-2.5,2.494A2.495,2.495,0,0,1,319.6,435.425Z" transform="translate(-317.106 -435.425)"/></g></g><g transform="translate(37.7 2.217)"><path class="b" d="M319.694,437.219l11.895,20.6-.957.554-11.895-20.6Z" transform="translate(-318.737 -437.219)"/><g transform="translate(9.878 18.385)"><path class="b" d="M331.386,453.342a2.5,2.5,0,1,1-3.408-.912A2.5,2.5,0,0,1,331.386,453.342Z" transform="translate(-326.731 -452.096)"/></g></g><g transform="translate(35.684 22.826)"><g transform="translate(2.005)"><rect class="b" width="23.789" height="1.105" transform="matrix(0.501, -0.865, 0.865, 0.501, 0, 20.588)"/></g><g transform="translate(0 18.377)"><path class="b" d="M321.76,472.509a2.495,2.495,0,1,1-.912-3.408A2.493,2.493,0,0,1,321.76,472.509Z" transform="translate(-317.105 -468.766)"/></g></g><g transform="translate(11.895 41.204)"><g transform="translate(2.494 1.941)"><rect class="b" width="23.79" height="1.105"/></g><path class="b" d="M300.35,473.756a2.494,2.494,0,1,1,2.5-2.5A2.495,2.495,0,0,1,300.35,473.756Z" transform="translate(-297.856 -468.767)"/></g></g><g transform="translate(270.703 446.269)"><g transform="translate(0 20.603)"><g transform="translate(2.017 2.217)"><path class="b" d="M261.944,437.219l11.895,20.6-.957.554-11.895-20.6Z" transform="translate(-260.987 -437.219)"/></g><path class="b" d="M259.69,439.166a2.494,2.494,0,1,1,3.408.913A2.494,2.494,0,0,1,259.69,439.166Z" transform="translate(-259.355 -435.425)"/></g><g transform="translate(2.015 0)"><g transform="translate(0 2.22)"><rect class="b" width="23.788" height="1.105" transform="translate(0 20.599) rotate(-59.989)"/></g><g transform="translate(9.88)"><path class="b" d="M269.315,420a2.494,2.494,0,1,1,.913,3.407A2.5,2.5,0,0,1,269.315,420Z" transform="translate(-268.98 -418.753)"/></g></g><g transform="translate(14.39)"><g transform="translate(0 1.942)"><rect class="b" width="23.788" height="1.107"/></g><g transform="translate(21.294)"><path class="b" d="M290.725,418.753a2.494,2.494,0,1,1-2.494,2.494A2.5,2.5,0,0,1,290.725,418.753Z" transform="translate(-288.231 -418.753)"/></g></g><g transform="translate(37.699 2.22)"><rect class="b" width="1.105" height="23.789" transform="translate(0 0.553) rotate(-30.004)"/><g transform="translate(9.879 18.383)"><path class="b" d="M302.51,436.672a2.494,2.494,0,1,1-3.407-.913A2.494,2.494,0,0,1,302.51,436.672Z" transform="translate(-297.855 -435.425)"/></g></g><g transform="translate(35.684 22.82)"><g transform="translate(2.017)"><path class="b" d="M301.757,437.219l.957.554-11.9,20.6-.956-.554Z" transform="translate(-289.862 -437.219)"/></g><g transform="translate(0 18.385)"><path class="b" d="M292.885,455.837a2.495,2.495,0,1,1-.912-3.407A2.493,2.493,0,0,1,292.885,455.837Z" transform="translate(-288.23 -452.096)"/></g></g><g transform="translate(11.894 41.205)"><g transform="translate(2.496 1.94)"><rect class="b" width="23.788" height="1.105"/></g><path class="b" d="M271.475,457.085a2.494,2.494,0,1,1,2.5-2.5A2.5,2.5,0,0,1,271.475,457.085Z" transform="translate(-268.98 -452.096)"/></g></g><g transform="translate(235.019 466.872)"><g transform="translate(0 20.602)"><g transform="translate(2.017 2.218)"><rect class="b" width="1.104" height="23.789" transform="translate(0 0.552) rotate(-29.999)"/></g><path class="b" d="M230.815,455.837a2.495,2.495,0,1,1,3.407.913A2.493,2.493,0,0,1,230.815,455.837Z" transform="translate(-230.48 -452.096)"/></g><g transform="translate(2.017)"><g transform="translate(0 2.217)"><path class="b" d="M244.007,437.219l.956.554-11.895,20.6-.956-.554Z" transform="translate(-232.112 -437.219)"/></g><g transform="translate(9.877)"><path class="b" d="M240.44,436.672a2.494,2.494,0,1,1,.912,3.407A2.5,2.5,0,0,1,240.44,436.672Z" transform="translate(-240.105 -435.425)"/></g></g><g transform="translate(14.39 0.001)"><g transform="translate(0 1.94)"><rect class="b" width="23.789" height="1.107"/></g><g transform="translate(21.294)"><path class="b" d="M261.85,435.425a2.494,2.494,0,1,1-2.5,2.494A2.494,2.494,0,0,1,261.85,435.425Z" transform="translate(-259.355 -435.425)"/></g></g><g transform="translate(37.701 2.217)"><path class="b" d="M261.944,437.219l11.895,20.6-.957.554-11.895-20.6Z" transform="translate(-260.987 -437.219)"/><g transform="translate(9.878 18.385)"><path class="b" d="M273.635,453.342a2.495,2.495,0,1,1-3.407-.912A2.495,2.495,0,0,1,273.635,453.342Z" transform="translate(-268.98 -452.096)"/></g></g><g transform="translate(35.684 22.826)"><g transform="translate(2.005)"><rect class="b" width="23.789" height="1.105" transform="matrix(0.501, -0.865, 0.865, 0.501, 0, 20.588)"/></g><g transform="translate(0 18.377)"><path class="b" d="M264.01,472.509a2.495,2.495,0,1,1-.912-3.408A2.493,2.493,0,0,1,264.01,472.509Z" transform="translate(-259.355 -468.766)"/></g></g><g transform="translate(11.895 41.204)"><g transform="translate(2.495 1.941)"><rect class="b" width="23.789" height="1.105"/></g><path class="b" d="M242.6,473.756a2.494,2.494,0,1,1,2.5-2.5A2.5,2.5,0,0,1,242.6,473.756Z" transform="translate(-240.105 -468.767)"/></g></g><g transform="translate(213.725 446.269)"><g transform="translate(0 1.942)"><rect class="b" width="23.789" height="1.107"/></g><g transform="translate(21.294)"><path class="b" d="M232.975,418.753a2.494,2.494,0,1,1-2.5,2.494A2.495,2.495,0,0,1,232.975,418.753Z" transform="translate(-230.48 -418.753)"/></g></g><g transform="translate(237.036 448.489)"><rect class="b" width="1.104" height="23.788" transform="translate(0 0.552) rotate(-30.002)"/><g transform="translate(9.878 18.383)"><path class="b" d="M244.76,436.672a2.494,2.494,0,1,1-3.408-.913A2.494,2.494,0,0,1,244.76,436.672Z" transform="translate(-240.105 -435.425)"/></g></g><g transform="translate(235.019 469.089)"><g transform="translate(2.017)"><path class="b" d="M244.007,437.219l.956.554-11.895,20.6-.956-.554Z" transform="translate(-232.112 -437.219)"/></g><g transform="translate(0 18.385)"><path class="b" d="M235.135,455.837a2.495,2.495,0,1,1-.913-3.407A2.494,2.494,0,0,1,235.135,455.837Z" transform="translate(-230.48 -452.096)"/></g></g><g transform="translate(211.23 487.474)"><g transform="translate(2.495 1.94)"><rect class="b" width="23.789" height="1.105"/></g><path class="b" d="M213.725,457.085a2.494,2.494,0,1,1,2.5-2.5A2.5,2.5,0,0,1,213.725,457.085Z" transform="translate(-211.23 -452.096)"/></g><g transform="translate(342.07 508.075)"><g transform="translate(2.017 2.219)"><rect class="b" width="1.105" height="23.789" transform="matrix(0.866, -0.5, 0.5, 0.866, 0, 0.553)"/></g><path class="b" d="M317.44,472.509a2.495,2.495,0,1,1,3.408.912A2.5,2.5,0,0,1,317.44,472.509Z" transform="translate(-317.105 -468.766)"/></g><g transform="translate(344.075 487.474)"><g transform="translate(0 2.224)"><rect class="b" width="23.789" height="1.105" transform="matrix(0.501, -0.865, 0.865, 0.501, 0, 20.588)"/></g><g transform="translate(9.89)"><path class="b" d="M327.065,453.342a2.5,2.5,0,1,1,.913,3.408A2.5,2.5,0,0,1,327.065,453.342Z" transform="translate(-326.731 -452.096)"/></g></g><g transform="translate(356.46 487.474)"><g transform="translate(0 1.94)"><rect class="b" width="23.789" height="1.105"/></g><g transform="translate(21.294)"><path class="b" d="M348.476,452.1a2.494,2.494,0,1,1-2.5,2.494A2.495,2.495,0,0,1,348.476,452.1Z" transform="translate(-345.981 -452.096)"/></g></g><g transform="translate(353.965 528.678)"><g transform="translate(2.495 1.941)"><rect class="b" width="23.789" height="1.106"/></g><path class="b" d="M329.226,490.427a2.494,2.494,0,1,1,2.5-2.5A2.5,2.5,0,0,1,329.226,490.427Z" transform="translate(-326.731 -485.438)"/></g><g transform="translate(306.386 508.075)"><g transform="translate(0 20.602)"><g transform="translate(2.016 2.219)"><rect class="b" width="1.105" height="23.789" transform="matrix(0.866, -0.5, 0.5, 0.866, 0, 0.552)"/></g><path class="b" d="M288.565,489.18a2.495,2.495,0,1,1,3.408.912A2.5,2.5,0,0,1,288.565,489.18Z" transform="translate(-288.23 -485.437)"/></g><g transform="translate(2.016)"><g transform="translate(0 2.22)"><rect class="b" width="23.789" height="1.105" transform="translate(0 20.601) rotate(-59.994)"/></g><g transform="translate(9.879)"><path class="b" d="M298.19,470.014a2.495,2.495,0,1,1,.913,3.407A2.494,2.494,0,0,1,298.19,470.014Z" transform="translate(-297.855 -468.766)"/></g></g><g transform="translate(14.389 0.001)"><g transform="translate(0 1.941)"><rect class="b" width="23.79" height="1.105"/></g><g transform="translate(21.295)"><path class="b" d="M319.6,468.767a2.494,2.494,0,1,1-2.5,2.494A2.5,2.5,0,0,1,319.6,468.767Z" transform="translate(-317.106 -468.767)"/></g></g><g transform="translate(37.7 2.219)"><rect class="b" width="1.105" height="23.789" transform="matrix(0.866, -0.5, 0.5, 0.866, 0, 0.553)"/><g transform="translate(9.878 18.383)"><path class="b" d="M331.386,486.685a2.5,2.5,0,1,1-3.408-.913A2.494,2.494,0,0,1,331.386,486.685Z" transform="translate(-326.731 -485.437)"/></g></g><g transform="translate(35.684 22.821)"><g transform="translate(2.016)"><rect class="b" width="23.789" height="1.105" transform="translate(0 20.601) rotate(-59.994)"/></g><g transform="translate(0 18.383)"><path class="b" d="M321.76,505.851a2.495,2.495,0,1,1-.912-3.408A2.493,2.493,0,0,1,321.76,505.851Z" transform="translate(-317.105 -502.108)"/></g></g><g transform="translate(11.895 41.205)"><g transform="translate(2.494 1.941)"><rect class="b" width="23.79" height="1.106"/></g><path class="b" d="M300.35,507.1a2.494,2.494,0,1,1,2.5-2.5A2.495,2.495,0,0,1,300.35,507.1Z" transform="translate(-297.856 -502.109)"/></g></g><g transform="translate(270.703 487.474)"><g transform="translate(0 20.601)"><g transform="translate(2.017 2.219)"><rect class="b" width="1.105" height="23.789" transform="matrix(0.866, -0.5, 0.5, 0.866, 0, 0.553)"/></g><path class="b" d="M259.69,472.509a2.495,2.495,0,1,1,3.408.912A2.5,2.5,0,0,1,259.69,472.509Z" transform="translate(-259.355 -468.766)"/></g><g transform="translate(2.005)"><g transform="translate(0 2.224)"><rect class="b" width="23.789" height="1.105" transform="matrix(0.501, -0.865, 0.865, 0.501, 0, 20.588)"/></g><g transform="translate(9.89)"><path class="b" d="M269.315,453.342a2.495,2.495,0,1,1,.913,3.408A2.5,2.5,0,0,1,269.315,453.342Z" transform="translate(-268.98 -452.096)"/></g></g><g transform="translate(14.39 0.001)"><g transform="translate(0 1.94)"><rect class="b" width="23.788" height="1.105"/></g><g transform="translate(21.294)"><path class="b" d="M290.725,452.1a2.494,2.494,0,1,1-2.494,2.494A2.5,2.5,0,0,1,290.725,452.1Z" transform="translate(-288.231 -452.096)"/></g></g><g transform="translate(37.7 2.218)"><rect class="b" width="1.105" height="23.79" transform="translate(0 0.552) rotate(-30.001)"/><g transform="translate(9.878 18.383)"><path class="b" d="M302.51,470.014a2.495,2.495,0,1,1-3.407-.913A2.493,2.493,0,0,1,302.51,470.014Z" transform="translate(-297.855 -468.766)"/></g></g><g transform="translate(35.684 22.821)"><g transform="translate(2.016)"><rect class="b" width="23.789" height="1.105" transform="translate(0 20.601) rotate(-59.994)"/></g><g transform="translate(0 18.382)"><path class="b" d="M292.885,489.18a2.495,2.495,0,1,1-.912-3.408A2.493,2.493,0,0,1,292.885,489.18Z" transform="translate(-288.23 -485.437)"/></g></g><g transform="translate(11.894 41.204)"><g transform="translate(2.496 1.941)"><rect class="b" width="23.788" height="1.106"/></g><path class="b" d="M271.475,490.427a2.494,2.494,0,1,1,2.5-2.5A2.5,2.5,0,0,1,271.475,490.427Z" transform="translate(-268.98 -485.438)"/></g></g><g transform="translate(237.029 508.075)"><g transform="translate(0 2.223)"><rect class="b" width="23.789" height="1.104" transform="matrix(0.501, -0.866, 0.866, 0.501, 0, 20.594)"/></g><g transform="translate(9.884)"><path class="b" d="M240.44,470.014a2.495,2.495,0,1,1,.912,3.407A2.494,2.494,0,0,1,240.44,470.014Z" transform="translate(-240.105 -468.766)"/></g></g><g transform="translate(249.409 508.076)"><g transform="translate(0 1.941)"><rect class="b" width="23.789" height="1.105"/></g><g transform="translate(21.294)"><path class="b" d="M261.85,468.767a2.494,2.494,0,1,1-2.5,2.494A2.495,2.495,0,0,1,261.85,468.767Z" transform="translate(-259.355 -468.767)"/></g></g><g transform="translate(272.72 510.294)"><rect class="b" width="1.105" height="23.789" transform="matrix(0.866, -0.5, 0.5, 0.866, 0, 0.553)"/><g transform="translate(9.878 18.383)"><path class="b" d="M273.635,486.685a2.495,2.495,0,1,1-3.407-.913A2.494,2.494,0,0,1,273.635,486.685Z" transform="translate(-268.98 -485.437)"/></g></g><g transform="translate(270.703 530.896)"><g transform="translate(2.016)"><rect class="b" width="23.789" height="1.105" transform="translate(0 20.601) rotate(-59.994)"/></g><g transform="translate(0 18.383)"><path class="b" d="M264.01,505.851a2.495,2.495,0,1,1-.912-3.408A2.494,2.494,0,0,1,264.01,505.851Z" transform="translate(-259.355 -502.108)"/></g></g><g transform="translate(213.725 487.474)"><g transform="translate(0 1.94)"><rect class="b" width="23.789" height="1.105"/></g><g transform="translate(21.294)"><path class="b" d="M232.975,452.1a2.494,2.494,0,1,1-2.5,2.494A2.494,2.494,0,0,1,232.975,452.1Z" transform="translate(-230.48 -452.096)"/></g></g><g transform="translate(237.036 489.692)"><rect class="b" width="1.104" height="23.789" transform="translate(0 0.552) rotate(-29.999)"/><g transform="translate(9.877 18.383)"><path class="b" d="M244.76,470.014a2.495,2.495,0,1,1-3.408-.913A2.493,2.493,0,0,1,244.76,470.014Z" transform="translate(-240.105 -468.766)"/></g></g><g transform="translate(235.019 510.298)"><g transform="translate(2.011)"><rect class="b" width="23.789" height="1.104" transform="matrix(0.501, -0.866, 0.866, 0.501, 0, 20.594)"/></g><g transform="translate(0 18.379)"><path class="b" d="M235.135,489.18a2.495,2.495,0,1,1-.913-3.408A2.495,2.495,0,0,1,235.135,489.18Z" transform="translate(-230.48 -485.437)"/></g></g><g transform="translate(342.07 549.279)"><g transform="translate(2.017 2.218)"><rect class="b" width="1.105" height="23.79" transform="translate(0 0.553) rotate(-29.999)"/></g><path class="b" d="M317.44,505.851a2.495,2.495,0,1,1,3.408.912A2.5,2.5,0,0,1,317.44,505.851Z" transform="translate(-317.105 -502.108)"/></g><g transform="translate(344.086 528.677)"><g transform="translate(0 2.219)"><rect class="b" width="23.789" height="1.105" transform="translate(0 20.601) rotate(-59.994)"/></g><g transform="translate(9.879)"><path class="b" d="M327.065,486.685a2.5,2.5,0,1,1,.913,3.407A2.494,2.494,0,0,1,327.065,486.685Z" transform="translate(-326.731 -485.437)"/></g></g><g transform="translate(356.46 528.678)"><g transform="translate(0 1.941)"><rect class="b" width="23.789" height="1.106"/></g><g transform="translate(21.294)"><path class="b" d="M348.476,485.438a2.494,2.494,0,1,1-2.5,2.494A2.5,2.5,0,0,1,348.476,485.438Z" transform="translate(-345.981 -485.438)"/></g></g><g transform="translate(308.402 549.279)"><g transform="translate(0 2.219)"><rect class="b" width="23.79" height="1.105" transform="translate(0 20.602) rotate(-59.994)"/></g><g transform="translate(9.879)"><path class="b" d="M298.19,503.356a2.495,2.495,0,1,1,.913,3.407A2.5,2.5,0,0,1,298.19,503.356Z" transform="translate(-297.855 -502.108)"/></g></g><g transform="translate(320.776 549.28)"><g transform="translate(0 1.941)"><rect class="b" width="23.79" height="1.106"/></g><g transform="translate(21.295)"><path class="b" d="M319.6,502.109a2.494,2.494,0,1,1-2.5,2.494A2.5,2.5,0,0,1,319.6,502.109Z" transform="translate(-317.106 -502.109)"/></g></g><g transform="translate(344.087 551.498)"><rect class="b" width="1.105" height="23.79" transform="translate(0 0.553) rotate(-29.999)"/><g transform="translate(9.878 18.384)"><path class="b" d="M331.386,520.027a2.5,2.5,0,1,1-3.408-.912A2.5,2.5,0,0,1,331.386,520.027Z" transform="translate(-326.731 -518.78)"/></g></g><g transform="translate(272.719 528.677)"><g transform="translate(0 2.219)"><rect class="b" width="23.789" height="1.105" transform="translate(0 20.601) rotate(-59.994)"/></g><g transform="translate(9.879)"><path class="b" d="M269.315,486.685a2.495,2.495,0,1,1,.913,3.407A2.494,2.494,0,0,1,269.315,486.685Z" transform="translate(-268.98 -485.437)"/></g></g><g transform="translate(285.093 528.678)"><g transform="translate(0 1.941)"><rect class="b" width="23.788" height="1.106"/></g><g transform="translate(21.294)"><path class="b" d="M290.725,485.438a2.494,2.494,0,1,1-2.494,2.494A2.5,2.5,0,0,1,290.725,485.438Z" transform="translate(-288.231 -485.438)"/></g></g><g transform="translate(308.403 530.896)"><rect class="b" width="1.105" height="23.789" transform="matrix(0.866, -0.5, 0.5, 0.866, 0, 0.552)"/><g transform="translate(9.878 18.383)"><path class="b" d="M302.51,503.356a2.495,2.495,0,1,1-3.407-.913A2.493,2.493,0,0,1,302.51,503.356Z" transform="translate(-297.855 -502.108)"/></g></g><g transform="translate(306.386 551.498)"><g transform="translate(2.015)"><rect class="b" width="23.79" height="1.105" transform="translate(0 20.602) rotate(-59.994)"/></g><g transform="translate(0 18.384)"><path class="b" d="M292.885,522.522a2.495,2.495,0,1,1-.912-3.407A2.5,2.5,0,0,1,292.885,522.522Z" transform="translate(-288.23 -518.78)"/></g></g></g></svg>