<svg xmlns="http://www.w3.org/2000/svg" xmlns:xlink="http://www.w3.org/1999/xlink" width="239.789" height="268.371" viewBox="0 0 239.789 268.371"><defs><style>.a{fill:none;stroke:#fff;stroke-miterlimit:10;}.b,.q{fill:#fff;}.c{fill:#0fb5ff;}.d{fill:#e542e5;}.e{fill:#59c3e8;}.f{fill:#928bff;}.g{fill:#6087f1;}.h{fill:#59e87f;}.i{fill:#19b8a8;}.j{fill:#ff63b3;}.k{fill:#3458bb;}.l{fill:#f8f;}.m{fill:#009cdc;}.n{fill:#ffa163;}.o{fill:#6960f1;}.p{fill:url(#a);}.q{fill-rule:evenodd;}</style><linearGradient id="a" x1="1" y1="0.5" x2="0" y2="0.5" gradientUnits="objectBoundingBox"><stop offset="0" stop-color="#f8f"/><stop offset="1" stop-color="#ff1ea8"/></linearGradient></defs><g transform="translate(-130.105 -90.4)"><line class="a" x2="44.804" transform="translate(257.958 163.333)"/><line class="a" x1="59.958" transform="translate(295.705 163.333)"/><line class="a" y1="39.18" transform="translate(296.961 169.218)"/><line class="a" x1="29.225" y1="29.225" transform="translate(307.464 168.5)"/><line class="a" x1="34.106" y2="34.107" transform="translate(302.582 127.163)"/><line class="a" x2="5.621" y2="56.046" transform="translate(296.961 105.224)"/><line class="a" x2="41.813" y2="34.15" transform="translate(257.958 127.163)"/><line class="a" x1="26.167" y2="24.461" transform="translate(202.9 174.468)"/><line class="a" x2="44.081" y2="43.286" transform="translate(156.287 154.439)"/><line class="a" y1="2.719" x2="54.767" transform="translate(142.379 201.528)"/><line class="a" y1="29.08" x2="25.298" transform="translate(171.848 206.594)"/><line class="a" x1="0.967" y1="30.931" transform="translate(202.9 208.398)"/><line class="a" y2="44.49" transform="translate(202.9 154.439)"/><path class="b" d="M266.872,358.771c-.554-37.956-1.381-114.216.355-143.709,2.234-37.978,27.408-45.541,28.478-45.844l-.649-2.319-.646-2.338c-1.207.334-29.564,8.647-32.01,50.217-1.743,29.616-.917,105.955-.363,143.993Z"/><path class="b" d="M231.974,294.97v63.8h4.834v-63.8c0-16.657-18.834-27.178-19.636-27.617l-2.324,4.239C215.019,271.685,231.974,281.143,231.974,294.97Z"/><path class="b" d="M241.4,256c1.325,19.426.653,75.966.24,102.773h4.834c.414-26.9,1.084-83.532-.25-103.1-.769-11.278-7.073-22.9-18.227-33.6a95.82,95.82,0,0,0-16.62-12.8l-2.417,4.187C209.269,213.633,239.733,231.518,241.4,256Z"/><path class="b" d="M275.686,358.771V273.919c0-25.073,12.465-28.646,13-28.785l-1.154-4.694c-.681.163-16.677,4.337-16.677,33.479v84.852Z"/><path class="b" d="M251.043,221.442V358.771h4.834V221.442c0-18.307-16.9-22.473-17.068-22.513l-1.109,4.705C238.244,203.766,251.043,207.025,251.043,221.442Z"/><circle class="c" cx="19.567" cy="19.567" r="19.567" transform="translate(139.235 138.429)"/><path class="d" d="M154.652,204.247a12.273,12.273,0,1,1-12.273-12.273A12.273,12.273,0,0,1,154.652,204.247Z"/><path class="e" d="M182.225,235.674A10.377,10.377,0,1,1,171.848,225.3,10.376,10.376,0,0,1,182.225,235.674Z"/><circle class="f" cx="7.679" cy="7.679" r="7.679" transform="translate(196.188 231.65)"/><circle class="g" cx="16.01" cy="16.01" r="16.01" transform="matrix(0.158, -0.987, 0.987, 0.158, 185.525, 167.713)"/><path class="h" d="M272.64,127.163a14.683,14.683,0,1,1-14.682-14.682A14.682,14.682,0,0,1,272.64,127.163Z"/><path class="i" d="M311.785,105.224A14.824,14.824,0,1,1,296.961,90.4,14.825,14.825,0,0,1,311.785,105.224Z"/><path class="j" d="M347.362,127.163a10.673,10.673,0,1,1-10.674-10.673A10.673,10.673,0,0,1,347.362,127.163Z"/><path class="k" d="M369.894,163.333A14.23,14.23,0,1,1,355.663,149.1,14.231,14.231,0,0,1,369.894,163.333Z"/><path class="i" d="M347.362,197.725a10.673,10.673,0,1,1-10.674-10.674A10.673,10.673,0,0,1,347.362,197.725Z"/><circle class="l" cx="14.824" cy="14.824" r="14.824" transform="translate(281.731 193.991) rotate(-1.591)"/><path class="m" d="M265.534,164.561a7.576,7.576,0,1,1-7.576-7.576A7.576,7.576,0,0,1,265.534,164.561Z"/><path class="e" d="M238.094,174.468a9.026,9.026,0,1,1-9.026-9.027A9.026,9.026,0,0,1,238.094,174.468Z"/><path class="e" d="M294.311,242.789a6.218,6.218,0,1,1-6.218-6.218A6.218,6.218,0,0,1,294.311,242.789Z"/><path class="n" d="M322.923,163.333a20.161,20.161,0,1,1-20.161-20.16A20.161,20.161,0,0,1,322.923,163.333Z"/><path class="o" d="M222.468,201.528A19.568,19.568,0,1,1,202.9,181.96,19.568,19.568,0,0,1,222.468,201.528Z"/><path class="p" d="M245.572,201.282a7.313,7.313,0,1,1-7.314-7.313A7.315,7.315,0,0,1,245.572,201.282Z"/><circle class="l" cx="8.478" cy="8.478" r="8.478" transform="translate(205.806 275.766) rotate(-76.668)"/><path class="b" d="M166.573,154.022a2.436,2.436,0,0,1-.706.092l.012-.075a5.792,5.792,0,0,0,1.419-1.621c.053-.183-.01-.246-.01-.251l-1.186.5-.991.448h0a3.959,3.959,0,0,0-2.88-1.186,3.522,3.522,0,0,0-3.733,3.262,4.862,4.862,0,0,0,.152,1.231c0,.1.005-.094,0,0a11.637,11.637,0,0,1-4.544-1.349c-2.989-1.514-3.176-2.562-3.176-2.562a4.074,4.074,0,0,0-.236,3.443,4.3,4.3,0,0,0,1.352,1.572h0a3.167,3.167,0,0,1-.959-.157,2.122,2.122,0,0,1-.675-.33c-.292.711.293,1.982,1.3,2.893a5.369,5.369,0,0,0,1.667.864l-1.683.048c-.094,1.635,3.429,2.606,3.429,2.606h0a5.754,5.754,0,0,1-3.515,1.278,6.709,6.709,0,0,1-1.92-.281,9.16,9.16,0,0,0,6.25,2.239c6.291-.331,9.843-5.739,10.012-11.051l.008.011a4.415,4.415,0,0,0,.925-.777,6.5,6.5,0,0,0,1.022-1.368S166.969,153.913,166.573,154.022Z"/><path class="b" d="M151.338,197.421Z"/><path class="b" d="M151.338,197.421c0,.1,0,.01,0,0Z"/><path class="b" d="M145.69,211.315h-5.674a4.573,4.573,0,0,1-4.568-4.567v-5a4.573,4.573,0,0,1,4.568-4.567h5.674a4.573,4.573,0,0,1,4.567,4.567v5A4.573,4.573,0,0,1,145.69,211.315Zm-5.674-13.12a3.557,3.557,0,0,0-3.553,3.552v5a3.557,3.557,0,0,0,3.553,3.552h5.674a3.557,3.557,0,0,0,3.552-3.552v-5a3.557,3.557,0,0,0-3.552-3.552Z"/><path class="b" d="M142.852,208.313a4.065,4.065,0,1,1,4.066-4.066A4.07,4.07,0,0,1,142.852,208.313Zm0-7.116a3.05,3.05,0,1,0,3.051,3.05A3.053,3.053,0,0,0,142.852,201.2Z"/><path class="b" d="M147.7,200.307a.844.844,0,1,1-.843-.844A.842.842,0,0,1,147.7,200.307Z"/><path class="b" d="M204.65,162.616v-7.46h2.5l.375-2.907H204.65v-1.856c0-.842.234-1.416,1.441-1.416h1.539v-2.6a20.382,20.382,0,0,0-2.243-.115,3.5,3.5,0,0,0-3.74,3.843v2.144h-2.51v2.907h2.51v7.46Z"/><path class="b" d="M267.023,119.964Z"/><path class="b" d="M267.023,119.964c0,.1,0,.01,0,0Z"/><path class="b" d="M257.967,134.307a7.839,7.839,0,0,1-3.923-1.056l-3.065,1.056.63-3.246a7.775,7.775,0,0,1-1.507-4.62,7.866,7.866,0,1,1,7.865,7.866Zm-3.782-2.343.237.149a6.707,6.707,0,1,0-1.728-1.556l.164.21-.343,1.773Z"/><path class="b" d="M254,123.419s.462-.806.838-.853.86-.046.991.2.715,1.675.715,1.675a.559.559,0,0,1-.055.484,4.678,4.678,0,0,1-.5.584.428.428,0,0,0,0,.508,9.377,9.377,0,0,0,1.107,1.357,6.041,6.041,0,0,0,1.8,1.055.358.358,0,0,0,.276-.085c.108-.107.692-.837.692-.837a.41.41,0,0,1,.5-.1c.311.142,1.66.815,1.66.815a.291.291,0,0,1,.158.295,1.9,1.9,0,0,1-.294,1.018,2.35,2.35,0,0,1-1.639.8,7.234,7.234,0,0,1-4.026-1.8,8.012,8.012,0,0,1-2.305-3.227C253.682,124.295,253.712,123.837,254,123.419Z"/><path class="b" d="M240.752,200.523c.451-2.267-.737-2.819-.737-2.819a2.848,2.848,0,0,0-2.9.088c-2.285,1.82-.742,3.252-.742,3.252h0l-.217.911h0s-1.886-.329-1.182-2.928c.716-2.649,4.409-3.126,5.649-2.2.058.043.118.083.179.122a3.3,3.3,0,0,1,1.144,4.593s-1.626,3.037-3.947,1.041h0l-.434,1.757h0l-.867,1.28h0l-.368-1.6h0l.823-3.21h0a2.061,2.061,0,0,1,.456-2.19l.036-.032a.661.661,0,0,1,.65-.144c.238.081.474.317.463.935a11.694,11.694,0,0,1-.5,1.908h0s.261,1.54,1.736.629h0A2.73,2.73,0,0,0,240.752,200.523Z"/><path class="b" d="M165.165,230.565Z"/><path class="b" d="M165.165,230.565c0,.085,0,.009,0,0Z"/><path class="b" d="M171.893,232.89a2.151,2.151,0,0,1,.387,1.287,1.881,1.881,0,0,1-.391,1.242,2.005,2.005,0,0,1-.643.481,1.88,1.88,0,0,1,.974.744,2.23,2.23,0,0,1,.329,1.236,2.463,2.463,0,0,1-.376,1.345,2.348,2.348,0,0,1-.6.664,2.319,2.319,0,0,1-.953.423,5.8,5.8,0,0,1-1.192.115h-3.8v-8.436h4.076A2.589,2.589,0,0,1,171.893,232.89Zm-4.581.567v1.859h2.051a1.684,1.684,0,0,0,.891-.209.8.8,0,0,0,.343-.741.756.756,0,0,0-.453-.778,3.2,3.2,0,0,0-1-.131Zm0,3.255v2.25h2.048a2,2,0,0,0,.855-.149,1.063,1.063,0,0,0,.554-1.053.907.907,0,0,0-.538-.9,2.141,2.141,0,0,0-.842-.143Z"/><path class="b" d="M177.267,234.321a2.464,2.464,0,0,1,1.041.891,2.98,2.98,0,0,1,.48,1.246,7.731,7.731,0,0,1,.051,1.2h-4.386a1.443,1.443,0,0,0,.63,1.271,1.6,1.6,0,0,0,.868.226,1.332,1.332,0,0,0,.874-.276,1.309,1.309,0,0,0,.324-.415h1.608a1.961,1.961,0,0,1-.584,1.089,2.925,2.925,0,0,1-2.265.879,3.28,3.28,0,0,1-2.122-.742,2.917,2.917,0,0,1-.919-2.411,3.262,3.262,0,0,1,.83-2.4,2.906,2.906,0,0,1,2.154-.835A3.432,3.432,0,0,1,177.267,234.321Zm-2.356,1.361a1.63,1.63,0,0,0-.419.932h2.713a1.313,1.313,0,0,0-.42-.951,1.377,1.377,0,0,0-.934-.325A1.25,1.25,0,0,0,174.911,235.682Z"/><rect class="b" width="4.076" height="1.27" transform="translate(173.816 232.265)"/><path class="b" d="M347.72,156.458Z"/><path class="b" d="M347.72,156.458c0,.1,0,.01,0,0Z"/><rect class="b" width="2.938" height="9.317" transform="translate(349.601 159.939)"/><path class="q" d="M352.789,156.939a1.719,1.719,0,1,1-1.719-1.719A1.719,1.719,0,0,1,352.789,156.939Z"/><path class="q" d="M360.5,159.6a3.467,3.467,0,0,0-3.086,1.411v-1.067h-2.938v9.316h2.938v-5.5s.255-1.637,1.637-1.637,1.623,1.5,1.623,1.926v5.252h2.938v-5.541C363.608,161.983,362.937,159.6,360.5,159.6Z"/><g transform="translate(2.925 3.002)"><g transform="translate(185.91 184.559)"><path class="b" d="M212.673,193.031l-.726.039-.38-.387-.093-.643-.364.217-.173.792-.56-.555-.041-.54-.534-.432-.2-.185-.6.022.211.531.738.38.132.128-.154.086.02.425-.35.16-.3-.058-.2-.259.492.01.124-.185-1.112-.7-.093-.309-.428.415-.453-.077-.652.911-.122.351-.434.054-.645.026-.39-.166-.141-.764.125-.37.652-.166.722.121.074-.4-.307-.061.083-.62.716-.137.482-.728.514-.105.473.054.173-.007-.116-.665-.565.249-.214-.492-.335-.035-.074-.341.262-.3.633-.272.156-.3a13.87,13.87,0,0,0-9.288-3.173h-.028a13.884,13.884,0,0,0-8.1,2.946l.7-.028.317.162.594.109.054.23.94,0-.137-.3-.834,0,.192-.192-.077-.218-.754.026.8-.643.786-.026.39.5.614.012.357-.374.285.131-.492.515s-.706.039-.674.035a2.167,2.167,0,0,1,.077.486l.857-.055.083-.232.591-.054.058-.352-.348-.044.1-.317.265-.089.93.012-.5.483.1.355.537.064-.057-.649.5-.281.9-.137,1.057.428.272.108.016.5.419.09-.192.4-.476.016-.114,0-.16.461-1.361-.275,1.042-.6-.419-.33-.908.146-.08.084h0l-.012.019-.256.285-.431.051.04.216.154.058,0,.071-.351.063-.02.2-.338.03-.074-.406-.6.208-1.218.767.156.508.355.214.7.074.026.789.319-.064.275-.626.732-.258-.031-.946.4-.327,1,.2-.048.629.266-.01.719-.383.06.821.249.137.294.166-.006.489-.262.1.012.339.409.173v.335l-.175.019,0-.006-.216-.061-.568-.153-.042-.246h0l.221-.166-.007-.224-.245-.054-.051.211-.429.08-.042-.012v.022l-.146.029-.128-.239-.141-.058-.306.009-.135.118.011.253.261.077.259.029-.057.025-.224.268-.109-.124-.227-.054-.6.6.08.063-.892.534-.827.92-.045.4-.84.595-.412.44.077.857-.6-.256-.012-.5-1.642.058-.837.46-.346.693-.128.543.256.518.674.058,1.042-.748.105.351-.307.623.818.112.122,1.25,1.118.153.681-.841.863.145.316.409.818-.077.016-.243.458.2.537.78.881-.016.346.556.067.693.636.217.351.118,1.228-.029.38.578.55.154-.09.492-.572.78-.115,1.68-.524.444-.8,0-.249.472v0l.223.86-.188.258-.642.882-.262.521-.811.425-.545.1-.012.234.384.1-.039.253-.333.339.219.255.414,0-.012.321-.1.315-.029.256.626.493-.071.268-.829.012-.851-.69-.681-1.11.054-1.093-.509-.632.16-1.109-.294-.07-.08-2.384s-.83-.588-.876-.588-.434-.086-.434-.086l-.1-.45-1.1-1.285.09-.48.006-.777.713-.534-.131-.862-1.071-.045-.866-.924-.594-.139-.383-.058.032-.349-.489-.054.009.2L189.5,197.7l-.514-.735.185-.37-.809-1.1-.159-.818-.314.013.131.792.56.8-.045.326-.453-.054-.588-.927-.039-1.1-.587-.259-.026-.792a13.944,13.944,0,0,0,13.478,18.955.072.072,0,0,1,.031,0,13.925,13.925,0,0,0,10.6-5.514l-.46.016-.033-.927-.555-.7-.04-1.116-.418-.393-.051-.46.482-1-1.035-1.693.077-1.172-.885-.062-.336-.314-.591.02-.291.287-1.042.035-.031.093-.578.023-1.383-1.474-.029-1.182.217-.09.067-.453-.313.013-.144-.473,1.5-1.164-.026-.786.738-.444.307.019.62-.019.476-.278,1.563-.176.025.8,1.244.272.249.166.227-.007-.016-.434.708-.1.7.482,1.112-.039.074-.073C212.963,193.754,212.822,193.389,212.673,193.031Zm-6.714-3.742.121-.2.454-.109.134.551.256.388.165.179.3.105-.265.338-.536.071-.406.012.029-.482.335-.08-.038-.224-.32-.188-.223-.141Zm-.725.894.265-.457.37-.1.272.109-.016.3-.556.425-.326.01Zm-7.251,1.62.4-.013.074-.217.16-.006.183.032-.071.163-.2.022-.035.2-.148.1-.245.029c-.01-.058-.016-.1-.016-.1l-.1,0Zm-.549.383.006-.2.125-.166.179.132-.021.2Z" transform="translate(-185.91 -184.559)"/></g></g><path class="b" d="M304.207,161.685l2.429-1-.571-2.845-2.54.205a7.318,7.318,0,0,0-1.23-1.84l.97-2.336-2.416-1.61-1.637,1.924a7.356,7.356,0,0,0-2.177-.394l-.975-2.354-2.844.57.212,2.6a7.381,7.381,0,0,0-1.71,1.221l-2.472-1.026-1.608,2.416,2.113,1.8a7.274,7.274,0,0,0-.322,1.906L286.81,162l.571,2.845,2.888-.234a7.393,7.393,0,0,0,1.038,1.5l-1.125,2.709,2.414,1.609,1.89-2.227a7.293,7.293,0,0,0,1.784.361l1.114,2.692,2.845-.57L300,167.866a7.479,7.479,0,0,0,1.623-1.051l2.576,1.068,1.611-2.412-2.041-1.736A7.454,7.454,0,0,0,304.207,161.685Zm-6.348,4.058a4.677,4.677,0,1,1,3.528-5.6A4.675,4.675,0,0,1,297.859,165.743Z"/><path class="b" d="M317.344,163.154l1.711-.452-.126-1.95-1.715-.09a5,5,0,0,0-.656-1.338l.855-1.473-1.468-1.29-1.264,1.138a4.959,4.959,0,0,0-1.418-.458l-.44-1.658-1.951.126-.09,1.758a5.012,5.012,0,0,0-1.252.662l-1.557-.9-1.29,1.469,1.251,1.388a4.929,4.929,0,0,0-.386,1.244l-1.846.488.129,1.95,1.948.1a4.927,4.927,0,0,0,.559,1.091l-.993,1.708,1.467,1.29,1.461-1.318a4.982,4.982,0,0,0,1.159.4l.5,1.9,1.951-.126.1-1.9a4.9,4.9,0,0,0,1.179-.556l1.624.943,1.289-1.465-1.206-1.342A4.958,4.958,0,0,0,317.344,163.154Zm-4.6,2.142a3.15,3.15,0,1,1,2.854-3.422A3.15,3.15,0,0,1,312.745,165.3Z"/><path class="b" d="M308.775,173.263l1.188-.1.143-1.31-1.129-.259a3.212,3.212,0,0,0-.28-.965l.741-.878-.825-1.027-.971.608a3.321,3.321,0,0,0-.89-.469l-.1-1.153-1.309-.142-.265,1.157a3.3,3.3,0,0,0-.908.294l-.93-.783-1.027.825.669,1.067a3.354,3.354,0,0,0-.4.782l-1.283.109-.141,1.31,1.283.295a3.343,3.343,0,0,0,.243.789l-.859,1.018.825,1.028,1.123-.706a3.355,3.355,0,0,0,.723.4l.113,1.317,1.309.144.286-1.252a3.341,3.341,0,0,0,.848-.234l.968.816,1.028-.823-.645-1.031A3.384,3.384,0,0,0,308.775,173.263Zm-3.3.887a2.123,2.123,0,1,1,2.294-1.94A2.125,2.125,0,0,1,305.472,174.15Z"/><path class="b" d="M330.708,131.807H342.6a.692.692,0,0,0,.691-.691v-8.172a.692.692,0,0,0-.691-.69H330.708a.692.692,0,0,0-.69.691v8.171A.691.691,0,0,0,330.708,131.807Zm4.09-5.142-4.133,4.1v-7.214Zm7.847-3.066v6.847l-3.9-3.869Zm-4.416,3.373a.252.252,0,0,0,.022.026l4.194,4.161H331.186l4.134-4.1,1.211.912a.322.322,0,0,0,.2.066.327.327,0,0,0,.2-.067Zm4.262-4.07-5.766,4.4-5.845-4.4Z"/><path class="b" d="M200.694,241.685H201V243a.211.211,0,0,0,.115.188.208.208,0,0,0,.1.024.215.215,0,0,0,.122-.038l2.116-1.493h1.959l.985.674a.22.22,0,0,0,.12.037.205.205,0,0,0,.1-.025.211.211,0,0,0,.113-.187v-1.241h.355a.989.989,0,0,0,.918-1v-2.782a.881.881,0,0,0-.918-.881h-4.757a.961.961,0,0,0-1,.849h-.63a.892.892,0,0,0-.963.852v2.783A.957.957,0,0,0,200.694,241.685Zm1.053-4.527c0-.273.3-.457.581-.457h4.757a.456.456,0,0,1,.494.457v2.782a.566.566,0,0,1-.494.579h-.567a.212.212,0,0,0-.212.212v1.051l-1.794-1.226a.212.212,0,0,0-.119-.037h-2.065a.637.637,0,0,1-.581-.579Zm-1.591.82c0-.281.271-.428.538-.428h.628v2.39a1.058,1.058,0,0,0,1.006,1h2l.465.318h-1.405a.209.209,0,0,0-.123.039l-1.836,1.295v-1.122a.212.212,0,0,0-.212-.212h-.522a.527.527,0,0,1-.538-.5Z"/><path class="b" d="M254.227,168.689h6.291a.264.264,0,0,0,.263-.264c0-.134-.007-.265-.017-.4h1.493a.263.263,0,0,0,.263-.263,6.628,6.628,0,0,0-1.9-4.166,2.1,2.1,0,0,0-2.526-3.346,2.2,2.2,0,0,0-2.134,3.778,6.568,6.568,0,0,0-1.991,4.393A.264.264,0,0,0,254.227,168.689Zm7.756-1.187H260.7a6.851,6.851,0,0,0-1.924-3.464l.02-.018a2.087,2.087,0,0,0,1.365-.135A6.489,6.489,0,0,1,261.983,167.5Zm-2.7-7.094a1.571,1.571,0,0,1,0,3.143l-.072,0a2.2,2.2,0,0,0-.564-3.006A1.563,1.563,0,0,1,259.282,160.408Zm-3.6,1.929a1.68,1.68,0,1,1,1.68,1.68A1.682,1.682,0,0,1,255.687,162.337Zm.725,1.987a2.179,2.179,0,0,0,1.9,0,6.237,6.237,0,0,1,1.933,3.834H254.5A6.312,6.312,0,0,1,256.412,164.324Z"/><path class="b" d="M290.216,107.5h13.013a.316.316,0,0,0,.316-.315V99.84a.316.316,0,0,0-.316-.315H290.216a.316.316,0,0,0-.315.315v7.347A.315.315,0,0,0,290.216,107.5Zm.315-7.347h12.384v6.717H290.531Z"/><path class="b" d="M289.481,109.181H295.1c-.068.588-.315,1.75-.851,2.1H292a.42.42,0,1,0,0,.84h9.655a.42.42,0,1,0,0-.84h-2.042c-.536-.349-.784-1.511-.851-2.1h5.2a1.261,1.261,0,0,0,1.259-1.26V99.105a1.261,1.261,0,0,0-1.259-1.259H289.481a1.261,1.261,0,0,0-1.259,1.259v8.816A1.261,1.261,0,0,0,289.481,109.181Zm9.036,2.1h-3.172a5.708,5.708,0,0,0,.6-2.1h1.975A5.674,5.674,0,0,0,298.517,111.28Zm-9.456-12.175a.42.42,0,0,1,.42-.419h14.484a.42.42,0,0,1,.42.419v8.816a.421.421,0,0,1-.42.42H289.481a.421.421,0,0,1-.42-.42Z"/><path class="b" d="M338.061,201.831a1.312,1.312,0,1,0-1.312,1.313A1.311,1.311,0,0,0,338.061,201.831Z"/><path class="b" d="M336.708,198.357a3.926,3.926,0,0,0-3.082,1.484.353.353,0,0,0,.551.441,3.24,3.24,0,0,1,5.058-.008.352.352,0,1,0,.55-.441A3.93,3.93,0,0,0,336.708,198.357Z"/><path class="b" d="M336.64,195.532h0a6.248,6.248,0,0,0-4.876,2.387.4.4,0,0,0,.055.535.351.351,0,0,0,.22.077.393.393,0,0,0,.275-.172,5.55,5.55,0,0,1,4.326-2.122h0a5.536,5.536,0,0,1,4.316,2.1.357.357,0,0,0,.495.083.376.376,0,0,0,.055-.515A6.25,6.25,0,0,0,336.64,195.532Z"/><path class="b" d="M336.7,192.979a8.523,8.523,0,0,0-6.687,3.221.352.352,0,0,0,.054.5.348.348,0,0,0,.22.078.357.357,0,0,0,.277-.133,7.848,7.848,0,0,1,12.26-.017.353.353,0,0,0,.551-.441A8.52,8.52,0,0,0,336.7,192.979Z"/><path class="b" d="M299.7,207.124l-3.894-1.936a.428.428,0,0,0-.193-.045,1.021,1.021,0,0,0-1.028.985v4.148a1.021,1.021,0,0,0,1.028.985.439.439,0,0,0,.192-.044l3.917-1.937a1.125,1.125,0,0,0-.022-2.156Zm-.362,1.382-3.794,1.876c-.054-.024-.1-.069-.1-.106v-4.148c0-.035.043-.082.1-.105l3.774,1.876c.208.1.332.215.332.3C299.651,208.239,299.651,208.351,299.339,208.506Z"/><path class="b" d="M304.95,212.649v-8.842A1.951,1.951,0,0,0,303,201.858h-12.08a1.951,1.951,0,0,0-1.949,1.949v8.842a1.951,1.951,0,0,0,1.949,1.949H303A1.951,1.951,0,0,0,304.95,212.649Zm-15.115,0v-8.842a1.086,1.086,0,0,1,1.086-1.085H303a1.086,1.086,0,0,1,1.086,1.085v8.842A1.087,1.087,0,0,1,303,213.734h-12.08A1.087,1.087,0,0,1,289.835,212.649Z"/><path class="b" d="M217.764,266.293a2.364,2.364,0,0,0-1.755.782,2.357,2.357,0,0,0-4.11,1.574,2.2,2.2,0,0,0,.536,1.442c.161.2.342.387.534.584l.133.138c.388.4.79.8,1.178,1.185.194.192.387.387.58.579s.389.4.584.59l.417.43a.248.248,0,0,0,.155.088h0a.248.248,0,0,0,.154-.089c.152-.153.305-.331.457-.485q.419-.415.833-.836c.365-.366.729-.733,1.1-1.1l.241-.235a3.282,3.282,0,0,0,1.324-2.294A2.36,2.36,0,0,0,217.764,266.293Zm.729,4.336-.245.239c-.367.365-.732.733-1.1,1.1l-.832.835c-.1.1-.2.2-.3.3l-.263-.262q-.291-.293-.584-.583c-.192-.194-.386-.385-.58-.577-.387-.384-.788-.781-1.172-1.177l-.135-.139c-.184-.188-.357-.366-.505-.551a1.761,1.761,0,0,1-.441-1.169,1.916,1.916,0,0,1,3.487-1.1l.008.021a.239.239,0,0,0,.179.116h0a.24.24,0,0,0,.179-.115,1.949,1.949,0,0,1,1.576-.842,1.922,1.922,0,0,1,1.92,1.92A2.867,2.867,0,0,1,218.493,270.629Z"/><path class="b" d="M233.293,177.206v-4.389a.309.309,0,0,0-.309-.309h-6.952a.309.309,0,0,0-.309.309v.773h-.265a2.163,2.163,0,0,0,0,4.326h.345a3.424,3.424,0,0,0,3.363,2.626h.9A3.213,3.213,0,0,0,233.293,177.206Zm-7.835.091a1.545,1.545,0,0,1,0-3.089h.265v3c0,.03,0,.061,0,.091Zm.883-.091v-4.08h6.334v4.08a2.609,2.609,0,0,1-2.614,2.718h-.9A2.776,2.776,0,0,1,226.341,177.206Z"/><path class="b" d="M228.254,171.45a.309.309,0,0,0,.183.558.313.313,0,0,0,.181-.059,1.283,1.283,0,0,0,.505-.878,1.354,1.354,0,0,0-.467-1.066.835.835,0,0,1,0-1.253.309.309,0,1,0-.432-.442,1.682,1.682,0,0,0-.473,1.087,1.445,1.445,0,0,0,.471,1.045.778.778,0,0,1,.288.576A.681.681,0,0,1,228.254,171.45Z"/><path class="b" d="M230.429,171.449a.309.309,0,1,0,.363.5,1.57,1.57,0,0,0,.607-1.054,1.636,1.636,0,0,0-.569-1.286,1.157,1.157,0,0,1-.392-.821,1.427,1.427,0,0,1,.389-.885.309.309,0,0,0-.432-.442,2.043,2.043,0,0,0-.575,1.319,1.749,1.749,0,0,0,.573,1.266,1.067,1.067,0,0,1,.39.8A.948.948,0,0,1,230.429,171.449Z"/></g></svg>