<svg xmlns="http://www.w3.org/2000/svg" width="284.376" height="284.354" viewBox="0 0 284.376 284.354"><defs><style>.a{fill:gray;}.b,.c{fill:#ff7e00;}.b{fill-rule:evenodd;}</style></defs><g transform="translate(-255.124 -648.098)"><g transform="translate(172.312 565.275)"><path class="a" d="M187.715,336.019A389.334,389.334,0,0,1,150.048,303c-35.5-4.825-40.96-5.567-44.284-2.565A101.359,101.359,0,0,1,94.645,281.9l.061.14,1.049,2.348a103.067,103.067,0,0,0,10.511,17.191c2.385-3.025,9.441-2.026,43.347,2.777a384.714,384.714,0,0,0,36.837,32.24c27.359,20.873,49.27,30.647,61.005,28.826h0l2.063-.342C237.729,367.079,215.508,357.223,187.715,336.019Z"/><path class="a" d="M182.736,338.175a372.144,372.144,0,0,1-34.364-29.921c-36.54-5.728-38.728-6.07-40.519-3.411a106.482,106.482,0,0,1-8.542-13.24l1.233,2.282a107.027,107.027,0,0,0,7.864,11.988c.923-2.675,4.58-2.078,39.562,3.629a367.517,367.517,0,0,0,33.544,29.157c25.591,19.525,46.221,28.944,57.7,27.819l1.528-.159h0l.565-.063C229.765,367.568,208.8,358.057,182.736,338.175Z"/><path class="a" d="M177.9,339.982A353.779,353.779,0,0,1,146.809,313.1c-34.1-6.139-34.1-6.139-36.542-5.077-.034.231-.079.54-.112.771-1.762-2.333-3.374-4.628-4.8-6.847l.77,1.185,1.191,1.784c1.066,1.568,2.219,3.169,3.447,4.787-.031-.159-.072-.371-.1-.531,1.474-1.36,1.474-1.36,35.77,5.068a349.074,349.074,0,0,0,30.288,26.144c23.662,18.052,42.889,27.072,54.066,26.684h0l2.107-.1C221.627,367.527,202.047,358.4,177.9,339.982Z"/><path class="a" d="M145.312,317.5c-31.712-6.51-31.712-6.51-32.974-6.054.046.182.106.424.151.606l.494.635c0-.172.009-.4.013-.572,1.435-.153,1.435-.153,31.956,6.412a329.752,329.752,0,0,0,27.106,23.234c21.735,16.582,39.538,25.155,50.312,25.394l2.093.025c-10.883-.093-29.043-8.781-51.258-25.73A334.84,334.84,0,0,1,145.312,317.5Z"/><path class="a" d="M143.9,321.434c-29.28-6.9-29.28-6.9-29.43-6.885l.5.61c.678-.128.748-.141,7.42,1.683,10.594,2.895,13.259,3.553,21.17,5.5a309.353,309.353,0,0,0,24.013,20.438c19.711,15.038,36,23.115,46.3,23.958h0l2.19.155c-10.418-.671-27.121-8.878-47.382-24.336A314.671,314.671,0,0,1,143.9,321.434Z"/><path class="a" d="M324.648,134.771a10.593,10.593,0,0,0-.583-1.533c-.366-.838-.815-1.77-1.1-2.321q-.562-1.193-1.164-2.36.582,1.156,1.129,2.338C324.488,134.672,324.576,134.727,324.648,134.771Z"/><path class="a" d="M325.008,134.986a12.431,12.431,0,0,0-.675-1.591c-.415-.87-.916-1.83-1.228-2.4q-.632-1.233-1.3-2.442.652,1.2,1.268,2.423C324.869,134.9,324.924,134.937,325.008,134.986Z"/><path class="a" d="M325.354,135.179a15.631,15.631,0,0,0-.763-1.644c-.456-.887-1.008-1.875-1.352-2.461q-.7-1.271-1.437-2.517.72,1.237,1.4,2.5C325.229,135.111,325.267,135.131,325.354,135.179Z"/><path class="a" d="M325.688,135.352a17.92,17.92,0,0,0-.85-1.692c-.5-.913-1.1-1.924-1.47-2.519q-.764-1.305-1.566-2.584.786,1.271,1.535,2.567C325.579,135.3,325.594,135.3,325.688,135.352Z"/><path class="a" d="M326.007,135.5c-.173-.408-.6-1.168-.932-1.733h0c-.54-.927-1.184-1.959-1.584-2.571l-1.689-2.642q.849,1.3,1.659,2.628C325.915,135.461,325.915,135.461,326.007,135.5Z"/><path class="a" d="M342.126,286.065c.308-1.183.237-1.728-.241-1.88-1.519.2-3.058,3.7-2.866,4.84.127.754.946.9,2.3-1.173,4.818.311,8.636-.576,11.306-2.676a88.975,88.975,0,0,1-4.049,10.378l1.1-1.969a89.261,89.261,0,0,0,3.858-10.313C350.872,285.455,347.017,286.381,342.126,286.065Z"/><path class="a" d="M348.573,295.554Z"/><path class="a" d="M338.738,293.167c.368-1.157.32-1.69-.168-1.841-1.6.189-3.283,3.572-3.136,4.72.094.739.922.889,2.4-1.134,4.5.291,8.147-.443,10.821-2.216-1.228,4.085-1.228,4.085-4.84,10.606l1.238-1.91c2.028-3.206,2.028-3.206,4.638-10.553C347.013,292.691,343.32,293.463,338.738,293.167Z"/><path class="a" d="M334.976,300.079c.422-1.127.4-1.647-.092-1.8-1.609.177-3.515,3.507-3.409,4.6.07.718.912.865,2.5-1.1,4.159.269,7.6-.324,10.233-1.786-1.575,4.38-1.575,4.38-5.694,10.806l1.38-1.854c2.449-3.414,2.5-3.551,5.471-10.754C342.717,299.727,339.222,300.353,334.976,300.079Z"/><path class="a" d="M346.428,150.916q-.351-.587-.736-1.21Z"/><path class="a" d="M318.041,117.386l-.6-.517-.008,0c.4,1.623,1.992,5.683,4.372,11.691C317.952,118.42,318.017,117.669,318.041,117.386Z"/><path class="a" d="M319.96,119.386l.433.077-.579-.519-.025-.022-.314.064c.051,1.931.457,3.43,2.327,9.571C319.72,121.488,319.848,120.371,319.96,119.386Z"/><path class="a" d="M321.8,128.557c.057-.454.108-.848.155-1.2C321.907,127.691,321.858,128.069,321.8,128.557Z"/><path class="a" d="M352.516,163.726h0a48.754,48.754,0,0,0-5.189-11.331l-.9-1.479a47.263,47.263,0,0,1,5.238,11.307,11.889,11.889,0,0,1,.426,5.858c-11.314-17.887-23.193-31.431-30.29-39.524,16.631,18.99,24.216,30.389,31.131,41.337A12.167,12.167,0,0,0,352.516,163.726Z"/><path class="a" d="M348.953,157.765c-1.288-4.678-4.667-10.678-9.361-17.057l-.437-.59h0c-.774-1.042-1.842-2.406-2.635-3.434,8.749,11.1,10.663,17.071,11.48,19.622a10.733,10.733,0,0,1,.43,4.657A309.67,309.67,0,0,0,321.8,128.557c15.318,16.724,21.835,25.986,27.585,34.158A11.019,11.019,0,0,0,348.953,157.765Z"/><path class="a" d="M344.982,152c-2.21-8.026-11.862-20.756-23.219-31.227a1.84,1.84,0,0,0-.39-.1c-.8,1.063-.659,2.259.429,7.893-.947-5.179-.7-6.055-.356-7.267l.636-.142c10.692,9.889,19.759,21.87,21.843,29.435a9.306,9.306,0,0,1,.393,3.54A306.471,306.471,0,0,0,321.8,128.557a304.008,304.008,0,0,1,23.587,27.25A9.674,9.674,0,0,0,344.982,152Z"/><path class="a" d="M340.586,146.41h0c-2.087-6.586-8.395-15.14-17.76-24.086h0c-1.333.537-1.236,2.322-1.024,6.233-.236-4.582.243-5,1.2-5.83,8.062,7.558,14.843,16.583,16.423,22.322a7.648,7.648,0,0,1,.326,2.515c-7.057-8.121-11.625-12.687-17.948-19.007,9.628,9.626,12.8,13.3,19.129,20.614A8.07,8.07,0,0,0,340.586,146.41Z"/><path class="a" d="M336.042,142.866a6.143,6.143,0,0,0-.26-1.818c-1.209-4.39-6.34-11.26-12.48-17.072-.892.806-1.048,1.178-1.345,3.381a5.072,5.072,0,0,1,1.37-2.954c5.509,5.232,10.1,11.4,11.19,15.34a5.925,5.925,0,0,1,.236,1.6c-4.777-4.971-5.395-5.562-12.951-12.786C328.407,134.874,329.573,136.1,336.042,142.866Z"/><path class="a" d="M330.564,135.915c-.36-1.241-1.8-4.718-7.387-10.194a11.869,11.869,0,0,0-1.375,2.836,14.716,14.716,0,0,1,1.246-2.382c1.489,1.44,5.066,5.15,6.135,8.483a3.346,3.346,0,0,1,.132.807c-2.227-2.1-5.252-4.843-7.513-6.908,2.707,2.473,6.262,5.828,8.922,8.352A4,4,0,0,0,330.564,135.915Z"/><path class="a" d="M324.919,131.016a9.631,9.631,0,0,0-2.483-3.456l-.634,1,.353-.524a4.986,4.986,0,0,1,1.291,1.8c.011.046.022.107.028.154l-1.672-1.43,3.171,2.761A1.465,1.465,0,0,0,324.919,131.016Z"/><path class="a" d="M281.272,344.429c2.886-7.306,3.493-9.43,5.41-18.939q1.395-1.326,2.774-2.7c37.272-37.134,55.594-90.821,51.155-138.2-2.874-8.463-3-8.835-9.764-28.309a83.057,83.057,0,0,1-7.489-5.14,120.108,120.108,0,0,1-20.452-19.97l.492-.734a3.219,3.219,0,0,0-3.576.633,3.014,3.014,0,0,0,1.73.539,140.152,140.152,0,0,0,21.683,20.851,87.83,87.83,0,0,0,7.7,5.3c7.22,21.372,7.22,21.372,9.21,27.34,3.814,47.025-14.756,100.227-51.832,137.165q-1.674,1.669-3.375,3.268a82.323,82.323,0,0,1-5.632,19.822c9.583,2.888,16.973,2.9,21.622-.028l1.781-1.142C298.122,347.177,290.794,347.237,281.272,344.429Z"/><path class="a" d="M273.37,347.976c3.629-7.941,4.444-11.966,6.271-22.439q2.613-2.393,5.179-4.947C321.3,284.243,340.6,232.5,338.63,186.555c-2.528-8.116-5.094-16.22-7.635-24.332-2.567-1.583-5.329-3.489-8.247-5.716C308.876,145.924,295.4,131.121,288.4,119.1l.929-.407a4.635,4.635,0,0,0-4.75-.394,10.544,10.544,0,0,0,1.906.663c7.61,12.505,21.631,27.906,36.064,38.918,2.965,2.262,5.774,4.207,8.391,5.83q3.56,11.656,7.141,23.306c1.364,45.574-18.168,96.831-54.452,132.98q-2.86,2.852-5.782,5.5c-2,12.614-3.071,15.443-6.484,23.307,9.807,3.2,17.427,3.492,22.3.819l1.848-1.034C290.69,351.32,283.125,351.1,273.37,347.976Z"/><path class="a" d="M265.35,351.069c4.454-8.413,5.644-16.5,7.022-25.86q3.84-3.4,7.593-7.133c35.687-35.554,55.9-85.34,56.327-129.771-3.644-12.761-3.644-12.761-5.734-20.157-2.738-1.728-5.656-3.764-8.724-6.1a157.553,157.553,0,0,1-28.289-27.888l.224-.894a3.339,3.339,0,0,0-3.749.536c.024.282.054.659.078.942a5.575,5.575,0,0,0,1.8.192,191.719,191.719,0,0,0,29.662,28.523c3.089,2.358,6.033,4.416,8.8,6.172,1.535,5.586,2.182,7.909,5.3,19.075-1.005,44.044-21.441,93.341-56.93,128.7q-4.055,4.039-8.209,7.682c-1.743,14.526-3.863,19.6-7.177,26.688,9.991,3.5,17.812,4.068,22.89,1.656l1.875-.908C283.073,355,275.3,354.493,265.35,351.069Z"/><path class="a" d="M257.276,353.7c4.558-8.785,5.961-15.28,7.631-29.168q5.067-4.347,10.016-9.272c34.9-34.768,55.968-82.6,58.682-125.464-1.225-4.716-2.849-11.007-4.06-15.728-2.821-1.822-5.806-3.925-8.926-6.306-18.259-13.93-36-33.412-45.3-49.287.269-.215.626-.5.895-.719-.644-.713-2.115-.961-4.374-.737l-.585.877a9.192,9.192,0,0,0,2.069.656c9.9,16.279,28.157,36.327,46.945,50.661q4.68,3.57,8.935,6.327c1.093,4.379,2.565,10.214,3.675,14.59-3.274,42.462-24.548,89.808-59.246,124.378q-5.239,5.22-10.617,9.8c-1.683,15.225-3.134,20.83-7.765,29.983,10.1,3.763,18.061,4.616,23.32,2.5l1.929-.8C275.285,358.185,267.352,357.4,257.276,353.7Z"/><path class="a" d="M249.153,355.9c6.008-9.95,7.078-21.37,8.113-32.414q6.271-5.242,12.412-11.348c34.106-33.98,55.966-79.868,60.879-121.108-.784-3.324-1.813-7.761-2.586-11.088q-4.23-2.791-8.855-6.314a191.8,191.8,0,0,1-35.727-35.478c0-.283-.01-.66-.014-.943a3.1,3.1,0,0,0-4.213.994c.1.275.221.641.315.916a5.717,5.717,0,0,0,2.021.229,240.538,240.538,0,0,0,37.2,35.77q4.578,3.492,8.795,6.285c.666,2.971,1.573,6.927,2.25,9.9-5.445,40.827-27.491,86.231-61.4,120.014q-6.424,6.4-13.009,11.861c-1.575,21.1-4.8,26.98-8.208,33.207,10.15,4,18.22,5.129,23.632,3.314l1.961-.678C267.34,360.9,259.294,359.842,249.153,355.9Z"/><path class="a" d="M241.041,357.649c5.478-9.278,7.135-16.256,8.437-35.556Q256.93,316,264.263,308.71c33.315-33.191,55.891-77.147,62.893-116.724l-1.318-6.238q-4.092-2.757-8.509-6.123c-22.38-17.074-44.12-40.954-55.32-60.561l.55-.9a4.715,4.715,0,0,0-5.141-.155c.07.289.165.676.235.966a9.23,9.23,0,0,0,2.014.492c12.061,19.824,34.288,44.238,57.168,61.693q4.338,3.311,8.385,6.048l1.03,4.974c-7.507,39.155-30.251,82.63-63.368,115.626a206.727,206.727,0,0,1-15.373,13.884c-.99,23.714-4.976,30.416-8.491,36.33,10.153,4.218,18.284,5.6,23.821,4.086l.722-.2h0l1.275-.362C259.326,363.138,251.2,361.819,241.041,357.649Z"/><path class="a" d="M356.792,179.2a237.719,237.719,0,0,0-14.872-24.269,3.52,3.52,0,0,1-1.306.423c-.848-1.443-1.015-1.588-1.176-1.727.005.044,2.067,4.938,2.811,5.146a9.739,9.739,0,0,0-.69-1.66,3.761,3.761,0,0,0,1.334-.419,233.8,233.8,0,0,1,14.563,24.4c.687-1.913.608-4.581-.337-8.016a39.03,39.03,0,0,0-2.076-5.687h0l-1.134-2.5a42.563,42.563,0,0,1,2.519,6.629C357.33,174.79,357.42,177.349,356.792,179.2Z"/><path class="a" d="M361.265,194.6c-4.373-10.312-6.141-13.744-12.458-25.205a6.4,6.4,0,0,1-2.277.406c-.688-1.52-.875-1.672-1.073-1.832-.217.766,1.357,4.7,1.975,5.458l.182-.078a6,6,0,0,0-.377-1.708,6.785,6.785,0,0,0,2.283-.391,209.778,209.778,0,0,1,12.171,25.332c1.535-3.529,1.061-6.1.016-10.727q-.236-.819-.485-1.636C362.492,188.836,362.447,192.291,361.265,194.6Z"/><path class="a" d="M351.467,176.868a6.889,6.889,0,0,1-1.172.259c-.64-1.529-.827-1.67-1.026-1.82-.2.222.884,4.73,1.891,5.606.1-.179.2-.347-.224-1.919a7.139,7.139,0,0,0,1.114-.237c6.265,12.815,7.547,16.153,11.025,25.755,1.491-2.322,1.776-5.872.66-10.672l-.484-2.1c1.19,4.844.968,8.43-.476,10.778C358.92,192.089,357.3,188.59,351.467,176.868Z"/><path class="a" d="M361.707,185.856c-.049-.179-.1-.36-.153-.541l-.7-2.358q.2.641.372,1.263Q361.471,185.037,361.707,185.856Z"/><path class="a" d="M359.326,178.6c-.1-.266-.192-.532-.293-.8,1.26,4.8.93,6.608.236,9.017-4.917-10.208-6.842-13.57-13.652-24.758a5.857,5.857,0,0,1-3.044.42c-.727-1.49-.908-1.652-1.1-1.824-.087.443,1.428,4.751,2.3,5.391a4.33,4.33,0,0,0-.44-1.765,6.205,6.205,0,0,0,3.123-.409,221.487,221.487,0,0,1,13.352,24.876c1.16-2.957.681-5.481-.194-9.355h0c-.278-.994-.74-2.291-1.064-3.271l-.827-2.214a40.093,40.093,0,0,1,1.3,3.893C359.134,178.069,359.228,178.335,359.326,178.6Z"/><path class="a" d="M260.161,102.8q.262.949.6,1.946c13.91,5.289,13.91,5.289,44.608,17.4a77.563,77.563,0,0,0,15.216,17.283,46.891,46.891,0,0,0,1.22-10.871,45.374,45.374,0,0,1-1.244,9.667,70.788,70.788,0,0,1-13.783-15.747c-25.307-10.275-29.851-12.092-44.2-17.675q-.283-.861-.512-1.687c-2.246-8.155.1-12.256,5.8-12.434a116.676,116.676,0,0,1,36.669,18.888q.4.144.828.317a8.645,8.645,0,0,0,1.519,1.158c-.023-.024-2.43-2.521-3.537-2.954.227.217.537.5.77.71q-.4-.164-.788-.3C288.99,97.573,274.76,92.858,266.257,90.041,260.3,90.159,257.838,94.367,260.161,102.8Z"/><path class="a" d="M312.384,124.188c-22.23-10.142-32.131-14.361-42.614-18.828q-.118-.389-.222-.768c-1.945-7.058-.044-10.723,4.7-11.1a110.473,110.473,0,0,1,35.1,20.674,18.283,18.283,0,0,1,2.618,1.139c.806.855.806.855,1.149,1.055a15.511,15.511,0,0,0-2.807-2.888c.185.219.438.507.629.721a20.007,20.007,0,0,0-2.791-1.222c-13.383-11.645-27.227-17.014-35.5-20.223-4.974.334-6.98,4.11-4.962,11.439q.133.483.288.98c10.091,4.2,19.625,8.174,43.018,18.537a50.661,50.661,0,0,0,9.633,11.2,40.808,40.808,0,0,0,1.177-6.351,39.343,39.343,0,0,1-1.108,5.355A44.023,44.023,0,0,1,312.384,124.188Z"/><path class="a" d="M317.9,126.506c-17.7-9.1-28.146-14.04-40.963-20.021l-.011-.036c-1.651-5.993-.148-9.2,3.714-9.713,17.687,7.5,26.829,16.183,33.5,22.522.22.069.452.152.7.251a13.92,13.92,0,0,0,1.232,1.34,28.45,28.45,0,0,0-3.3-3.762c.2.265.289.375.942,1.13q-.4-.161-.756-.274c-12.434-12.4-25.878-18.444-33.911-22.058-4.073.483-5.67,3.808-3.947,10.064.017.067.037.134.055.2,12.648,5.768,23.019,10.559,41.382,19.719a24.422,24.422,0,0,0,4.516,5.38q.455-1.413.759-2.692-.256.919-.6,1.916A18.079,18.079,0,0,1,317.9,126.506Z"/><path class="a" d="M321.712,128.426h0c.026.04.062.092.09.131-.17-.253-.337-.509-.517-.756C321.421,128.014,321.568,128.218,321.712,128.426Z"/><path class="a" d="M291.8,103.438c-2.35.555-3.306,2.677-2.464,6.407,13.912,7.6,20.891,11.619,32.469,18.712-10.252-6.44-17.144-10.5-30.722-18.089-.752-3.447.136-5.424,2.3-5.971,15.3,9.154,20.52,14.825,28.421,24.06C311.739,116.589,306.411,112.128,291.8,103.438Z"/><path class="a" d="M298.125,107.835c-1.652.5-2.347,2.07-1.83,4.729,12.9,7.714,16.169,9.834,25.507,15.993-10.413-7.033-14.884-9.77-23.79-15.224-.45-2.418.185-3.856,1.681-4.339,10.141,6.928,13.241,9.67,22.109,19.563C312.463,117.953,309.434,115.523,298.125,107.835Z"/><path class="a" d="M151.963,341.772l-.213.211c.254.924,2.269,1.561,2.789,1.649.66.112.766,0,.96-.2-.123-.372-.123-.372-.492-.694a5.613,5.613,0,0,0-2.138-.949c-4.234-3.327-8.434-6.872-12.546-10.565-13.576-5.013-16.837-7.142-19.218-9.052l.52.553c3.327,3.126,12.752,6.8,18.383,8.994C143.929,335.232,147.93,338.6,151.963,341.772Z"/><path class="a" d="M145.1,340.81c-.03.037-.069.085-.1.121a6.54,6.54,0,0,0,2.338,1.448c.579.207.684.168.876.1-.079-.239-.079-.239-.384-.5a7.457,7.457,0,0,0-1.834-.973c-2.74-2.152-5.463-4.416-8.147-6.761-7.952-3.951-9.358-5.113-12.438-7.659l.568.555c3.166,2.873,6.691,4.741,11.568,7.326C140.07,336.662,142.627,338.783,145.1,340.81Z"/><path class="a" d="M150.721,345.6a17.967,17.967,0,0,0-1.641-.906q-2.1-1.489-4.308-3.168c-2.728-2.082-5.444-4.293-8.121-6.6-5.082-3.05-6-3.6-8.94-6.132l.361.337.24.224A48.024,48.024,0,0,0,136.355,335c2.514,2.159,5.064,4.229,7.625,6.183q2.135,1.629,4.175,3.072c-.094-.038-.22-.082-.316-.111A11.407,11.407,0,0,0,150,345.5h0c.839.426.982.437,1.148.448A1.278,1.278,0,0,0,150.721,345.6Z"/><path class="a" d="M362.324,250.946c-2.322,1.864-5.664,2.654-9.89,2.38.021-.464.089-1.876-.531-1.992-.113-.021-3.049,4.3-1.187,5.744.407-.137.758-.254,1.331-1.837,4.356.282,7.781-.553,10.133-2.52,3.583-12.889,3.849-18.31,4.432-30.188a34.71,34.71,0,0,0,.388-4.8l-.132-2.214a15.949,15.949,0,0,1-.4,5.334C366.243,234.665,365.016,239.768,362.324,250.946Z"/><path class="a" d="M366.883,227.551c-.742,14.026-2.169,19.168-5.3,30.433-3.818,3.62-10.753,3.982-20.116,1.155a177.4,177.4,0,0,0,6.437-34.291c.738-1.013,1.155-4.379-.135-5.594-1.432.4-1.392,4.295-.692,5.524a167.538,167.538,0,0,1-7.014,36c9.984,3.165,17.334,2.846,21.267-1.04,4.087-12.975,4.556-18.477,5.583-30.533a16.463,16.463,0,0,0,.269-3.017V224.1A16.437,16.437,0,0,1,366.883,227.551Z"/><path class="a" d="M336.392,265.762c.064-.478.261-1.931-.605-2.3-1.283-.552-3.185,2.884-2.644,4.774.211.74,1.154,1.609,2.574-.625,11.744,4.08,20.225,3.769,24.349-1.045a104.82,104.82,0,0,0,5.966-24.817c-1.167,8.937-2.772,14.075-5.608,23.127C356.284,269.507,347.924,269.767,336.392,265.762Z"/><path class="a" d="M366.163,240.705c-.044.35-.087.7-.131,1.041C366.076,241.4,366.12,241.057,366.163,240.705Z"/><path class="a" d="M366.163,240.705c.2-1.551.392-3.189.606-4.982q.072-.561.11-1.157l.123-2.1c-.026.569-.078,1.115-.153,1.637C366.635,236.552,366.407,238.717,366.163,240.705Z"/><path class="a" d="M365.328,248.132l.066-.452c-.041.256-.084.5-.125.749C365.289,248.328,365.309,248.234,365.328,248.132Z"/><path class="a" d="M365.269,248.429c-.718,3.54-1.251,6.161-1.729,8.324C364.186,254.21,364.752,251.522,365.269,248.429Z"/><path class="a" d="M365.394,247.68c.219-1.364.43-2.807.635-4.357Z"/><path class="a" d="M346.194,275.943c.071-.376.257-1.376-.056-1.755-.981-1.187-3.082,3.307-2.769,4.822.125.606.84,1.138,2.149-1.229,5.968.386,10.352-1.13,12.846-4.58,3.011-8.162,3.906-10.712,5.176-16.448-1.214,4.77-2.713,9.077-4.709,14.807C356.334,274.869,352.025,276.32,346.194,275.943Z"/><path class="a" d="M312.186,337.376c8.627-8.543,10.9-13.51,14.224-26.156a50.243,50.243,0,0,1-8.657-1.762c.493-1.131.441-1.716-.178-2.018-1.869-.237-3.931,2.46-4.073,3.786-.124,1.161,1.035,1.687,3.066-.163a51.082,51.082,0,0,0,8.346,1.729c-3.573,13.2-6.144,17.8-14.477,25.914a11.509,11.509,0,0,0,.963-.66h0l1.688-1.312Q312.656,337.074,312.186,337.376Z"/><path class="a" d="M228.241,101.09c4.883,17.73,23.771,44.315,47.467,68.589-24.129,22.585-53.8,51.229-82.272,79.6-5.581,5.561-10.9,10.894-16.328,15.8-.923-.093-3.082-.309-3.468,2.049a2.936,2.936,0,0,0,4.344,3.05c1.475-1.135,1.147-2.472.884-3.545q7.562-7.6,15.945-15.95c28.951-28.843,58.956-58.157,83.011-81.206-23.759-24.149-42.778-50.78-47.648-68.465-3.535-12.836,1.063-18.492,11.329-17.227l-2.159-.234C229.2,82.459,224.7,88.222,228.241,101.09Z"/><path class="a" d="M153.5,293.836a2.714,2.714,0,0,0,3.537,1.311c.539-.317,1.7-1.672.012-3.675-1.808-1.546-3.33-.889-3.844.515-36.007-3.693-44.562-4.57-50.762-1.111-6.841-9.665-11.8-18.7-13.934-25.973l.7,2.333c2.221,7.06,7.049,15.737,13.625,24.986C105.43,290.49,109.351,287.874,153.5,293.836Z"/><path class="a" d="M146.833,286.8c1.264,2.043,2.926,1.606,3.409,1.292.02-.013,1.911-1.407-.012-3.8-1.757-1.563-3.214-.857-3.693.6-30.174-2.652-38.585-2.963-45.507.351-7.14-10.273-12.256-19.837-14.366-27.5q-.21-.762-.376-1.483l.493,2.126q.122.492.261,1c2.093,7.6,7.2,17.1,14.318,27.3C104.148,285.145,109.338,282.268,146.833,286.8Z"/><path class="a" d="M220.5,101.639c4.9,17.811,23.15,44.055,46.43,68.649-24.154,20.788-52.365,46.867-78.93,73.334a11.122,11.122,0,0,1-2.82,2.234c-2.929-.445-3.589,1.621-3.722,2.264a2.915,2.915,0,0,0,4.395,3.1c1.189-.787,1.555-2.058,1.088-3.777q1.194-1.192,2.406-2.4c27.043-26.942,55.635-53.646,79.822-74.875-23.408-24.54-41.831-50.892-46.735-68.7-3.557-12.918.648-18.982,10.384-18.428l-1.621-.08-.539-.023C221.053,82.548,216.94,88.707,220.5,101.639Z"/><path class="a" d="M99.179,274.515c3.625-1.44,10.372-4.119,36.916-1.871,1.177,2.129,2.746,1.583,3.2,1.223.019-.014,1.779-1.572-.018-4-1.634-1.569-3.044-.832-3.463.788-22.369-1.059-29.254-.639-36.834,2.247-7.108-10.626-12.2-20.474-14.407-28.5a33.565,33.565,0,0,1-1.091-5.618l.234,2.22a33.977,33.977,0,0,0,1.026,5.079C86.947,254.076,92.05,263.909,99.179,274.515Z"/><path class="a" d="M205.064,103.845c4.82,17.5,21.314,42.38,43.008,66.78a714.742,714.742,0,0,0-70.558,61.567,11.369,11.369,0,0,1-2.8,2.235,2.915,2.915,0,0,0-3.671,2.272,2.811,2.811,0,0,0,4.206,3.134c1.179-.8,1.563-2.076,1.143-3.8q1.191-1.2,2.4-2.4a764.438,764.438,0,0,1,71.715-62.984c-21.942-24.484-38.684-49.581-43.523-67.152-3.619-13.139.025-19.868,9.009-20.388l-2.1.147C205.013,83.9,201.444,90.7,205.064,103.845Z"/><path class="a" d="M98.105,261.043c6.837-2.35,12.482-2.852,24.955-3.087.782,2.006,2.229,2.073,2.972,1.351a3.328,3.328,0,0,0-.029-4.176c-1.483-1.557-2.7-.636-3.1,1.019-13.893.252-17.987.931-24.851,3.133-6.786-10.577-11.65-20.35-13.883-28.463a32.111,32.111,0,0,1-1.332-8.9l-.028,2.121a32.352,32.352,0,0,0,1.318,8.483C86.365,240.638,91.266,250.44,98.105,261.043Z"/><path class="a" d="M98.257,246.527c5.925-1.709,7.847-1.964,15.037-2.773.549,1.818,1.851,2.135,2.649,1.2a3.886,3.886,0,0,0,.038-4.311c-1.414-1.625-2.51-.207-2.806,1.263-8.18.906-9.322,1.223-14.808,2.743-6.236-10.17-10.724-19.559-12.909-27.491a30.705,30.705,0,0,1-1.292-11.949l-.27,2.058a30.827,30.827,0,0,0,1.31,11.6C87.4,226.836,91.942,236.289,98.257,246.527Z"/><path class="a" d="M101.724,229.416c9.785-2.144,17.059-2.654,32.639-3.02a259.223,259.223,0,0,1,20.072-22.353A239.116,239.116,0,0,1,179.6,182.069a3.264,3.264,0,0,0,2.483-.3c.027-.017,2.673-1.68,1.247-4.161a4.786,4.786,0,0,0-.354-.372,3.171,3.171,0,0,0-4.754,3.288,301.6,301.6,0,0,0-24.83,22.109A253.5,253.5,0,0,0,133.8,224.443c-16.729.383-22.07,1.02-31.749,3.011C96.044,217.337,91.7,208,89.5,200.008c-1.774-6.443-2.026-11.543-.928-15.317L88,186.68c-1.027,3.727-.756,8.726.976,15.015C91.2,209.748,95.613,219.19,101.724,229.416Z"/><path class="a" d="M103.175,221.525c9.4-2.178,18.5-2.537,29.039-2.952a238.364,238.364,0,0,1,18.107-20.132q4.62-4.6,9.466-8.984a2.65,2.65,0,0,0,2.748-.225c1.741-1.166,2.164-3.61.822-4.756-1.607-1.371-5.093.295-4.561,3.6q-4.844,4.372-9.47,8.979a233.666,233.666,0,0,0-17.616,19.57c-15.528.479-20.808,1.5-28.115,2.915-5.579-9.64-9.629-18.549-11.746-26.236-1.946-7.066-2.11-12.558-.707-16.5l-.687,1.963c-1.323,3.9-1.136,9.3.767,16.209C93.361,202.738,97.486,211.76,103.175,221.525Z"/><path class="a" d="M109.813,197.408c6.308-1.14,8-1.292,17.388-2.137q5.57-6.664,12.111-13.194a218.683,218.683,0,0,1,25.226-21.532,2.718,2.718,0,0,0,2.693-.1h0c.028-.014,2.717-1.564,1.664-3.913a3.731,3.731,0,0,0-.288-.349c-1.369-1.273-4.995.153-4.864,3.076a215.1,215.1,0,0,0-25.249,21.494q-6.245,6.222-11.6,12.6a146.693,146.693,0,0,0-16.359,2.022,110.257,110.257,0,0,1-9.08-21.744c-2.429-8.821-2.242-15.332.19-19.573l-1.043,1.846c-2.339,4.227-2.491,10.662-.1,19.342A110.9,110.9,0,0,0,109.813,197.408Z"/><path class="a" d="M313.475,199.971c-.837-.484-1.321-.057-2.052.59q-.771-.578-1.547-1.171a301.6,301.6,0,0,1-23.643-20.147c-21.09,25.7-48.971,56.432-77.6,84.958q-4.544,4.527-8.914,8.783c.492,19.447,2.067,38.851,2.164,58.312a4.469,4.469,0,0,0-1.7,1.2c.378,2.524,3.72,3.244,5.588,1.2-.181-1.3-.213-1.529-1.843-2.267-.183-19.24-1.644-38.428-2.2-57.653q4.1-3.99,8.348-8.222a1077.482,1077.482,0,0,0,76.077-84.107c7.454,6.965,15.21,13.575,23.028,19.538a5.218,5.218,0,0,1,1.522,1.6c.171,1.873.372,1.974,1.485,2.536a3.542,3.542,0,0,0,1.6-1.127h0A3.461,3.461,0,0,0,313.475,199.971Z"/><path class="a" d="M294.629,218.614c1.47.264,4.156-2.4,1.98-5.142-1.008-.519-1.367-.557-2.571.267q-3.76-3.025-7.481-6.2a510.347,510.347,0,0,1-60.293,72.476q-.981.977-1.955,1.936c.383,14.758.383,14.758.307,23.076a2.615,2.615,0,0,0-1.475,1.745c-.4,2.045,2.271,3.8,4.82,2.5h0c1.7-.963,2.018-3.444-.832-4.458-.377-10.165-.377-10.165-.736-22.178q.681-.672,1.364-1.354A487.328,487.328,0,0,0,286.7,210.047q3.179,2.685,6.387,5.268C292.682,217.969,294.03,218.506,294.629,218.614Z"/><path class="a" d="M321.9,128.674l-.1-.117c.41.51.8,1.034,1.23,1.531C322.932,129.948,322.533,129.447,321.9,128.674Z"/><path class="a" d="M352.509,193.5,333.772,151.29a5.865,5.865,0,0,0-.909-1.653l-.047.021c.017.191,1.13,4.532,1.991,4.8,9.9,20.793,14.338,31.983,17.906,40.975a12.419,12.419,0,0,0,3.438-.188c.423,1.4.562,1.529.866,1.811.109-.232.293-.619-.079-2.433a11.839,11.839,0,0,0-1.055-3.14h-.327a6.566,6.566,0,0,0,.149,1.831A11.94,11.94,0,0,1,352.509,193.5Z"/><path class="a" d="M315.962,115.7a11.039,11.039,0,0,0-1.238-1.1l-.733-.591-.014-.012-.045-.035-.832-.661c.908.73,1.761,1.526,2.66,2.27C315.923,115.705,315.923,115.705,315.962,115.7Z"/><path class="a" d="M273.825,91.546a30.4,30.4,0,0,0,3.528,1.341c6.673,2.738,7.411,3.137,16.436,8.027a62.191,62.191,0,0,1,8.156,4.449,67.656,67.656,0,0,0-9.324-5.2,121.15,121.15,0,0,0-19.983-9.1c.393.166.791.323,1.187.481Z"/><path class="a" d="M305.693,107.865c-1.288-.9-2.535-1.732-3.748-2.5.438.286.879.577,1.325.88Z"/><path class="a" d="M212.758,102.559c4.883,17.732,22.321,43.4,44.924,68.034a970.182,970.182,0,0,0-75,67.322c-5.581,5.561-10.846,10.948-16.159,15.963-.89-.091-2.975-.3-3.374,2.1-.383,2.311,1.926,4.452,4.173,3.1,1.084-.731,1.381-1.952.883-3.629Q175.615,247.7,184,239.342c25.13-25.037,52.131-49.3,76.03-68.8-22.8-24.649-40.447-50.483-45.34-68.249-3.6-13.056.328-19.474,9.7-19.472l-2.094.024C213.011,82.974,209.154,89.474,212.758,102.559Z"/><path class="a" d="M197.4,105.5c4.715,17.122,20.151,41.021,40.728,64.922a567.877,567.877,0,0,0-65.649,56.021c-5.581,5.561-10.795,11.005-15.995,16.128a2.546,2.546,0,0,0-3.276,2.166c-.4,2.343,1.782,4.491,3.96,3.107,1.051-.75,1.359-1.988.918-3.677q7.265-7.917,15.644-16.276A598.659,598.659,0,0,1,240.645,170.5c-20.877-24.053-36.591-48.218-41.336-65.45-3.619-13.137-.28-20.134,8.251-21.175l-2.045.265C197.063,85.288,193.781,92.347,197.4,105.5Z"/><path class="a" d="M182.33,109.9c4.4,15.963,17.481,37.418,35.325,59.593a404.353,404.353,0,0,0-54.716,45.493c-5.58,5.56-10.748,11.062-15.841,16.292a2.552,2.552,0,0,0-3.183,2.228c-.432,2.364,1.611,4.5,3.718,3.073,1.019-.772,1.341-2.024.955-3.724q7.128-8.079,15.506-16.44a419.419,419.419,0,0,1,56.164-46.785c-18.215-22.438-31.607-44.23-36.05-60.363-3.617-13.137-.761-20.559,7.042-22.427l-2.044.512C181.508,89.318,178.717,96.782,182.33,109.9Z"/><path class="a" d="M105,213.527c8.57-1.713,12.441-2.054,25.276-2.768A221.925,221.925,0,0,1,146.415,192.9a255.139,255.139,0,0,1,25.027-21.836,2.8,2.8,0,0,0,2.771-.108c.027-.016,2.7-1.623,1.453-4.04a4.111,4.111,0,0,0-.322-.363c-1.222-1.072-4.912-.374-4.814,3.179a249.977,249.977,0,0,0-25.053,21.8,217.979,217.979,0,0,0-15.64,17.29c-13.061.665-17.06,1.39-24.319,2.706-5.127-9.107-8.87-17.535-10.891-24.873-2.116-7.684-2.173-13.551-.436-17.628l-.435,1.032-.367.889c-1.654,4.047-1.57,9.824.5,17.359C95.941,195.73,99.761,204.281,105,213.527Z"/><path class="a" d="M128.608,202.992a208.2,208.2,0,0,1,14.14-15.548q4.62-4.6,9.5-8.936a2.545,2.545,0,0,0,2.649-.244c1.736-1.155,2.275-3.545,1.048-4.651-1.467-1.324-4.9.335-4.574,3.553q-4.875,4.324-9.5,8.93-7.431,7.4-13.637,14.962a156.4,156.4,0,0,0-20.408,2.4c-15.054-27.994-11.737-37.454-10.143-42l-.916,1.874c-5.2,12.206,5.366,32.426,10.445,42.143C114.817,204.168,116.624,203.856,128.608,202.992Z"/><path class="a" d="M112.836,189.33c3.963-.611,9.273-1.258,13.26-1.685q4.686-5.471,10.041-10.812,4.62-4.6,9.528-8.89a2.423,2.423,0,0,0,2.54-.278c1.723-1.148,2.386-3.473,1.291-4.521-1.315-1.26-4.7.4-4.581,3.513q-4.9,4.278-9.531,8.883-5.06,5.04-9.517,10.215c-3.674.381-8.557,1.032-12.212,1.564a107.423,107.423,0,0,1-8.147-20.015c-2.578-9.36-2.248-16.154.558-20.425l-1.145,1.77c-2.714,4.267-3.008,10.994-.466,20.225A108.115,108.115,0,0,0,112.836,189.33Z"/><path class="a" d="M116.273,181.31c2.7-.429,6.318-.844,9.028-1.184q3.754-4.257,7.924-8.415a193.148,193.148,0,0,1,25.4-21.241,2.653,2.653,0,0,0,2.586-.126h0c.028-.014,2.726-1.518,1.892-3.758a3.273,3.273,0,0,0-.25-.332c-1.219-1.209-4.806.184-4.9,2.981a190.442,190.442,0,0,0-25.417,21.205q-3.873,3.859-7.385,7.814c-2.391.261-5.563.739-7.947,1.061a104.137,104.137,0,0,1-7.215-18.2c-2.717-9.865-2.235-16.906.949-21.176l-1.26,1.714c-3.088,4.273-3.531,11.255-.848,21A105.067,105.067,0,0,0,116.273,181.31Z"/><path class="a" d="M141.639,124.751a4.878,4.878,0,0,0-1.362,1.923c-.327,1.223.909,1.266,2.224.538a6.059,6.059,0,0,0,2.6-2.7c.227-.648.141-1.662-1.817-.869-1.628-9.289.23-15.419,4.98-18.454l-1.775,1.155C141.831,109.415,140.023,115.532,141.639,124.751Z"/><path class="a" d="M162.118,130.272c-2.85,2.481-1.935,4.515.048,4.622a5.27,5.27,0,0,0,2.019-.4h0c1.6-.671,4.2-2.851,2.961-4.851-.794-.722-1.718-.817-3.3-.339a84.08,84.08,0,0,1-3.505-9.984c-3.507-12.736-1.421-20.534,5.084-23.517l-1.9.89c-6.4,3.056-8.428,10.866-4.934,23.549A84.242,84.242,0,0,0,162.118,130.272Zm3.059.254c1.007.412.453,1.887-.972,2.588-.564.277-1.629.543-2.042-.215C161.7,131.577,164,130.045,165.177,130.526Z"/><path class="a" d="M137.891,139.482a4.915,4.915,0,0,0-1.03,1.833c-.358,1.525.885,2.053,2.509,1.067h0a5.341,5.341,0,0,0,2.18-2.579c.387-1.139-.006-2.418-2.078-1.547q-.861-2.478-1.508-4.821c-3.277-11.9-1.9-19.685,3.274-23.451l-1.711,1.267c-5.069,3.809-6.4,11.58-3.147,23.4Q137.027,137,137.891,139.482Z"/><path class="a" d="M129.847,136.959a6.748,6.748,0,0,0,2.4-3.023c.205-.691.107-1.735-1.722-.742-1.524-8.691-.047-14.665,3.961-17.969l-1.648,1.381c-3.916,3.33-5.348,9.275-3.839,17.884a5.525,5.525,0,0,0-1.236,2.1C127.481,137.871,128.635,137.814,129.847,136.959Z"/><path class="a" d="M304.728,216.473c.3,2.082,2.193,2.529,3.439.81a3.36,3.36,0,0,0-.246-4.19c-1.04-.339-1.287-.419-2.339.479q-.858-.645-1.727-1.308c-5.965-4.551-11.9-9.444-17.711-14.573a628.726,628.726,0,0,1-65.833,77.162q-2.171,2.163-4.316,4.255c.3,11.285.81,22.562,1.077,33.846a2.56,2.56,0,0,0-1.749,1.688c-.414,2,2.59,3.583,4.728,2.491,1.105-.564,2.543-2.878-.8-4.187-.882-23.143-.882-23.143-1.175-33.1q1.857-1.815,3.732-3.683a593.891,593.891,0,0,0,64.417-76.027c5.524,4.833,11.151,9.452,16.806,13.766a5.921,5.921,0,0,1,1.686,1.745A7.817,7.817,0,0,0,304.728,216.473Z"/><path class="a" d="M207.581,320.022c-.39,1.718,2.213,3.434,4.613,2.478,1.089-.554,2.5-2.608-.776-3.957-.526-13.89-1.175-27.774-1.58-41.669q3-2.914,6.059-5.965a763.225,763.225,0,0,0,70.13-80.344c4.686,4.239,9.466,8.33,14.288,12.21-.329,2.471.75,3.007,1.423,3.106,1.319.2,3.7-2.468,1.721-5.019-1.009-.5-1.309-.3-2.3.364-5.113-4.114-10.177-8.467-15.129-12.983a822.612,822.612,0,0,1-71.593,81.337q-3.357,3.345-6.635,6.531c.187,7.3.187,7.3,1.636,42.335C208.744,318.71,207.8,319.07,207.581,320.022Z"/><path class="a" d="M178.54,354.474c-.086-.246-.086-.246-.373-.449-1.47-.81-3.614-1.125-4.2-.776-.039.713,2.11,1.211,2.769,1.346,13.072,7.989,19.515,9.479,23.779,10.465l2.13.353c-6.333-1.046-14.72-4.638-24.6-10.716C178.364,354.649,178.364,354.649,178.54,354.474Z"/><path class="a" d="M190.453,362.568a1.336,1.336,0,0,0-.175-.084,37.339,37.339,0,0,0-4.89-1.141,16,16,0,0,0,2.573.766,41.352,41.352,0,0,0,4.023,1.2l1.258.293.96.214a40.843,40.843,0,0,1-4.648-1.348C190.318,362.61,190.354,362.6,190.453,362.568Z"/><path class="a" d="M171.209,354.9c-.023-.132-.023-.132-.259-.286a12.28,12.28,0,0,0-4.008-1.246l-.076.084a9.266,9.266,0,0,0,2.483,1.108,70.739,70.739,0,0,0,13.437,6.239l2.283.685a70.278,70.278,0,0,1-14.412-6.586A1.151,1.151,0,0,0,171.209,354.9Z"/><path class="a" d="M174.1,357.8h0l3.761,1.373c.018.006.042.013.06.017l-.134-.052C176.563,358.692,175.329,358.261,174.1,357.8Z"/><path class="a" d="M159.075,348.255a8.926,8.926,0,0,0-2.109-.968q-2.6-1.84-5.329-3.92c-4.234-3.229-8.444-6.71-12.563-10.36-9.572-4.091-12.744-6.044-15.873-8.638l.438.447.1.1c3.216,2.992,8.04,5.29,15.032,8.455,3.926,3.467,7.935,6.775,11.965,9.85q2.661,2.029,5.205,3.828l-.256,0c-.006.066-.014.153-.019.22a8.59,8.59,0,0,0,2.546,1.265c.771.241.8.23,1.216.093A1.867,1.867,0,0,0,159.075,348.255Z"/><path class="a" d="M98.493,267.927c3.374-1.362,11.276-4.552,44.159-1.952,1.21,2.262,3.011,1.57,3.427,1.26.021-.015,1.981-1.651.108-4.2-1.688-1.6-3.244-.826-3.773.84-27.989-1.28-35.873-.5-44.045,2.346-6.978-10.649-11.975-20.5-14.207-28.606a32.949,32.949,0,0,1-1.247-7.239l.1,2.123a33.08,33.08,0,0,0,1.214,6.826C86.454,247.419,91.477,257.276,98.493,267.927Z"/><path class="a" d="M98.02,253.908c7.207-2.329,15.376-3.634,33.809-2.943,1.079,2.263,2.706,1.594,3.19,1.181a3.294,3.294,0,0,0,.168-4.346c-1.395-1.425-2.956-.977-3.553,1.021-22.417-.058-27.345,1.408-33.586,3.266C91.513,241.672,86.821,232.055,84.6,224a31.3,31.3,0,0,1-1.338-10.533l-.121,1.644-.029.429a31.407,31.407,0,0,0,1.342,10.166C86.679,233.781,91.417,243.445,98.02,253.908Z"/><path class="a" d="M321.647,140.839c-.947.456-1.265,4.516-.362,4.62.314.037.616-.512.774-1.4a6.81,6.81,0,0,0-.144-3,50.048,50.048,0,0,0-.113-12.5A49.392,49.392,0,0,1,321.647,140.839Zm.146,2.629c-.056.359-.217.926-.465.772-.421-.432-.07-2.294.266-2.287.212,0,.314.783.2,1.515Z"/><path class="a" d="M241.673,101.018a51.415,51.415,0,0,0,1.9,5.543c2.872.863,6.7,2.008,9.571,2.88-1.024.981,1.242,1.78,3.318,1.92h0c1.261.086,4.6-.088,3.607-1.381-1.543-1.138-4.238-1.116-4.54-1.109-1.53.031-1.53.031-10.177-2.6A49.89,49.89,0,0,1,243.6,101.1c-2.8-10.15.144-15.237,7.268-15.424l8.572,1.77c.044.014,4.6,1.438,5.875,1.661-.544-.67-6.356-2.234-16.053-3.81C241.87,85.408,238.8,90.591,241.673,101.018Zm16.4,8.843c.536.27.5.584-.081.763a4.223,4.223,0,0,1-1.279.123h0c-.592-.025-1.67-.191-1.951-.651C254.52,109.357,256.973,109.309,258.071,109.861Zm2.122-22.341a22,22,0,0,1,3.469,1.022,20.929,20.929,0,0,1-2.354-.614,8.521,8.521,0,0,1-1.166-.4A.1.1,0,0,1,260.193,87.52Z"/><path class="a" d="M312.9,119.739c.221.233.366.379,1.712,1.643.863.81,1.718,1.627,2.584,2.433q2.342,2.305,4.6,4.742-2.248-2.441-4.577-4.751A49.33,49.33,0,0,0,312.9,119.739Z"/><path class="a" d="M319.763,126.543c.232.228.469.448.7.678l-.209-.209C320.092,126.853,319.925,126.7,319.763,126.543Z"/><path class="a" d="M320.463,127.221l1.339,1.336-.926-.936C320.74,127.484,320.6,127.357,320.463,127.221Z"/><path class="a" d="M312.554,119.937c.556.553,4.424,3.951,4.463,3.984.924.857,1.836,1.736,2.746,2.622-.9-.888-1.806-1.779-2.727-2.639A50.867,50.867,0,0,0,312.554,119.937Z"/><path class="a" d="M308.679,118.43c-.741-.6-4.331-3.111-4.833-3.061a18.013,18.013,0,0,0,1.974,1.377c.084.054,2.056,1.334,2.857,1.774a141.795,141.795,0,0,1,12,9.079l1.124.958-1.769-1.511A142.508,142.508,0,0,0,308.679,118.43Z"/><path class="a" d="M317.124,123.848a51.077,51.077,0,0,0-4.409-4.024c.23.236.381.382,1.755,1.634.878.8,1.749,1.607,2.631,2.4q2.388,2.283,4.7,4.7Q319.5,126.137,317.124,123.848Z"/><path class="a" d="M303.867,115.884a17,17,0,0,0,1.987,1.336c.209.131,2.07,1.287,2.841,1.685,1.907,1.289,4.069,2.85,6.225,4.45q-3.042-2.156-6.184-4.136c-.764-.579-4.38-2.92-4.791-2.769a16,16,0,0,0,1.994,1.292c.082.049,2.022,1.2,2.817,1.587,2.741,1.7,5.421,3.522,8.047,5.43,1.767,1.328,3.483,2.639,5,3.8a138.708,138.708,0,0,0-13.116-9.752C307.934,118.215,304.327,115.784,303.867,115.884Z"/><path class="a" d="M352.872,215.69c-1-3.3-2.322-7.7-3.365-10.983.231-2.5-.556-6.081-1.568-5.995-1.308,1.224-.3,7.393.736,7.643.222.054.334-.094.474-.28,1.087,3.448,2.537,8.048,3.537,11.524,5.03.852,8.795.135,11.026-2.178l1.117,4.466a23.238,23.238,0,0,0,.52,5.12l.175.042a13.894,13.894,0,0,0,.219-3.7,15.467,15.467,0,0,0-.545-3.844l-.175-.047a2.676,2.676,0,0,0-.153.862l-1.28-4.912C361.441,215.73,357.78,216.481,352.872,215.69Zm-4.3-11.255c-.772-.356-.818-3.609-.37-3.821.327-.155.734,1,.793,2.248h0C349.026,203.467,348.97,204.479,348.576,204.435Zm16.678,14.921a5.049,5.049,0,0,1,.278,1.765h0a7.363,7.363,0,0,1-.093,2.034c-.161.181-.279-.95-.319-1.573C365.046,220.418,365.088,219.193,365.254,219.356Z"/><path class="a" d="M352.627,235.185c.264.045.927-.138,1.388-2.78a14.809,14.809,0,0,0,8.406-1.116c.1,1.821.275,2.317.516,2.528.678-.1.784-3.4.789-3.545h0c.01-.353.084-3.465-.565-4.208l-.132.005-.109.126a8.944,8.944,0,0,0-.5,3.16,14.619,14.619,0,0,1-8.293,1.1c-.174-3.452-1.1-3.219-1.445-2.838C351.519,228.916,351.16,234.94,352.627,235.185Zm10.381-7.1c.061-.112.154-.18.253.13a6.5,6.5,0,0,1,.159,1.711h0a4.45,4.45,0,0,1-.334,1.952C362.605,232.041,362.712,228.622,363.008,228.081Zm-10.07,1.272c.411-.205.7.918.577,2.222-.059.616-.277,1.66-.72,1.667C351.947,232.974,352.384,229.628,352.938,229.353Z"/><path class="a" d="M290.646,242.927a2.126,2.126,0,0,0,1.582,1.255,3.113,3.113,0,0,0,2.132-5.333c-2.728-1.146-3.687,1.417-3.916,2.229-5.114,1.295-11.988,2.808-17.156,3.87a394.788,394.788,0,0,1-28.6,34.2c.434,9.924.434,9.924.8,21.989q3.649,2.7,7.18,5.164a217.3,217.3,0,0,1-17.433,15.08c-2.861-.509-3.859.867-4.1,1.3-1.1,2.012,1.934,3.719,4.391,2.467a1.972,1.972,0,0,0,1.109-2.794,214.354,214.354,0,0,0,18.9-16.445q-3.924-2.711-8-5.709c-.189-6.14-.5-14.326-.771-20.463a380.926,380.926,0,0,0,27.428-33.022C279.154,245.706,285.73,244.153,290.646,242.927Z"/><path class="a" d="M272.3,283.141c-.342,2.481,2.48,3.621,4.507,1.82h0a2.982,2.982,0,0,0,.787-3.64c19.12-24.318,33.567-51.59,41.779-77.561-.02-.125-2.115-12.551-1.65-13.676a3.307,3.307,0,0,0-.529-3.344,1.56,1.56,0,0,0-1.143,0c-1.036.631-2.145,4.352.192,4.938.572,3.64,1.369,8.489,1.965,12.127-8.476,25.6-23,52.49-42.014,76.544A3.385,3.385,0,0,0,272.3,283.141Z"/><path class="a" d="M115,138.5c1.181-1.23,2.8-3.43,2.525-3.831-.218-.017-.468.154-1.113.764a12.712,12.712,0,0,1,2.838-5.619l-1.435,1.615a12.773,12.773,0,0,0-2.725,5.49c-1.326,1.712-1.49,2.264-1.485,2.553l.079.055C113.818,139.489,114.124,139.411,115,138.5Z"/><path class="a" d="M190.141,327.774a2.034,2.034,0,0,0,1-.759c.758-1.3-1.07-3.385-3.823-2.939q-4.632-3.78-9.205-7.752c-1.566-21.771-1.566-21.771-2.136-30.742q4.482-4.279,9.276-8.933a3.574,3.574,0,0,0,1.27.31c1.919.047,4.03-2.16,1.854-4.729a4.679,4.679,0,0,0-.975-.644,2.7,2.7,0,0,0-3.54,3.708q-5.045,4.926-9.74,9.449c.6,9.49.6,9.49,2.286,31.942q4.8,4.182,9.675,8.164a2.943,2.943,0,0,0-.136.261C185.3,326.766,188.045,328.509,190.141,327.774Z"/><path class="a" d="M237.98,332.31a3.1,3.1,0,0,0-1.389-1.127c-3.878-1.216-7.046,1.372-6.072,3.256a3.958,3.958,0,0,0,.247.365,137.48,137.48,0,0,1-18.214,9.571q5.435,3.549,10.47,6.427c-1.961,1.379.013,2.2.938,2.4a8.654,8.654,0,0,0,3.494-.082c2.167-.534,2.912-1.786,1.533-2.575-.462-.265-1.82-.825-4.453-.322q-4.5-2.577-9.334-5.688a137.034,137.034,0,0,0,16.867-8.888C236,336.774,239,334.181,237.98,332.31Zm-4-.121c1.551-.249,2.722.7,2.055,1.656a1.832,1.832,0,0,1-.626.528,2.823,2.823,0,0,1-2.628.01C231.69,333.59,232.552,332.416,233.98,332.189Zm-8.655,18.78c1.4-.292,2.807.209,2.434.864a1.656,1.656,0,0,1-.892.558,3.756,3.756,0,0,1-2.464-.1C223.562,351.767,224.373,351.168,225.325,350.969Z"/><path class="a" d="M300.176,339.657a136.977,136.977,0,0,0,11.465-10.217q1.191-1.188,2.352-2.4a7.548,7.548,0,0,0,2.388-1.66c.022-.023,2.289-2.3,1.168-2.679-1.6.119-4.655,3.107-4.359,4.262q-1.16,1.212-2.352,2.4-4.821,4.8-9.938,8.989a48.352,48.352,0,0,1-6.813-1.282c1.047-2.923,1.974-6.975,3.018-9.9.117-.326.474-.32.694-.505a3.479,3.479,0,0,0,1.467-2.377c-.107-1.508-3-.682-4.614,1.32-1.021,1.263-.982,2.49.7,2.3-.813,3.125-2.128,7.232-3.166,10.29A47.264,47.264,0,0,0,300.176,339.657Z"/><path class="a" d="M337.324,306.784c-1.286.555-3.92,4.257-3.479,4.892.2.009.257.012.7-.334-3.225,7.523-5.433,10.818-10.74,16.025l1.626-1.594h0l2.185-2.235c1.886-2.261,4.476-5.308,5.684-7.989a51.767,51.767,0,0,1,2.466-5.471c.335-.543.788-1,1.112-1.551.761-1.3.713-1.559.589-1.736Z"/><path class="a" d="M328.106,323.041l-.485.5-.007.009Q327.861,323.295,328.106,323.041Z"/><path class="a" d="M141.566,328.714h0c.854-.156,1.42-1.224-.491-2.794-1.764-1.139-2.9-.85-3.122.023-15.575-4.9-19.281-6.722-20.1-7.373l.5.567c3.531,2.384,16.032,6.437,19.779,7.623A3.81,3.81,0,0,0,141.566,328.714Zm-2.016-2.627c.941-.022,2.051,1.138,1.563,1.632a.552.552,0,0,1-.2.116h0a1.673,1.673,0,0,1-1.47-.505C138.766,326.658,138.946,326.1,139.55,326.087Z"/><path class="a" d="M155.264,280.848c1.285,2.17,3.12,1.661,3.662,1.312.021-.014,2.105-1.528.112-4-1.829-1.6-3.512-.886-4.023.691-35.462-2.613-46.165-3.4-55.143.392-7.165-10.5-12.293-20.258-14.464-28.141a35.005,35.005,0,0,1-.786-3.5l.367,2.179q.263,1.418.692,2.984c2.158,7.836,7.29,17.551,14.456,28.008C103.352,279.092,109.338,275.963,155.264,280.848Z"/><path class="a" d="M207.251,168.835a353.534,353.534,0,0,0-48.823,40.442q-1.21,1.208-2.4,2.413c-3.048-1.068-3.878,2.016-3.912,2.147-.623,2.421,1.4,4.571,3.731,3.088a3.567,3.567,0,0,0,1.289-3.816q1.184-1.2,2.4-2.412A364.942,364.942,0,0,1,209.853,169c-16.679-21.294-28.828-41.689-33.067-57.084-3.593-13.047-.989-20.623,6.4-22.876l-1.971.618c-7.3,2.337-9.853,9.947-6.265,22.976C179.138,127.83,190.971,147.858,207.251,168.835Z"/><path class="a" d="M189.831,107.516c4.573,16.606,18.866,39.356,38.149,62.509a472.154,472.154,0,0,0-60.355,50.682,11.692,11.692,0,0,1-2.781,2.239,2.923,2.923,0,0,0-3.614,2.288c-.566,2.376,1.644,4.58,3.985,3.13,1.162-.8,1.57-2.086,1.21-3.815q1.187-1.2,2.4-2.409a492.867,492.867,0,0,1,61.712-52c-19.621-23.363-34.207-46.415-38.819-63.163-3.628-13.173-.522-20.4,7.67-21.86l-2.039.385C189.248,87.063,186.2,94.344,189.831,107.516Z"/></g><g transform="translate(420 671.5)"><g transform="translate(9.485 9.485)"><path class="b" d="M4.015,8.03A4.015,4.015,0,1,0,0,4.015,4.015,4.015,0,0,0,4.015,8.03Z"/></g><path class="c" d="M13,26.5A13.5,13.5,0,0,0,26.5,13h-.75A12.75,12.75,0,0,1,13,25.75ZM26.5,13A13.5,13.5,0,0,0,13-.5V.25A12.75,12.75,0,0,1,25.75,13ZM13-.5A13.5,13.5,0,0,0-.5,13H.25A12.75,12.75,0,0,1,13,.25ZM-.5,13A13.5,13.5,0,0,0,13,26.5v-.75A12.75,12.75,0,0,1,.25,13Z" transform="translate(0.5 0.5)"/></g><g transform="translate(345 826.5)"><g transform="translate(9.485 9.485)"><path class="b" d="M4.015,8.03A4.015,4.015,0,1,0,0,4.015,4.015,4.015,0,0,0,4.015,8.03Z"/></g><path class="c" d="M13,26.5A13.5,13.5,0,0,0,26.5,13h-.75A12.75,12.75,0,0,1,13,25.75ZM26.5,13A13.5,13.5,0,0,0,13-.5V.25A12.75,12.75,0,0,1,25.75,13ZM13-.5A13.5,13.5,0,0,0-.5,13H.25A12.75,12.75,0,0,1,13,.25ZM-.5,13A13.5,13.5,0,0,0,13,26.5v-.75A12.75,12.75,0,0,1,.25,13Z" transform="translate(0.5 0.5)"/></g><g transform="translate(323 682.5)"><g transform="translate(9.485 9.485)"><path class="b" d="M4.015,8.03A4.015,4.015,0,1,0,0,4.015,4.015,4.015,0,0,0,4.015,8.03Z"/></g><path class="c" d="M13,26.5A13.5,13.5,0,0,0,26.5,13h-.75A12.75,12.75,0,0,1,13,25.75ZM26.5,13A13.5,13.5,0,0,0,13-.5V.25A12.75,12.75,0,0,1,25.75,13ZM13-.5A13.5,13.5,0,0,0-.5,13H.25A12.75,12.75,0,0,1,13,.25ZM-.5,13A13.5,13.5,0,0,0,13,26.5v-.75A12.75,12.75,0,0,1,.25,13Z" transform="translate(0.5 0.5)"/></g><g transform="translate(452 792.5)"><g transform="translate(9.485 9.485)"><path class="b" d="M4.015,8.03A4.015,4.015,0,1,0,0,4.015,4.015,4.015,0,0,0,4.015,8.03Z"/></g><path class="c" d="M13,26.5A13.5,13.5,0,0,0,26.5,13h-.75A12.75,12.75,0,0,1,13,25.75ZM26.5,13A13.5,13.5,0,0,0,13-.5V.25A12.75,12.75,0,0,1,25.75,13ZM13-.5A13.5,13.5,0,0,0-.5,13H.25A12.75,12.75,0,0,1,13,.25ZM-.5,13A13.5,13.5,0,0,0,13,26.5v-.75A12.75,12.75,0,0,1,.25,13Z" transform="translate(0.5 0.5)"/></g><g transform="translate(495 860.5)"><g transform="translate(9.485 9.485)"><path class="b" d="M4.015,8.03A4.015,4.015,0,1,0,0,4.015,4.015,4.015,0,0,0,4.015,8.03Z"/></g><path class="c" d="M13,26.5A13.5,13.5,0,0,0,26.5,13h-.75A12.75,12.75,0,0,1,13,25.75ZM26.5,13A13.5,13.5,0,0,0,13-.5V.25A12.75,12.75,0,0,1,25.75,13ZM13-.5A13.5,13.5,0,0,0-.5,13H.25A12.75,12.75,0,0,1,13,.25ZM-.5,13A13.5,13.5,0,0,0,13,26.5v-.75A12.75,12.75,0,0,1,.25,13Z" transform="translate(0.5 0.5)"/></g></g></svg>