<svg xmlns="http://www.w3.org/2000/svg" width="18.339" height="21.02" viewBox="0 0 18.339 21.02"><defs><style>.a{fill:#5b5b5b;fill-rule:evenodd;}</style></defs><path class="a" d="M9.249,21.02h0C-1.19,18.763.08,3.386.08,3.386A10.535,10.535,0,0,0,9.179.071V0h0V.071a10.65,10.65,0,0,0,9.1,3.315C18.349,3.386,19.689,18.763,9.249,21.02ZM16.444,4.585A8.179,8.179,0,0,1,9.249,2.046V1.975h0v.071A8.709,8.709,0,0,1,1.984,4.585S1,17.422,9.249,19.186h0C17.5,17.422,16.444,4.585,16.444,4.585ZM9.249,17.846h0a4.5,4.5,0,0,1-.494-.141l6.207-6.842C14.257,13.755,12.776,17.07,9.249,17.846ZM6.075,16.153l9.17-9.946c0,.494,0,1.27-.071,2.187L7.345,17.07A4.187,4.187,0,0,1,6.075,16.153ZM3.183,5.713a6.931,6.931,0,0,0,6-2.116V3.527h0V3.6a6.875,6.875,0,0,0,4.585,2.187l-8.605,9.24C2.76,11.356,3.183,5.713,3.183,5.713Z" transform="translate(-0.031)"/></svg>