<svg xmlns="http://www.w3.org/2000/svg" width="18.3" height="18.318" viewBox="0 0 18.3 18.318"><defs><style>.a{fill:#111328;}</style></defs><g transform="translate(-4 -4.001)"><path class="a" d="M45.064,12.564,42.7,14.929a4.86,4.86,0,0,1-.418.374,5.013,5.013,0,0,1-7.644-1.738,1.676,1.676,0,0,1,2.151.182,3.338,3.338,0,0,0,3.8.653,3.3,3.3,0,0,0,.925-.653l2.365-2.365a3.344,3.344,0,1,0-4.73-4.73L37.335,8.47a6.7,6.7,0,0,0-2.1-.217,4.965,4.965,0,0,1,.374-.418L37.97,5.47a5.016,5.016,0,1,1,7.094,7.094Z" transform="translate(-24.233)"/><path class="a" d="M14.919,40.847l-2.365,2.365A5.017,5.017,0,0,1,5.46,36.118l2.365-2.365a4.991,4.991,0,0,1,2.251-1.3,5.014,5.014,0,0,1,3.479.328,5,5,0,0,1,2.332,2.332,1.675,1.675,0,0,1-2.15-.182,3.338,3.338,0,0,0-3.8-.653,3.293,3.293,0,0,0-.925.653L6.642,37.3a3.344,3.344,0,1,0,4.73,4.73l1.818-1.818a6.787,6.787,0,0,0,2.1.218A4.853,4.853,0,0,1,14.919,40.847Z" transform="translate(0 -22.371)"/></g></svg>