<svg xmlns="http://www.w3.org/2000/svg" width="105.219" height="20.523" viewBox="0 0 105.219 20.523"><defs><style>.a{fill:#bbe7f6;}</style></defs><g transform="translate(-25.89 -101.836)"><path class="a" d="M78.487,112.359l-10.4-8-10.4,8-10.4-8-10.4,8L25.89,103.89l1.22-1.585,9.789,7.531,10.4-8,10.4,8,10.4-8,10.4,8,10.4-8,10.4,8,10.4-8,10.406,8,9.8-7.532,1.219,1.586-11.016,8.468-10.406-8-10.4,8-10.4-8Z"/><path class="a" d="M78.487,122.359l-10.4-8-10.4,8-10.4-8-10.4,8L25.89,113.89l1.22-1.585,9.789,7.531,10.4-8,10.4,8,10.4-8,10.4,8,10.4-8,10.4,8,10.4-8,10.406,8,9.8-7.532,1.219,1.586-11.016,8.468-10.406-8-10.4,8-10.4-8Z"/></g></svg>