<svg xmlns="http://www.w3.org/2000/svg" width="168.954" height="209.201" viewBox="0 0 168.954 209.201"><defs><style>.a{fill:#fff;}</style></defs><g transform="translate(432.958 -69.564)"><path class="a" d="M-265.825,166.3A181.536,181.536,0,0,1-276.5,150.9c-3.125-5.024-5.618-10.212-5.795-16.376a31.57,31.57,0,0,0-2.156-9.992,118.583,118.583,0,0,0-8.289-17.151,74.161,74.161,0,0,0-19.681-22.4A74.648,74.648,0,0,0-330.241,74.87,75.036,75.036,0,0,0-349.766,70a70.309,70.309,0,0,0-18.692.408,81.293,81.293,0,0,0-16.053,4.083,73.309,73.309,0,0,0-25.93,16.549,73.643,73.643,0,0,0-18.729,29.995,69.332,69.332,0,0,0-3.735,20.258,74.472,74.472,0,0,0,.865,15.763,92.374,92.374,0,0,0,2.616,10.924A77.421,77.421,0,0,0-415,193.7c.4.476.735,1.1,1.549,1.2a1.234,1.234,0,0,0-.195-1.2,70.933,70.933,0,0,1-5.679-15.745,88.5,88.5,0,0,1-2.623-19.323,81.727,81.727,0,0,1,.414-11.237,115.134,115.134,0,0,1,2.091-13,78.216,78.216,0,0,1,8.222-21.195,59.592,59.592,0,0,1,23.558-23.1,60.581,60.581,0,0,1,16.335-6.08c2.864-.55,24.278-4.081,47.088,8.345a61.36,61.36,0,0,1,7.933,6.093c12.362,11.192,19.023,25.323,20.541,41.843a58.144,58.144,0,0,1-1.408,17.81,61.638,61.638,0,0,1-10.653,23.58,61.973,61.973,0,0,1-18.369,16.624c-3.232,1.929-6.775,3.221-10.094,4.951a58.412,58.412,0,0,0-19.463,16.342,51.1,51.1,0,0,0-11.021,31.746,48.043,48.043,0,0,0,2.95,16.28,73.178,73.178,0,0,0,4.857,10.3c.2.372.416.894.9.822.54-.08.427-.685.517-1.085.365-1.642.476-3.321.788-4.979a62.664,62.664,0,0,1,5.133-15.919c5.325-10.966,13.84-18.356,25.129-22.709a68.084,68.084,0,0,1,16.272-3.87c4.205-.518,8.44-.653,12.675-.825,4.877-.2,9.668,1.122,14.612.216,7.454-1.366,9.439-5.9,7.333-12.411-.581-1.8-1.283-3.542-1.764-5.389a6.624,6.624,0,0,1,1.982-7.065,4.323,4.323,0,0,0,.973-5.236,8.817,8.817,0,0,0-1.811-2.687c-1.417-1.384-1.337-1.742.247-2.834a11.482,11.482,0,0,0,2.422-1.921c2.465-2.98,2.8-4.149.549-6.786-1.462-1.715-1.3-3.083.224-4.764a65.865,65.865,0,0,1,5.892-5.145c3.442-2.985,3.819-5.5,1.067-9.049" transform="translate(0)"/><path class="a" d="M-355.063,325.507l.176-.3c-.04-.082-.082-.164-.122-.245a3.608,3.608,0,0,1-.054.541" transform="translate(-34.849 -114.262)"/><path class="a" d="M-336.851,335.946c-2.107.686-3.141-.226-3.453-2.239-2.827-18.229-2.064-35.862,8.393-51.963,4.641-7.145,11.092-12.2,18.324-16.43a2.281,2.281,0,0,1,3.116.626c1.195,1.281,2.373,2.58,3.513,3.911,4.095,4.786,3.951,4.588-1.2,8.025-12.484,8.332-22.21,18.9-26.071,33.889a45.441,45.441,0,0,0-.737,20.133c.363,1.882.548,3.57-1.888,4.05" transform="translate(-39.82 -87.407)"/><path class="a" d="M-242.32,242.333c-2.261-.233-5.164-.449-8.041-.853a5.5,5.5,0,0,0-5.527,2.189c-1.674,2.095-3.509,4.064-5.325,6.043-1.515,1.651-3.119,1.792-3.141-.815-.073-8.849-4.428-13.865-12.942-15.765-2.19-.489-2.185-1.922-.212-3.069a78.354,78.354,0,0,1,7.324-4.092,4.271,4.271,0,0,0,2.866-4.281c.078-2.556.467-5.1.676-7.654.1-1.184.1-2.583,1.183-3.133,1.1-.56,1.824.77,2.578,1.389a46.6,46.6,0,0,1,5.424,4.927c1.742,1.967,3.636,2.226,5.972,1.53,2.462-.734,4.954-1.372,7.449-1.981.873-.213,1.9-.593,2.585.365.571.8.115,1.609-.348,2.27-4.935,7.051-4.387,13.762,1.175,20.2,1.312,1.518,1.123,2.506-1.7,2.73" transform="translate(-68.894 -63.172)"/><path class="a" d="M-361.914,302.866a9.671,9.671,0,0,1-1.172,1.424,1.392,1.392,0,0,1-1.668.185c-.582-.362-.359-.875-.228-1.393a52.706,52.706,0,0,0,1.977-13.438,35.987,35.987,0,0,0-8.975-24.133c-2.862-3.262-2.92-3.213,1.226-4.251.942-.235,1.888-.449,2.829-.684a3.467,3.467,0,0,1,3.566,1.232c8.821,8.953,9.035,19.494,6.024,30.791-.967,3.625-2.81,6.876-3.579,10.266" transform="translate(-26.371 -85.404)"/><path class="a" d="M-284.226,143.063c2.8,1.974,5.045.66,7.24-1.589,1.32-1.353,1.5-1.2,1.811.624a5.01,5.01,0,0,1,.13,1.682c-.429,2.3.705,3.589,2.649,4.477.912.417,2.238.873,2.236,1.834,0,1.028-1.48,1.2-2.319,1.3-3.459.419-3.312,3.463-4.194,5.652-.549,1.367-.832,1.593-1.741.387a18.13,18.13,0,0,1-1.518-1.83c-.955-1.7-2.373-1.8-4.071-1.518-1.066.175-2.513.8-3.169-.208-.543-.839.581-1.932,1.21-2.595,2.016-2.124,1.164-4.142.123-6.239-.3-.606-.794-1.325-.393-1.9s1.154.045,2-.075" transform="translate(-65.158 -31.77)"/><path class="a" d="M-386.448,332.909c2.8,1.974,5.045.66,7.24-1.589,1.32-1.353,1.5-1.2,1.812.624a4.994,4.994,0,0,1,.13,1.682c-.428,2.3.706,3.589,2.649,4.477.912.417,2.239.873,2.237,1.834,0,1.028-1.48,1.2-2.318,1.3-3.46.419-3.314,3.463-4.194,5.652-.55,1.367-.832,1.593-1.742.386a18.143,18.143,0,0,1-1.518-1.83c-.955-1.7-2.373-1.8-4.071-1.518-1.067.175-2.513.8-3.169-.208-.543-.839.581-1.933,1.21-2.595,2.016-2.123,1.164-4.142.123-6.239-.3-.606-.794-1.325-.393-1.9s1.154.045,2-.075" transform="translate(-19.426 -116.703)"/><path class="a" d="M-393.59,241.8a5.109,5.109,0,0,1-.4-.411c-1.949-3.15-4.691-3.982-8.19-2.968-1.134.328-1.522-.309-.957-1.386a2.119,2.119,0,0,1,.218-.391c2.16-2.556,2.254-5.171.305-7.9-.315-.442-.805-1.04-.322-1.624a1.375,1.375,0,0,1,1.674-.184c2.8,1.167,5,.743,7.094-1.731,1.637-1.937,2.49-1.616,2.514.82.031,3.1,1.524,4.785,4.154,5.892.585.246,1.358.535,1.346,1.34-.011.739-.762.872-1.3,1.024-3.157.889-4.643,2.942-4.645,6.22,0,.962-.345,2.044-1.49,1.3" transform="translate(-13.227 -69.066)"/><path class="a" d="M-337.873,233.122c.433.034.521.421.647.71a3.341,3.341,0,0,0,3.155,2.186c.481.02,1.11.033,1.252.668.112.505-.29.849-.653,1.119-1.243.923-1.294,2.164-1.031,3.526.08.414.466.884.013,1.27s-.935.053-1.245-.2c-1.386-1.127-2.634-.838-3.964.127-.885.642-1.511.262-1.258-.8a3.454,3.454,0,0,0-1.41-4c-.639-.467-.67-1.2.3-1.293a3.611,3.611,0,0,0,3.551-2.858.607.607,0,0,1,.649-.453" transform="translate(-40.323 -73.172)"/><path class="a" d="M-314.052,203.3a1.1,1.1,0,0,1,.812.857,2.572,2.572,0,0,0,2.8,1.949c.535-.009,1.243,0,1.469.631.238.663-.375,1.013-.805,1.351a2.893,2.893,0,0,0-.9,3.163c.3,1.7-.006,1.942-1.491,1.183-1.221-.625-2.277-.807-3.389.154a.991.991,0,0,1-1.245.242c-.379-.272-.238-.752-.133-1.105a2.714,2.714,0,0,0-1.223-3.364c-.407-.27-.937-.655-.832-1.189.114-.586.774-.6,1.268-.644a3.211,3.211,0,0,0,2.769-2.157c.183-.394.287-1.028.9-1.069" transform="translate(-50.981 -59.832)"/><path class="a" d="M-311.828,172.486a1.106,1.106,0,0,1,.812.857,2.571,2.571,0,0,0,2.8,1.949c.535-.009,1.244,0,1.47.631.237.663-.375,1.012-.805,1.351a2.891,2.891,0,0,0-.9,3.163c.3,1.7-.007,1.942-1.491,1.183-1.222-.624-2.278-.806-3.389.154a.99.99,0,0,1-1.245.242c-.379-.272-.238-.752-.133-1.105a2.714,2.714,0,0,0-1.224-3.364c-.407-.27-.937-.655-.832-1.189.114-.586.775-.6,1.268-.643a3.211,3.211,0,0,0,2.77-2.158c.183-.393.287-1.028.9-1.069" transform="translate(-51.975 -46.045)"/><path class="a" d="M-366.147,173.355a3.232,3.232,0,0,1-.721-.3c-1.28-1.18-2.561-.821-3.846-.022-.331.206-.663.557-1.065.266-.384-.278-.251-.757-.134-1.1.557-1.629-.223-2.694-1.4-3.663-.889-.734-1.123-1.422.4-1.528a3.538,3.538,0,0,0,3.146-2.381c.468-1.062.981-1.26,1.513-.052a3.491,3.491,0,0,0,3.15,2.157c1.437.153,1.619.718.537,1.674a2.8,2.8,0,0,0-1.034,3.393c.2.558.377,1.483-.554,1.557" transform="translate(-26.371 -42.135)"/><path class="a" d="M-353,205.019c-2.613-1.849-5.507-1.929-8.557.395-1.4,1.064-2.914.522-2.375-1.577.977-3.8-.212-6.481-3.336-8.726-1.552-1.115-2.184-3.085.643-3.192,4-.152,6.084-2.284,7.521-5.6.853-1.971,1.959-2.94,3.067-.231,1.532,3.746,3.954,5.851,8.241,5.69,1.9-.071,2.145,1.29.749,2.393-2.961,2.342-4,5.072-2.907,8.805.539,1.848-.541,2.867-3.047,2.046" transform="translate(-28.798 -51.383)"/><path class="a" d="M-350.422,381.193c-.352.737-.464.989-.59,1.234-.512,1-1.232,1.815-2.438,1.3-1.279-.544-1.032-1.647-.585-2.65a16.862,16.862,0,0,0,1.493-4.911,20.43,20.43,0,0,0-2.176-12.6,11.239,11.239,0,0,0-3.865-4.205c-1.033-.66-2.165-1.509-1.29-2.784.926-1.351,2.228-.639,3.267.13,4.641,3.433,6.617,8.284,7.348,13.818a25.481,25.481,0,0,1-1.163,10.662" transform="translate(-32.556 -128.067)"/><path class="a" d="M-397.908,195.536a5.322,5.322,0,0,1,7.26-2.535,5.381,5.381,0,0,1,2.309,7.218,5.246,5.246,0,0,1-7.29,2.42c-2.787-1.4-3.688-4.2-2.28-7.1m5.621.311c-1.285-.652-2.227.01-2.929.94-.611.808.13,2.962,1.085,3.288a2.246,2.246,0,0,0,2.979-1.271,2.032,2.032,0,0,0-1.134-2.957" transform="translate(-15.387 -54.961)"/><path class="a" d="M-300.1,233.223a5.321,5.321,0,0,1,7.26-2.534,5.381,5.381,0,0,1,2.31,7.217,5.247,5.247,0,0,1-7.29,2.42c-2.787-1.4-3.689-4.2-2.28-7.1m5.621.311c-1.285-.652-2.227.011-2.928.94-.611.808.129,2.962,1.084,3.288a2.247,2.247,0,0,0,2.98-1.271,2.033,2.033,0,0,0-1.135-2.957" transform="translate(-59.145 -71.821)"/><path class="a" d="M-328.118,133.88a5.322,5.322,0,0,1,7.26-2.535,5.381,5.381,0,0,1,2.309,7.218,5.246,5.246,0,0,1-7.289,2.42c-2.787-1.4-3.689-4.2-2.28-7.1m5.621.311c-1.285-.652-2.227.01-2.928.94-.611.808.129,2.962,1.084,3.288a2.247,2.247,0,0,0,2.98-1.271,2.033,2.033,0,0,0-1.135-2.957" transform="translate(-46.61 -27.377)"/><path class="a" d="M-316.649,268.1a2.172,2.172,0,0,1-2.17-2.17,2.172,2.172,0,0,1,2.17-2.17,2.173,2.173,0,0,1,2.171,2.17A2.173,2.173,0,0,1-316.649,268.1Zm0-4a1.83,1.83,0,0,0-1.829,1.829,1.831,1.831,0,0,0,1.829,1.829,1.831,1.831,0,0,0,1.829-1.829A1.831,1.831,0,0,0-316.649,264.106Z" transform="translate(-51.064 -86.881)"/><path class="a" d="M-273.548,198.565a2.173,2.173,0,0,1-2.171-2.17,2.173,2.173,0,0,1,2.171-2.17,2.173,2.173,0,0,1,2.17,2.17A2.172,2.172,0,0,1-273.548,198.565Zm0-4a1.832,1.832,0,0,0-1.83,1.829,1.832,1.832,0,0,0,1.83,1.829,1.831,1.831,0,0,0,1.829-1.829A1.831,1.831,0,0,0-273.548,194.567Z" transform="translate(-70.346 -55.771)"/><path class="a" d="M-359.562,240.333a2.172,2.172,0,0,1-2.17-2.17,2.172,2.172,0,0,1,2.17-2.17,2.173,2.173,0,0,1,2.17,2.17A2.173,2.173,0,0,1-359.562,240.333Zm0-4a1.831,1.831,0,0,0-1.829,1.829,1.831,1.831,0,0,0,1.829,1.829,1.831,1.831,0,0,0,1.829-1.829A1.831,1.831,0,0,0-359.562,236.335Z" transform="translate(-31.865 -74.457)"/><path class="a" d="M-400.321,216.974a2.172,2.172,0,0,1-2.17-2.17,2.172,2.172,0,0,1,2.17-2.17,2.172,2.172,0,0,1,2.17,2.17A2.172,2.172,0,0,1-400.321,216.974Zm0-4a1.83,1.83,0,0,0-1.828,1.829,1.83,1.83,0,0,0,1.828,1.829,1.831,1.831,0,0,0,1.829-1.829A1.831,1.831,0,0,0-400.321,212.976Z" transform="translate(-13.63 -64.007)"/><path class="a" d="M-335.513,167.777a2.172,2.172,0,0,1-2.17-2.17,2.173,2.173,0,0,1,2.17-2.17,2.173,2.173,0,0,1,2.17,2.17A2.172,2.172,0,0,1-335.513,167.777Zm0-4a1.83,1.83,0,0,0-1.829,1.829,1.831,1.831,0,0,0,1.829,1.829,1.831,1.831,0,0,0,1.829-1.829A1.83,1.83,0,0,0-335.513,163.779Z" transform="translate(-42.624 -41.997)"/><path class="a" d="M-332.868,410.6a.77.77,0,0,1-.666-.518,4.779,4.779,0,0,0-2.776-2.852c-.889-.386-.839-.908,0-1.448a.689.689,0,0,1,.152-.088,3.824,3.824,0,0,0,2.532-2.471c.132-.366.312-.736.786-.7a.952.952,0,0,1,.806.728,4.028,4.028,0,0,0,2.5,2.5c1.022.433,1.039,1.155.023,1.586a4.325,4.325,0,0,0-2.642,2.71.782.782,0,0,1-.717.559m1.737-3.945c-.187-.221-.229-.317-.3-.347a2.326,2.326,0,0,1-1.236-1.285c-.089-.2-.308-.188-.4.029-.258.628-1.042.911-1.226,1.392-.235.61.978.641,1.1,1.327a.557.557,0,0,0,.134.225c.18.219.4.192.475-.047a2,2,0,0,1,1.11-1.171,2.629,2.629,0,0,1,.336-.123" transform="translate(-42.948 -148.958)"/></g></svg>