<svg xmlns="http://www.w3.org/2000/svg" width="42.217" height="42.217" viewBox="0 0 42.217 42.217"><defs><style>.a,.b{fill:#fff;}.b{stroke:#fff;}</style></defs><g transform="translate(0.5 0.5)"><path class="a" d="M14.375,28.8H18.7V18.338h2.884l.383-3.605H18.7l0-1.806c0-.94.09-1.444,1.439-1.444h1.8V7.877H19.06c-3.465,0-4.685,1.749-4.685,4.691v2.165h-2.16V18.34h2.16V28.8Z" transform="translate(3.518 2.269)"/><path class="b" d="M20.609,1.288A19.321,19.321,0,1,1,1.288,20.609,19.343,19.343,0,0,1,20.609,1.288m0-1.288A20.609,20.609,0,1,0,41.217,20.609,20.608,20.608,0,0,0,20.609,0Z"/></g></svg>