<svg xmlns="http://www.w3.org/2000/svg" width="66" height="42" viewBox="0 0 66 42"><defs><style>.a{fill:#17313b;}.b{fill:#fff;}.c{fill:#ef4335;}</style></defs><g transform="translate(0.113 -0.333)"><g transform="translate(0)"><rect class="a" width="66" height="42" rx="5" transform="translate(-0.113 0.333)"/></g><g transform="translate(6.94 13.879)"><path class="b" d="M177,235.9h2.378v14.682H177Z" transform="translate(-163.559 -235.9)"/><path class="b" d="M231.514,296.373a2.306,2.306,0,0,1-2.481,2.481c-1.447,0-1.654-1.344-1.654-2.068V291.1H225v5.583a4.366,4.366,0,0,0,1.241,3.309,3.743,3.743,0,0,0,2.792,1.034,3.61,3.61,0,0,0,2.481-.827v.827h2.378V291.1h-2.378Z" transform="translate(-207.423 -286.344)"/><path class="b" d="M338.336,249.1h-2.378v3.619H334.2v2.275h1.758v7.651h2.378v-7.651h1.758v-2.275h-1.758Z" transform="translate(-307.215 -247.963)"/><path class="b" d="M414.431,295.834a3.264,3.264,0,0,1-1.964.724,2.743,2.743,0,0,1-2.792-2.895,2.659,2.659,0,0,1,2.792-2.792,2.729,2.729,0,0,1,1.964.724l.31.31,1.654-1.551-.414-.31a5.3,5.3,0,0,0-3.515-1.344,5.066,5.066,0,1,0,0,10.132,5.3,5.3,0,0,0,3.515-1.344l.414-.31-1.654-1.654Z" transform="translate(-374.108 -284.151)"/><path class="b" d="M532.237,241.483a3.282,3.282,0,0,0-2.585-1.034,3.11,3.11,0,0,0-2.275.827V235.9H525v14.682h2.378V245.1c0-2.275,1.551-2.481,2.171-2.481,1.447,0,1.344,1.344,1.344,2.068v5.79h2.378v-5.687A4.709,4.709,0,0,0,532.237,241.483Z" transform="translate(-481.575 -235.9)"/><circle class="c" cx="1.654" cy="1.654" r="1.654" transform="translate(36.601 7.961)"/><path class="b" d="M31.132,252.419a4.848,4.848,0,0,1-3.412,1.344c-2.585,0-4.446-2.068-4.446-4.859a4.541,4.541,0,0,1,4.549-4.859,4.865,4.865,0,0,1,3.412,1.448l.31.31,1.551-1.551-.31-.31a6.963,6.963,0,0,0-4.963-2.068c-3.929-.1-6.824,3-6.824,7.031a6.805,6.805,0,0,0,11.683,5.066l.31-.31-1.551-1.551Z" transform="translate(-21 -241.356)"/></g></g></svg>