<svg xmlns="http://www.w3.org/2000/svg" width="66" height="42" viewBox="0 0 66 42"><defs><style>.a{fill:#154991;}.b,.c{fill:#fff;}.b{isolation:isolate;}</style></defs><g transform="translate(-0.182 -0.333)"><g transform="translate(0)"><rect class="a" width="66" height="42" rx="5" transform="translate(0.183 0.333)"/></g><g transform="translate(20.126 6.246)"><g transform="translate(2.082 9.022)"><path class="b" d="M409.879,301.387h-4.028l2.082-12.29h4.028Z" transform="translate(-405.851 -289.097)"/><path class="b" d="M422.143,292.1l.694-3h-6.1l-2.082,12.29h5.964l.694-3H418.5l1.064-6.281Z" transform="translate(-408.545 -289.097)"/><path class="b" d="M432.982,292.1l.694-3h-6.1l-2.082,12.29h5.964l.694-3h-2.814L430.4,292.1Z" transform="translate(-411.862 -289.097)"/></g><path class="c" d="M12.912,30.535A15.256,15.256,0,0,1,0,23.418H25.825a15.257,15.257,0,0,1-12.913,7.117Zm12.8-23.6H.114a15.271,15.271,0,0,1,25.6,0Z" transform="translate(0 0)"/></g></g></svg>