<svg xmlns="http://www.w3.org/2000/svg" width="65" height="42" viewBox="0 0 65 42"><defs><style>.a{fill:#20488d;}.b{fill:#fff;}</style></defs><g transform="translate(-0.479 -0.333)"><rect class="a" width="65" height="42" rx="5" transform="translate(0.479 0.333)"/><g transform="translate(9.716 6.94)"><path class="b" d="M642.046,1048.11c0-1.979-.015-3.958,0-5.936a5.213,5.213,0,0,1,2.944-4.756,5.569,5.569,0,0,1,2.82-.687c3.832.036,7.664.018,11.5.008.293,0,.384.057.38.37-.019,1.418-.016,2.836,0,4.254,0,.271-.071.341-.341.341q-5.49-.013-10.981-.006a1.188,1.188,0,0,0-1.343,1.221c-.013.159-.017.32-.017.48q0,5.541.005,11.083c0,.227-.045.283-.278.281q-2.213-.016-4.426.008c-.264,0-.263-.123-.262-.313Q642.049,1051.283,642.046,1048.11Z" transform="translate(-628.284 -1036.73)"/><path class="b" d="M674.286,1063c1.647,0,3.294.007,4.941-.007.291,0,.356.082.354.363-.013,1.978,0,3.957-.007,5.935a4.876,4.876,0,0,1-4.13,4.839,2.65,2.65,0,0,1-.581.015c-2.07,0-4.14,0-6.21.011-.213,0-.241-.062-.24-.249q.011-2.179,0-4.357c0-.24.067-.308.307-.307,1.75.009,3.5.005,5.25,0,.623,0,.788-.169.79-.8a4.692,4.692,0,0,1,0-.583c.037-.288-.092-.334-.348-.333-1.887.009-3.774,0-5.661.011-.272,0-.346-.076-.343-.345.011-1.155,0-2.31,0-3.464,0-.458.281-.731.8-.741.754-.015,1.509-.006,2.264-.006h2.813Z" transform="translate(-647.755 -1056.123)"/><path class="b" d="M595.368,1125.369c0,.412,0,.823,0,1.235,0,.127,0,.241-.127.328a3.5,3.5,0,0,1-4.163.286,3.353,3.353,0,0,1-1.6-3.457,3.4,3.4,0,0,1,2.574-2.964,3.579,3.579,0,0,1,3.019.772c.128.1.147.175.026.3-.152.154-.259.394-.439.469s-.323-.194-.5-.281a2.377,2.377,0,0,0-3.675,2.007,2.451,2.451,0,0,0,2.575,2.747,2.1,2.1,0,0,0,1.239-.519c.034-.028.085-.066.086-.1.008-.457.016-.914,0-1.37,0-.125-.145-.081-.226-.081-.5,0-1.007-.012-1.51,0-.238.007-.259-.062-.194-.275.206-.678.2-.681.905-.681.583,0,1.167.007,1.75,0,.193,0,.26.056.255.252-.012.446,0,.892,0,1.338Z" transform="translate(-589.432 -1098.761)"/><path class="b" d="M725.214,1127.66c1.011-.856,1.752-.814,2.423.124a1.643,1.643,0,0,1,1.869-.661,1.444,1.444,0,0,1,1.1,1.483c.03,1.132.005,2.264.018,3.4,0,.2-.108.207-.251.233-.705.13-.705.133-.7-.573,0-.927,0-1.853.007-2.779,0-.524-.174-.783-.625-.876a.88.88,0,0,0-.994.546,1.409,1.409,0,0,0-.106.568c0,.915-.008,1.83.008,2.745,0,.251-.065.359-.319.4-.626.112-.63.124-.631-.506,0-.949.021-1.9.007-2.847-.011-.754-.508-1.13-1.135-.88a.938.938,0,0,0-.547.952c-.022.938-.027,1.876,0,2.813.01.329-.11.428-.4.475-.594.1-.587.107-.586-.495,0-1.372.012-2.745-.007-4.117,0-.3.094-.416.38-.457C725.2,1127.143,725.2,1127.13,725.214,1127.66Z" transform="translate(-689.06 -1103.43)"/><path class="b" d="M684.814,1128.076c-.006-.106-.015-.2-.015-.286,0-2.057.005-4.114-.008-6.171,0-.288.1-.333.352-.33.914.013,1.829.016,2.743,0,.255,0,.357.075.407.32.127.619.137.616-.493.615-.571,0-1.142.007-1.713,0-.187,0-.268.045-.261.248.013.423.016.846,0,1.268-.01.229.089.261.282.257.491-.011.983,0,1.474-.006.17,0,.237.04.245.227.03.727.038.727-.7.727-.331,0-.664.014-.994,0-.235-.014-.315.051-.31.3.016.8,0,1.6.01,2.4,0,.225-.048.332-.295.339A6.216,6.216,0,0,0,684.814,1128.076Z" transform="translate(-659.855 -1099.176)"/><path class="b" d="M753.475,1131.99a2.046,2.046,0,0,1-1.442-.7c-.1-.116-.13-.2.009-.3a1.217,1.217,0,0,0,.176-.162c.195-.212.347-.373.617-.033a.923.923,0,0,0,.917.257.614.614,0,0,0,.546-.572.531.531,0,0,0-.439-.6c-.272-.086-.544-.173-.814-.262a1.4,1.4,0,0,1-1.068-1.665,1.566,1.566,0,0,1,1.6-1.279,1.979,1.979,0,0,1,1.309.52c.147.135.226.26.024.409a.326.326,0,0,0-.047.05c-.325.363-.326.365-.746.1a1.018,1.018,0,0,0-.788-.135.518.518,0,0,0-.429.509.5.5,0,0,0,.32.546,7.115,7.115,0,0,0,.819.241,1.534,1.534,0,0,1,.959,2.392A1.759,1.759,0,0,1,753.475,1131.99Z" transform="translate(-709.449 -1103.143)"/><path class="b" d="M711.875,1128.216c.12-.015.141-.091.17-.147a1.4,1.4,0,0,1,1.277-.773c.561-.032.542-.051.347.471a.746.746,0,0,1-.735.6c-.476.028-.869.64-.948,1.329a19.475,19.475,0,0,0-.032,2.4c0,.257-.079.334-.309.367-.629.09-.628.1-.628-.538,0-1.383.007-2.765-.007-4.147,0-.249.076-.34.311-.371.685-.092.541-.194.569.46C711.895,1127.971,711.881,1128.085,711.875,1128.216Z" transform="translate(-679.217 -1103.603)"/><path class="b" d="M703.3,1130.044c0,.719-.01,1.438.005,2.156.005.262-.048.376-.342.4-.612.059-.61.082-.61-.542,0-1.347.009-2.693-.007-4.039,0-.279.061-.4.352-.438.594-.083.6-.1.6.507C703.3,1128.744,703.3,1129.394,703.3,1130.044Z" transform="translate(-672.817 -1103.796)"/><path class="b" d="M702.753,1119.751l.162.219c.476.652.474.65-.08,1.256-.09.1-.134.117-.234.007-.554-.615-.557-.612-.052-1.248C702.605,1119.913,702.668,1119.847,702.753,1119.751Z" transform="translate(-672.695 -1098.041)"/><path class="b" d="M665.13,1120.94c-.224.025-.283.1-.278.318.013.613,0,1.228,0,1.92a2.346,2.346,0,0,0-3.2-.139,2.871,2.871,0,0,0-.441,3.629,2.348,2.348,0,0,0,1.717,1.071,2.237,2.237,0,0,0,1.932-.743c0,.145,0,.213,0,.281,0,.523,0,.492.522.441.331-.033.365-.178.366-.455.009-1.907.035-3.813.052-5.719C665.813,1120.851,665.809,1120.863,665.13,1120.94Zm-1.88,5.878a1.712,1.712,0,0,1-.05-3.4,1.727,1.727,0,0,1,1.729,1.782A1.642,1.642,0,0,1,663.25,1126.818Z" transform="translate(-642.11 -1098.892)"/><path class="b" d="M641.412,1126.9a2.585,2.585,0,0,0-2.652,2.7,2.592,2.592,0,1,0,5.178-.112A2.6,2.6,0,0,0,641.412,1126.9Zm1.56,2.815a1.625,1.625,0,1,1-3.242-.219,1.653,1.653,0,0,1,1.668-1.643A1.726,1.726,0,0,1,642.973,1129.717Z" transform="translate(-625.861 -1103.322)"/><path class="b" d="M618.349,1126.9a2.578,2.578,0,0,0-2.616,2.671,2.58,2.58,0,1,0,5.159.106A2.6,2.6,0,0,0,618.349,1126.9Zm-.024,4.382a1.679,1.679,0,0,1-1.621-1.7,1.716,1.716,0,0,1,1.6-1.731,1.7,1.7,0,0,1,1.628,1.767A1.639,1.639,0,0,1,618.325,1131.285Z" transform="translate(-608.855 -1103.323)"/></g></g></svg>