<svg xmlns="http://www.w3.org/2000/svg" width="42.217" height="42.217" viewBox="0 0 42.217 42.217"><defs><style>.a,.b{fill:#fff;}.b{stroke:#fff;}</style></defs><g transform="translate(0.5 0.5)"><path class="a" d="M25.822,8.167H10.69A2.483,2.483,0,0,0,8.167,10.69V25.824a2.485,2.485,0,0,0,2.523,2.523H25.824a2.485,2.485,0,0,0,2.523-2.523V10.69a2.486,2.486,0,0,0-2.525-2.523Zm-7.551,6.126a3.928,3.928,0,1,1-4.05,3.926A3.989,3.989,0,0,1,18.272,14.293Zm7.551,10.9c0,.443-.189.631-.631.631H11.319c-.442,0-.631-.188-.631-.631V16.364l1.571.341A5.879,5.879,0,0,0,12,18.437a6.176,6.176,0,0,0,6.27,6.074,6.176,6.176,0,0,0,6.27-6.074,5.879,5.879,0,0,0-.26-1.731l1.542-.341v8.828Zm0-11.349a.631.631,0,0,1-.631.631H22.668a.631.631,0,0,1-.631-.631V11.32a.631.631,0,0,1,.631-.631h2.523a.631.631,0,0,1,.631.631Z" transform="translate(2.352 2.352)"/><path class="b" d="M20.609,1.288A19.321,19.321,0,1,1,1.288,20.609,19.343,19.343,0,0,1,20.609,1.288m0-1.288A20.609,20.609,0,1,0,41.217,20.609,20.609,20.609,0,0,0,20.609,0Z"/></g></svg>