<svg xmlns="http://www.w3.org/2000/svg" width="42.217" height="42.217" viewBox="0 0 42.217 42.217"><defs><style>.a,.b{fill:#fff;}.b{stroke:#fff;}</style></defs><g transform="translate(0.5 0.5)"><path class="a" d="M27.422,25.918v-6.9c0-3.7-1.975-5.42-4.607-5.42a3.971,3.971,0,0,0-3.607,1.989V13.877h-4c.053,1.13,0,12.041,0,12.041h4V19.193a2.7,2.7,0,0,1,.133-.975,2.188,2.188,0,0,1,2.052-1.463c1.449,0,2.027,1.1,2.027,2.722v6.442h4ZM10.99,12.233a2.087,2.087,0,1,0,.026-4.16,2.086,2.086,0,1,0-.052,4.16h.026Zm2,13.684V13.877h-4V25.918h4Z" transform="translate(2.521 2.325)"/><path class="b" d="M20.609,1.288A19.321,19.321,0,1,1,1.288,20.609,19.343,19.343,0,0,1,20.609,1.288m0-1.288A20.609,20.609,0,1,0,41.217,20.609,20.608,20.608,0,0,0,20.609,0Z"/></g></svg>