<svg xmlns="http://www.w3.org/2000/svg" width="42.217" height="42.217" viewBox="0 0 42.217 42.217"><defs><style>.a,.b{fill:#fff;}.b{stroke:#fff;}</style></defs><g transform="translate(0.5 0.5)"><path class="a" d="M20.888,9.609A4.289,4.289,0,0,0,18,13.925l.045.734-.742-.09a12.054,12.054,0,0,1-7.057-3.478l-.979-.974-.252.72a4.334,4.334,0,0,0,.92,4.437c.593.63.459.72-.563.345a1.745,1.745,0,0,0-.7-.165,5.4,5.4,0,0,0,.533,2.008,4.79,4.79,0,0,0,2.031,1.919l.726.345-.859.015c-.83,0-.859.015-.77.331a4.488,4.488,0,0,0,2.772,2.459l.92.314-.8.479a8.326,8.326,0,0,1-3.974,1.109,4.4,4.4,0,0,0-1.216.12A11.357,11.357,0,0,0,10.9,25.874a12.515,12.515,0,0,0,9.726-1.109,13.035,13.035,0,0,0,4.937-5.817,15.45,15.45,0,0,0,1.009-4.5c0-.69.045-.779.875-1.6A9.665,9.665,0,0,0,28.481,11.7c.148-.285.133-.285-.622-.031-1.26.45-1.439.39-.815-.285a4.372,4.372,0,0,0,1.009-1.6c0-.045-.222.03-.475.165a8.183,8.183,0,0,1-1.3.509l-.8.255-.726-.5a6.083,6.083,0,0,0-1.26-.659,5.072,5.072,0,0,0-2.6.059Z" transform="translate(2.315 2.71)"/><path class="b" d="M20.609,1.288A19.321,19.321,0,1,1,1.288,20.609,19.343,19.343,0,0,1,20.609,1.288m0-1.288A20.609,20.609,0,1,0,41.217,20.609,20.609,20.609,0,0,0,20.609,0Z"/></g></svg>