<svg xmlns="http://www.w3.org/2000/svg" width="42.217" height="42.217" viewBox="0 0 42.217 42.217"><defs><style>.a,.b{fill:#fff;}.b{stroke:#fff;}</style></defs><g transform="translate(0.5 0.5)"><path class="a" d="M29.469,13.105a5.379,5.379,0,0,0-.889-2.371,3.086,3.086,0,0,0-2.242-1.01c-3.133-.242-7.83-.242-7.83-.242H18.5s-4.7,0-7.83.242a3.09,3.09,0,0,0-2.242,1.01,5.4,5.4,0,0,0-.889,2.371,38.424,38.424,0,0,0-.224,3.863v1.811a38.4,38.4,0,0,0,.224,3.864,5.362,5.362,0,0,0,.889,2.369,3.656,3.656,0,0,0,2.468,1.02c1.79.184,7.61.241,7.61.241s4.7-.008,7.835-.249a3.107,3.107,0,0,0,2.242-1.011,5.385,5.385,0,0,0,.889-2.369,38.432,38.432,0,0,0,.224-3.864V16.969A38.432,38.432,0,0,0,29.469,13.105Zm-13.761,8.97v-8.4l7,4.2Z" transform="translate(2.106 2.731)"/><path class="b" d="M20.609,1.288A19.321,19.321,0,1,1,1.288,20.609,19.343,19.343,0,0,1,20.609,1.288m0-1.288A20.609,20.609,0,1,0,41.217,20.609,20.61,20.61,0,0,0,20.609,0Z"/></g></svg>