<svg xmlns="http://www.w3.org/2000/svg" width="330.124" height="330.453" viewBox="0 0 330.124 330.453"><defs><style>.a{opacity:0.27;}.b{fill:#c4c4c4;}.b,.d,.e,.h{fill-rule:evenodd;}.c{fill:#cacaca;}.d{fill:#7b7b7b;}.e,.f{fill:#ff7e00;}.g{fill:#f7931a;}.h{fill:#fff;}</style></defs><g transform="translate(-5679.5 -1346)"><g transform="translate(5679.5 1346)"><g class="a" transform="translate(11.02 0.389)"><g transform="translate(0.408 1.523)"><path d="M284.707,72.964l.325-.051-.056-.356-.349.088ZM-.042,144.644l-.08-.319.033.644Zm147.964,21.7-.048.326.312.045.059-.31ZM310.679,236.66,285.032,72.913l-.65.1,25.647,163.747ZM284.627,72.645-.122,144.325l.161.638,284.749-71.68ZM-.09,144.97l147.964,21.7.1-.651L.006,144.319Zm148.335,21.437L179.811.029l-.646-.123L147.6,166.284Z" transform="translate(0.122 0.093)"/></g><g transform="translate(148.799 74.468)"><path d="M49.817,236.684l-.31.109.305.875.315-.871ZM-.472,93.432,49.507,236.793l.621-.217L.149,93.215ZM50.127,236.8,135.617.054,135-.17,49.508,236.573Z" transform="translate(0.472 0.17)"/></g><g transform="translate(72.945 169.072)"><path d="M-.28,95.248l-.258-.2-.281.354.423.158ZM75.088-.311-.538,95.044l.515.409L75.6.1ZM-.4,95.556l124.947,46.691.23-.616L-.165,94.94Z" transform="translate(0.819 0.311)"/></g><g transform="translate(93.445 0.645)"><path d="M-.221,53.121l-.17-.281-.254.154.127.269ZM54,166.748.076,52.98l-.594.282L53.407,167.029ZM-.051,53.4,88.07.135,87.73-.428-.391,52.839Z" transform="translate(0.645 0.428)"/></g><g transform="translate(0.159 145.776)"><path d="M74.14,117.777l-.026.327.653.052-.349-.554ZM-.171,111.858H-.5v.3l.3.024Zm0-112.453L.107-.769-.5-1.737V-.595ZM74.166,117.449-.145,111.531l-.052.655L74.113,118.1ZM.158,111.858V-.595H-.5V111.858ZM-.45-.42,73.861,117.952l.556-.35L.107-.769Z" transform="translate(0.5 1.737)"/></g><g transform="translate(0 0)"><path d="M178.289-.14l.189-.269L178,.018ZM309.484,239.233l.18.275.254-.166-.147-.266ZM199,311.571l-.21.253.187.155.2-.133ZM-.254,146.509l-.233-.233-.255.256.278.23ZM93.128,53.127l.215-.249-.231-.2-.216.216ZM284.026,73.9,178.479-.409,178.1.129,283.648,74.44ZM178,.018,309.2,239.391l.576-.316L178.577-.3Zm131.3,238.94L198.824,311.3l.36.55,110.48-72.338Zm-110.09,72.36L-.044,146.256l-.42.506L198.795,311.824ZM-.021,146.742,93.361,53.36l-.466-.465L-.486,146.276ZM92.913,53.376l215.7,186.106.43-.5L93.343,52.878Z" transform="translate(0.742 0.409)"/></g><g transform="translate(7.624 27.575)"><path d="M86.852,26.485.047-.477l-.2.628L86.657,27.113Z" transform="translate(0.148 0.477)"/></g><g transform="translate(154.79 166.419)"><path d="M69.584,72.877l-.238.227.1.1h.141Zm86.806-.329H69.584v.658h86.806Zm-86.568.1L.114-.345-.362.109l69.707,73Z" transform="translate(0.362 0.345)"/></g><g transform="translate(73.429 239.318)"><path d="M.026,25.8,153.908.155,153.8-.493-.082,25.154Z" transform="translate(0.082 0.493)"/></g><g transform="translate(73.858 265.122)"><path d="M-.431.08l32.881,55.9.567-.333L.136-.254Z" transform="translate(0.431 0.254)"/></g></g><g transform="translate(96.012 46.362)"><g transform="translate(6.247 6.247)"><path class="b" d="M2.3,4.6A2.3,2.3,0,1,0,0,2.3,2.3,2.3,0,0,0,2.3,4.6Z"/></g><path class="c" d="M8.049,16.6A8.549,8.549,0,0,0,16.6,8.049H15.94A7.891,7.891,0,0,1,8.049,15.94ZM16.6,8.049A8.549,8.549,0,0,0,8.049-.5V.158A7.891,7.891,0,0,1,15.94,8.049ZM8.049-.5A8.549,8.549,0,0,0-.5,8.049H.158A7.891,7.891,0,0,1,8.049.158ZM-.5,8.049A8.549,8.549,0,0,0,8.049,16.6V15.94A7.891,7.891,0,0,1,.158,8.049Z" transform="translate(0.5 0.5)"/></g><g transform="translate(313.026 230.495)"><g transform="translate(6.247 6.247)"><path class="b" d="M2.3,4.6A2.3,2.3,0,1,0,0,2.3,2.3,2.3,0,0,0,2.3,4.6Z"/></g><path class="c" d="M8.049,16.6A8.549,8.549,0,0,0,16.6,8.049H15.94A7.891,7.891,0,0,1,8.049,15.94ZM16.6,8.049A8.549,8.549,0,0,0,8.049-.5V.158A7.891,7.891,0,0,1,15.94,8.049ZM8.049-.5A8.549,8.549,0,0,0-.5,8.049H.158A7.891,7.891,0,0,1,8.049.158ZM-.5,8.049A8.549,8.549,0,0,0,8.049,16.6V15.94A7.891,7.891,0,0,1,.158,8.049Z" transform="translate(0.5 0.5)"/></g><g transform="translate(261.074 139.086)"><g transform="translate(6.247 6.247)"><path class="b" d="M2.3,4.6A2.3,2.3,0,1,0,0,2.3,2.3,2.3,0,0,0,2.3,4.6Z"/></g><path class="c" d="M8.049,16.6A8.549,8.549,0,0,0,16.6,8.049H15.94A7.891,7.891,0,0,1,8.049,15.94ZM16.6,8.049A8.549,8.549,0,0,0,8.049-.5V.158A7.891,7.891,0,0,1,15.94,8.049ZM8.049-.5A8.549,8.549,0,0,0-.5,8.049H.158A7.891,7.891,0,0,1,8.049.158ZM-.5,8.049A8.549,8.549,0,0,0,8.049,16.6V15.94A7.891,7.891,0,0,1,.158,8.049Z" transform="translate(0.5 0.5)"/></g><g transform="translate(76.284 256.8)"><g transform="translate(6.247 6.247)"><path class="b" d="M2.3,4.6A2.3,2.3,0,1,0,0,2.3,2.3,2.3,0,0,0,2.3,4.6Z"/></g><path class="c" d="M8.049,16.6A8.549,8.549,0,0,0,16.6,8.049H15.94A7.891,7.891,0,0,1,8.049,15.94ZM16.6,8.049A8.549,8.549,0,0,0,8.049-.5V.158A7.891,7.891,0,0,1,15.94,8.049ZM8.049-.5A8.549,8.549,0,0,0-.5,8.049H.158A7.891,7.891,0,0,1,8.049.158ZM-.5,8.049A8.549,8.549,0,0,0,8.049,16.6V15.94A7.891,7.891,0,0,1,.158,8.049Z" transform="translate(0.5 0.5)"/></g><g transform="translate(109.165 313.355)"><g transform="translate(6.247 6.247)"><path class="b" d="M2.3,4.6A2.3,2.3,0,1,0,0,2.3,2.3,2.3,0,0,0,2.3,4.6Z"/></g><path class="c" d="M8.049,16.6A8.549,8.549,0,0,0,16.6,8.049H15.94A7.891,7.891,0,0,1,8.049,15.94ZM16.6,8.049A8.549,8.549,0,0,0,8.049-.5V.158A7.891,7.891,0,0,1,15.94,8.049ZM8.049-.5A8.549,8.549,0,0,0-.5,8.049H.158A7.891,7.891,0,0,1,8.049.158ZM-.5,8.049A8.549,8.549,0,0,0,8.049,16.6V15.94A7.891,7.891,0,0,1,.158,8.049Z" transform="translate(0.5 0.5)"/></g><g transform="translate(207.479 309.081)"><path class="d" d="M2.63,5.261A2.63,2.63,0,1,0,0,2.63,2.63,2.63,0,0,0,2.63,5.261Z"/></g><g transform="translate(16.769 26.962)"><path class="d" d="M2.63,5.261A2.63,2.63,0,1,0,0,2.63,2.63,2.63,0,0,0,2.63,5.261Z"/></g><g transform="translate(188.408)"><path class="d" d="M2.63,5.261A2.63,2.63,0,1,0,0,2.63,2.63,2.63,0,0,0,2.63,5.261Z"/></g><g transform="translate(0 135.798)"><g transform="translate(8.22 8.22)"><path class="e" d="M3.617,7.234A3.617,3.617,0,1,0,0,3.617,3.617,3.617,0,0,0,3.617,7.234Z"/></g><path class="f" d="M11.337,23.174A11.837,11.837,0,0,0,23.174,11.337h-.658a11.18,11.18,0,0,1-11.18,11.18ZM23.174,11.337A11.837,11.837,0,0,0,11.337-.5V.158a11.18,11.18,0,0,1,11.18,11.18ZM11.337-.5A11.837,11.837,0,0,0-.5,11.337H.158A11.18,11.18,0,0,1,11.337.158ZM-.5,11.337A11.837,11.837,0,0,0,11.337,23.174v-.658A11.18,11.18,0,0,1,.158,11.337Z" transform="translate(0.5 0.5)"/></g><g transform="translate(0 247.593)"><g transform="translate(8.22 8.22)"><path class="e" d="M3.617,7.234A3.617,3.617,0,1,0,0,3.617,3.617,3.617,0,0,0,3.617,7.234Z"/></g><path class="f" d="M11.337,23.174A11.837,11.837,0,0,0,23.174,11.337h-.658a11.18,11.18,0,0,1-11.18,11.18ZM23.174,11.337A11.837,11.837,0,0,0,11.337-.5V.158a11.18,11.18,0,0,1,11.18,11.18ZM11.337-.5A11.837,11.837,0,0,0-.5,11.337H.158A11.18,11.18,0,0,1,11.337.158ZM-.5,11.337A11.837,11.837,0,0,0,11.337,23.174v-.658A11.18,11.18,0,0,1,.158,11.337Z" transform="translate(0.5 0.5)"/></g><g transform="translate(223.59 227.865)"><g transform="translate(8.22 8.22)"><path class="e" d="M3.617,7.234A3.617,3.617,0,1,0,0,3.617,3.617,3.617,0,0,0,3.617,7.234Z"/></g><path class="f" d="M11.337,23.174A11.837,11.837,0,0,0,23.174,11.337h-.658a11.18,11.18,0,0,1-11.18,11.18ZM23.174,11.337A11.837,11.837,0,0,0,11.337-.5V.158a11.18,11.18,0,0,1,11.18,11.18ZM11.337-.5A11.837,11.837,0,0,0-.5,11.337H.158A11.18,11.18,0,0,1,11.337.158ZM-.5,11.337A11.837,11.837,0,0,0,11.337,23.174v-.658A11.18,11.18,0,0,1,.158,11.337Z" transform="translate(0.5 0.5)"/></g><g transform="translate(282.776 63.46)"><g transform="translate(8.22 8.22)"><path class="e" d="M3.617,7.234A3.617,3.617,0,1,0,0,3.617,3.617,3.617,0,0,0,3.617,7.234Z"/></g><path class="f" d="M11.337,23.174A11.837,11.837,0,0,0,23.174,11.337h-.658a11.18,11.18,0,0,1-11.18,11.18ZM23.174,11.337A11.837,11.837,0,0,0,11.337-.5V.158a11.18,11.18,0,0,1,11.18,11.18ZM11.337-.5A11.837,11.837,0,0,0-.5,11.337H.158A11.18,11.18,0,0,1,11.337.158ZM-.5,11.337A11.837,11.837,0,0,0,11.337,23.174v-.658A11.18,11.18,0,0,1,.158,11.337Z" transform="translate(0.5 0.5)"/></g><g transform="translate(105.876 112.124)"><g transform="translate(0 0)"><path class="g" d="M103.644,65.336A52.6,52.6,0,1,1,65.331,1.574,52.6,52.6,0,0,1,103.644,65.336Z" transform="translate(0.329 0.329)"/><path class="g" d="M103.473,65.165l.32.08h0ZM39.707,103.473l-.08.319h0ZM1.4,39.717l.319.08h0ZM65.159,1.4l-.08.319h0Zm37.994,63.682a52.273,52.273,0,0,1-63.367,38.068l-.159.638a52.931,52.931,0,0,0,64.165-38.547ZM39.786,103.154A52.264,52.264,0,0,1,1.724,39.8l-.638-.159a52.922,52.922,0,0,0,38.542,64.154ZM1.724,39.8A52.266,52.266,0,0,1,65.08,1.722l.159-.638A52.924,52.924,0,0,0,1.086,39.638ZM65.08,1.722a52.27,52.27,0,0,1,38.074,63.363l.639.159A52.929,52.929,0,0,0,65.239,1.084Z" transform="translate(0.5 0.5)"/></g><g transform="translate(25.805 18.604)"><path class="h" d="M38.677,13.587,41.044,4.05,35.265,2.6l-2.3,9.287c-1.519-.38-3.08-.739-4.631-1.095l2.321-9.348L24.875,0,22.506,9.534c-1.258-.288-2.492-.572-3.691-.871L10.851,6.634l-1.537,6.2s4.288.987,4.2,1.048A3.087,3.087,0,0,1,16.2,17.26l-2.7,10.866a4.778,4.778,0,0,1,.6.193l-.191-.048c-.136-.034-.276-.07-.42-.1L9.719,43.388A2.1,2.1,0,0,1,7.07,44.767c.058.084-4.2-1.053-4.2-1.053L0,50.36l7.521,1.883c.828.209,1.647.423,2.458.635l.039.01q.817.214,1.624.423L9.25,62.958l5.773,1.447,2.369-9.544c1.577.43,3.108.827,4.606,1.2l-2.36,9.5,5.779,1.447,2.392-9.629c9.855,1.874,17.266,1.118,20.386-7.836,2.514-7.21-.125-11.368-5.31-14.08,3.776-.875,6.621-3.37,7.38-8.524C51.311,19.9,45.974,16.112,38.677,13.587ZM19.269,47.874l3.174-12.78c.39.1.865.2,1.4.326l.018,0c4.878,1.1,14.873,3.353,13.194,10.115-1.639,6.615-11.946,3.88-16.661,2.629C19.972,48.056,19.593,47.955,19.269,47.874Zm7.5-30.222L23.9,29.243c.272.068.591.154.948.249,3.932,1.054,12.508,3.353,14-2.659,1.526-6.149-6.81-8-10.881-8.908C27.506,17.824,27.1,17.735,26.773,17.652Z"/></g></g></g></g></svg>