<svg xmlns="http://www.w3.org/2000/svg" xmlns:xlink="http://www.w3.org/1999/xlink" width="1452" height="300" viewBox="0 0 1452 300"><defs><style>.a{fill:url(#a);}.b{clip-path:url(#b);}.c,.g,.l,.m{fill:#fff;}.c,.i{stroke:#0b1466;}.c,.e,.f,.g,.h,.i,.j,.k{stroke-linecap:round;stroke-linejoin:round;}.c,.e,.g,.i{stroke-width:0.5px;}.d{fill:#e6f3fa;}.e,.f{fill:#f3f5ff;}.e,.f,.h,.j,.k{stroke:#fff;}.g{stroke:#e8e8e8;}.h,.i,.j,.k{fill:none;}.h{stroke-dasharray:4 4;}.k{stroke-width:2px;}.m{font-size:43px;font-family:SegoeUI, Segoe UI;letter-spacing:-0.1em;}.n{fill:#c9c9d2;}</style><linearGradient id="a" x1="1" y1="0.538" x2="0" y2="0.542" gradientUnits="objectBoundingBox"><stop offset="0" stop-color="#111328"/><stop offset="0.502" stop-color="#01426e"/><stop offset="1" stop-color="#19b8a8"/></linearGradient><clipPath id="b"><rect class="a" width="1452" height="300"/></clipPath></defs><g class="b"><g transform="translate(520.064 -106.107)"><g transform="translate(385.726 223.988)"><g transform="translate(149.946 79.352)"><path class="c" d="M545.766,320.1l-34.876-69.58a1.765,1.765,0,0,0-1.574-.968H437.831a1.75,1.75,0,0,0-1.585,2.509L469.182,320.1Z" transform="translate(-436.069 -249.548)"/><path class="c" d="M542.6,319.409l-33.73-67.652a1.7,1.7,0,0,0-1.523-.942H438.213a1.7,1.7,0,0,0-1.533,2.44l31.851,66.155Z" transform="translate(-435.831 -248.861)"/><path class="c" d="M506.063,293.016h42.622v3.518h-40.86Z" transform="translate(-398.128 -225.985)"/><path class="d" d="M529.26,294.48l-71.53.05-1.946-3.7,70.881-.607Z" transform="translate(-425.383 -227.499)"/><path class="d" d="M469.993,271.626a5.612,5.612,0,0,0-3.123-5.026c3.009-1.029,6.625,1.571,8.077,5.806s.193,8.515-2.819,9.548c-2.742.941-5.985-1.137-7.641-4.716A5.616,5.616,0,0,0,469.993,271.626Z" transform="translate(-420.665 -240.426)"/></g></g><g transform="translate(435.127 117.107)"><g transform="translate(108.056)"><path class="e" d="M526.534,126.509l-51.873-9.4,41.823,14.914Z" transform="translate(-474.661 -117.107)"/><path class="f" d="M474.661,117.107,510.4,136.965,498,148.637Z" transform="translate(-474.661 -117.107)"/><path class="g" d="M516.484,132.021l-3.4,16.616L510.4,136.965l-35.743-19.858Z" transform="translate(-474.661 -117.107)"/><path class="g" d="M502.466,141.656l-8.222-6.451,5.546-5.22Z" transform="translate(-464.046 -110.126)"/></g><path class="h" d="M554.332,139.424c19.4,26.713,24.764,62.893,15.3,94.356-2.018,6.717-4.8,13.408-9.642,18.483-8.415,8.816-21.606,11.262-33.781,10.724-22.866-1.009-44.046-10.571-65.766-16.765-18.081-5.158-42.336-9.439-55.854,7.587" transform="translate(-404.589 -105.009)"/></g><g transform="translate(740.639 361.723)"><g transform="translate(9.695 9.032)"><path class="d" d="M436.359,134.982a2.9,2.9,0,1,0,2.9-2.9A2.9,2.9,0,0,0,436.359,134.982Z" transform="translate(-397.574 -132.086)"/><path class="d" d="M430.071,134.982a2.9,2.9,0,1,0,2.9-2.9A2.9,2.9,0,0,0,430.071,134.982Z" transform="translate(-400.983 -132.086)"/><path class="d" d="M423.784,134.982a2.9,2.9,0,1,0,2.895-2.9A2.894,2.894,0,0,0,423.784,134.982Z" transform="translate(-404.391 -132.086)"/><path class="d" d="M417.5,134.982a2.9,2.9,0,1,0,2.9-2.9A2.9,2.9,0,0,0,417.5,134.982Z" transform="translate(-407.799 -132.086)"/><path class="d" d="M411.208,134.982a2.9,2.9,0,1,0,2.9-2.9A2.9,2.9,0,0,0,411.208,134.982Z" transform="translate(-411.208 -132.086)"/></g><g transform="translate(0 18.54)"><path class="d" d="M430.071,141.146a2.9,2.9,0,1,0,2.9-2.894A2.9,2.9,0,0,0,430.071,141.146Z" transform="translate(-391.288 -138.252)"/><path class="d" d="M423.784,141.146a2.9,2.9,0,1,0,2.895-2.894A2.894,2.894,0,0,0,423.784,141.146Z" transform="translate(-394.696 -138.252)"/><path class="d" d="M417.5,141.146a2.9,2.9,0,1,0,2.9-2.894A2.9,2.9,0,0,0,417.5,141.146Z" transform="translate(-398.104 -138.252)"/><path class="d" d="M411.208,141.146a2.9,2.9,0,1,0,2.9-2.894A2.9,2.9,0,0,0,411.208,141.146Z" transform="translate(-401.513 -138.252)"/><path class="d" d="M404.921,141.146a2.9,2.9,0,1,0,2.894-2.894A2.894,2.894,0,0,0,404.921,141.146Z" transform="translate(-404.921 -138.252)"/></g><g transform="translate(30.38)"><path class="d" d="M449.773,129.125a2.9,2.9,0,1,0,2.894-2.9A2.895,2.895,0,0,0,449.773,129.125Z" transform="translate(-410.988 -126.229)"/><path class="d" d="M443.485,129.125a2.9,2.9,0,1,0,2.9-2.9A2.9,2.9,0,0,0,443.485,129.125Z" transform="translate(-414.397 -126.229)"/><path class="d" d="M437.2,129.125a2.9,2.9,0,1,0,2.9-2.9A2.9,2.9,0,0,0,437.2,129.125Z" transform="translate(-417.805 -126.229)"/><path class="d" d="M430.91,129.125a2.9,2.9,0,1,0,2.894-2.9A2.895,2.895,0,0,0,430.91,129.125Z" transform="translate(-421.213 -126.229)"/><path class="d" d="M424.622,129.125a2.9,2.9,0,1,0,2.9-2.9A2.9,2.9,0,0,0,424.622,129.125Z" transform="translate(-424.622 -126.229)"/></g></g><g transform="matrix(0.616, 0.788, -0.788, 0.616, 639.065, 263.242)"><path class="d" d="M468.872,246.78l-19.234-5.868,5.5-3.919-7.692-7.818,4.17-4.1,7.692,7.819,4.03-5.287Z" transform="translate(-447.447 -222.304)"/><path class="i" d="M469.161,244.985l-19.234-5.868,5.5-3.918-7.692-7.819,4.17-4.1L459.6,231.1l4.031-5.287Z" transform="translate(-447.291 -223.277)"/></g><g transform="translate(401.278 151.74)"><path class="j" d="M642.071,269.829l.052.319a7.88,7.88,0,0,1-10.589,8.611l-.3-.114a7.88,7.88,0,0,1-2.162-13.476l.25-.2A7.878,7.878,0,0,1,642.071,269.829Z" transform="translate(-316.47 -76.553)"/><path class="j" d="M390.8,140.431l.423.278a5.259,5.259,0,0,1-.507,9.094l-.452.228a5.259,5.259,0,0,1-7.621-4.987l.028-.5A5.259,5.259,0,0,1,390.8,140.431Z" transform="translate(-382.638 -139.566)"/><rect class="j" width="13.293" height="13.293" transform="translate(258.752 38.558) rotate(150.002)"/><path class="j" d="M416.536,251.644a5.791,5.791,0,1,0,5.79-5.792A5.79,5.79,0,0,0,416.536,251.644Z" transform="translate(-324.263 -81.951)"/><g transform="translate(325.757 119.688)"><path class="j" d="M616.188,227.736a9.452,9.452,0,0,0-.837-2.015l1.719-2.11a1.464,1.464,0,0,0-.1-1.958l-1.234-1.234a1.462,1.462,0,0,0-1.958-.1l-2.11,1.718a9.382,9.382,0,0,0-2.02-.834l-.274-2.708a1.461,1.461,0,0,0-1.456-1.314h-1.746a1.463,1.463,0,0,0-1.454,1.314l-.279,2.706a9.482,9.482,0,0,0-2.016.837l-2.108-1.719a1.464,1.464,0,0,0-1.96.1l-1.234,1.234a1.463,1.463,0,0,0-.1,1.958l1.716,2.11a9.454,9.454,0,0,0-.834,2.019l-2.708.276a1.462,1.462,0,0,0-1.312,1.454v1.746a1.463,1.463,0,0,0,1.312,1.456l2.708.278a9.306,9.306,0,0,0,.837,2.017l-1.719,2.11a1.462,1.462,0,0,0,.1,1.957l1.234,1.234a1.464,1.464,0,0,0,1.96.1l2.109-1.716a9.365,9.365,0,0,0,2.017.834l.276,2.706a1.464,1.464,0,0,0,1.454,1.315h1.746a1.462,1.462,0,0,0,1.456-1.315l.277-2.706a9.348,9.348,0,0,0,2.017-.837l2.11,1.719a1.462,1.462,0,0,0,1.958-.1l1.234-1.234a1.462,1.462,0,0,0,.1-1.957l-1.716-2.111a9.446,9.446,0,0,0,.833-2.019l2.706-.275a1.463,1.463,0,0,0,1.315-1.456V229.47a1.462,1.462,0,0,0-1.315-1.454Z" transform="translate(-593.885 -217.181)"/><path class="j" d="M599.574,227.258a4.388,4.388,0,1,1,4.389,4.387A4.389,4.389,0,0,1,599.574,227.258Z" transform="translate(-590.801 -214.097)"/></g></g><g transform="translate(348.253 126.88)"><g transform="translate(117.767 39.024)"><path class="k" d="M429.632,219.481,521.718,234.4a5.979,5.979,0,0,0,6.839-4.933l9.539-58.879a5.979,5.979,0,0,0-4.932-6.841l-92.086-14.918a5.982,5.982,0,0,0-6.842,4.932L424.7,212.641A5.982,5.982,0,0,0,429.632,219.481Z" transform="translate(-424.622 -148.751)"/><line class="k" x1="103.859" y1="16.826" transform="translate(8.674 10.82)"/><g transform="translate(92.512 17.052)"><path class="l" d="M492.721,162.949a2.179,2.179,0,1,0,2.5-1.8A2.179,2.179,0,0,0,492.721,162.949Z" transform="translate(-480.236 -159.099)"/><path class="l" d="M488.682,162.294a2.179,2.179,0,1,0,2.5-1.8A2.178,2.178,0,0,0,488.682,162.294Z" transform="translate(-482.425 -159.454)"/><path class="l" d="M484.643,161.64a2.179,2.179,0,1,0,2.5-1.8A2.178,2.178,0,0,0,484.643,161.64Z" transform="translate(-484.615 -159.809)"/></g><text class="m" transform="matrix(-0.987, -0.16, -0.16, 0.987, 86.818, 67.867)"><tspan x="0" y="0">&lt;/&gt;</tspan></text></g><g transform="translate(63.991 178.139)"><rect class="n" width="12.644" height="33.906" transform="translate(75.03 75.244) rotate(-169.321)"/><rect class="n" width="12.644" height="56.439" transform="translate(30.982 66.94) rotate(-169.321)"/><rect class="n" width="12.644" height="45.085" transform="matrix(-0.983, -0.185, 0.185, -0.983, 53.006, 71.092)"/><rect class="k" width="12.644" height="37.316" transform="translate(70.011 74.298) rotate(-169.321)"/><rect class="k" width="12.644" height="64.773" transform="matrix(-0.983, -0.185, 0.185, -0.983, 25.964, 65.995)"/><rect class="k" width="12.644" height="51.292" transform="translate(47.988 70.147) rotate(-169.321)"/><line class="j" x1="81.722" y1="15.406" transform="translate(0 61.099)"/></g><g transform="translate(335.02 75.053)"><path class="k" d="M654.749,175.159V217.2a3.044,3.044,0,0,1-3.044,3.044h-74.7l-11.5,18.55V175.159a3.044,3.044,0,0,1,3.044-3.044H651.7A3.043,3.043,0,0,1,654.749,175.159Z" transform="translate(-565.506 -172.115)"/><g transform="translate(10.016 11.06)"><path class="k" d="M574.567,184.422h61.888a2.575,2.575,0,0,0,2.566-2.568h0a2.574,2.574,0,0,0-2.566-2.568H574.567A2.574,2.574,0,0,0,572,181.855h0A2.575,2.575,0,0,0,574.567,184.422Z" transform="translate(-572.001 -179.287)"/><path class="k" d="M580.1,190.093h53.555a2.423,2.423,0,0,0,2.417-2.416h0a2.423,2.423,0,0,0-2.417-2.416H580.1a2.423,2.423,0,0,0-2.415,2.416h0A2.423,2.423,0,0,0,580.1,190.093Z" transform="translate(-568.922 -176.049)"/><path class="k" d="M591.713,195.869h35.64a2.423,2.423,0,0,0,2.417-2.415h0a2.423,2.423,0,0,0-2.417-2.416h-35.64a2.423,2.423,0,0,0-2.416,2.416h0A2.423,2.423,0,0,0,591.713,195.869Z" transform="translate(-562.625 -172.917)"/></g></g><g transform="translate(271.149)"><path class="j" d="M524.087,135.876a12.431,12.431,0,1,0,12.431-12.431A12.431,12.431,0,0,0,524.087,135.876Z" transform="translate(-524.087 -123.445)"/><path class="j" d="M527.881,135.876c0,6.865,2.945,12.431,6.58,12.431s6.582-5.565,6.582-12.431-2.947-12.431-6.582-12.431S527.881,129.01,527.881,135.876Z" transform="translate(-522.03 -123.445)"/><path class="j" d="M526.473,125.787c1.38,2.2,5.044,3.7,8.751,3.7s7.373-1.5,8.753-3.7" transform="translate(-522.794 -122.175)"/><path class="j" d="M543.977,138.526c-1.38-2.2-5.044-3.7-8.753-3.7s-7.371,1.5-8.751,3.7" transform="translate(-522.794 -117.276)"/><line class="j" x1="24.861" transform="translate(0 12.431)"/><line class="j" y2="24.861" transform="translate(12.431)"/></g></g></g></g></svg>