<svg xmlns="http://www.w3.org/2000/svg" width="945.523" height="945.265" viewBox="0 0 945.523 945.265"><defs><style>.a{fill:none;stroke:#fff;stroke-width:2px;opacity:0.25;mix-blend-mode:overlay;isolation:isolate;}</style></defs><path class="a" d="M1205.734,397.356a476.913,476.913,0,0,0,25.408-167.541,462.26,462.26,0,0,0-35.725-165.438,479.579,479.579,0,0,0-91.5-142.32c-46.086-49.676-104.565-89.52-169.112-115.225a485.276,485.276,0,0,0-126.323-31.476A460.58,460.58,0,0,0,637.821-211.2,473,473,0,0,0,483.2-137.835c-61.333,44.263-111.749,104.049-145.8,172.9a478.426,478.426,0,0,0-49.5,220.662,18.3,18.3,0,0,0,11.673,17.207h0a20.914,20.914,0,0,0,19.44-2.11,18.565,18.565,0,0,0,7.891-15.967A436.564,436.564,0,0,1,439.786-47.066a426.269,426.269,0,0,1,130.96-97.67,433.619,433.619,0,0,1,465.882,56.769A429.214,429.214,0,0,1,1139.782,38a431.076,431.076,0,0,1,49.589,155.081c13.24,110.564-17.8,224.8-85.171,313.418A429.484,429.484,0,0,1,983.335,614.747a439.647,439.647,0,0,1-152.073,56.776c-76.885,13.394-157.019,4.747-231.743-25.008a434.476,434.476,0,0,1-108.947-62.841,20.787,20.787,0,0,0-5.2-3.028c-10.536-4.2-20.9,1.638-25.306,9.257-4.639,8.024-2.85,17,4.558,22.856a477.793,477.793,0,0,0,119.721,69.259,480.7,480.7,0,0,0,253.049,27.836c55-8.722,108.053-27.735,157.693-56.513A476.674,476.674,0,0,0,1123.063,545.31,465.514,465.514,0,0,0,1205.734,397.356Z" transform="translate(-286.806 228.399)"/></svg>