<svg xmlns="http://www.w3.org/2000/svg" width="387.828" height="387.749" viewBox="0 0 387.828 387.749"><defs><style>.a{opacity:0.12;}.b{fill:none;stroke:#fff;stroke-width:2px;}</style></defs><g class="a" transform="translate(-565.577 -50.512)"><path class="b" d="M576.961,244.5A182.531,182.531,0,1,1,785.469,425.24c-50.7,7.6-103.474-7.8-142.785-40.442-5.111-4.244-12.5,3.059-7.343,7.342a195.537,195.537,0,0,0,151.476,43.313c45.653-6.134,88.172-29.877,118.35-64.493,30.768-35.294,47.415-81.183,47.236-127.924-.178-46.758-18.14-92.113-49.03-127.038-30.688-34.692-73.62-56.68-119.352-62.825-46.688-6.273-95.041,5.742-133.8,32.336-52.1,35.749-83.408,95.941-83.648,158.993-.025,6.7,10.358,6.693,10.384,0Z"/></g></svg>