<svg xmlns="http://www.w3.org/2000/svg" width="652.825" height="652.718" viewBox="0 0 652.825 652.718"><defs><style>.a{opacity:0.25;mix-blend-mode:overlay;isolation:isolate;}.b{fill:none;stroke:#fff;stroke-width:2px;}</style></defs><g class="a" transform="translate(-433.267 81.871)"><path class="b" d="M476.115,365.307a310.755,310.755,0,0,1-4.858-229.383C498.768,62.279,554.775,1.52,625.365-32.789c71.337-34.669,154.52-40.038,229.86-15.545a308.1,308.1,0,0,1,201.264,375.376c-20.945,75.376-70.524,140.1-137.029,181.01-73.7,45.335-165.84,56.338-248.481,31.645-10.742-3.209-17.384,13.02-6.544,16.258,88.995,26.589,184.093,14.484,263.876-32.937C995.147,483.3,1045.47,418.3,1069.436,344.583c24.431-75.161,19.928-157.433-11.267-229.9C1026.963,42.192,969.07-16.358,898-50.159c-70.6-33.576-151.818-39.32-226.9-18.612C594.449-47.631,527.311,3.009,484.716,69.945c-57.254,89.977-66.058,204.158-24.725,302.229,4.391,10.418,20.513,3.546,16.124-6.867Z"/></g></svg>