<svg xmlns="http://www.w3.org/2000/svg" width="480.338" height="480.259" viewBox="0 0 480.338 480.259"><defs><style>.a{mix-blend-mode:overlay;isolation:isolate;}.b{fill:none;stroke:#fff;stroke-width:2px;opacity:0.25;}</style></defs><g class="a" transform="translate(-519.181 -4.18)"><path class="b" d="M967.762,155.512a228.4,228.4,0,0,1,3.571,168.59c-20.22,54.126-61.384,98.783-113.266,124A226.467,226.467,0,0,1,541.2,183.636C556.6,128.236,593.037,80.663,641.916,50.6,696.086,17.278,763.8,9.192,824.542,27.34c7.9,2.359,12.777-9.569,4.81-11.949A242.573,242.573,0,0,0,635.41,39.6C586.288,68.793,549.3,116.563,531.688,170.743c-17.956,55.241-14.647,115.709,8.281,168.97,22.935,53.279,65.485,96.311,117.72,121.155,51.891,24.677,111.582,28.9,166.763,13.679C880.79,459.01,930.135,421.79,961.44,372.6c42.08-66.131,48.551-150.051,18.172-222.13-3.226-7.657-15.076-2.606-11.85,5.047Z"/></g></svg>